<svg width="30" height="29" viewBox="0 0 30 29" fill="none" xmlns="http://www.w3.org/2000/svg">
<path d="M7.54623 4.2106C7.54623 4.2106 5.2716 4.3858 3.11478 6.42783C2.09029 7.42034 1.30974 8.63676 0.834365 9.98163C0.358996 11.3265 0.201745 12.7632 0.374955 14.1791C0.725363 16.8615 4.16601 22.2838 7.77883 25.1988C11.3917 28.1139 16.2913 29.3947 20.7198 28.1108C25.1482 26.827 27.2507 22.166 27.7158 21.5256C28.181 20.8852 30.1627 16.3903 28.5314 11.7323C26.9002 7.07427 24.976 4.03539 21.2454 1.99637C17.5147 -0.0426386 13.6089 -0.160442 11.3343 1.23817C9.05964 2.63678 8.41923 4.2106 8.41923 4.2106H7.54623Z" fill="#F0C376"/>
<path d="M29.1604 15.1638L28.8583 12.9043C28.8019 12.6566 28.7355 12.4058 28.6589 12.1521C28.6589 13.3876 28.5985 15.4991 28.1122 17.2693C27.3751 19.9547 26.6018 20.6978 22.6748 23.3319C18.7478 25.966 17.7268 25.6066 16.0594 25.7999C14.3919 25.9932 10.5616 24.9571 6.91854 22.4922C4.73613 21.0017 2.99892 18.9471 1.892 16.5473L0.327246 12.6989C0.304758 13.1931 0.324971 13.6883 0.38766 14.179C0.738068 16.8615 4.17872 22.2837 7.79154 25.1988C11.4044 28.1138 16.304 29.3946 20.7325 28.1108C25.1609 26.8269 27.2634 22.1659 27.7285 21.5255C28.0639 21.0452 29.2631 18.4141 29.1604 15.1638Z" fill="#362822"/>
<path d="M9.5858 4.96896C9.5858 4.96896 10.2866 4.85417 11.6852 7.7692C13.0838 10.6842 15.9415 12.9045 17.1226 15.2879C18.3037 17.6712 19.2794 20.0093 19.6298 20.9427C19.9802 21.8761 20.7958 22.6313 21.0858 23.45C21.3758 24.2686 21.4362 25.4316 21.7262 25.3712C22.0162 25.3107 21.1432 22.867 21.3184 22.2235C21.4936 21.5801 22.427 20.3023 22.2518 19.6589C22.0766 19.0155 20.968 17.9703 21.2036 17.7347C21.4393 17.4991 24.5265 16.9795 23.1853 16.9795C21.844 16.9795 20.385 17.3873 20.1645 16.8043C19.944 16.2213 19.9319 14.9918 19.9319 14.9918C19.9319 14.9918 20.3971 14.8771 19.8141 14.4088C19.2311 13.9406 18.6511 12.4876 18.6511 12.4876C18.6511 12.4876 16.9595 9.80519 15.7361 8.46397C14.5127 7.12276 13.9236 6.53975 13.2288 6.18934C12.5341 5.83893 12.5884 6.01716 12.0054 5.37374C11.4224 4.73032 11.7698 4.32553 11.1294 4.50074C10.489 4.67594 8.83061 3.80295 9.5858 4.96896Z" fill="#362822" stroke="#362822" stroke-width="0.614029" stroke-miterlimit="10"/>
<path d="M5.21484 21.2324C5.21484 21.2324 7.72207 22.9814 9.74598 24.2532C11.7699 25.5249 16.0896 25.7636 17.7329 25.5944" stroke="#1A3447" stroke-width="0.614029" stroke-miterlimit="10"/>
<path d="M19.2051 25.3709C19.2051 25.3709 20.6037 24.9631 21.0175 24.6157" stroke="#1A3447" stroke-width="0.614029" stroke-miterlimit="10"/>
<path d="M22.2363 23.7397C22.2363 23.7397 24.3509 22.4589 25.384 21.4077C26.4171 20.3564 27.2508 20.1269 28.1238 17.2692C28.9968 14.4116 28.4742 12.8982 28.4742 12.8982" stroke="#1A3447" stroke-width="0.614029" stroke-miterlimit="10"/>
<path d="M7.54623 4.2106C7.54623 4.2106 5.2716 4.3858 3.11478 6.42783C2.09029 7.42034 1.30974 8.63676 0.834365 9.98163C0.358996 11.3265 0.201745 12.7632 0.374955 14.1791C0.725363 16.8615 4.16601 22.2838 7.77883 25.1988C11.3917 28.1139 16.2913 29.3947 20.7198 28.1108C25.1482 26.827 27.2507 22.166 27.7158 21.5256C28.181 20.8852 30.1627 16.3903 28.5314 11.7323C26.9002 7.07427 24.976 4.03539 21.2454 1.99637C17.5147 -0.0426386 13.6089 -0.160442 11.3343 1.23817C9.05964 2.63678 8.41923 4.2106 8.41923 4.2106H7.54623Z" stroke="#1A3447" stroke-width="0.614029" stroke-miterlimit="10"/>
<path d="M13.0442 23.2897C13.0442 23.4407 12.7814 23.5616 12.4582 23.5616C12.135 23.5616 11.8691 23.4407 11.8691 23.2897C11.8691 23.1387 12.1319 23.0178 12.4582 23.0178C12.7844 23.0178 13.0442 23.1417 13.0442 23.2897Z" stroke="#1A3447" stroke-width="0.614029" stroke-miterlimit="10"/>
<path d="M14.3098 1.95107C14.3098 2.1021 14.047 2.22293 13.7238 2.22293C13.4006 2.22293 13.1348 2.1021 13.1348 1.95107C13.1348 1.80003 13.3976 1.6792 13.7238 1.6792C14.0501 1.6792 14.3098 1.80305 14.3098 1.95107Z" stroke="#1A3447" stroke-width="0.614029" stroke-miterlimit="10"/>
<path d="M17.5664 1.80295C17.5664 2.12013 17.1616 2.37991 16.6601 2.37991C16.1587 2.37991 15.7539 2.12013 15.7539 1.80295C15.7539 1.48577 16.1587 1.229 16.6601 1.229C17.1616 1.229 17.5664 1.48577 17.5664 1.80295Z" stroke="#1A3447" stroke-width="0.614029" stroke-miterlimit="10"/>
</svg>
