<svg width="368" height="390" viewBox="0 0 368 390" fill="none" xmlns="http://www.w3.org/2000/svg">
<path d="M275.868 111.249C276.809 130.788 272.039 154.296 256.949 166.837C234.148 185.785 240.133 209.392 192.405 226.446C185.437 228.972 178.204 230.69 170.845 231.569C167.232 231.988 163.595 232.165 159.959 232.098C127.779 231.519 102.954 211.516 90.7359 184.961C74.6505 150.042 91.1822 123.528 102.366 107.387C113.55 91.2464 116.238 45.3181 163.007 28.1454C170.153 25.4909 177.596 23.7175 185.171 22.8646C202.495 20.9769 222.275 24.3736 237.282 35.0113C238.412 35.8091 239.52 36.6483 240.605 37.5148C261.86 54.5322 274.586 84.6143 275.868 111.249Z" fill="#F0C376"/>
<path opacity="0.7" d="M275.868 111.249C276.809 130.788 272.039 154.296 256.949 166.837C234.148 185.785 240.133 209.392 192.405 226.446C185.437 228.972 178.204 230.69 170.845 231.569C167.232 231.988 163.595 232.165 159.959 232.098C127.779 231.519 102.954 211.516 90.7359 184.961C74.6505 150.042 91.1822 123.528 102.366 107.387C113.55 91.2464 116.238 45.3181 163.007 28.1454C170.153 25.4909 177.596 23.7175 185.171 22.8646C202.495 20.9769 222.275 24.3736 237.282 35.0113C238.412 35.8091 239.52 36.6483 240.605 37.5148C261.86 54.5322 274.586 84.6143 275.868 111.249Z" fill="#FAEDD6"/>
<path d="M196.941 175.128C196.941 175.128 185.413 184.523 180.034 186.538C174.655 188.553 156.324 191.04 143.475 199.918C130.626 208.796 114.418 230.366 111.538 238.855C108.657 247.344 107.194 253.325 107.194 253.325C107.194 253.325 94.3133 282.24 93.1217 299.151C91.9301 316.062 93.7531 338.008 95.8197 343.517C97.8864 349.026 103.198 360.829 103.678 365.665C104.159 370.501 103.533 377.348 105.813 376.771C108.094 376.194 116.24 370.453 116.24 370.453C116.24 370.453 134.681 364.91 146.418 358.035C158.155 351.16 172.062 336.434 181.153 308.466C190.244 280.498 195.005 249.337 194.518 242.778C194.03 236.219 191.084 214.546 189.162 208.79C187.241 203.033 183.967 197.031 186.532 191.13C187.593 188.712 197.375 187.516 200.109 181.002C202.844 174.489 198.75 174.246 196.941 175.128Z" fill="#F0C376" stroke="#1A3447" stroke-width="1.02303" stroke-miterlimit="10"/>
<path d="M106.482 368.179C106.482 368.179 124.331 333.462 133.651 302.218C141.393 275.978 150.463 250.149 160.826 224.829C168.884 205.536 179.5 190.339 182.312 187.689" stroke="#1A3447" stroke-width="1.02303" stroke-miterlimit="10"/>
<path d="M183.479 191.915C176.176 201.079 169.95 211.051 164.926 221.637C156.351 239.55 143.612 272.746 140.191 285.04" stroke="#1A3447" stroke-width="1.02303" stroke-miterlimit="10"/>
<path d="M133.288 233.78C144.575 229.286 160.826 224.829 160.826 224.829" stroke="#1A3447" stroke-width="1.02303" stroke-miterlimit="10"/>
<path d="M112.685 246.547C112.685 246.547 117.834 240.922 128.545 235.83C129.288 235.477 130.092 235.117 130.938 234.753" stroke="#1A3447" stroke-width="1.02303" stroke-miterlimit="10"/>
<path d="M153.333 208.445C161.683 206.443 169.847 203.937 171.089 202.823" stroke="#1A3447" stroke-width="1.02303" stroke-miterlimit="10"/>
<path d="M127.482 218.857C127.482 218.857 142.406 211.001 151.363 208.909" stroke="#1A3447" stroke-width="1.02303" stroke-miterlimit="10"/>
<path d="M107.612 267.451C113.796 261.967 121.105 257.902 129.027 255.544C141.86 251.847 149.135 249.353 149.135 249.353" stroke="#1A3447" stroke-width="1.02303" stroke-miterlimit="10"/>
<path d="M136.591 274.386C138.007 274.186 139.393 273.809 140.715 273.265" stroke="#1A3447" stroke-width="1.02303" stroke-miterlimit="10"/>
<path d="M97.6438 287.222C97.6438 287.222 105.111 283.815 115.854 279.795C121.724 277.741 127.739 276.125 133.848 274.958" stroke="#1A3447" stroke-width="1.02303" stroke-miterlimit="10"/>
<path d="M121.623 311.25C125.721 308.931 128.926 307.086 128.926 307.086" stroke="#1A3447" stroke-width="1.02303" stroke-miterlimit="10"/>
<path d="M96.5545 317.676C96.5545 317.676 112.191 316.506 117.887 313.333L119.027 312.7" stroke="#1A3447" stroke-width="1.02303" stroke-miterlimit="10"/>
<path d="M96.3895 301.988C96.3895 301.988 115.603 296.236 123.339 294.065C131.075 291.893 133.472 289.983 133.472 289.983" stroke="#1A3447" stroke-width="1.02303" stroke-miterlimit="10"/>
<path d="M100.281 332.25C100.281 332.25 117.249 329.885 122.861 326.297" stroke="#1A3447" stroke-width="1.02303" stroke-miterlimit="10"/>
<path d="M100.4 348.604C100.4 348.604 113.132 346.231 116.236 343.073" stroke="#1A3447" stroke-width="1.02303" stroke-miterlimit="10"/>
<path d="M166.656 220.359C169.958 228.116 174.009 235.533 178.753 242.503C186.253 253.319 187.404 260.998 187.866 264.764" stroke="#1A3447" stroke-width="1.02303" stroke-miterlimit="10"/>
<path d="M173.104 273.127C173.959 274.91 174.733 276.57 175.396 278.041C180.735 289.87 179.624 299.164 179.624 299.164" stroke="#1A3447" stroke-width="1.02303" stroke-miterlimit="10"/>
<path d="M157.048 241.742C157.048 241.742 165.357 257.345 171.41 269.65" stroke="#1A3447" stroke-width="1.02303" stroke-miterlimit="10"/>
<path d="M167.267 321.409C167.742 323.737 167.913 326.117 167.777 328.489" stroke="#1A3447" stroke-width="1.02303" stroke-miterlimit="10"/>
<path d="M146.871 267.607C146.871 267.607 150.487 275.53 158.284 293.805C161.434 300.976 164.054 308.368 166.122 315.923" stroke="#1A3447" stroke-width="1.02303" stroke-miterlimit="10"/>
<path d="M141.121 304.757C142.59 308.054 144.358 312.215 146.31 317.111C150 326.47 151.932 336.43 152.01 346.491" stroke="#1A3447" stroke-width="1.02303" stroke-miterlimit="10"/>
<path d="M137.096 296.173C137.096 296.173 138.124 298.171 139.809 301.852" stroke="#1A3447" stroke-width="1.02303" stroke-miterlimit="10"/>
<path d="M131.137 325.655C132.819 329.917 135.308 336.496 137.74 343.002C141.873 354.021 141.241 357.416 141.241 357.416" stroke="#1A3447" stroke-width="1.02303" stroke-miterlimit="10"/>
<path d="M129.249 320.795C129.249 320.795 129.607 321.731 130.225 323.319" stroke="#1A3447" stroke-width="1.02303" stroke-miterlimit="10"/>
<path d="M119.07 344.943C119.07 344.943 120.863 349.242 122.634 355.238C124.406 361.234 124.446 364.05 124.446 364.05" stroke="#1A3447" stroke-width="1.02303" stroke-miterlimit="10"/>
<path d="M125.166 330.241C125.166 330.241 127.642 340.173 130.394 349.608C133.147 359.043 132.571 361.769 132.571 361.769" stroke="#1A3447" stroke-width="1.02303" stroke-miterlimit="10"/>
<path d="M181.205 221.589C190.494 234.968 191.606 241.58 191.606 241.58" stroke="#1A3447" stroke-width="1.02303" stroke-miterlimit="10"/>
<path d="M174.167 204.844C174.167 204.844 172.286 207.664 179.083 218.391" stroke="#1A3447" stroke-width="1.02303" stroke-miterlimit="10"/>
<path d="M173.26 105.296C173.26 105.296 180.295 118.405 181.244 124.061C182.194 129.718 181.153 148.171 187.433 162.504C193.712 176.836 211.805 196.805 219.591 201.258C227.377 205.712 232.975 208.266 232.975 208.266C232.975 208.266 258.925 226.433 275.285 230.792C291.646 235.152 313.583 237.565 319.36 236.581C325.136 235.598 337.755 232.63 342.599 233.052C347.443 233.474 354.008 235.464 353.9 233.064C353.791 230.664 349.706 221.583 349.706 221.583C349.706 221.583 347.771 202.421 343.266 189.623C338.761 176.824 326.929 160.345 301.203 146.099C275.477 131.853 245.78 121.264 239.248 120.499C232.715 119.734 210.884 118.508 204.858 119.294C198.832 120.079 192.327 122.16 187.025 118.516C184.851 117.024 185.533 107.189 179.663 103.26C173.793 99.3303 172.724 103.349 173.26 105.296Z" fill="#F0C376" stroke="#1A3447" stroke-width="1.02303" stroke-miterlimit="10"/>
<path d="M345.602 230.792C345.602 230.792 314.916 206.711 286.006 191.587C261.719 179.005 238.087 165.2 215.199 150.224C197.792 138.598 184.889 125.341 182.833 122.099" stroke="#1A3447" stroke-width="1.02303" stroke-miterlimit="10"/>
<path d="M187.189 121.722C194.795 130.633 203.4 138.64 212.835 145.585C228.796 157.409 258.998 176.196 270.381 181.927" stroke="#1A3447" stroke-width="1.02303" stroke-miterlimit="10"/>
<path d="M218.748 178.937C216.45 167.009 215.183 150.2 215.183 150.2" stroke="#1A3447" stroke-width="1.02303" stroke-miterlimit="10"/>
<path d="M227.371 201.606C227.371 201.606 222.825 195.48 219.869 184.002C219.654 183.202 219.457 182.346 219.287 181.429" stroke="#1A3447" stroke-width="1.02303" stroke-miterlimit="10"/>
<path d="M197.683 154.432C197.302 145.87 196.407 137.357 195.502 135.967" stroke="#1A3447" stroke-width="1.02303" stroke-miterlimit="10"/>
<path d="M202.988 181.796C202.988 181.796 198.085 165.682 197.761 156.469" stroke="#1A3447" stroke-width="1.02303" stroke-miterlimit="10"/>
<path d="M246.916 210.551C242.709 203.436 240.109 195.487 239.298 187.261C238.113 173.953 237.047 166.338 237.047 166.338" stroke="#1A3447" stroke-width="1.02303" stroke-miterlimit="10"/>
<path d="M259.233 183.411C259.309 181.982 259.203 180.549 258.917 179.146" stroke="#1A3447" stroke-width="1.02303" stroke-miterlimit="10"/>
<path d="M264.441 224.089C264.441 224.089 262.521 216.101 260.622 204.787C259.721 198.634 259.277 192.423 259.293 186.204" stroke="#1A3447" stroke-width="1.02303" stroke-miterlimit="10"/>
<path d="M292.562 205.084C291.061 200.595 289.864 197.111 289.864 197.111" stroke="#1A3447" stroke-width="1.02303" stroke-miterlimit="10"/>
<path d="M294.133 230.943C294.133 230.943 295.953 215.383 293.942 209.203C293.804 208.79 293.667 208.377 293.536 207.959" stroke="#1A3447" stroke-width="1.02303" stroke-miterlimit="10"/>
<path d="M278.688 228.128C278.688 228.128 276.701 208.181 276.027 200.158C275.352 192.136 273.969 189.473 273.969 189.473" stroke="#1A3447" stroke-width="1.02303" stroke-miterlimit="10"/>
<path d="M309.146 230.057C309.146 230.057 310.04 212.957 307.597 206.753" stroke="#1A3447" stroke-width="1.02303" stroke-miterlimit="10"/>
<path d="M325.213 233.024C325.213 233.024 325.296 220.07 322.787 216.434" stroke="#1A3447" stroke-width="1.02303" stroke-miterlimit="10"/>
<path d="M211.884 143.636C220.13 141.872 228.183 139.303 235.927 135.966C247.966 130.664 255.724 130.993 259.502 131.256" stroke="#1A3447" stroke-width="1.02303" stroke-miterlimit="10"/>
<path d="M264.936 147.331C266.85 146.828 268.634 146.377 270.196 146.006C282.79 143.033 291.736 145.878 291.736 145.878" stroke="#1A3447" stroke-width="1.02303" stroke-miterlimit="10"/>
<path d="M231.07 157.122C231.07 157.122 247.972 151.935 261.203 148.329" stroke="#1A3447" stroke-width="1.02303" stroke-miterlimit="10"/>
<path d="M311.215 162.2C313.597 162.179 315.97 162.472 318.275 163.07" stroke="#1A3447" stroke-width="1.02303" stroke-miterlimit="10"/>
<path d="M254.527 172.034C254.527 172.034 263.022 169.97 282.429 165.809C290.07 164.078 297.829 162.918 305.643 162.34" stroke="#1A3447" stroke-width="1.02303" stroke-miterlimit="10"/>
<path d="M289.918 184.733C293.427 183.925 297.846 182.972 303.033 181.99C312.921 180.145 323.063 180.139 332.953 181.972" stroke="#1A3447" stroke-width="1.02303" stroke-miterlimit="10"/>
<path d="M280.719 187.059C280.719 187.059 282.878 186.43 286.814 185.474" stroke="#1A3447" stroke-width="1.02303" stroke-miterlimit="10"/>
<path d="M308.529 198.515C313.076 197.742 319.997 196.516 326.833 195.346C338.437 193.39 341.676 194.637 341.676 194.637" stroke="#1A3447" stroke-width="1.02303" stroke-miterlimit="10"/>
<path d="M303.408 199.444L306.066 198.96" stroke="#1A3447" stroke-width="1.02303" stroke-miterlimit="10"/>
<path d="M325.171 214.018C325.171 214.018 329.72 213.079 335.955 212.464C342.19 211.848 344.949 212.359 344.949 212.359" stroke="#1A3447" stroke-width="1.02303" stroke-miterlimit="10"/>
<path d="M311.902 205.24C311.902 205.24 322.121 204.699 331.909 203.782C341.698 202.865 344.26 203.963 344.26 203.963" stroke="#1A3447" stroke-width="1.02303" stroke-miterlimit="10"/>
<path d="M215.88 129.577C230.78 122.993 237.484 123.166 237.484 123.166" stroke="#1A3447" stroke-width="1.02303" stroke-miterlimit="10"/>
<path d="M198.098 133.312C198.098 133.312 200.509 135.689 212.336 131.052" stroke="#1A3447" stroke-width="1.02303" stroke-miterlimit="10"/>
<path d="M237.548 78.7971C237.548 78.7971 242.416 80.2224 246.18 85.6478C247.96 88.28 249.106 91.2893 249.526 94.439C249.945 97.5888 249.629 100.793 248.601 103.8C246.584 109.48 236.641 119.713 227.437 124.405C218.233 129.098 206.979 129.656 197.917 124.836C188.854 120.015 186.414 108.896 185.694 107.282C184.975 105.669 182.709 94.9926 188.383 85.5805C194.058 76.1685 199.651 70.4473 208.707 67.711C217.763 64.9748 226.328 66.5076 230.637 70.5952C234.946 74.6827 235.625 78.4072 235.625 78.4072L237.548 78.7971Z" fill="white"/>
<path d="M185.458 92.7669L187.125 87.9735C187.361 87.4558 187.623 86.9382 187.905 86.4272C187.32 89.1164 186.5 93.7485 186.749 97.8226C187.132 104.008 188.457 105.977 195.798 113.514C203.139 121.05 205.533 120.728 209.083 121.911C212.632 123.094 221.433 122.583 230.502 118.892C235.95 116.654 240.688 112.978 244.21 108.257L249.413 100.599C249.233 101.685 248.961 102.753 248.6 103.793C246.583 109.473 236.64 119.706 227.436 124.398C218.232 129.091 206.978 129.649 197.916 124.829C188.853 120.008 186.413 108.889 185.694 107.275C185.149 106.072 183.751 99.7655 185.458 92.7669Z" fill="#362822"/>
<path d="M232.754 79.5163C232.754 79.5163 231.282 78.9448 226.905 84.6526C222.528 90.3603 215.288 93.8764 211.651 98.5488C208.014 103.221 204.793 107.847 203.583 109.716C202.373 111.585 200.276 112.862 199.267 114.509C198.259 116.156 197.593 118.664 196.988 118.402C196.383 118.139 199.402 113.211 199.314 111.732C199.227 110.253 197.788 107.026 198.46 105.722C199.133 104.418 202.024 102.63 201.627 102.011C201.23 101.393 194.736 98.8379 197.654 99.4564C200.571 100.075 203.563 101.621 204.336 100.458C205.109 99.2951 205.681 96.6328 205.681 96.6328C205.681 96.6328 204.719 96.1622 206.198 95.4159C207.677 94.6697 209.62 91.7587 209.62 91.7587C209.62 91.7587 214.528 86.6896 217.809 84.3635C221.09 82.0373 222.623 81.002 224.31 80.5583C225.997 80.1146 225.782 80.4709 227.349 79.3415C228.915 78.212 228.337 77.1632 229.655 77.8423C230.972 78.5213 234.939 77.3246 232.754 79.5163Z" fill="#362822" stroke="#362822" stroke-width="0.750697" stroke-miterlimit="10"/>
<path d="M234.832 116.943C234.832 116.943 228.573 119.598 223.544 121.461C218.515 123.323 209.009 121.857 205.533 120.728" stroke="#1A3447" stroke-width="0.750697" stroke-miterlimit="10"/>
<path d="M202.465 119.552C202.465 119.552 199.608 118.026 198.875 117.078" stroke="#1A3447" stroke-width="0.750697" stroke-miterlimit="10"/>
<path d="M196.612 114.61C196.612 114.61 192.632 110.858 190.824 108.088C189.015 105.319 187.375 104.472 186.749 97.8226C186.124 91.1736 187.986 88.1416 187.986 88.1416" stroke="#1A3447" stroke-width="0.750697" stroke-miterlimit="10"/>
<path d="M237.548 78.7971C237.548 78.7971 242.416 80.2224 246.18 85.6478C247.96 88.28 249.106 91.2893 249.526 94.439C249.945 97.5888 249.629 100.793 248.601 103.8C246.584 109.48 236.641 119.713 227.437 124.405C218.233 129.098 206.979 129.656 197.917 124.836C188.854 120.015 186.414 108.896 185.694 107.282C184.975 105.669 182.709 94.9926 188.383 85.5805C194.058 76.1685 199.651 70.4473 208.707 67.711C217.763 64.9748 226.328 66.5076 230.637 70.5952C234.946 74.6827 235.625 78.4072 235.625 78.4072L237.548 78.7971Z" stroke="#1A3447" stroke-width="0.750697" stroke-miterlimit="10"/>
<path d="M216.843 117.837C216.769 118.16 217.287 118.549 217.993 118.697C218.699 118.845 219.337 118.697 219.398 118.375C219.458 118.052 218.954 117.662 218.241 117.514C217.529 117.366 216.91 117.507 216.843 117.837Z" stroke="#1A3447" stroke-width="0.750697" stroke-miterlimit="10"/>
<path d="M226.429 71.3442C226.497 71.0171 225.979 70.6313 225.27 70.4824C224.562 70.3335 223.931 70.4778 223.863 70.8049C223.794 71.1319 224.313 71.5177 225.021 71.6666C225.73 71.8156 226.36 71.6712 226.429 71.3442Z" stroke="#1A3447" stroke-width="0.750697" stroke-miterlimit="10"/>
<path d="M216.821 68.9683C216.673 69.6405 217.44 70.407 218.529 70.6355C219.618 70.8641 220.619 70.4876 220.761 69.7952C220.902 69.1027 220.142 68.3565 219.053 68.1279C217.964 67.8993 216.955 68.2758 216.821 68.9683Z" stroke="#1A3447" stroke-width="0.750697" stroke-miterlimit="10"/>
<path d="M151.251 183.285C151.251 183.285 147.378 178.989 129.559 172.333C111.741 165.678 90.6833 162.884 84.8847 163.529C79.0861 164.175 75.4356 162.884 68.9914 164.821C62.5473 166.757 59.7538 167.18 58.8968 168.248C58.0398 169.317 55.6692 171.476 55.4577 172.122C55.2462 172.767 45.363 174.915 45.1516 192.956C44.9401 210.998 55.4577 223.663 75.4356 233.112C95.4134 242.562 105.285 247.503 126.977 246.858C148.669 246.212 158.986 235.049 165.642 226.023C172.298 216.997 170.584 201.76 165.642 194.67C162.302 190.2 157.758 186.772 152.542 184.787L151.251 183.285Z" fill="white"/>
<path d="M167.801 209.495C167.178 217.764 161.602 224.164 156.849 227.47C152.097 230.775 139.754 233.224 136.638 233.457C133.521 233.691 112.052 232.634 102.558 230.987C93.0647 229.339 83.1482 224.097 75.0791 220.858C67.0101 217.62 56.6928 209.907 50.4936 200.825C46.3088 194.67 46.3644 186.646 46.843 182.083C45.6832 185.589 45.1079 189.263 45.1402 192.956C44.9176 210.998 55.4463 223.663 75.4241 233.112C95.402 242.561 105.274 247.503 126.966 246.858C148.658 246.212 158.975 235.049 165.631 226.023C170.717 219.122 170.906 208.594 168.502 200.847C168.335 203.04 168.112 205.967 167.801 209.495Z" fill="#362822"/>
<path d="M60.6123 176.195C60.6123 176.195 69.85 182.873 71.3525 183.93C72.855 184.988 78.6536 187.37 83.5952 189.729C88.5368 192.089 100.134 196.407 112.588 200.258C125.042 204.109 139.867 209.918 142.449 210.775C145.031 211.632 148.248 213.78 148.671 216.797C149.094 219.813 141.804 228.394 144.809 229.039C147.814 229.685 151.676 224.309 152.321 222.161C152.967 220.013 151.676 217.865 153.612 217.219C155.549 216.574 159.845 218.722 159.845 217.219C159.845 215.717 154.28 212.5 154.28 212.5C150.083 209.774 145.707 207.335 141.18 205.199C134.948 202.406 132.154 203.051 124.642 198.967C117.129 194.882 110.663 190.375 104.219 187.592C99.4357 185.709 94.4661 184.34 89.3938 183.508C88.5368 183.296 92.6103 186.947 85.9547 181.582C79.2991 176.218 71.141 176.206 68.993 175.784C66.845 175.361 55.0252 170.619 60.6123 176.195Z" fill="#362822" stroke="#362822" stroke-width="1.24277" stroke-miterlimit="10"/>
<path d="M47.2976 191.443C47.2976 191.443 45.1495 200.469 57.6037 209.25C70.0578 218.032 75.6449 221.927 83.202 224.075" stroke="#1A3447" stroke-width="1.24277" stroke-miterlimit="10"/>
<path d="M87.2441 225.6C95.8001 229.039 104.744 231.419 113.878 232.689C127.834 234.403 145.041 232.467 145.041 232.467" stroke="#1A3447" stroke-width="1.24277" stroke-miterlimit="10"/>
<path d="M152.541 229.462C155.095 228.473 157.482 227.1 159.62 225.388C163.136 222.511 165.687 218.627 166.932 214.258" stroke="#1A3447" stroke-width="1.24277" stroke-miterlimit="10"/>
<path d="M151.251 183.285C151.251 183.285 147.378 178.989 129.559 172.333C111.741 165.678 90.6833 162.884 84.8847 163.529C79.0861 164.175 75.4356 162.884 68.9914 164.821C62.5473 166.757 59.7538 167.18 58.8968 168.248C58.0398 169.317 55.6692 171.476 55.4577 172.122C55.2462 172.767 45.363 174.915 45.1516 192.956C44.9401 210.998 55.4577 223.663 75.4356 233.112C95.4134 242.562 105.285 247.503 126.977 246.858C148.669 246.212 158.986 235.049 165.642 226.023C172.298 216.997 170.584 201.76 165.642 194.67C162.302 190.2 157.758 186.772 152.542 184.787L151.251 183.285Z" stroke="#1A3447" stroke-width="1.24277" stroke-miterlimit="10"/>
<path d="M75.6122 212.489C76.9891 212.489 78.1053 211.741 78.1053 210.819C78.1053 209.897 76.9891 209.15 75.6122 209.15C74.2353 209.15 73.1191 209.897 73.1191 210.819C73.1191 211.741 74.2353 212.489 75.6122 212.489Z" stroke="#1A3447" stroke-width="1.24277" stroke-miterlimit="10"/>
<path d="M87.4352 217.821C87.4352 218.366 86.6895 218.822 85.7769 218.822C84.8642 218.822 84.1074 218.366 84.1074 217.821C84.1074 217.275 84.8531 216.819 85.7769 216.819C86.7006 216.819 87.4352 217.264 87.4352 217.821Z" stroke="#1A3447" stroke-width="1.24277" stroke-miterlimit="10"/>
<path d="M110.592 215.16C111.238 215.16 111.761 214.861 111.761 214.492C111.761 214.124 111.238 213.825 110.592 213.825C109.947 213.825 109.424 214.124 109.424 214.492C109.424 214.861 109.947 215.16 110.592 215.16Z" stroke="#1A3447" stroke-width="1.24277" stroke-miterlimit="10"/>
<path d="M158.064 192.5C158.064 193.056 157.096 193.501 155.894 193.501C154.692 193.501 153.734 193.056 153.734 192.5C153.734 191.943 154.703 191.498 155.894 191.498C157.084 191.498 158.064 191.943 158.064 192.5Z" stroke="#1A3447" stroke-width="1.24277" stroke-miterlimit="10"/>
</svg>
