<svg width="309" height="241" viewBox="0 0 309 241" fill="none" xmlns="http://www.w3.org/2000/svg">
<path d="M157.931 141.568C158.585 155.143 155.27 171.476 144.786 180.189C128.945 193.353 133.103 209.754 99.9435 221.603C95.1028 223.357 90.0769 224.551 84.9643 225.162C82.4543 225.453 79.9275 225.576 77.4011 225.53C55.0434 225.127 37.7962 211.23 29.3074 192.781C18.1318 168.52 29.6175 150.099 37.3878 138.885C45.1582 127.671 47.0256 95.7611 79.5191 83.8302C84.4838 81.9859 89.6548 80.7538 94.9177 80.1612C106.954 78.8497 120.696 81.2096 131.122 88.6003C131.908 89.1547 132.678 89.7377 133.431 90.3397C148.199 102.163 157.04 123.063 157.931 141.568Z" fill="#F0C376"/>
<path opacity="0.7" d="M157.931 141.568C158.585 155.143 155.27 171.476 144.786 180.189C128.945 193.353 133.103 209.754 99.9435 221.603C95.1028 223.357 90.0769 224.551 84.9643 225.162C82.4543 225.453 79.9275 225.576 77.4011 225.53C55.0434 225.127 37.7962 211.23 29.3074 192.781C18.1318 168.52 29.6175 150.099 37.3878 138.885C45.1582 127.671 47.0256 95.7611 79.5191 83.8302C84.4838 81.9859 89.6548 80.7538 94.9177 80.1612C106.954 78.8497 120.696 81.2096 131.122 88.6003C131.908 89.1547 132.678 89.7377 133.431 90.3397C148.199 102.163 157.04 123.063 157.931 141.568Z" fill="#FAEDD6"/>
<path d="M177.05 99.4341C177.05 99.4341 185.284 102.144 187.962 104.152C190.641 106.161 197.619 114.381 206.013 117.902C214.407 121.423 230.088 122.607 235.161 121.356C240.234 120.104 243.631 118.944 243.631 118.944C243.631 118.944 261.873 116.189 270.551 111.463C279.229 106.737 289.432 98.9503 291.488 96.2056C293.544 93.4607 297.672 87.146 299.895 85.3913C302.119 83.6366 305.678 81.794 304.678 80.8555C303.678 79.9169 298.301 77.7195 298.301 77.7195C298.301 77.7195 289.788 70.4055 282.727 66.8016C275.665 63.1976 264.067 60.9938 247.479 65.3128C230.892 69.6318 214.096 77.0802 211.029 79.3792C207.961 81.6782 198.245 89.9313 196.021 92.6826C193.798 95.4339 191.879 98.9262 188.176 99.5196C186.656 99.758 182.997 95.3309 178.94 96.0338C174.883 96.7366 176.049 98.823 177.05 99.4341Z" fill="#F0C376" stroke="#1A3447" stroke-width="0.596277" stroke-miterlimit="10"/>
<path d="M300.251 83.2243C300.251 83.2243 277.599 85.3631 259.331 90.5984C244.015 95.0374 228.484 98.6955 212.798 101.558C200.794 103.66 189.998 103.22 187.814 102.672" stroke="#1A3447" stroke-width="0.596277" stroke-miterlimit="10"/>
<path d="M189.52 100.772C196.313 101.481 203.165 101.406 209.941 100.549C221.429 99.1334 241.729 94.9639 248.84 92.7823" stroke="#1A3447" stroke-width="0.596277" stroke-miterlimit="10"/>
<path d="M225.838 112.269C220.087 108.139 212.795 101.559 212.795 101.559" stroke="#1A3447" stroke-width="0.596277" stroke-miterlimit="10"/>
<path d="M238.578 118.377C238.578 118.377 234.199 117.615 228.335 113.955C227.928 113.701 227.499 113.419 227.055 113.118" stroke="#1A3447" stroke-width="0.596277" stroke-miterlimit="10"/>
<path d="M207.105 110.383C203.5 106.913 199.706 103.69 198.769 103.431" stroke="#1A3447" stroke-width="0.596277" stroke-miterlimit="10"/>
<path d="M220.336 119.808C220.336 119.808 211.792 114.947 207.951 111.206" stroke="#1A3447" stroke-width="0.596277" stroke-miterlimit="10"/>
<path d="M250.436 114.304C245.801 112.99 241.51 110.677 237.864 107.528C232.019 102.388 228.51 99.5989 228.51 99.5989" stroke="#1A3447" stroke-width="0.596277" stroke-miterlimit="10"/>
<path d="M244.74 97.8962C244.197 97.2636 243.577 96.7016 242.895 96.2234" stroke="#1A3447" stroke-width="0.596277" stroke-miterlimit="10"/>
<path d="M263.274 112.989C263.274 112.989 259.256 110.392 253.909 106.38C251.056 104.142 248.374 101.697 245.883 99.0635" stroke="#1A3447" stroke-width="0.596277" stroke-miterlimit="10"/>
<path d="M267.541 93.6678C265.116 92.3833 263.203 91.3894 263.203 91.3894" stroke="#1A3447" stroke-width="0.596277" stroke-miterlimit="10"/>
<path d="M278.569 103.959C278.569 103.959 273.084 96.6495 269.737 94.8487L269.068 94.4875" stroke="#1A3447" stroke-width="0.596277" stroke-miterlimit="10"/>
<path d="M270.918 108.968C270.918 108.968 262.061 101.34 258.565 98.2234C255.069 95.1068 253.378 94.5297 253.378 94.5297" stroke="#1A3447" stroke-width="0.596277" stroke-miterlimit="10"/>
<path d="M284.555 97.5534C284.555 97.5534 278.065 89.9647 274.541 88.3357" stroke="#1A3447" stroke-width="0.596277" stroke-miterlimit="10"/>
<path d="M292.549 92.3597C292.549 92.3597 287.385 86.8536 284.859 86.321" stroke="#1A3447" stroke-width="0.596277" stroke-miterlimit="10"/>
<path d="M208.77 100.101C211.543 96.044 213.912 91.7255 215.845 87.2073C218.8 80.128 222.209 77.1513 223.914 75.7418" stroke="#1A3447" stroke-width="0.596277" stroke-miterlimit="10"/>
<path d="M232.655 80.3634C233.262 79.3838 233.834 78.4821 234.348 77.6949C238.48 71.3585 243.392 68.9853 243.392 68.9853" stroke="#1A3447" stroke-width="0.596277" stroke-miterlimit="10"/>
<path d="M222.288 98.1034C222.288 98.1034 227.339 89.1238 231.48 82.2875" stroke="#1A3447" stroke-width="0.596277" stroke-miterlimit="10"/>
<path d="M258.197 68.0674C259.192 67.1034 260.307 66.272 261.514 65.5938" stroke="#1A3447" stroke-width="0.596277" stroke-miterlimit="10"/>
<path d="M238.183 94.9777C238.183 94.9777 240.938 90.7144 247.463 81.1468C249.995 77.3479 252.802 73.74 255.862 70.352" stroke="#1A3447" stroke-width="0.596277" stroke-miterlimit="10"/>
<path d="M258.231 86.1339C259.389 84.3777 260.877 82.2023 262.667 79.7068C266.104 74.9556 270.388 70.8789 275.303 67.6811" stroke="#1A3447" stroke-width="0.596277" stroke-miterlimit="10"/>
<path d="M255.281 90.8066C255.281 90.8066 255.939 89.6744 257.217 87.6912" stroke="#1A3447" stroke-width="0.596277" stroke-miterlimit="10"/>
<path d="M271.628 84.4745C273.193 82.3104 275.642 79.0222 278.073 75.7848C282.185 70.2952 284.051 69.5391 284.051 69.5391" stroke="#1A3447" stroke-width="0.596277" stroke-miterlimit="10"/>
<path d="M269.835 86.9276C269.835 86.9276 270.182 86.4576 270.767 85.6557" stroke="#1A3447" stroke-width="0.596277" stroke-miterlimit="10"/>
<path d="M284.887 84.3409C284.887 84.3409 286.435 82.1106 288.823 79.3577C291.211 76.6047 292.581 75.7006 292.581 75.7006" stroke="#1A3447" stroke-width="0.596277" stroke-miterlimit="10"/>
<path d="M275.754 85.9654C275.754 85.9654 279.853 81.6306 283.621 77.3159C287.39 73.0012 288.909 72.4282 288.909 72.4282" stroke="#1A3447" stroke-width="0.596277" stroke-miterlimit="10"/>
<path d="M204.806 92.5702C208.459 83.8075 211.356 81.1853 211.356 81.1853" stroke="#1A3447" stroke-width="0.596277" stroke-miterlimit="10"/>
<path d="M198.795 101.286C198.795 101.286 200.77 101.324 203.903 94.6174" stroke="#1A3447" stroke-width="0.596277" stroke-miterlimit="10"/>
<path d="M150.199 132.992C150.199 132.992 154.426 125.421 156.906 123.178C159.385 120.936 168.773 115.652 173.838 108.067C178.904 100.483 183.027 85.328 182.768 80.1065C182.51 74.885 182.006 71.3341 182.006 71.3341C182.006 71.3341 182.777 52.8873 179.78 43.4849C176.783 34.0825 171.078 22.5533 168.781 20.0257C166.484 17.4982 161.064 12.2338 159.75 9.72297C158.436 7.21212 157.352 3.36353 156.207 4.17046C155.063 4.9774 151.887 9.83546 151.887 9.83546C151.887 9.83546 143.086 16.8029 138.217 23.0342C133.347 29.2655 128.971 40.2502 130.055 57.3558C131.139 74.4613 135.266 92.3685 136.941 95.8165C138.617 99.2644 144.871 110.368 147.149 113.081C149.427 115.793 152.492 118.334 152.368 122.081C152.318 123.617 147.275 126.371 147.189 130.487C147.103 134.604 149.411 133.866 150.199 132.992Z" fill="#F0C376" stroke="#1A3447" stroke-width="0.596277" stroke-miterlimit="10"/>
<path d="M157.697 8.95898C157.697 8.95898 155.509 31.5883 157.162 50.5335C158.611 66.4097 159.254 82.3492 159.088 98.2905C158.846 110.489 156.389 120.988 155.443 123.015" stroke="#1A3447" stroke-width="0.596277" stroke-miterlimit="10"/>
<path d="M153.89 120.994C155.877 114.461 157.106 107.722 157.553 100.908C158.347 89.3574 158.087 68.6277 157.326 61.239" stroke="#1A3447" stroke-width="0.596277" stroke-miterlimit="10"/>
<path d="M172.073 87.5302C166.938 92.4047 159.082 98.3053 159.082 98.3053" stroke="#1A3447" stroke-width="0.596277" stroke-miterlimit="10"/>
<path d="M180.494 76.1775C180.494 76.1775 178.913 80.333 174.206 85.3893C173.881 85.7461 173.522 86.1114 173.125 86.4829" stroke="#1A3447" stroke-width="0.596277" stroke-miterlimit="10"/>
<path d="M166.656 105.57C162.572 108.446 158.673 111.559 158.275 112.44" stroke="#1A3447" stroke-width="0.596277" stroke-miterlimit="10"/>
<path d="M178.426 94.3713C178.426 94.3713 172.053 101.839 167.631 104.891" stroke="#1A3447" stroke-width="0.596277" stroke-miterlimit="10"/>
<path d="M178.751 63.7725C176.579 68.0726 173.492 71.8454 169.708 74.8266C163.546 79.5882 160.141 82.5026 160.141 82.5026" stroke="#1A3447" stroke-width="0.596277" stroke-miterlimit="10"/>
<path d="M161.556 66.2459C160.83 66.6574 160.16 67.1598 159.561 67.7407" stroke="#1A3447" stroke-width="0.596277" stroke-miterlimit="10"/>
<path d="M179.894 50.9155C179.894 50.9155 176.575 54.3667 171.616 58.852C168.877 61.2265 165.967 63.3951 162.909 65.3403" stroke="#1A3447" stroke-width="0.596277" stroke-miterlimit="10"/>
<path d="M161.732 43.0764C160 45.2231 158.665 46.905 158.665 46.905" stroke="#1A3447" stroke-width="0.596277" stroke-miterlimit="10"/>
<path d="M173.934 34.1837C173.934 34.1837 165.723 38.1767 163.32 41.1047C163.16 41.3021 163.001 41.4995 162.836 41.6947" stroke="#1A3447" stroke-width="0.596277" stroke-miterlimit="10"/>
<path d="M177.401 42.6502C177.401 42.6502 168.231 49.8901 164.504 52.7406C160.776 55.5911 159.903 57.1068 159.903 57.1068" stroke="#1A3447" stroke-width="0.596277" stroke-miterlimit="10"/>
<path d="M168.785 27.09C168.785 27.09 160.108 32.0212 157.829 35.169" stroke="#1A3447" stroke-width="0.596277" stroke-miterlimit="10"/>
<path d="M165.197 18.2699C165.197 18.2699 158.81 22.297 157.812 24.6708" stroke="#1A3447" stroke-width="0.596277" stroke-miterlimit="10"/>
<path d="M156.896 101.987C153.44 98.4925 149.65 95.3452 145.579 92.591C139.196 88.344 136.921 84.4318 135.863 82.4941" stroke="#1A3447" stroke-width="0.596277" stroke-miterlimit="10"/>
<path d="M142.049 74.7777C141.201 73.9957 140.42 73.2613 139.747 72.6112C134.333 67.361 132.92 62.0745 132.92 62.0745" stroke="#1A3447" stroke-width="0.596277" stroke-miterlimit="10"/>
<path d="M157.491 88.332C157.491 88.332 149.636 81.6615 143.711 76.2974" stroke="#1A3447" stroke-width="0.596277" stroke-miterlimit="10"/>
<path d="M134.815 47.3837C134.057 46.221 133.455 44.9636 133.025 43.6438" stroke="#1A3447" stroke-width="0.596277" stroke-miterlimit="10"/>
<path d="M157.447 72.13C157.447 72.13 153.765 68.6071 145.628 60.3847C142.378 57.1764 139.372 53.7306 136.635 50.0757" stroke="#1A3447" stroke-width="0.596277" stroke-miterlimit="10"/>
<path d="M152.567 50.7649C151.069 49.2961 149.213 47.4253 147.102 45.1869C143.091 40.9115 139.903 35.933 137.697 30.5012" stroke="#1A3447" stroke-width="0.596277" stroke-miterlimit="10"/>
<path d="M156.599 54.5518C156.599 54.5518 155.612 53.6892 153.906 52.0564" stroke="#1A3447" stroke-width="0.596277" stroke-miterlimit="10"/>
<path d="M153.491 37.2978C151.683 35.3081 148.909 32.2949 146.187 29.3058C141.582 24.2225 141.178 22.2402 141.178 22.2402" stroke="#1A3447" stroke-width="0.596277" stroke-miterlimit="10"/>
<path d="M155.555 39.5211L154.482 38.3679" stroke="#1A3447" stroke-width="0.596277" stroke-miterlimit="10"/>
<path d="M155.877 24.2585C155.877 24.2585 153.988 22.3197 151.728 19.4514C149.467 16.583 148.852 15.0679 148.852 15.0679" stroke="#1A3447" stroke-width="0.596277" stroke-miterlimit="10"/>
<path d="M155.734 33.5299C155.734 33.5299 152.259 28.6821 148.735 24.1637C145.211 19.6453 144.945 18.0425 144.945 18.0425" stroke="#1A3447" stroke-width="0.596277" stroke-miterlimit="10"/>
<path d="M148.737 104.439C140.825 99.1908 138.805 95.8447 138.805 95.8447" stroke="#1A3447" stroke-width="0.596277" stroke-miterlimit="10"/>
<path d="M156.153 111.997C156.153 111.997 156.563 110.066 150.572 105.716" stroke="#1A3447" stroke-width="0.596277" stroke-miterlimit="10"/>
<path d="M145.063 158.522C145.805 158.522 146.406 158.12 146.406 157.623C146.406 157.126 145.805 156.724 145.063 156.724C144.322 156.724 143.721 157.126 143.721 157.623C143.721 158.12 144.322 158.522 145.063 158.522Z" stroke="#1A3447" stroke-width="0.669374" stroke-miterlimit="10"/>
<path d="M128.554 158.426C128.554 158.678 128.254 158.876 127.882 158.876C127.511 158.876 127.211 158.678 127.211 158.426C127.211 158.175 127.511 157.977 127.882 157.977C128.254 157.977 128.554 158.181 128.554 158.426Z" stroke="#1A3447" stroke-width="0.669374" stroke-miterlimit="10"/>
<path d="M110.595 163.629C110.595 163.629 112.675 161.346 122.279 157.749C131.882 154.152 143.218 152.653 146.341 153.001C149.464 153.349 151.431 152.653 154.901 153.696C158.372 154.739 159.877 154.967 160.339 155.549C160.8 156.13 162.071 157.281 162.191 157.629C162.311 157.977 167.628 159.134 167.742 168.851C167.856 178.568 162.203 185.378 151.413 190.467C140.622 195.557 135.335 198.218 123.651 197.871C111.968 197.523 106.453 191.51 102.856 186.649C99.2594 181.787 100.183 173.575 102.856 169.738C104.655 167.33 107.102 165.484 109.912 164.415L110.595 163.629Z" fill="white"/>
<path d="M101.657 177.747C101.987 182.195 104.99 185.648 107.55 187.428C110.11 189.208 116.788 190.539 118.454 190.653C120.121 190.767 131.696 190.21 136.816 189.316C141.935 188.423 147.264 185.606 151.617 183.867C155.969 182.129 161.52 177.969 164.859 173.077C167.113 169.768 167.083 165.44 166.825 162.988C167.45 164.875 167.759 166.851 167.742 168.839C167.856 178.556 162.191 185.384 151.431 190.473C140.67 195.563 135.353 198.224 123.67 197.877C111.986 197.529 106.453 191.51 102.856 186.649C100.111 182.932 100.015 177.255 101.31 173.083C101.388 174.27 101.514 175.84 101.657 177.747Z" fill="#362822"/>
<path d="M159.415 159.811L153.63 163.977C152.821 164.577 149.697 165.823 147.036 167.1C144.374 168.377 138.128 170.697 131.414 172.765C124.7 174.833 116.727 177.974 115.336 178.436C113.946 178.898 112.213 180.055 111.979 181.673C111.746 183.292 115.684 187.92 114.066 188.267C112.447 188.615 110.361 185.725 110.013 184.569C109.665 183.412 110.361 182.255 109.324 181.907C108.287 181.559 105.967 182.716 105.967 181.907C105.967 181.098 108.964 179.359 108.964 179.359C111.233 177.891 113.598 176.577 116.044 175.427C119.395 173.922 120.899 174.27 124.952 172.076C129.004 169.882 132.469 167.448 135.94 165.943C138.511 164.926 141.184 164.189 143.913 163.743C144.374 163.629 142.174 165.596 145.759 162.7C149.344 159.805 153.744 159.811 154.901 159.577C156.058 159.343 162.418 156.801 159.415 159.811Z" fill="#362822" stroke="#362822" stroke-width="0.669374" stroke-miterlimit="10"/>
<path d="M166.585 168.024C166.585 168.024 167.742 172.886 161.034 177.615C154.326 182.345 151.316 184.437 147.246 185.594" stroke="#1A3447" stroke-width="0.669374" stroke-miterlimit="10"/>
<path d="M145.068 186.415C140.46 188.27 135.642 189.553 130.722 190.234C123.199 191.163 113.938 190.12 113.938 190.12" stroke="#1A3447" stroke-width="0.669374" stroke-miterlimit="10"/>
<path d="M109.899 188.501C108.521 187.968 107.234 187.226 106.081 186.301C104.185 184.755 102.812 182.662 102.148 180.307" stroke="#1A3447" stroke-width="0.669374" stroke-miterlimit="10"/>
<path d="M110.595 163.629C110.595 163.629 112.675 161.346 122.279 157.749C131.882 154.152 143.218 152.653 146.341 153.001C149.464 153.349 151.431 152.653 154.901 153.696C158.372 154.739 159.877 154.967 160.339 155.549C160.8 156.13 162.071 157.281 162.191 157.629C162.311 157.977 167.628 159.134 167.742 168.851C167.856 178.568 162.203 185.378 151.413 190.467C140.622 195.557 135.335 198.218 123.651 197.871C111.968 197.523 106.453 191.51 102.856 186.649C99.2594 181.787 100.183 173.575 102.856 169.738C104.655 167.33 107.102 165.484 109.912 164.415L110.595 163.629Z" stroke="#1A3447" stroke-width="0.669374" stroke-miterlimit="10"/>
<path d="M151.333 179.359C152.075 179.359 152.676 178.957 152.676 178.46C152.676 177.964 152.075 177.561 151.333 177.561C150.591 177.561 149.99 177.964 149.99 178.46C149.99 178.957 150.591 179.359 151.333 179.359Z" stroke="#1A3447" stroke-width="0.669374" stroke-miterlimit="10"/>
<path d="M144.961 182.225C144.961 182.524 145.363 182.764 145.86 182.764C146.358 182.764 146.759 182.524 146.759 182.225C146.759 181.925 146.358 181.691 145.86 181.691C145.363 181.691 144.961 181.931 144.961 182.225Z" stroke="#1A3447" stroke-width="0.669374" stroke-miterlimit="10"/>
<path d="M131.863 180.433C131.863 180.631 132.145 180.792 132.493 180.792C132.84 180.792 133.122 180.631 133.122 180.433C133.122 180.235 132.84 180.073 132.493 180.073C132.145 180.073 131.863 180.235 131.863 180.433Z" stroke="#1A3447" stroke-width="0.669374" stroke-miterlimit="10"/>
<path d="M106.926 168.593C106.926 168.887 107.447 169.127 108.089 169.127C108.73 169.127 109.288 168.887 109.288 168.593C109.288 168.299 108.766 168.054 108.089 168.054C107.411 168.054 106.926 168.293 106.926 168.593Z" stroke="#1A3447" stroke-width="0.669374" stroke-miterlimit="10"/>
</svg>
