<svg width="755" height="755" viewBox="0 0 755 755" fill="none" xmlns="http://www.w3.org/2000/svg">
<path d="M695.339 440.18C675.634 503.751 633.052 573.377 570.221 595.936C475.287 630.017 466.982 712.463 294.54 711.512C269.325 711.488 244.196 708.574 219.644 702.829C207.605 699.969 195.77 696.307 184.219 691.867C81.9924 652.607 25.8657 559.787 17.6664 460.671C6.82457 330.312 90.5088 264.748 145.035 226.137C199.561 187.527 261.546 43.7899 431.059 43.2463C456.995 43.0651 482.855 46.0467 508.069 52.1251C565.66 66.2285 624.958 100.083 660.579 151.543C663.267 155.409 665.834 159.38 668.295 163.412C716.479 242.536 722.202 353.521 695.339 440.18Z" fill="#F0C376"/>
<path opacity="0.7" d="M695.339 440.18C675.634 503.751 633.052 573.377 570.221 595.936C475.287 630.017 466.982 712.463 294.54 711.512C269.325 711.488 244.196 708.574 219.644 702.829C207.605 699.969 195.77 696.307 184.219 691.867C81.9924 652.607 25.8657 559.787 17.6664 460.671C6.82457 330.312 90.5088 264.748 145.035 226.137C199.561 187.527 261.546 43.7899 431.059 43.2463C456.995 43.0651 482.855 46.0467 508.069 52.1251C565.66 66.2285 624.958 100.083 660.579 151.543C663.267 155.409 665.834 159.38 668.295 163.412C716.479 242.536 722.202 353.521 695.339 440.18Z" fill="white"/>
<path d="M420.912 266.273C420.912 266.273 445.283 263.661 454.525 265.714C463.766 267.768 491.323 280.814 517.054 280.105C542.784 279.395 584.566 264.174 596.178 255.039C607.79 245.903 615.189 238.957 615.189 238.957C615.189 238.957 658.979 210.599 675.83 188.312C692.682 166.024 709.896 134.073 711.995 124.605C714.094 115.137 717.37 94.0577 721.055 86.9456C724.739 79.8335 731.761 70.9396 728.091 69.6863C724.422 68.433 708.008 69.037 708.008 69.037C708.008 69.037 677.552 60.1129 655.158 59.0559C632.765 57.9989 600.315 65.8358 562.61 96.2925C524.906 126.749 490.312 165.511 485.087 175.009C479.862 184.507 464.445 217.092 461.924 226.772C459.402 236.451 458.526 247.685 449.677 253.529C446.038 255.915 431.452 248.772 421.818 255.311C412.184 261.849 417.62 265.865 420.912 266.273Z" fill="#F0C376" stroke="#1A3447" stroke-width="1.6861" stroke-miterlimit="10"/>
<path d="M719.441 80.9514C719.441 80.9514 663.571 112.858 622.604 147.633C588.317 176.916 552.565 204.439 515.485 230.094C487.006 249.498 458.679 260.943 452.412 262.076" stroke="#1A3447" stroke-width="1.6861" stroke-miterlimit="10"/>
<path d="M454.6 255.19C472.927 249.1 490.493 240.922 506.951 230.818C534.901 213.786 582.346 179.388 598.125 165.481" stroke="#1A3447" stroke-width="1.6861" stroke-miterlimit="10"/>
<path d="M561.57 242.491C541.94 238.55 515.484 230.094 515.484 230.094" stroke="#1A3447" stroke-width="1.6861" stroke-miterlimit="10"/>
<path d="M601.509 243.382C601.509 243.382 589.338 246.523 569.965 243.926C568.621 243.745 567.186 243.518 565.691 243.262" stroke="#1A3447" stroke-width="1.6861" stroke-miterlimit="10"/>
<path d="M511.104 259.464C497.771 254.722 484.241 250.841 481.523 251.264" stroke="#1A3447" stroke-width="1.6861" stroke-miterlimit="10"/>
<path d="M556.181 268.327C556.181 268.327 528.502 265.76 514.248 260.596" stroke="#1A3447" stroke-width="1.6861" stroke-miterlimit="10"/>
<path d="M627.313 219.071C613.84 221.086 600.089 220.127 587.026 216.262C565.977 209.83 553.686 206.734 553.686 206.734" stroke="#1A3447" stroke-width="1.6861" stroke-miterlimit="10"/>
<path d="M593.521 183.435C591.385 182.438 589.133 181.712 586.816 181.276" stroke="#1A3447" stroke-width="1.6861" stroke-miterlimit="10"/>
<path d="M658.856 200.724C658.856 200.724 645.478 198.716 627.026 194.609C617.07 192.168 607.309 188.993 597.822 185.111" stroke="#1A3447" stroke-width="1.6861" stroke-miterlimit="10"/>
<path d="M647.336 145.972C639.589 145.489 633.504 145.156 633.504 145.156" stroke="#1A3447" stroke-width="1.6861" stroke-miterlimit="10"/>
<path d="M687.744 159.638C687.744 159.638 665.094 147.195 654.373 146.455L652.229 146.304" stroke="#1A3447" stroke-width="1.6861" stroke-miterlimit="10"/>
<path d="M673.865 181.457C673.865 181.457 642.155 172.125 629.517 168.169C616.878 164.212 611.85 164.696 611.85 164.696" stroke="#1A3447" stroke-width="1.6861" stroke-miterlimit="10"/>
<path d="M695.698 136.157C695.698 136.157 670.134 124.168 659.156 124.077" stroke="#1A3447" stroke-width="1.6861" stroke-miterlimit="10"/>
<path d="M710.24 113.462C710.24 113.462 690.52 105.293 683.393 106.863" stroke="#1A3447" stroke-width="1.6861" stroke-miterlimit="10"/>
<path d="M503.418 231.03C505.833 217.346 506.905 203.458 506.619 189.565C505.985 167.882 511.3 156.24 514.048 150.622" stroke="#1A3447" stroke-width="1.6861" stroke-miterlimit="10"/>
<path d="M541.949 152.344C542.372 149.113 542.795 146.123 543.202 143.496C546.464 122.356 556.355 110.517 556.355 110.517" stroke="#1A3447" stroke-width="1.6861" stroke-miterlimit="10"/>
<path d="M535.914 210.132C535.914 210.132 538.466 181.109 541.169 158.671" stroke="#1A3447" stroke-width="1.6861" stroke-miterlimit="10"/>
<path d="M593.428 90.9026C594.866 87.2603 596.77 83.8192 599.09 80.6648" stroke="#1A3447" stroke-width="1.6861" stroke-miterlimit="10"/>
<path d="M573.23 183.556C573.23 183.556 575.36 169.362 581.022 137.108C583.118 124.37 586.146 111.803 590.082 99.509" stroke="#1A3447" stroke-width="1.6861" stroke-miterlimit="10"/>
<path d="M614.568 137.41C615.505 131.537 616.803 124.198 618.509 115.682C621.828 99.4354 628.114 83.9404 637.052 69.9739" stroke="#1A3447" stroke-width="1.6861" stroke-miterlimit="10"/>
<path d="M612.414 152.888C612.414 152.888 612.792 149.203 613.773 142.604" stroke="#1A3447" stroke-width="1.6861" stroke-miterlimit="10"/>
<path d="M647.152 117.523C648.662 110.124 651.139 98.7993 653.63 87.6253C657.828 68.6899 661.754 64.5676 661.754 64.5676" stroke="#1A3447" stroke-width="1.6861" stroke-miterlimit="10"/>
<path d="M645.391 125.934C645.391 125.934 645.738 124.319 646.312 121.57" stroke="#1A3447" stroke-width="1.6861" stroke-miterlimit="10"/>
<path d="M681.156 101.729C681.156 101.729 682.545 94.179 685.49 84.3036C688.434 74.4282 690.911 70.5022 690.911 70.5022" stroke="#1A3447" stroke-width="1.6861" stroke-miterlimit="10"/>
<path d="M659.521 116.557C659.521 116.557 665.033 100.611 669.714 85.1033C674.395 69.5956 677.641 66.3491 677.641 66.3491" stroke="#1A3447" stroke-width="1.6861" stroke-miterlimit="10"/>
<path d="M484.423 216.247C483.623 189.415 488.032 179.282 488.032 179.282" stroke="#1A3447" stroke-width="1.6861" stroke-miterlimit="10"/>
<path d="M479.092 245.707C479.092 245.707 484.226 243.503 484.483 222.574" stroke="#1A3447" stroke-width="1.6861" stroke-miterlimit="10"/>
<path d="M390.832 384.023C390.832 384.023 392.9 359.592 396.675 350.924C400.45 342.257 418.48 317.704 422.693 292.261C426.906 266.817 419.869 222.967 413.119 209.815C406.37 196.663 400.934 188.101 400.934 188.101C400.934 188.101 381.424 139.675 362.746 118.943C344.067 98.2106 315.936 75.1529 307.072 71.3175C298.208 67.4821 278.11 60.2341 271.798 55.2964C265.487 50.3587 258.208 41.7064 256.2 45.119C254.192 48.5316 251.67 64.749 251.67 64.749C251.67 64.749 237.114 92.9558 231.829 114.685C226.544 136.414 228.069 169.815 250.794 212.623C273.52 255.432 305.018 296.761 313.354 303.691C321.689 310.622 350.741 331.944 359.771 336.277C368.801 340.611 379.658 343.586 383.704 353.386C385.365 357.402 375.581 370.373 380.156 381.079C384.731 391.785 389.82 387.194 390.832 384.023Z" fill="#F0C376" stroke="#1A3447" stroke-width="1.6861" stroke-miterlimit="10"/>
<path d="M265.623 55.7188C265.623 55.7188 286.355 116.572 312.69 163.457C334.923 202.673 355.153 242.992 373.301 284.257C386.891 315.967 392.795 345.88 392.72 352.207" stroke="#1A3447" stroke-width="1.6861" stroke-miterlimit="10"/>
<path d="M386.365 348.811C383.873 329.663 379.186 310.866 372.398 292.79C360.982 262.107 336.158 209 325.588 190.85" stroke="#1A3447" stroke-width="1.6861" stroke-miterlimit="10"/>
<path d="M394.212 241.404C386.662 259.947 373.299 284.303 373.299 284.303" stroke="#1A3447" stroke-width="1.6861" stroke-miterlimit="10"/>
<path d="M402.685 202.341C402.685 202.341 403.455 214.889 397.219 233.401C396.796 234.7 396.298 236.059 395.709 237.478" stroke="#1A3447" stroke-width="1.6861" stroke-miterlimit="10"/>
<path d="M401.285 294.194C394.113 306.364 387.695 318.928 387.695 321.661" stroke="#1A3447" stroke-width="1.6861" stroke-miterlimit="10"/>
<path d="M418.557 251.626C418.557 251.626 410.841 278.293 403.004 291.309" stroke="#1A3447" stroke-width="1.6861" stroke-miterlimit="10"/>
<path d="M383.734 172.412C383.148 186.022 379.592 199.34 373.315 211.431C362.987 230.879 357.611 242.355 357.611 242.355" stroke="#1A3447" stroke-width="1.6861" stroke-miterlimit="10"/>
<path d="M342.315 198.822C340.925 200.728 339.784 202.803 338.918 204.997" stroke="#1A3447" stroke-width="1.6861" stroke-miterlimit="10"/>
<path d="M371.702 137.954C371.702 137.954 367.172 150.714 359.622 168.048C355.333 177.357 350.361 186.336 344.748 194.911" stroke="#1A3447" stroke-width="1.6861" stroke-miterlimit="10"/>
<path d="M315.773 138.92C313.81 146.47 312.33 152.359 312.33 152.359" stroke="#1A3447" stroke-width="1.6861" stroke-miterlimit="10"/>
<path d="M336.851 101.79C336.851 101.79 320.347 121.646 317.568 131.99C317.387 132.684 317.206 133.379 317.01 134.073" stroke="#1A3447" stroke-width="1.6861" stroke-miterlimit="10"/>
<path d="M355.651 119.562C355.651 119.562 340.46 148.901 334.179 160.589C327.897 172.276 327.414 177.199 327.414 177.199" stroke="#1A3447" stroke-width="1.6861" stroke-miterlimit="10"/>
<path d="M315.315 89.5132C315.315 89.5132 298.705 112.329 296.5 123.096" stroke="#1A3447" stroke-width="1.6861" stroke-miterlimit="10"/>
<path d="M295.79 70.9705C295.79 70.9705 284.027 88.7885 284.223 96.0667" stroke="#1A3447" stroke-width="1.6861" stroke-miterlimit="10"/>
<path d="M371.955 296.338C358.98 291.36 345.547 287.668 331.849 285.315C310.453 281.812 300.034 274.383 295.051 270.623" stroke="#1A3447" stroke-width="1.6861" stroke-miterlimit="10"/>
<path d="M301.998 243.533C298.902 242.507 296.033 241.525 293.542 240.634C273.474 233.416 263.674 221.442 263.674 221.442" stroke="#1A3447" stroke-width="1.6861" stroke-miterlimit="10"/>
<path d="M357.581 260.46C357.581 260.46 329.57 252.427 308.053 245.511" stroke="#1A3447" stroke-width="1.6861" stroke-miterlimit="10"/>
<path d="M251.444 181.382C248.136 179.27 245.12 176.731 242.475 173.832" stroke="#1A3447" stroke-width="1.6861" stroke-miterlimit="10"/>
<path d="M338.588 218.769C338.588 218.769 324.998 213.983 294.451 202.28C282.34 197.801 270.58 192.425 259.268 186.199" stroke="#1A3447" stroke-width="1.6861" stroke-miterlimit="10"/>
<path d="M301.122 169.407C295.55 167.368 288.589 164.711 280.541 161.404C265.225 155.062 251.209 145.951 239.197 134.526" stroke="#1A3447" stroke-width="1.6861" stroke-miterlimit="10"/>
<path d="M315.921 174.466C315.921 174.466 312.373 173.394 306.076 171.174" stroke="#1A3447" stroke-width="1.6861" stroke-miterlimit="10"/>
<path d="M287.805 133.635C280.828 130.615 270.168 126.085 259.673 121.555C241.885 113.824 238.533 109.188 238.533 109.188" stroke="#1A3447" stroke-width="1.6861" stroke-miterlimit="10"/>
<path d="M295.717 136.957L291.609 135.236" stroke="#1A3447" stroke-width="1.6861" stroke-miterlimit="10"/>
<path d="M278.762 97.2597C278.762 97.2597 271.635 94.4662 262.469 89.7097C253.303 84.9532 249.951 81.7671 249.951 81.7671" stroke="#1A3447" stroke-width="1.6861" stroke-miterlimit="10"/>
<path d="M289.195 121.313C289.195 121.313 274.593 112.872 260.248 105.337C245.903 97.8025 243.352 93.9822 243.352 93.9822" stroke="#1A3447" stroke-width="1.6861" stroke-miterlimit="10"/>
<path d="M353.791 312.163C327.291 307.859 318.186 301.593 318.186 301.593" stroke="#1A3447" stroke-width="1.6861" stroke-miterlimit="10"/>
<path d="M381.712 322.989C381.712 322.989 380.519 317.538 360.014 313.31" stroke="#1A3447" stroke-width="1.6861" stroke-miterlimit="10"/>
<path d="M534.646 185.73C534.646 185.73 658.269 126.1 684.634 204.423C710.999 282.747 657.696 373.166 615.476 390.757C573.256 408.349 517.205 368.44 517.205 368.44L529.587 332.426C529.587 332.426 583.373 352.237 615.325 334.057C647.277 315.877 666.559 220.158 622.467 210.916C578.375 201.675 524.725 238.58 524.725 238.58L534.646 185.73Z" fill="white" stroke="#1A3447" stroke-width="1.6861" stroke-linecap="round" stroke-linejoin="round"/>
<path opacity="0.24" d="M618.888 207.172C627.948 208.561 639.545 215.976 643.697 223.601C639.922 212.291 633.897 199.305 619.537 197.04C584.249 191.453 537.846 211.385 523.562 220.143L521.629 230.456C523.365 232.329 577.423 200.83 618.888 207.172Z" fill="#362822"/>
<path opacity="0.24" d="M682.053 204.167C681.038 201.155 679.812 198.218 678.384 195.379C678.595 195.938 678.807 196.481 679.003 197.04C705.352 275.379 651.596 357.93 609.377 375.522C574.3 390.124 529.679 364.952 515.591 356.088L514.156 360.241C514.156 360.241 570.389 404.725 612.608 387.149C654.828 369.573 708.403 282.491 682.053 204.167Z" fill="#362822"/>
<g opacity="0.24">
<path d="M524.725 238.58C535.798 231.314 547.544 225.129 559.802 220.113C560.089 202.129 559.802 186.787 559.349 175.87C550.944 178.712 542.697 182.003 534.645 185.73L524.725 238.58Z" fill="#362822"/>
<path d="M548.039 337.621C541.792 336.228 535.631 334.474 529.587 332.366L517.205 368.44C523.368 372.654 529.805 376.452 536.473 379.81C541.257 366.018 545.121 351.924 548.039 337.621Z" fill="#362822"/>
</g>
<path d="M97.8164 166.1C99.2056 294.45 92.2898 465.548 318.896 465.548C556.298 465.473 538.601 294.45 539.975 166.1H97.8164Z" fill="white" stroke="#1A3447" stroke-width="1.6861" stroke-linecap="round" stroke-linejoin="round"/>
<g opacity="0.24">
<path d="M516.299 166.1C515.484 269.913 524.71 400.331 413.619 445.963C541.969 403.397 530.221 270.381 531.399 166.1H516.299Z" fill="#362822"/>
</g>
<path d="M98.0566 192.766V195.786H539.868V192.766H98.0566Z" fill="#1A3447" stroke="#1A3447" stroke-width="1.6861" stroke-miterlimit="10"/>
<path d="M539.765 222.257C539.84 215.779 539.856 209.331 539.871 202.944H98.1504C98.241 209.326 98.3719 215.764 98.543 222.257H539.765Z" fill="#1A3447" stroke="#1A3447" stroke-width="1.6861" stroke-miterlimit="10"/>
<path d="M480.302 465.865C480.302 465.865 450.434 455.053 440.68 447.639C430.925 440.225 405.346 410.629 374.874 396.963C344.402 383.298 287.717 376.457 269.431 379.87C251.145 383.283 238.959 386.71 238.959 386.71C238.959 386.71 173.138 392.977 142.062 407.775C110.986 422.573 74.4141 447.639 67.0906 456.759C59.7671 465.88 45.1503 486.959 37.2379 492.637C29.3255 498.314 16.5056 504.022 20.1749 507.435C23.8442 510.847 43.3232 519.439 43.3232 519.439C43.3232 519.439 74.4141 546.212 100.009 559.877C125.603 573.543 167.657 583.222 227.377 571.263C287.098 559.303 347.437 536.533 358.415 529.119C369.393 521.704 404.123 494.962 412.05 485.842C419.978 476.721 426.742 465.019 440.076 463.63C445.557 463.071 458.966 479.017 473.598 477.295C488.23 475.574 483.956 468.099 480.302 465.865Z" fill="#F0C376" stroke="#1A3447" stroke-width="1.6861" stroke-miterlimit="10"/>
<path d="M459.217 465.578C458.614 462.684 458.161 459.76 457.858 456.82C451.048 453.8 444.404 450.463 440.674 447.639C430.935 440.24 405.34 410.629 374.868 396.963C344.397 383.298 287.711 376.457 269.425 379.87C251.139 383.283 238.953 386.71 238.953 386.71C238.953 386.71 186.843 391.678 153.457 403.2C167.636 415.627 186.088 427.858 209.886 438.82C264.669 464.068 327.107 481.176 340.622 481.735C354.136 482.293 399.164 481.433 411.425 478.881C413.992 478.352 416.605 477.703 419.217 477.069C424.729 470.485 430.814 464.551 440.07 463.585C444.207 463.162 452.875 472.131 463.158 475.831C461.525 472.545 460.205 469.112 459.217 465.578Z" fill="#1A3447" stroke="#1A3447" stroke-width="1.6861" stroke-miterlimit="10"/>
<path d="M36.0156 500.036C36.0156 500.036 117.676 496.623 183.497 481.81C249.318 466.997 307.831 457.318 351.107 452.199C394.384 447.08 433.387 450.493 441.315 452.773" stroke="#1A3447" stroke-width="1.6861" stroke-miterlimit="10"/>
<path d="M435.196 459.039C410.797 455.391 386.07 454.434 361.462 456.185C320.013 459.039 246.884 469.851 221.289 476.117" stroke="#1A3447" stroke-width="1.6861" stroke-miterlimit="10"/>
<path d="M303.508 412.91C324.482 428.191 351.088 452.17 351.088 452.17" stroke="#1A3447" stroke-width="1.6861" stroke-miterlimit="10"/>
<path d="M257.242 389.58C257.242 389.58 273.082 392.993 294.418 406.658C295.928 407.609 297.438 408.666 299.084 409.784" stroke="#1A3447" stroke-width="1.6861" stroke-miterlimit="10"/>
<path d="M371.262 422.8C384.429 435.408 398.291 447.217 401.673 448.274" stroke="#1A3447" stroke-width="1.6861" stroke-miterlimit="10"/>
<path d="M323.139 387.843C323.139 387.843 354.214 406.069 368.242 419.734" stroke="#1A3447" stroke-width="1.6861" stroke-miterlimit="10"/>
<path d="M214.586 401.524C231.399 406.906 246.948 415.638 260.294 427.194C281.615 445.978 294.42 456.231 294.42 456.231" stroke="#1A3447" stroke-width="1.6861" stroke-miterlimit="10"/>
<path d="M235.873 459.19C239.286 462.648 241.656 464.944 242.608 465.23" stroke="#1A3447" stroke-width="1.6861" stroke-miterlimit="10"/>
<path d="M168.26 403.789C168.26 403.789 182.892 413.483 202.386 428.281C212.761 436.486 222.554 445.402 231.695 454.963" stroke="#1A3447" stroke-width="1.6861" stroke-miterlimit="10"/>
<path d="M153.703 469.745C162.522 474.623 169.483 478.398 169.483 478.398" stroke="#1A3447" stroke-width="1.6861" stroke-miterlimit="10"/>
<path d="M113.418 432.267C113.418 432.267 133.531 458.466 145.717 465.291L148.148 466.665" stroke="#1A3447" stroke-width="1.6861" stroke-miterlimit="10"/>
<path d="M140.838 416.321C140.838 416.321 173.137 444.226 185.942 455.581C198.746 466.936 204.832 469.171 204.832 469.171" stroke="#1A3447" stroke-width="1.6861" stroke-miterlimit="10"/>
<path d="M92.1094 453.332C92.1094 453.332 115.877 480.678 128.682 486.944" stroke="#1A3447" stroke-width="1.6861" stroke-miterlimit="10"/>
<path d="M63.418 469.851C63.418 469.851 82.3081 489.783 91.4587 492.063" stroke="#1A3447" stroke-width="1.6861" stroke-miterlimit="10"/>
<path d="M365.722 457.892C355.89 471.397 347.513 485.903 340.731 501.168C330.372 525.087 318.187 534.766 312.041 539.326" stroke="#1A3447" stroke-width="1.6861" stroke-miterlimit="10"/>
<path d="M280.3 521.871C278.141 525.148 276.117 528.168 274.26 530.78C259.628 551.92 241.961 559.259 241.961 559.259" stroke="#1A3447" stroke-width="1.6861" stroke-miterlimit="10"/>
<path d="M316.965 462.452C316.965 462.452 299.102 492.562 284.455 515.438" stroke="#1A3447" stroke-width="1.6861" stroke-miterlimit="10"/>
<path d="M188.656 559.848C185.075 563.021 181.083 565.698 176.787 567.805" stroke="#1A3447" stroke-width="1.6861" stroke-miterlimit="10"/>
<path d="M259.716 470.425C259.716 470.425 249.977 484.664 226.814 516.556C217.808 529.25 207.806 541.207 196.9 552.312" stroke="#1A3447" stroke-width="1.6861" stroke-miterlimit="10"/>
<path d="M187.66 497.424C183.553 503.268 178.283 510.531 171.911 518.821C159.577 534.714 144.261 548.05 126.822 558.08" stroke="#1A3447" stroke-width="1.6861" stroke-miterlimit="10"/>
<path d="M198.128 481.81C198.128 481.81 195.788 485.6 191.258 492.229" stroke="#1A3447" stroke-width="1.6861" stroke-miterlimit="10"/>
<path d="M139.342 500.776C133.724 507.949 125.087 518.896 116.465 529.648C101.833 547.873 95.1289 550.153 95.1289 550.153" stroke="#1A3447" stroke-width="1.6861" stroke-miterlimit="10"/>
<path d="M145.714 492.637L142.422 496.79" stroke="#1A3447" stroke-width="1.6861" stroke-miterlimit="10"/>
<path d="M91.4758 498.904C87.0855 504.642 82.4034 510.151 77.4479 515.408C68.9164 524.468 64.0391 527.367 64.0391 527.367" stroke="#1A3447" stroke-width="1.6861" stroke-miterlimit="10"/>
<path d="M124.378 494.917C124.378 494.917 109.761 509.142 96.3525 523.381C82.9437 537.62 77.4473 539.327 77.4473 539.327" stroke="#1A3447" stroke-width="1.6861" stroke-miterlimit="10"/>
<path d="M380.355 484.709C367.55 514.321 357.191 522.852 357.191 522.852" stroke="#1A3447" stroke-width="1.6861" stroke-miterlimit="10"/>
<path d="M401.659 455.612C401.659 455.612 394.517 455.144 383.539 477.749" stroke="#1A3447" stroke-width="1.6861" stroke-miterlimit="10"/>
<path d="M486.464 483.637C486.464 483.637 468.449 458.904 464.901 447.639C461.352 436.374 458.272 398.413 441.481 371.007C424.69 343.6 382.168 307.919 365.03 301.033C347.891 294.148 335.796 290.463 335.796 290.463C335.796 290.463 277.842 260.777 243.203 256.488C208.563 252.2 163.294 253.468 151.727 257.077C140.16 260.686 115.336 270.305 105.355 270.788C95.3737 271.271 81.376 269.187 82.3122 273.944C83.2484 278.7 94.1204 296.065 94.1204 296.065C94.1204 296.065 103.467 334.585 116.272 359.38C129.077 384.174 157.782 414.494 214.226 436.389C270.67 458.284 334.18 471.437 347.71 471.119C361.239 470.802 406.102 467.209 418.151 463.917C430.201 460.625 442.9 454.555 454.724 460.489C459.586 462.92 460.945 483.139 474.021 489.511C487.098 495.883 488.095 487.458 486.464 483.637Z" fill="#F0C376" stroke="#1A3447" stroke-width="1.6861" stroke-miterlimit="10"/>
<path d="M99.8555 276.239C99.8555 276.239 169.18 316.722 232.373 339.417C295.567 362.112 349.625 385.17 388.371 403.894C427.118 422.618 457.152 446.099 462.361 452.214" stroke="#1A3447" stroke-width="1.6861" stroke-miterlimit="10"/>
<path d="M453.466 454.102C435.457 438.072 415.661 424.169 394.471 412.668C358.623 393.038 291.791 363.185 266.951 354.774" stroke="#1A3447" stroke-width="1.6861" stroke-miterlimit="10"/>
<path d="M372.973 346.318C380.976 370.01 388.314 403.894 388.314 403.894" stroke="#1A3447" stroke-width="1.6861" stroke-miterlimit="10"/>
<path d="M349.113 302.543C349.113 302.543 360.091 313.763 369.362 336.322C370.012 337.907 370.661 339.599 371.31 341.365" stroke="#1A3447" stroke-width="1.6861" stroke-miterlimit="10"/>
<path d="M422.797 390.334C425.998 407.684 430.226 424.762 432.385 427.42" stroke="#1A3447" stroke-width="1.6861" stroke-miterlimit="10"/>
<path d="M404.346 336.035C404.346 336.035 418.887 367.519 422.118 386.212" stroke="#1A3447" stroke-width="1.6861" stroke-miterlimit="10"/>
<path d="M306.725 289.784C317.293 303.097 324.827 318.557 328.801 335.084C334.962 361.871 339.265 377.092 339.265 377.092" stroke="#1A3447" stroke-width="1.6861" stroke-miterlimit="10"/>
<path d="M289.225 348.568C289.949 353.219 290.508 356.375 291.082 357.16" stroke="#1A3447" stroke-width="1.6861" stroke-miterlimit="10"/>
<path d="M267.271 267.104C267.271 267.104 273.447 282.823 280.514 305.367C284.561 318.262 286.871 332.547 288.442 342.875" stroke="#1A3447" stroke-width="1.6861" stroke-miterlimit="10"/>
<path d="M215.158 313.687C219.462 322.385 222.904 329.18 222.904 329.18" stroke="#1A3447" stroke-width="1.6861" stroke-miterlimit="10"/>
<path d="M204.736 261.471C204.736 261.471 205.401 293.71 211.275 305.79L212.468 308.206" stroke="#1A3447" stroke-width="1.6861" stroke-miterlimit="10"/>
<path d="M237.068 262.876C237.068 262.876 246.717 302.981 250.341 319.138C253.965 335.295 257.604 340.414 257.604 340.414" stroke="#1A3447" stroke-width="1.6861" stroke-miterlimit="10"/>
<path d="M174.387 267.511C174.387 267.511 177.407 302.619 184.096 314.563" stroke="#1A3447" stroke-width="1.6861" stroke-miterlimit="10"/>
<path d="M140.76 265.926C140.76 265.926 144.218 292.351 150.363 299.146" stroke="#1A3447" stroke-width="1.6861" stroke-miterlimit="10"/>
<path d="M396.95 416.337C380.654 422.257 364.976 429.757 350.14 438.73C327.097 452.924 311.182 454.434 303.33 454.963" stroke="#1A3447" stroke-width="1.6861" stroke-miterlimit="10"/>
<path d="M287.761 423.72C284.001 425.23 280.498 426.74 277.417 427.888C252.578 437.492 233.521 434.215 233.521 434.215" stroke="#1A3447" stroke-width="1.6861" stroke-miterlimit="10"/>
<path d="M354.033 394.231C354.033 394.231 321.039 409.572 295.143 420.641" stroke="#1A3447" stroke-width="1.6861" stroke-miterlimit="10"/>
<path d="M189.233 406.416C184.403 407.139 179.499 407.225 174.646 406.673" stroke="#1A3447" stroke-width="1.6861" stroke-miterlimit="10"/>
<path d="M301.998 370.433C301.998 370.433 285.388 376.987 246.898 390.969C231.804 396.644 216.309 401.186 200.541 404.559" stroke="#1A3447" stroke-width="1.6861" stroke-miterlimit="10"/>
<path d="M226.317 354.487C219.386 357.13 210.643 360.316 200.36 363.774C180.723 370.316 160.047 373.177 139.371 372.214" stroke="#1A3447" stroke-width="1.6861" stroke-miterlimit="10"/>
<path d="M244.422 347.179C244.422 347.179 240.194 349.066 232.447 352.117" stroke="#1A3447" stroke-width="1.6861" stroke-miterlimit="10"/>
<path d="M184.508 331.626C175.448 334.555 161.752 338.995 148.132 343.268C125.014 350.531 118.113 348.855 118.113 348.855" stroke="#1A3447" stroke-width="1.6861" stroke-miterlimit="10"/>
<path d="M194.682 328.304L189.412 330.026" stroke="#1A3447" stroke-width="1.6861" stroke-miterlimit="10"/>
<path d="M146.212 304.703C146.212 304.703 137.152 307.889 124.649 310.879C112.146 313.868 106.348 313.612 106.348 313.612" stroke="#1A3447" stroke-width="1.6861" stroke-miterlimit="10"/>
<path d="M175.733 318.866C175.733 318.866 155.046 322.838 135.37 327.458C115.695 332.079 110.123 330.569 110.123 330.569" stroke="#1A3447" stroke-width="1.6861" stroke-miterlimit="10"/>
<path d="M392.751 446.129C364.227 463.721 350.471 465.276 350.471 465.276" stroke="#1A3447" stroke-width="1.6861" stroke-miterlimit="10"/>
<path d="M427.947 433.521C427.947 433.521 422.344 429.338 399.559 442.113" stroke="#1A3447" stroke-width="1.6861" stroke-miterlimit="10"/>
<path d="M322.446 494.51C322.446 494.51 303.979 503.117 296.656 517.749C289.332 532.381 290.827 558.594 307.633 572.743C324.44 586.891 355.666 601.252 397.327 599.923C438.988 598.594 466.093 569.874 470.381 551.074C474.67 532.275 465.579 511.21 441.057 496.442C416.534 481.675 398.883 483.17 373.937 483.215C348.992 483.26 322.446 494.51 322.446 494.51Z" fill="#362822" stroke="#1A3447" stroke-width="1.6861" stroke-miterlimit="10"/>
<path d="M107.529 515.409C107.529 515.409 90.4507 526.537 85.2714 542.09C80.0921 557.643 85.2714 583.344 103.905 594.94C122.538 606.537 155.486 616.382 196.558 609.24C237.63 602.098 260.386 569.784 261.972 550.561C263.557 531.339 251.598 511.785 225.233 500.626C198.869 489.467 181.609 493.438 156.921 497.017C132.232 500.596 107.529 515.409 107.529 515.409Z" fill="#362822" stroke="#1A3447" stroke-width="1.6861" stroke-miterlimit="10"/>
<path d="M638.171 511.603C638.171 511.603 649.104 514.804 657.56 526.99C661.558 532.902 664.13 539.661 665.073 546.735C666.016 553.81 665.305 561.007 662.996 567.76C658.466 580.519 636.133 603.502 615.461 614.041C594.789 624.581 569.512 625.834 549.157 615.008C528.802 604.181 523.321 579.206 521.705 575.582C520.089 571.958 515.001 547.979 527.745 526.839C540.489 505.699 553.053 492.849 573.392 486.703C593.732 480.557 612.969 484 622.649 493.181C632.328 502.362 633.853 510.727 633.853 510.727L638.171 511.603Z" fill="white"/>
<path d="M521.179 542.981L524.924 532.215C525.452 531.052 526.041 529.889 526.675 528.742C525.362 534.782 523.52 545.186 524.078 554.336C524.939 568.228 527.914 572.653 544.403 589.58C560.892 606.507 566.268 605.782 574.24 608.439C582.213 611.097 601.979 609.95 622.349 601.66C634.586 596.632 645.228 588.376 653.138 577.771L664.825 560.572C664.42 563.011 663.809 565.41 662.998 567.745C658.468 580.504 636.135 603.487 615.463 614.027C594.792 624.566 569.514 625.82 549.159 614.993C528.805 604.166 523.323 579.191 521.708 575.567C520.484 572.864 517.344 558.7 521.179 542.981Z" fill="#362822"/>
<path d="M627.405 513.219C627.405 513.219 624.098 511.935 614.268 524.755C604.438 537.575 588.176 545.473 580.006 555.967C571.837 566.462 564.604 576.85 561.886 581.048C559.168 585.246 554.457 588.115 552.192 591.814C549.927 595.514 548.432 601.146 547.073 600.557C545.714 599.968 552.494 588.9 552.298 585.578C552.102 582.256 548.87 575.008 550.38 572.079C551.89 569.149 558.383 565.133 557.492 563.744C556.602 562.354 542.015 556.616 548.568 558.006C555.122 559.395 561.841 562.868 563.578 560.255C565.314 557.643 566.598 551.664 566.598 551.664C566.598 551.664 564.438 550.607 567.76 548.93C571.082 547.254 575.446 540.716 575.446 540.716C575.446 540.716 586.469 529.331 593.838 524.106C601.207 518.881 604.65 516.556 608.44 515.559C612.23 514.563 611.747 515.363 615.265 512.826C618.783 510.29 617.485 507.934 620.444 509.459C623.404 510.984 632.313 508.296 627.405 513.219Z" fill="#362822" stroke="#362822" stroke-width="1.6861" stroke-miterlimit="10"/>
<path d="M632.073 597.281C632.073 597.281 618.015 603.245 606.72 607.428C595.426 611.611 574.074 608.319 566.268 605.782" stroke="#1A3447" stroke-width="1.6861" stroke-miterlimit="10"/>
<path d="M559.382 603.139C559.382 603.139 552.964 599.712 551.318 597.583" stroke="#1A3447" stroke-width="1.6861" stroke-miterlimit="10"/>
<path d="M546.225 592.04C546.225 592.04 537.286 583.615 533.224 577.394C529.162 571.172 525.478 569.27 524.073 554.336C522.669 539.402 526.852 532.592 526.852 532.592" stroke="#1A3447" stroke-width="1.6861" stroke-miterlimit="10"/>
<path d="M638.171 511.603C638.171 511.603 649.104 514.804 657.56 526.99C661.558 532.902 664.13 539.661 665.073 546.735C666.016 553.81 665.305 561.007 662.996 567.76C658.466 580.519 636.133 603.502 615.461 614.041C594.789 624.581 569.512 625.834 549.157 615.008C528.802 604.181 523.321 579.206 521.705 575.582C520.089 571.958 515.001 547.979 527.745 526.839C540.489 505.699 553.053 492.849 573.392 486.703C593.732 480.557 612.969 484 622.649 493.181C632.328 502.362 633.853 510.727 633.853 510.727L638.171 511.603Z" stroke="#1A3447" stroke-width="1.6861" stroke-miterlimit="10"/>
<path d="M591.666 599.289C591.5 600.014 592.663 600.89 594.248 601.222C595.834 601.554 597.268 601.222 597.404 600.497C597.54 599.772 596.408 598.896 594.807 598.564C593.206 598.232 591.817 598.549 591.666 599.289Z" stroke="#1A3447" stroke-width="1.6861" stroke-miterlimit="10"/>
<path d="M613.197 494.863C613.351 494.129 612.186 493.262 610.595 492.928C609.003 492.593 607.588 492.917 607.434 493.652C607.279 494.387 608.444 495.253 610.036 495.588C611.627 495.922 613.043 495.598 613.197 494.863Z" stroke="#1A3447" stroke-width="1.6861" stroke-miterlimit="10"/>
<path d="M591.619 489.527C591.287 491.037 593.008 492.758 595.455 493.272C597.901 493.785 600.151 492.94 600.468 491.384C600.785 489.829 599.079 488.153 596.632 487.639C594.186 487.126 591.921 487.972 591.619 489.527Z" stroke="#1A3447" stroke-width="1.6861" stroke-miterlimit="10"/>
<path d="M409.877 451.355C409.877 451.355 389.658 453.967 378.258 465.7C366.857 477.432 360.334 502.861 372.067 521.434C383.799 540.007 409.213 563.23 449.303 574.555C489.394 585.88 523.943 566.734 533.712 550.109C543.482 533.483 541.262 510.682 522.312 489.165C503.361 467.647 486.072 463.737 462.35 456.247C438.628 448.757 409.877 451.355 409.877 451.355Z" fill="white"/>
<path d="M533.71 550.108C538.796 541.35 540.57 531.056 538.708 521.101C531.399 528.002 510.41 541.531 458.481 540.957C418.799 540.504 386.122 514.094 366.22 492.879C364.828 502.786 366.892 512.87 372.064 521.433C383.797 540.006 409.21 563.154 449.301 574.555C489.391 585.955 523.97 566.733 533.71 550.108Z" fill="#362822"/>
<path d="M409.877 451.355C409.877 451.355 389.658 453.967 378.258 465.7C366.857 477.432 360.334 502.861 372.067 521.434C383.799 540.007 409.213 563.23 449.303 574.555C489.394 585.88 523.943 566.734 533.712 550.109C543.482 533.483 541.262 510.682 522.312 489.165C503.361 467.647 486.072 463.737 462.35 456.247C438.628 448.757 409.877 451.355 409.877 451.355Z" stroke="#1A3447" stroke-width="1.6861" stroke-miterlimit="10"/>
<path d="M412.048 460.731C412.048 461.728 410.84 462.543 409.345 462.543C407.85 462.543 406.627 461.728 406.627 460.731C406.627 459.735 407.85 458.919 409.345 458.919C410.84 458.919 412.048 459.735 412.048 460.731Z" stroke="#1A3447" stroke-width="1.6861" stroke-miterlimit="10"/>
<path d="M433.749 466.968C433.749 468.266 431.997 469.323 429.838 469.323C427.679 469.323 425.912 468.266 425.912 466.968C425.912 465.669 427.664 464.612 429.838 464.612C432.013 464.612 433.749 465.654 433.749 466.968Z" stroke="#1A3447" stroke-width="1.6861" stroke-miterlimit="10"/>
<path d="M417.938 471.573C417.938 472.569 416.715 473.385 415.22 473.385C413.725 473.385 412.502 472.569 412.502 471.573C412.502 470.576 413.725 469.776 415.22 469.776C416.715 469.776 417.938 470.576 417.938 471.573Z" stroke="#1A3447" stroke-width="1.6861" stroke-miterlimit="10"/>
<path d="M573.998 592.116C573.998 592.116 568.743 586.288 544.568 577.258C520.393 568.228 491.823 564.438 483.956 565.314C476.089 566.19 471.136 564.438 462.393 567.065C453.65 569.693 449.86 570.267 448.698 571.716C447.535 573.166 444.319 576.095 444.032 576.971C443.745 577.847 430.336 580.761 430.049 605.238C429.762 629.715 444.032 646.899 471.136 659.719C498.241 672.539 511.635 679.243 541.064 678.367C570.494 677.492 584.492 662.346 593.522 650.1C602.552 637.854 600.226 617.182 593.522 607.564C588.99 601.498 582.826 596.847 575.749 594.155L573.998 592.116Z" fill="white"/>
<path d="M596.453 627.677C595.607 638.896 588.042 647.578 581.595 652.063C575.147 656.548 558.401 659.87 554.173 660.187C549.945 660.504 520.817 659.07 507.937 656.835C495.057 654.6 481.602 647.488 470.655 643.094C459.707 638.7 445.71 628.235 437.299 615.914C431.621 607.563 431.697 596.676 432.346 590.485C430.773 595.243 429.992 600.227 430.036 605.238C429.734 629.715 444.019 646.899 471.123 659.719C498.228 672.539 511.621 679.243 541.051 678.367C570.481 677.492 584.479 662.346 593.509 650.1C600.409 640.738 600.666 626.454 597.404 615.944C597.178 618.919 596.876 622.89 596.453 627.677Z" fill="#362822"/>
<path d="M451.021 582.498C451.021 582.498 463.554 591.558 465.593 592.993C467.631 594.427 475.498 597.658 482.203 600.86C488.907 604.061 504.641 609.92 521.538 615.144C538.435 620.369 558.548 628.251 562.051 629.414C565.555 630.576 569.919 633.491 570.492 637.583C571.066 641.675 561.176 653.317 565.253 654.193C569.33 655.069 574.569 647.775 575.445 644.861C576.321 641.947 574.569 639.032 577.197 638.157C579.824 637.281 585.653 640.195 585.653 638.157C585.653 636.118 578.103 631.754 578.103 631.754C572.409 628.055 566.471 624.746 560.33 621.849C551.874 618.059 548.084 618.934 537.891 613.393C527.699 607.851 518.926 601.735 510.183 597.96C503.694 595.406 496.952 593.548 490.07 592.419C488.907 592.132 494.434 597.085 485.404 589.806C476.374 582.528 465.306 582.513 462.391 581.939C459.477 581.366 443.441 574.933 451.021 582.498Z" fill="#362822" stroke="#362822" stroke-width="1.6861" stroke-miterlimit="10"/>
<path d="M432.963 603.185C432.963 603.185 430.049 615.431 446.946 627.345C463.843 639.258 471.423 644.543 481.676 647.458" stroke="#1A3447" stroke-width="1.6861" stroke-miterlimit="10"/>
<path d="M487.158 649.526C498.766 654.192 510.901 657.422 523.292 659.145C542.228 661.47 565.573 658.843 565.573 658.843" stroke="#1A3447" stroke-width="1.6861" stroke-miterlimit="10"/>
<path d="M575.746 654.766C579.211 653.425 582.45 651.561 585.35 649.239C590.12 645.336 593.582 640.067 595.27 634.139" stroke="#1A3447" stroke-width="1.6861" stroke-miterlimit="10"/>
<path d="M573.998 592.116C573.998 592.116 568.743 586.288 544.568 577.258C520.393 568.228 491.823 564.438 483.956 565.314C476.089 566.19 471.136 564.438 462.393 567.065C453.65 569.693 449.86 570.267 448.698 571.716C447.535 573.166 444.319 576.095 444.032 576.971C443.745 577.847 430.336 580.761 430.049 605.238C429.762 629.715 444.032 646.899 471.136 659.719C498.241 672.539 511.635 679.243 541.064 678.367C570.494 677.492 584.492 662.346 593.522 650.1C602.552 637.854 600.226 617.182 593.522 607.564C588.99 601.498 582.826 596.847 575.749 594.155L573.998 592.116Z" stroke="#1A3447" stroke-width="1.6861" stroke-miterlimit="10"/>
<path d="M471.379 631.738C473.247 631.738 474.761 630.724 474.761 629.473C474.761 628.223 473.247 627.208 471.379 627.208C469.51 627.208 467.996 628.223 467.996 629.473C467.996 630.724 469.51 631.738 471.379 631.738Z" stroke="#1A3447" stroke-width="1.6861" stroke-miterlimit="10"/>
<path d="M487.411 638.971C487.411 639.711 486.4 640.33 485.161 640.33C483.923 640.33 482.896 639.711 482.896 638.971C482.896 638.231 483.908 637.612 485.161 637.612C486.415 637.612 487.411 638.216 487.411 638.971Z" stroke="#1A3447" stroke-width="1.6861" stroke-miterlimit="10"/>
<path d="M518.834 635.362C519.709 635.362 520.419 634.957 520.419 634.456C520.419 633.956 519.709 633.55 518.834 633.55C517.958 633.55 517.248 633.956 517.248 634.456C517.248 634.957 517.958 635.362 518.834 635.362Z" stroke="#1A3447" stroke-width="1.6861" stroke-miterlimit="10"/>
<path d="M583.239 604.619C583.239 605.374 581.925 605.978 580.295 605.978C578.664 605.978 577.365 605.374 577.365 604.619C577.365 603.864 578.679 603.26 580.295 603.26C581.91 603.26 583.239 603.864 583.239 604.619Z" stroke="#1A3447" stroke-width="1.6861" stroke-miterlimit="10"/>
<path d="M297.681 548.508C297.012 547.676 296.258 546.917 295.431 546.243C289.723 541.471 266.469 523.985 234.593 526.16C202.007 528.395 167.217 539.644 157.885 561.403C148.553 583.162 159.697 613.589 179.357 623.691C216.261 642.671 239.757 632.403 265.684 622.558C311.135 605.284 312.796 567.549 297.681 548.508Z" fill="white"/>
<path d="M156.545 574.842C156.545 574.842 162.148 588.296 165.228 591.935C168.308 595.574 181.491 603.713 184.571 605.389C187.652 607.065 204.684 613.241 208.218 613.528C211.751 613.815 237.542 608.998 237.542 608.998C237.542 608.998 254.363 607.05 258.289 605.359C262.215 603.668 273.978 598.911 273.978 598.911C278.005 596.827 281.841 594.392 285.439 591.633C289.395 588.266 298.259 579.402 298.259 579.402C298.259 579.402 296.402 595.831 291.917 604.8C287.432 613.77 261.083 624.43 259.135 625.261C257.187 626.091 237.829 633.943 221.853 633.671C205.877 633.4 188.165 629.67 179.362 623.63C170.558 617.59 160.185 604.498 157.95 598.05C155.715 591.603 156.545 574.842 156.545 574.842Z" fill="#362822"/>
<path d="M170.391 578.844C170.391 578.844 183.845 578.844 187.982 576.08C192.12 573.317 198.673 556.45 212.475 552.63C226.276 548.81 239.383 549.519 251.735 546.424C264.086 543.328 272.784 538.481 272.437 542.619C272.089 546.756 275.895 540.897 272.089 546.771C268.284 552.645 265.883 551.935 241.738 558.489C217.593 565.042 211.72 568.5 199.655 576.08C187.59 583.661 187.922 588.16 179.647 588.508C171.372 588.855 159.292 579.886 160.319 575.401C161.346 570.916 167.28 575.748 170.391 578.844Z" fill="#362822" stroke="#362822" stroke-width="1.6861" stroke-miterlimit="10"/>
<path d="M160.727 584.098C160.727 584.098 166.253 596.616 174.996 600.406C183.739 604.196 192.195 612.652 208.216 613.528C224.237 614.404 238.522 607.986 246.389 606.824C254.256 605.661 256.959 606.235 260.673 604.196C264.388 602.158 267.378 599.832 269.416 598.655" stroke="#1A3447" stroke-width="1.6861" stroke-miterlimit="10"/>
<path d="M275.818 594.577C275.818 594.577 281.647 594.879 285.437 591.663C287.929 589.487 290.178 587.047 292.141 584.385L298.257 579.432L302.923 573.89" stroke="#1A3447" stroke-width="1.6861" stroke-miterlimit="10"/>
<path d="M297.681 548.508C297.012 547.676 296.258 546.917 295.431 546.243C289.723 541.471 266.469 523.985 234.593 526.16C202.007 528.395 167.217 539.644 157.885 561.403C148.553 583.162 159.697 613.589 179.357 623.691C216.261 642.671 239.757 632.403 265.684 622.558C311.135 605.284 312.796 567.549 297.681 548.508Z" stroke="#1A3447" stroke-width="1.6861" stroke-miterlimit="10"/>
<path d="M246.75 601.418C248.618 601.418 250.132 600.404 250.132 599.153C250.132 597.902 248.618 596.888 246.75 596.888C244.882 596.888 243.367 597.902 243.367 599.153C243.367 600.404 244.882 601.418 246.75 601.418Z" stroke="#1A3447" stroke-width="1.6861" stroke-miterlimit="10"/>
<path d="M205.164 601.176C205.164 601.811 204.409 602.309 203.472 602.309C202.536 602.309 201.781 601.811 201.781 601.176C201.781 600.542 202.536 600.044 203.472 600.044C204.409 600.044 205.164 600.557 205.164 601.176Z" stroke="#1A3447" stroke-width="1.6861" stroke-miterlimit="10"/>
<path d="M275.001 574.283C275.001 574.918 274.231 575.416 273.295 575.416C272.359 575.416 271.604 574.918 271.604 574.283C271.604 573.649 272.359 573.166 273.295 573.166C274.231 573.166 275.001 573.664 275.001 574.283Z" stroke="#1A3447" stroke-width="1.6861" stroke-miterlimit="10"/>
<path d="M171.159 562.762C171.159 563.381 170.389 563.894 169.453 563.894C168.517 563.894 167.762 563.381 167.762 562.762C167.762 562.143 168.517 561.629 169.453 561.629C170.389 561.629 171.159 562.143 171.159 562.762Z" stroke="#1A3447" stroke-width="1.6861" stroke-miterlimit="10"/>
<path d="M330.538 571.021C330.538 571.021 319.168 571.897 308.387 582.105C303.266 587.066 299.364 593.146 296.988 599.869C294.611 606.592 293.825 613.774 294.691 620.851C296.443 634.26 313.642 661.365 331.701 675.936C349.761 690.508 374.253 696.91 396.39 690.492C418.526 684.075 429.036 660.776 431.361 657.574C433.687 654.373 443.592 631.904 435.438 608.62C427.284 585.336 417.665 570.145 399.017 559.953C380.368 549.76 360.844 549.172 349.474 556.163C338.104 563.154 334.902 571.021 334.902 571.021H330.538Z" fill="white"/>
<path d="M438.58 625.774L437.07 614.48C436.788 613.241 436.456 611.988 436.074 610.72C436.074 616.896 435.772 627.451 433.34 636.299C429.656 649.723 425.79 653.438 406.16 666.605C386.53 679.772 381.427 677.975 373.091 678.942C364.756 679.908 345.609 674.729 327.399 662.407C316.49 654.957 307.806 644.686 302.272 632.69L294.451 613.453C294.338 615.923 294.439 618.399 294.753 620.852C296.504 634.261 313.703 661.365 331.763 675.937C349.822 690.508 374.315 696.91 396.451 690.493C418.588 684.075 429.097 660.776 431.423 657.575C433.099 655.174 439.094 642.022 438.58 625.774Z" fill="#362822"/>
<path d="M340.73 574.812C340.73 574.812 344.233 574.238 351.224 588.81C358.215 603.381 372.5 614.48 378.404 626.394C384.308 638.308 389.185 649.995 390.937 654.661C392.689 659.327 396.766 663.102 398.215 667.194C399.665 671.286 399.967 677.1 401.416 676.798C402.866 676.496 398.502 664.28 399.378 661.063C400.254 657.847 404.92 651.46 404.044 648.244C403.168 645.027 397.626 639.803 398.804 638.625C399.982 637.447 415.414 634.85 408.71 634.85C402.005 634.85 394.712 636.888 393.61 633.974C392.507 631.06 392.447 624.914 392.447 624.914C392.447 624.914 394.772 624.34 391.858 622C388.944 619.659 386.045 612.396 386.045 612.396C386.045 612.396 377.589 598.987 371.473 592.283C365.358 585.579 362.413 582.664 358.94 580.913C355.467 579.161 355.739 580.052 352.825 576.836C349.91 573.619 351.647 571.596 348.446 572.472C345.244 573.348 336.955 568.984 340.73 574.812Z" fill="#362822" stroke="#362822" stroke-width="1.6861" stroke-miterlimit="10"/>
<path d="M318.883 656.11C318.883 656.11 331.416 664.853 341.533 671.21C351.65 677.567 373.243 678.76 381.457 677.914" stroke="#1A3447" stroke-width="1.6861" stroke-miterlimit="10"/>
<path d="M388.824 676.797C388.824 676.797 395.816 674.759 397.884 673.022" stroke="#1A3447" stroke-width="1.6861" stroke-miterlimit="10"/>
<path d="M403.969 668.643C403.969 668.643 414.539 662.241 419.703 656.986C424.867 651.731 429.035 650.584 433.399 636.299C437.763 622.014 435.15 614.449 435.15 614.449" stroke="#1A3447" stroke-width="1.6861" stroke-miterlimit="10"/>
<path d="M330.538 571.021C330.538 571.021 319.168 571.897 308.387 582.105C303.266 587.066 299.364 593.146 296.988 599.869C294.611 606.592 293.825 613.774 294.691 620.851C296.443 634.26 313.642 661.365 331.701 675.936C349.761 690.508 374.253 696.91 396.39 690.492C418.526 684.075 429.036 660.776 431.361 657.574C433.687 654.373 443.592 631.904 435.438 608.62C427.284 585.336 417.665 570.145 399.017 559.953C380.368 549.76 360.844 549.172 349.474 556.163C338.104 563.154 334.902 571.021 334.902 571.021H330.538Z" stroke="#1A3447" stroke-width="1.6861" stroke-miterlimit="10"/>
<path d="M358.018 666.394C358.018 667.149 356.705 667.753 355.089 667.753C353.473 667.753 352.145 667.149 352.145 666.394C352.145 665.639 353.458 665.035 355.089 665.035C356.72 665.035 358.018 665.654 358.018 666.394Z" stroke="#1A3447" stroke-width="1.6861" stroke-miterlimit="10"/>
<path d="M364.349 559.727C364.349 560.482 363.035 561.086 361.419 561.086C359.803 561.086 358.475 560.482 358.475 559.727C358.475 558.972 359.788 558.368 361.419 558.368C363.05 558.368 364.349 558.987 364.349 559.727Z" stroke="#1A3447" stroke-width="1.6861" stroke-miterlimit="10"/>
<path d="M380.628 558.987C380.628 560.573 378.605 561.871 376.098 561.871C373.592 561.871 371.568 560.573 371.568 558.987C371.568 557.402 373.592 556.118 376.098 556.118C378.605 556.118 380.628 557.402 380.628 558.987Z" stroke="#1A3447" stroke-width="1.6861" stroke-miterlimit="10"/>
<path d="M159.925 614.283C159.925 614.283 165.165 608.53 189.355 599.47C213.545 590.41 242.1 586.635 249.967 587.511C257.834 588.387 262.787 586.635 271.53 589.262C280.272 591.89 284.062 592.464 285.225 593.928C286.388 595.393 289.589 598.292 289.891 599.168C290.193 600.044 303.587 602.958 303.874 627.435C304.161 651.912 289.921 669.066 262.741 681.886C235.561 694.706 222.243 701.41 192.813 700.534C163.383 699.659 149.491 684.513 140.431 672.267C131.371 660.021 133.697 639.334 140.431 629.67C144.963 623.604 151.127 618.954 158.204 616.261L159.925 614.283Z" fill="white"/>
<path d="M137.408 649.844C138.238 661.048 145.803 669.746 152.251 674.23C158.699 678.715 175.52 682.067 179.718 682.354C183.916 682.641 213.074 681.237 225.969 678.987C238.864 676.737 252.288 669.64 263.251 665.261C274.214 660.882 288.196 650.402 296.607 638.081C302.284 629.746 302.209 618.843 301.56 612.667C303.133 617.42 303.914 622.399 303.87 627.405C304.157 651.882 289.887 669.081 262.783 681.901C235.678 694.721 222.285 701.425 192.855 700.55C163.425 699.674 149.488 684.513 140.428 672.267C133.512 662.905 133.27 648.605 136.532 638.096C136.728 641.086 137.045 645.042 137.408 649.844Z" fill="#362822"/>
<path d="M282.897 604.664L268.326 615.159C266.287 616.669 258.42 619.81 251.716 623.026C245.011 626.242 229.277 632.086 212.365 637.295C195.453 642.505 175.37 650.417 171.867 651.58C168.364 652.743 164 655.657 163.411 659.734C162.822 663.811 172.743 675.468 168.666 676.344C164.589 677.22 159.334 669.941 158.458 667.027C157.582 664.113 159.334 661.199 156.722 660.323C154.109 659.447 148.266 662.361 148.266 660.323C148.266 658.284 155.816 653.905 155.816 653.905C161.531 650.207 167.489 646.897 173.649 644C182.09 640.21 185.88 641.085 196.087 635.559C206.295 630.032 215.023 623.902 223.766 620.112C230.242 617.549 236.975 615.692 243.849 614.57C245.011 614.283 239.47 619.236 248.499 611.942C257.529 604.649 268.613 604.664 271.527 604.075C274.441 603.486 290.462 597.084 282.897 604.664Z" fill="#362822" stroke="#362822" stroke-width="1.6861" stroke-miterlimit="10"/>
<path d="M300.959 625.352C300.959 625.352 303.873 637.598 286.976 649.512C270.079 661.425 262.499 666.695 252.246 669.61" stroke="#1A3447" stroke-width="1.6861" stroke-miterlimit="10"/>
<path d="M246.766 671.678C235.16 676.352 223.025 679.582 210.632 681.297C191.681 683.637 168.352 681.01 168.352 681.01" stroke="#1A3447" stroke-width="1.6861" stroke-miterlimit="10"/>
<path d="M158.171 676.933C154.7 675.589 151.456 673.72 148.552 671.392C143.776 667.496 140.317 662.223 138.646 656.292" stroke="#1A3447" stroke-width="1.6861" stroke-miterlimit="10"/>
<path d="M159.925 614.283C159.925 614.283 165.165 608.53 189.355 599.47C213.545 590.41 242.1 586.635 249.967 587.511C257.834 588.387 262.787 586.635 271.53 589.262C280.272 591.89 284.062 592.464 285.225 593.928C286.388 595.393 289.589 598.292 289.891 599.168C290.193 600.044 303.587 602.958 303.874 627.435C304.161 651.912 289.921 669.066 262.741 681.886C235.561 694.706 222.243 701.41 192.813 700.534C163.383 699.659 149.491 684.513 140.431 672.267C131.371 660.021 133.697 639.334 140.431 629.67C144.963 623.604 151.127 618.954 158.204 616.261L159.925 614.283Z" stroke="#1A3447" stroke-width="1.6861" stroke-miterlimit="10"/>
<path d="M262.544 653.905C264.413 653.905 265.927 652.891 265.927 651.64C265.927 650.389 264.413 649.375 262.544 649.375C260.676 649.375 259.162 650.389 259.162 651.64C259.162 652.891 260.676 653.905 262.544 653.905Z" stroke="#1A3447" stroke-width="1.6861" stroke-miterlimit="10"/>
<path d="M246.494 661.123C246.494 661.878 247.506 662.482 248.759 662.482C250.012 662.482 251.024 661.878 251.024 661.123C251.024 660.368 250.012 659.779 248.759 659.779C247.506 659.779 246.494 660.383 246.494 661.123Z" stroke="#1A3447" stroke-width="1.6861" stroke-miterlimit="10"/>
<path d="M213.5 656.609C213.5 657.107 214.21 657.515 215.086 657.515C215.961 657.515 216.671 657.107 216.671 656.609C216.671 656.11 215.961 655.703 215.086 655.703C214.21 655.703 213.5 656.11 213.5 656.609Z" stroke="#1A3447" stroke-width="1.6861" stroke-miterlimit="10"/>
<path d="M150.682 626.786C150.682 627.526 151.995 628.13 153.611 628.13C155.227 628.13 156.631 627.526 156.631 626.786C156.631 626.046 155.317 625.427 153.611 625.427C151.905 625.427 150.682 626.031 150.682 626.786Z" stroke="#1A3447" stroke-width="1.6861" stroke-miterlimit="10"/>
</svg>
