<svg width="363" height="410" viewBox="0 0 363 410" fill="none" xmlns="http://www.w3.org/2000/svg">
<path d="M104.27 173.54C109.43 197.211 122.697 223.794 144.779 233.939C178.143 249.267 178.578 279.427 241.148 284.472C250.294 285.251 259.498 284.98 268.582 283.664C273.038 283.003 277.444 282.044 281.772 280.795C320.074 269.752 343.331 237.843 349.403 202.153C357.409 155.214 329.108 128.82 310.54 113.113C291.972 97.4057 273.984 43.3389 212.523 37.8436C203.123 36.9672 193.651 37.2403 184.317 38.6567C162.989 41.9716 140.425 52.3961 125.898 69.9462C124.802 71.2641 123.747 72.6242 122.729 74.0094C102.781 101.199 97.2362 141.272 104.27 173.54Z" fill="#F0C376"/>
<path opacity="0.7" d="M104.27 173.54C109.43 197.211 122.697 223.794 144.779 233.939C178.143 249.267 178.578 279.427 241.148 284.472C250.294 285.251 259.498 284.98 268.582 283.664C273.038 283.003 277.444 282.044 281.772 280.795C320.074 269.752 343.331 237.843 349.403 202.153C357.409 155.214 329.108 128.82 310.54 113.113C291.972 97.4057 273.984 43.3389 212.523 37.8436C203.123 36.9672 193.651 37.2403 184.317 38.6567C162.989 41.9716 140.425 52.3961 125.898 69.9462C124.802 71.2641 123.747 72.6242 122.729 74.0094C102.781 101.199 97.2362 141.272 104.27 173.54Z" fill="#FAEDD6"/>
<path d="M67.9797 295.748C67.9797 295.748 53.9218 299.842 47.1223 309.456C40.3229 319.069 38.5314 337.815 48.9259 349.668C59.3205 361.521 79.9205 375.15 109.643 378.793C139.365 382.437 161.738 364.961 166.831 352.077C171.924 339.193 167.775 323.259 151.974 310.098C136.174 296.936 123.482 296.072 105.764 293.391C88.047 290.71 67.9797 295.748 67.9797 295.748Z" fill="#362822" stroke="#1A3447" stroke-width="1.21113" stroke-miterlimit="10"/>
<path d="M195.543 348.452C195.257 347.741 194.897 347.062 194.468 346.426C191.538 341.957 179.194 325.094 156.828 319.951C133.961 314.701 107.702 315.189 96.7552 328.204C85.8087 341.219 87.1332 364.457 98.545 375.496C119.962 396.229 138.253 394.063 158.126 392.695C192.969 390.284 201.969 364.689 195.543 348.452Z" fill="white"/>
<path d="M93.0315 337.164C93.0315 337.164 94.0809 347.579 95.4407 350.722C96.8005 353.866 104.168 362.206 105.936 364C107.705 365.793 118.128 373.586 120.497 374.519C122.867 375.452 141.6 377.512 141.6 377.512C141.6 377.512 153.569 379.676 156.62 379.331C159.671 378.986 168.748 378.165 168.748 378.165C171.951 377.571 175.095 376.696 178.143 375.549C181.564 374.058 189.503 369.81 189.503 369.81C189.503 369.81 184.805 380.717 179.854 385.949C174.903 391.182 154.569 393.023 153.057 393.188C151.545 393.353 136.602 394.72 125.676 391.206C114.75 387.692 103.35 381.44 98.5564 375.454C93.7624 369.469 89.3573 358.309 89.1637 353.411C88.9701 348.513 93.0315 337.164 93.0315 337.164Z" fill="#362822"/>
<path d="M101.718 342.798C101.718 342.798 110.967 345.6 114.387 344.562C117.807 343.524 125.824 333.293 136.108 333.541C146.391 333.789 155.254 337.006 164.39 337.451C173.525 337.895 180.514 336.374 179.414 339.146C178.313 341.918 182.149 338.683 178.31 341.928C174.471 345.174 172.968 344.186 155.005 343.663C137.042 343.14 132.284 344.294 122.411 346.992C112.539 349.691 111.83 352.853 106.069 351.369C100.308 349.885 93.8716 341.203 95.5114 338.334C97.1512 335.464 100.225 340.022 101.718 342.798Z" fill="#362822" stroke="#362822" stroke-width="1.21113" stroke-miterlimit="10"/>
<path d="M195.516 348.534C195.23 347.823 194.87 347.144 194.441 346.508C191.511 342.039 179.166 325.176 156.8 320.033C133.934 314.783 107.674 315.271 96.7278 328.286C85.7814 341.301 87.1059 364.539 98.5176 375.578C119.935 396.311 138.225 394.145 158.099 392.777C192.942 390.366 201.942 364.771 195.516 348.534Z" stroke="#1A3447" stroke-width="1.21113" stroke-miterlimit="10"/>
<path d="M285.34 213.123C285.34 213.123 270.435 200.985 266.342 194.803C262.25 188.621 253.544 166.608 238.864 152.719C224.184 138.831 193.167 123.609 182.04 121.909C170.913 120.209 163.267 119.735 163.267 119.735C163.267 119.735 124.415 110.177 103.709 112.428C83.0029 114.679 57.1074 121.699 51.1034 125.447C45.0994 129.196 32.5419 138.32 26.8886 139.985C21.2354 141.649 12.7725 142.351 14.1876 145.033C15.6026 147.714 25.0154 156.511 25.0154 156.511C25.0154 156.511 37.433 178.01 49.3267 190.925C61.2204 203.84 83.3123 217.763 119.816 222.851C156.319 227.939 195.334 226.974 203.085 224.93C210.836 222.886 236.013 214.541 242.362 210.913C248.711 207.285 254.912 201.95 262.806 203.818C266.049 204.592 270.526 216.378 279.228 218.315C287.93 220.252 286.981 215.129 285.34 213.123Z" fill="#F0C376" stroke="#1A3447" stroke-width="1.02031" stroke-miterlimit="10"/>
<path d="M273.357 208.752C273.59 206.978 273.915 205.218 274.329 203.477C271.041 200.393 267.912 197.161 266.345 194.803C262.258 188.632 253.546 166.608 238.867 152.719C224.187 138.831 193.169 123.609 182.042 121.909C170.915 120.209 163.269 119.735 163.269 119.735C163.269 119.735 132.509 112.172 111.137 112.09C116.757 122.019 124.856 132.689 136.263 143.702C162.52 169.059 194.774 191.294 202.383 194.311C209.992 197.328 235.886 205.823 243.4 206.813C244.972 207.023 246.594 207.174 248.213 207.333C252.675 204.672 257.336 202.496 262.817 203.792C265.265 204.376 268.426 211.23 273.562 215.396C273.285 213.192 273.216 210.968 273.357 208.752Z" fill="#1A3447" stroke="#1A3447" stroke-width="1.02031" stroke-miterlimit="10"/>
<path d="M24.7141 143.968C24.7141 143.968 72.0452 158.317 112.603 162.992C153.161 167.668 188.519 173.817 214.263 179.53C240.007 185.244 261.607 194.978 265.681 197.863" stroke="#1A3447" stroke-width="1.02031" stroke-miterlimit="10"/>
<path d="M260.937 200.222C247.727 193.268 233.792 187.786 219.385 183.875C195.137 177.232 151.203 168.812 135.331 167.284" stroke="#1A3447" stroke-width="1.02031" stroke-miterlimit="10"/>
<path d="M194.914 147.585C203.846 160.501 214.259 179.51 214.259 179.51" stroke="#1A3447" stroke-width="1.02031" stroke-miterlimit="10"/>
<path d="M173.143 125.023C173.143 125.023 181.51 130.134 190.971 142.2C191.644 143.045 192.296 143.95 193.013 144.917" stroke="#1A3447" stroke-width="1.02031" stroke-miterlimit="10"/>
<path d="M231.646 166.759C236.652 176.589 242.214 186.102 243.935 187.381" stroke="#1A3447" stroke-width="1.02031" stroke-miterlimit="10"/>
<path d="M211.133 137.184C211.133 137.184 225.248 153.798 230.534 164.405" stroke="#1A3447" stroke-width="1.02031" stroke-miterlimit="10"/>
<path d="M146.391 123.333C154.921 129.763 162.061 137.855 167.378 147.12C175.809 162.107 181.078 170.52 181.078 170.52" stroke="#1A3447" stroke-width="1.02031" stroke-miterlimit="10"/>
<path d="M147.043 160.525C148.302 163.182 149.198 164.966 149.685 165.32" stroke="#1A3447" stroke-width="1.02031" stroke-miterlimit="10"/>
<path d="M119.473 115.38C119.473 115.38 125.896 123.839 134.079 136.183C138.368 142.941 142.183 149.989 145.497 157.275" stroke="#1A3447" stroke-width="1.02031" stroke-miterlimit="10"/>
<path d="M97.9902 150.153C102.054 154.699 105.278 158.245 105.278 158.245" stroke="#1A3447" stroke-width="1.02031" stroke-miterlimit="10"/>
<path d="M82.459 120.703C82.459 120.703 88.7199 139.683 94.3189 146.015L95.4335 147.285" stroke="#1A3447" stroke-width="1.02031" stroke-miterlimit="10"/>
<path d="M101.305 117.067C101.305 117.067 114.186 139.454 119.235 148.497C124.283 157.54 127.314 160.031 127.314 160.031" stroke="#1A3447" stroke-width="1.02031" stroke-miterlimit="10"/>
<path d="M66.082 128.484C66.082 128.484 74.2014 148.849 80.2656 154.985" stroke="#1A3447" stroke-width="1.02031" stroke-miterlimit="10"/>
<path d="M46.3965 132.193C46.3965 132.193 53.2095 147.35 57.9818 150.479" stroke="#1A3447" stroke-width="1.02031" stroke-miterlimit="10"/>
<path d="M221.476 185.7C213.164 191.452 205.484 198.067 198.562 205.434C187.871 217.031 178.978 220.128 174.557 221.506" stroke="#1A3447" stroke-width="1.02031" stroke-miterlimit="10"/>
<path d="M159.91 205.198C158.022 206.639 156.263 207.961 154.681 209.082C142.103 218.238 130.546 218.904 130.546 218.904" stroke="#1A3447" stroke-width="1.02031" stroke-miterlimit="10"/>
<path d="M192.715 178.573C192.715 178.573 176.5 192.208 163.567 202.353" stroke="#1A3447" stroke-width="1.02031" stroke-miterlimit="10"/>
<path d="M99.9774 208.602C97.2984 209.7 94.4836 210.433 91.609 210.779" stroke="#1A3447" stroke-width="1.02031" stroke-miterlimit="10"/>
<path d="M158.422 171.702C158.422 171.702 150.016 177.892 130.418 191.487C122.74 196.942 114.639 201.776 106.193 205.943" stroke="#1A3447" stroke-width="1.02031" stroke-miterlimit="10"/>
<path d="M111.868 172.743C108.355 175.261 103.895 178.359 98.6002 181.822C88.3819 188.44 76.9711 193.001 65.0066 195.251" stroke="#1A3447" stroke-width="1.02031" stroke-miterlimit="10"/>
<path d="M120.962 165.912C120.962 165.912 118.868 167.61 114.958 170.493" stroke="#1A3447" stroke-width="1.02031" stroke-miterlimit="10"/>
<path d="M83.5932 165.014C78.9527 167.99 71.8335 172.52 64.7621 176.941C52.7657 184.432 48.4806 184.396 48.4806 184.396" stroke="#1A3447" stroke-width="1.02031" stroke-miterlimit="10"/>
<path d="M88.861 161.636L86.1517 163.351" stroke="#1A3447" stroke-width="1.02031" stroke-miterlimit="10"/>
<path d="M56.6248 154.39C52.9716 156.792 49.1973 159.004 45.317 161.018C38.635 164.491 35.2701 165.174 35.2701 165.174" stroke="#1A3447" stroke-width="1.02031" stroke-miterlimit="10"/>
<path d="M76.2162 158.68C76.2162 158.68 65.0271 163.888 54.525 169.346C44.023 174.804 40.5425 174.682 40.5425 174.682" stroke="#1A3447" stroke-width="1.02031" stroke-miterlimit="10"/>
<path d="M224.484 203.94C211.259 218.3 203.639 221.106 203.639 221.106" stroke="#1A3447" stroke-width="1.02031" stroke-miterlimit="10"/>
<path d="M242.463 191.57C242.463 191.57 238.476 189.877 227.693 200.599" stroke="#1A3447" stroke-width="1.02031" stroke-miterlimit="10"/>
<path d="M285.313 224.506C285.313 224.506 279.958 206.781 280.18 199.637C280.401 192.494 286.218 170.193 282.096 151.185C277.974 132.177 260.804 103.307 252.388 95.9527C243.972 88.5985 237.798 84.0796 237.798 84.0796C237.798 84.0796 210.616 55.5535 191.683 46.1899C172.751 36.8263 146.637 28.5153 139.309 28.2684C131.981 28.0214 115.88 28.5615 110.082 26.8453C104.283 25.1292 96.7028 21.145 96.2882 24.049C95.8737 26.9531 98.6185 39.0431 98.6185 39.0431C98.6185 39.0431 96.2698 62.9139 98.6359 79.6338C101.002 96.3536 111.349 119.404 139.223 143.178C167.097 166.951 200.754 187.141 208.546 189.66C216.338 192.18 242.684 199.081 250.224 199.605C257.765 200.13 266.231 199.197 271.801 204.947C274.093 207.306 270.834 219.128 277.032 225.378C283.231 231.628 285.482 227.014 285.313 224.506Z" fill="#F0C376" stroke="#1A3447" stroke-width="1.02031" stroke-miterlimit="10"/>
<path d="M105.855 28.8623C105.855 28.8623 137.378 65.8255 168.948 91.4036C200.519 116.982 226.798 140.943 245.196 159.373C263.593 177.803 276.064 197.211 277.819 201.745" stroke="#1A3447" stroke-width="1.02031" stroke-miterlimit="10"/>
<path d="M272.359 201.048C265.271 188.296 256.737 176.402 246.927 165.602C230.367 147.234 198.146 116.84 185.635 107.078" stroke="#1A3447" stroke-width="1.02031" stroke-miterlimit="10"/>
<path d="M247.889 123.408C247.732 138.54 245.161 159.361 245.161 159.361" stroke="#1A3447" stroke-width="1.02031" stroke-miterlimit="10"/>
<path d="M242.996 93.6389C242.996 93.6389 247.028 102.239 247.822 116.977C247.876 118.012 247.91 119.108 247.928 120.247" stroke="#1A3447" stroke-width="1.02031" stroke-miterlimit="10"/>
<path d="M267.568 158.499C265.934 169.049 264.941 179.649 265.644 181.598" stroke="#1A3447" stroke-width="1.02031" stroke-miterlimit="10"/>
<path d="M267.865 123.796C267.865 123.796 269.888 144.684 268.003 156.008" stroke="#1A3447" stroke-width="1.02031" stroke-miterlimit="10"/>
<path d="M221.328 77.8899C224.708 87.6046 225.926 97.9401 224.898 108.174C223.071 124.707 222.491 134.261 222.491 134.261" stroke="#1A3447" stroke-width="1.02031" stroke-miterlimit="10"/>
<path d="M199.598 107.978C199.083 110.779 198.773 112.694 198.944 113.257" stroke="#1A3447" stroke-width="1.02031" stroke-miterlimit="10"/>
<path d="M203.314 57.0581C203.314 57.0581 203.705 67.2706 203.242 81.5598C202.98 89.7342 201.449 98.3557 200.285 104.569" stroke="#1A3447" stroke-width="1.02031" stroke-miterlimit="10"/>
<path d="M164.248 73.269C164.971 79.0966 165.581 83.6655 165.581 83.6655" stroke="#1A3447" stroke-width="1.02031" stroke-miterlimit="10"/>
<path d="M168.719 41.3604C168.719 41.3604 162.664 59.9097 163.608 67.983L163.807 69.6013" stroke="#1A3447" stroke-width="1.02031" stroke-miterlimit="10"/>
<path d="M186.908 48.6152C186.908 48.6152 184.415 73.4521 183.261 83.4053C182.106 93.3586 183.164 97.0092 183.164 97.0092" stroke="#1A3447" stroke-width="1.02031" stroke-miterlimit="10"/>
<path d="M150.176 38.7527C150.176 38.7527 144.894 59.4112 146.331 67.5696" stroke="#1A3447" stroke-width="1.02031" stroke-miterlimit="10"/>
<path d="M131.279 31.1353C131.279 31.1353 127.98 46.9211 130.135 52.0295" stroke="#1A3447" stroke-width="1.02031" stroke-miterlimit="10"/>
<path d="M247.609 168.193C237.118 168.323 226.665 169.478 216.398 171.643C200.402 175.152 191.009 172.838 186.418 171.573" stroke="#1A3447" stroke-width="1.02031" stroke-miterlimit="10"/>
<path d="M183.76 150.618C181.311 150.73 179.008 150.894 177.02 150.935C160.913 151.463 150.681 145.788 150.681 145.788" stroke="#1A3447" stroke-width="1.02031" stroke-miterlimit="10"/>
<path d="M227.507 146.999C227.507 146.999 205.597 149.178 188.594 150.332" stroke="#1A3447" stroke-width="1.02031" stroke-miterlimit="10"/>
<path d="M130.93 121.067C128.027 120.516 125.208 119.586 122.546 118.302" stroke="#1A3447" stroke-width="1.02031" stroke-miterlimit="10"/>
<path d="M202.531 123.019C202.531 123.019 191.734 123.447 166.956 123.753C157.201 123.982 147.442 123.484 137.761 122.264" stroke="#1A3447" stroke-width="1.02031" stroke-miterlimit="10"/>
<path d="M162.482 98.804C157.995 98.9302 152.364 99.0053 145.8 98.9282C133.276 98.7462 120.893 96.2541 109.274 91.5773" stroke="#1A3447" stroke-width="1.02031" stroke-miterlimit="10"/>
<path d="M174.282 98.2423C174.282 98.2423 171.49 98.4767 166.456 98.673" stroke="#1A3447" stroke-width="1.02031" stroke-miterlimit="10"/>
<path d="M143.156 77.3987C137.395 77.2638 128.685 77.0663 120.052 76.789C105.395 76.324 101.788 73.9891 101.788 73.9891" stroke="#1A3447" stroke-width="1.02031" stroke-miterlimit="10"/>
<path d="M149.634 77.5321L146.279 77.4636" stroke="#1A3447" stroke-width="1.02031" stroke-miterlimit="10"/>
<path d="M126.656 54.375C126.656 54.375 120.844 54.3868 113.105 53.5993C105.366 52.8118 102.105 51.5079 102.105 51.5079" stroke="#1A3447" stroke-width="1.02031" stroke-miterlimit="10"/>
<path d="M140.693 68.3581C140.693 68.3581 128.083 66.4978 115.921 65.2104C103.759 63.9229 100.877 61.9482 100.877 61.9482" stroke="#1A3447" stroke-width="1.02031" stroke-miterlimit="10"/>
<path d="M239.266 184.375C219.461 188.731 211.292 186.874 211.292 186.874" stroke="#1A3447" stroke-width="1.02031" stroke-miterlimit="10"/>
<path d="M261.889 184.197C261.889 184.197 259.524 180.69 243.957 183.439" stroke="#1A3447" stroke-width="1.02031" stroke-miterlimit="10"/>
</svg>
