<svg width="287" height="195" viewBox="0 0 287 195" fill="none" xmlns="http://www.w3.org/2000/svg">
<path d="M45.0481 108.93C50.4608 120.503 60.3825 132.628 72.922 135.272C91.8681 139.266 95.6073 154.727 128.375 150.029C133.17 149.364 137.872 148.151 142.391 146.416C144.605 145.556 146.76 144.55 148.84 143.403C167.252 133.259 175.494 114.137 174.456 95.0737C173.103 69.9998 155.472 59.7238 144.091 53.8097C132.71 47.8956 117.157 22.1853 84.9073 26.5226C79.9704 27.1676 75.1307 28.4121 70.495 30.2285C59.9125 34.4193 49.5228 42.4106 44.097 53.13C43.6871 53.9355 43.303 54.758 42.9406 55.5892C35.8503 71.8983 37.6694 93.154 45.0481 108.93Z" fill="#F0C376"/>
<path opacity="0.7" d="M45.0481 108.93C50.4608 120.503 60.3825 132.628 72.922 135.272C91.8681 139.266 95.6073 154.727 128.375 150.029C133.17 149.364 137.872 148.151 142.391 146.416C144.605 145.556 146.76 144.55 148.84 143.403C167.252 133.259 175.494 114.137 174.456 95.0737C173.103 69.9998 155.472 59.7238 144.091 53.8097C132.71 47.8956 117.157 22.1853 84.9073 26.5226C79.9704 27.1676 75.1307 28.4121 70.495 30.2285C59.9125 34.4193 49.5228 42.4106 44.097 53.13C43.6871 53.9355 43.303 54.758 42.9406 55.5892C35.8503 71.8983 37.6694 93.154 45.0481 108.93Z" fill="#FAEDD6"/>
<path d="M14.0917 20.3226C14.0917 20.3226 5.64554 24.259 2.29608 30.9511C-1.05338 37.6431 -0.369682 49.632 7.3168 56.1031C15.0033 62.5741 29.2851 69.1418 48.339 68.534C67.393 67.9263 79.7894 54.7909 81.7507 46.1928C83.7121 37.5947 79.5546 27.9607 68.3391 21.2065C57.1236 14.4524 49.0504 15.1361 37.6415 15.1568C26.2326 15.1775 14.0917 20.3226 14.0917 20.3226Z" fill="#362822" stroke="#1A3447" stroke-width="0.771152" stroke-miterlimit="10"/>
<path d="M54.0773 0.584958C54.0773 0.584958 44.8301 1.77971 39.616 7.14575C34.4019 12.5118 31.4184 24.1417 36.7845 32.6362C42.1505 41.1307 53.7734 51.7522 72.1091 56.9318C90.4448 62.1114 106.246 53.3544 110.714 45.7508C115.182 38.1472 114.167 27.719 105.5 17.8778C96.833 8.03664 88.9255 6.24795 78.076 2.82253C67.2265 -0.602897 54.0773 0.584958 54.0773 0.584958Z" fill="white"/>
<path d="M110.714 45.7508C113.04 41.7451 113.852 37.0374 113 32.4842C109.657 35.6402 100.058 41.8281 76.3079 41.5657C58.1587 41.3585 43.2139 29.2797 34.1116 19.5767C33.475 24.1076 34.4188 28.7196 36.7843 32.6361C42.1503 41.1306 53.7733 51.7176 72.109 56.9317C90.4447 62.1458 106.26 53.3544 110.714 45.7508Z" fill="#362822"/>
<path d="M54.0773 0.584958C54.0773 0.584958 44.8301 1.77971 39.616 7.14575C34.4019 12.5118 31.4184 24.1417 36.7845 32.6362C42.1505 41.1307 53.7734 51.7522 72.1091 56.9318C90.4448 62.1114 106.246 53.3544 110.714 45.7508C115.182 38.1472 114.167 27.719 105.5 17.8778C96.833 8.03664 88.9255 6.24795 78.076 2.82253C67.2265 -0.602897 54.0773 0.584958 54.0773 0.584958Z" stroke="#1A3447" stroke-width="0.771152" stroke-miterlimit="10"/>
<path d="M55.073 4.87364C55.073 5.32944 54.5205 5.70238 53.8368 5.70238C53.1531 5.70238 52.5938 5.32944 52.5938 4.87364C52.5938 4.41784 53.1531 4.04492 53.8368 4.04492C54.5205 4.04492 55.073 4.41784 55.073 4.87364Z" stroke="#1A3447" stroke-width="0.771152" stroke-miterlimit="10"/>
<path d="M64.9964 7.72579C64.9964 8.31971 64.1953 8.80314 63.2077 8.80314C62.2201 8.80314 61.4121 8.31971 61.4121 7.72579C61.4121 7.13186 62.2132 6.64844 63.2077 6.64844C64.2022 6.64844 64.9964 7.12496 64.9964 7.72579Z" stroke="#1A3447" stroke-width="0.771152" stroke-miterlimit="10"/>
<path d="M57.7655 9.83208C57.7655 10.2879 57.2061 10.6608 56.5224 10.6608C55.8387 10.6608 55.2793 10.2879 55.2793 9.83208C55.2793 9.37628 55.8387 9.01025 56.5224 9.01025C57.2061 9.01025 57.7655 9.37628 57.7655 9.83208Z" stroke="#1A3447" stroke-width="0.771152" stroke-miterlimit="10"/>
<path d="M220.789 121.074C220.789 121.074 213.954 121.6 207.473 127.736C204.395 130.719 202.049 134.374 200.621 138.415C199.192 142.456 198.72 146.773 199.24 151.028C200.293 159.088 210.632 175.381 221.488 184.14C232.344 192.899 247.066 196.748 260.373 192.89C273.68 189.032 279.997 175.027 281.395 173.102C282.793 171.178 288.747 157.672 283.846 143.675C278.944 129.679 273.162 120.547 261.952 114.421C250.742 108.294 239.006 107.94 232.171 112.142C225.336 116.345 223.412 121.074 223.412 121.074H220.789Z" fill="white"/>
<path d="M285.734 153.987L284.826 147.198C284.656 146.453 284.457 145.7 284.227 144.938C284.227 148.65 284.045 154.995 282.584 160.314C280.369 168.383 278.046 170.616 266.246 178.531C254.446 186.446 251.378 185.366 246.367 185.947C241.357 186.528 229.847 183.414 218.901 176.008C212.343 171.529 207.123 165.355 203.797 158.144L199.095 146.58C199.027 148.065 199.088 149.553 199.277 151.028C200.33 159.088 210.668 175.381 221.524 184.14C232.38 192.9 247.103 196.748 260.409 192.89C273.716 189.033 280.033 175.027 281.431 173.103C282.439 171.66 286.042 163.754 285.734 153.987Z" fill="#362822"/>
<path d="M226.915 123.352C226.915 123.352 229.02 123.007 233.223 131.766C237.426 140.526 246.012 147.197 249.561 154.359C253.11 161.52 256.042 168.546 257.095 171.351C258.148 174.155 260.599 176.425 261.47 178.884C262.342 181.344 262.523 184.839 263.394 184.657C264.266 184.476 261.643 177.133 262.169 175.199C262.696 173.266 265.5 169.426 264.974 167.493C264.447 165.56 261.116 162.419 261.824 161.711C262.532 161.003 271.809 159.442 267.779 159.442C263.748 159.442 259.364 160.667 258.702 158.915C258.039 157.164 258.003 153.469 258.003 153.469C258.003 153.469 259.401 153.124 257.649 151.717C255.897 150.31 254.154 145.945 254.154 145.945C254.154 145.945 249.071 137.884 245.395 133.854C241.719 129.824 239.949 128.072 237.861 127.019C235.774 125.966 235.937 126.502 234.185 124.569C232.433 122.635 233.477 121.419 231.553 121.945C229.629 122.472 224.645 119.849 226.915 123.352Z" fill="#362822" stroke="#362822" stroke-width="1.01354" stroke-miterlimit="10"/>
<path d="M213.783 172.222C213.783 172.222 221.317 177.478 227.398 181.299C233.48 185.12 246.46 185.837 251.398 185.329" stroke="#1A3447" stroke-width="1.01354" stroke-miterlimit="10"/>
<path d="M255.826 184.657C255.826 184.657 260.029 183.432 261.272 182.388" stroke="#1A3447" stroke-width="1.01354" stroke-miterlimit="10"/>
<path d="M264.93 179.756C264.93 179.756 271.283 175.907 274.388 172.748C277.492 169.589 279.997 168.9 282.62 160.313C285.244 151.726 283.673 147.179 283.673 147.179" stroke="#1A3447" stroke-width="1.01354" stroke-miterlimit="10"/>
<path d="M220.789 121.074C220.789 121.074 213.954 121.6 207.473 127.736C204.395 130.719 202.049 134.374 200.621 138.415C199.192 142.456 198.72 146.773 199.24 151.028C200.293 159.088 210.632 175.381 221.488 184.14C232.344 192.899 247.066 196.748 260.373 192.89C273.68 189.032 279.997 175.027 281.395 173.102C282.793 171.178 288.747 157.672 283.846 143.675C278.944 129.679 273.162 120.547 261.952 114.421C250.742 108.294 239.006 107.94 232.171 112.142C225.336 116.345 223.412 121.074 223.412 121.074H220.789Z" stroke="#1A3447" stroke-width="1.01354" stroke-miterlimit="10"/>
<path d="M237.308 178.403C237.308 178.857 236.519 179.22 235.547 179.22C234.576 179.22 233.777 178.857 233.777 178.403C233.777 177.949 234.567 177.586 235.547 177.586C236.528 177.586 237.308 177.959 237.308 178.403Z" stroke="#1A3447" stroke-width="1.01354" stroke-miterlimit="10"/>
<path d="M241.113 114.284C241.113 114.738 240.323 115.101 239.352 115.101C238.381 115.101 237.582 114.738 237.582 114.284C237.582 113.83 238.372 113.467 239.352 113.467C240.332 113.467 241.113 113.839 241.113 114.284Z" stroke="#1A3447" stroke-width="1.01354" stroke-miterlimit="10"/>
<path d="M250.895 113.839C250.895 114.792 249.679 115.573 248.172 115.573C246.666 115.573 245.449 114.792 245.449 113.839C245.449 112.886 246.666 112.115 248.172 112.115C249.679 112.115 250.895 112.886 250.895 113.839Z" stroke="#1A3447" stroke-width="1.01354" stroke-miterlimit="10"/>
</svg>
