<svg width="294" height="300" viewBox="0 0 294 300" fill="none" xmlns="http://www.w3.org/2000/svg">
<path d="M188.174 124.514C189.779 139.624 187.133 158.068 175.993 168.47C159.161 184.185 164.86 202.225 128.611 217.589C123.321 219.859 117.789 221.516 112.121 222.528C109.338 223.014 106.526 223.314 103.703 223.426C78.7216 224.419 58.5739 210.019 47.9088 189.974C33.8698 163.615 45.5018 142.313 53.4517 129.294C61.4016 116.276 61.4277 80.5386 96.9272 65.1254C102.35 62.7466 108.042 61.0379 113.878 60.037C127.229 57.7967 142.719 59.5444 154.834 67.1214C155.747 67.6894 156.643 68.2906 157.523 68.9139C174.769 81.1582 185.986 103.916 188.174 124.514Z" fill="#F0C376"/>
<path opacity="0.7" d="M188.174 124.514C189.779 139.624 187.133 158.068 175.993 168.47C159.161 184.185 164.86 202.225 128.611 217.589C123.321 219.859 117.789 221.516 112.121 222.528C109.338 223.014 106.526 223.314 103.703 223.426C78.7216 224.419 58.5739 210.019 47.9088 189.974C33.8698 163.615 45.5018 142.313 53.4517 129.294C61.4016 116.276 61.4277 80.5386 96.9272 65.1254C102.35 62.7466 108.042 61.0379 113.878 60.037C127.229 57.7967 142.719 59.5444 154.834 67.1214C155.747 67.6894 156.643 68.2906 157.523 68.9139C174.769 81.1582 185.986 103.916 188.174 124.514Z" fill="white"/>
<path d="M266.799 185.565C266.799 185.565 275.354 188.903 279.068 195.286C282.782 201.669 282.861 213.48 275.709 220.307C268.557 227.135 254.931 234.506 236.161 235.132C217.39 235.759 204.383 223.599 201.917 215.267C199.45 206.936 202.927 197.212 213.528 189.867C224.13 182.521 232.107 182.686 243.324 181.995C254.542 181.303 266.799 185.565 266.799 185.565Z" fill="#362822" stroke="#1A3447" stroke-width="0.759608" stroke-miterlimit="10"/>
<path d="M184.182 211.409C184.4 210.981 184.663 210.577 184.966 210.203C187.044 207.574 195.692 197.725 209.95 195.753C224.527 193.743 240.905 195.505 247.021 204.244C253.137 212.982 251.02 227.426 243.278 233.689C228.747 245.453 217.441 243.084 205.101 241.126C183.468 237.686 179.266 221.197 184.182 211.409Z" fill="white"/>
<path d="M248.849 210.047C248.849 210.047 247.616 216.496 246.592 218.384C245.568 220.272 240.502 225.074 239.298 226.096C238.093 227.118 231.149 231.408 229.617 231.86C228.085 232.311 216.268 232.558 216.268 232.558C216.268 232.558 208.67 233.245 206.783 232.86C204.896 232.475 199.271 231.459 199.271 231.459C197.303 230.91 195.388 230.189 193.547 229.303C191.493 228.182 186.769 225.087 186.769 225.087C186.769 225.087 189.098 232.162 191.901 235.706C194.703 239.249 207.304 241.528 208.24 241.715C209.175 241.902 218.435 243.586 225.456 241.997C232.476 240.408 239.945 237.135 243.272 233.662C246.6 230.189 249.971 223.461 250.364 220.412C250.757 217.363 248.849 210.047 248.849 210.047Z" fill="#362822"/>
<path d="M243.11 213.085C243.11 213.085 237.176 214.322 235.098 213.484C233.019 212.646 228.578 205.81 222.14 205.394C215.702 204.978 209.986 206.496 204.254 206.266C198.522 206.036 194.241 204.698 194.774 206.491C195.308 208.284 193.091 206.05 195.309 208.291C197.527 210.531 198.521 209.998 209.772 210.668C221.023 211.338 223.932 212.323 229.95 214.557C235.968 216.791 236.235 218.806 239.916 218.199C243.598 217.591 248.101 212.525 247.235 210.641C246.37 208.758 244.197 211.434 243.11 213.085Z" fill="#362822" stroke="#362822" stroke-width="0.759608" stroke-miterlimit="10"/>
<path d="M184.191 211.462C184.41 211.034 184.672 210.63 184.975 210.256C187.054 207.627 195.702 197.777 209.96 195.806C224.537 193.795 240.915 195.558 247.031 204.297C253.147 213.035 251.03 227.479 243.288 233.741C228.757 245.505 217.451 243.137 205.111 241.179C183.478 237.739 179.276 221.249 184.191 211.462Z" stroke="#1A3447" stroke-width="0.759608" stroke-miterlimit="10"/>
<path d="M88.1931 183.854C88.1931 183.854 94.6673 173.685 95.8821 169.196C97.0969 164.707 97.9302 149.884 103.925 138.717C109.919 127.549 125.376 112.361 131.663 109.15C137.951 105.94 142.409 104.147 142.409 104.147C142.409 104.147 163.647 90.7826 176.418 88.0319C189.188 85.2812 205.989 84.344 210.304 85.3891C214.618 86.4343 223.896 89.385 227.59 89.2588C231.284 89.1326 236.46 87.8785 236.148 89.7544C235.835 91.6304 231.97 98.726 231.97 98.726C231.97 98.726 228.826 113.977 224.297 124.015C219.769 134.052 209.369 146.704 188.645 156.945C167.921 167.185 144.507 174.318 139.489 174.632C134.471 174.947 117.835 174.953 113.339 174.048C108.843 173.143 104.098 171.192 99.7682 173.863C97.991 174.965 97.6541 182.865 92.8567 185.737C88.0592 188.61 87.6123 185.373 88.1931 183.854Z" fill="#F0C376" stroke="#1A3447" stroke-width="0.639928" stroke-miterlimit="10"/>
<path d="M94.467 178.885C93.9777 177.875 93.4368 176.891 92.8466 175.937C94.1942 173.452 95.4185 170.909 95.8855 169.196C97.0993 164.716 97.9336 149.884 103.928 138.717C109.923 127.55 125.379 112.361 131.667 109.151C137.955 105.94 142.412 104.148 142.412 104.148C142.412 104.148 159.228 93.5688 171.934 89.2978C170.55 96.3185 167.837 104.27 163.222 113.079C152.603 133.36 137.796 152.968 133.862 156.267C129.929 159.566 116.193 169.739 111.916 171.812C111.022 172.248 110.086 172.658 109.154 173.073C105.972 172.37 102.768 171.996 99.7612 173.85C98.4195 174.681 97.8918 179.386 95.6575 182.88C95.3873 181.514 94.9887 180.176 94.467 178.885Z" fill="#1A3447" stroke="#1A3447" stroke-width="0.639928" stroke-miterlimit="10"/>
<path d="M229.673 91.2001C229.673 91.2001 204.334 109.092 181.115 119.888C157.896 130.683 138.064 141.329 123.868 149.816C109.672 158.303 98.7375 168.365 96.8826 170.887" stroke="#1A3447" stroke-width="0.639928" stroke-miterlimit="10"/>
<path d="M100.17 171.354C106.66 164.605 113.871 158.589 121.675 153.415C134.797 144.67 159.286 130.979 168.432 126.933" stroke="#1A3447" stroke-width="0.639928" stroke-miterlimit="10"/>
<path d="M129.074 126.978C126.309 136.43 123.866 149.803 123.866 149.803" stroke="#1A3447" stroke-width="0.639928" stroke-miterlimit="10"/>
<path d="M137.578 109.247C137.578 109.247 133.607 113.943 130.359 122.994C130.125 123.629 129.916 124.297 129.68 125.014" stroke="#1A3447" stroke-width="0.639928" stroke-miterlimit="10"/>
<path d="M110.996 145.648C109.959 152.489 108.527 159.25 107.755 160.352" stroke="#1A3447" stroke-width="0.639928" stroke-miterlimit="10"/>
<path d="M117.365 123.99C117.365 123.99 112.245 136.669 111.194 144.026" stroke="#1A3447" stroke-width="0.639928" stroke-miterlimit="10"/>
<path d="M153.168 102.955C149.36 108.468 146.709 114.695 145.374 121.261C143.316 131.847 141.842 137.896 141.842 137.896" stroke="#1A3447" stroke-width="0.639928" stroke-miterlimit="10"/>
<path d="M160.127 125.224C159.902 127.054 159.721 128.293 159.502 128.6" stroke="#1A3447" stroke-width="0.639928" stroke-miterlimit="10"/>
<path d="M167.621 92.9033C167.621 92.9033 165.468 99.2073 163.036 108.172C161.818 113.042 160.939 117.991 160.406 122.983" stroke="#1A3447" stroke-width="0.639928" stroke-miterlimit="10"/>
<path d="M187.277 109.359C185.756 112.869 184.538 115.616 184.538 115.616" stroke="#1A3447" stroke-width="0.639928" stroke-miterlimit="10"/>
<path d="M190.705 88.7598C190.705 88.7598 190.728 101.295 188.646 106.17L188.233 107.146" stroke="#1A3447" stroke-width="0.639928" stroke-miterlimit="10"/>
<path d="M178.768 90.3184C178.768 90.3184 175.522 106.19 174.304 112.57C173.085 118.95 171.773 121.032 171.773 121.032" stroke="#1A3447" stroke-width="0.639928" stroke-miterlimit="10"/>
<path d="M201.99 90.1553C201.99 90.1553 201.18 103.882 198.783 108.733" stroke="#1A3447" stroke-width="0.639928" stroke-miterlimit="10"/>
<path d="M214.439 88.4746C214.439 88.4746 213.378 98.8428 211.156 101.648" stroke="#1A3447" stroke-width="0.639928" stroke-miterlimit="10"/>
<path d="M120.79 154.915C126.874 156.697 132.753 159.117 138.329 162.135C146.984 166.926 152.889 167.012 155.793 166.959" stroke="#1A3447" stroke-width="0.639928" stroke-miterlimit="10"/>
<path d="M161.293 154.357C162.701 154.842 164.009 155.281 165.173 155.636C174.469 158.602 181.48 156.715 181.48 156.715" stroke="#1A3447" stroke-width="0.639928" stroke-miterlimit="10"/>
<path d="M136.506 144.99C136.506 144.99 148.851 149.903 158.554 153.387" stroke="#1A3447" stroke-width="0.639928" stroke-miterlimit="10"/>
<path d="M197.641 144.544C199.453 144.668 201.273 144.548 203.052 144.186" stroke="#1A3447" stroke-width="0.639928" stroke-miterlimit="10"/>
<path d="M155.561 134.124C155.561 134.124 161.788 136.148 176.14 140.369C181.788 142.099 187.565 143.376 193.416 144.188" stroke="#1A3447" stroke-width="0.639928" stroke-miterlimit="10"/>
<path d="M183.478 125.546C186.067 126.352 189.334 127.314 193.17 128.33C200.56 130.251 208.253 130.711 215.82 129.687" stroke="#1A3447" stroke-width="0.639928" stroke-miterlimit="10"/>
<path d="M176.716 123.278C176.716 123.278 178.297 123.875 181.195 124.819" stroke="#1A3447" stroke-width="0.639928" stroke-miterlimit="10"/>
<path d="M198.783 115.36C202.133 116.215 207.266 117.505 212.349 118.739C220.97 120.829 223.513 119.961 223.513 119.961" stroke="#1A3447" stroke-width="0.639928" stroke-miterlimit="10"/>
<path d="M194.981 114.39L196.933 114.875" stroke="#1A3447" stroke-width="0.639928" stroke-miterlimit="10"/>
<path d="M212.736 103.709C215.385 104.417 218.069 104.988 220.777 105.42C225.441 106.168 227.578 105.909 227.578 105.909" stroke="#1A3447" stroke-width="0.639928" stroke-miterlimit="10"/>
<path d="M201.923 110.132C201.923 110.132 209.612 111.022 216.942 112.196C224.272 113.37 226.319 112.61 226.319 112.61" stroke="#1A3447" stroke-width="0.639928" stroke-miterlimit="10"/>
<path d="M122.607 166.365C133.316 172.301 138.407 172.466 138.407 172.466" stroke="#1A3447" stroke-width="0.639928" stroke-miterlimit="10"/>
<path d="M109.459 162.554C109.459 162.554 111.498 160.758 120.035 165.01" stroke="#1A3447" stroke-width="0.639928" stroke-miterlimit="10"/>
<path d="M90.4592 190.624C90.4592 190.624 90.1446 179.015 88.6017 174.807C87.0588 170.598 79.1904 158.473 77.889 146.344C76.5876 134.215 81.1043 113.637 84.6613 107.597C88.2183 101.556 91.0008 97.6467 91.0008 97.6467C91.0008 97.6467 101.546 75.2962 110.965 65.9822C120.385 56.6682 134.288 46.5619 138.601 44.9672C142.915 43.3725 152.606 40.5131 155.718 38.346C158.831 36.179 162.556 32.3097 163.376 33.9565C164.197 35.6033 164.951 43.3423 164.951 43.3423C164.951 43.3423 171.065 57.0876 172.96 67.5078C174.855 77.9279 173.25 93.693 161.354 113.351C149.458 133.01 133.412 151.677 129.272 154.716C125.131 157.755 110.812 167.068 106.427 168.87C102.042 170.672 96.8178 171.789 94.6382 176.312C93.7398 178.169 98.0153 184.562 95.5604 189.507C93.1055 194.452 90.854 192.15 90.4592 190.624Z" fill="#F0C376" stroke="#1A3447" stroke-width="0.639928" stroke-miterlimit="10"/>
<path d="M158.633 38.7129C158.633 38.7129 147.171 66.9432 133.432 88.4058C119.692 109.868 108.783 129.324 101.472 143.929C94.1622 158.534 90.573 172.551 90.4237 175.596" stroke="#1A3447" stroke-width="0.639928" stroke-miterlimit="10"/>
<path d="M93.5363 174.103C95.2367 165.112 97.9668 156.346 101.673 147.979C107.901 133.774 121.077 109.316 126.596 101.033" stroke="#1A3447" stroke-width="0.639928" stroke-miterlimit="10"/>
<path d="M92.7656 123.052C95.8484 132.028 101.492 143.915 101.492 143.915" stroke="#1A3447" stroke-width="0.639928" stroke-miterlimit="10"/>
<path d="M89.7968 104.364C89.7968 104.364 89.0958 110.28 91.535 119.21C91.7071 119.837 91.9037 120.496 92.1178 121.177" stroke="#1A3447" stroke-width="0.639928" stroke-miterlimit="10"/>
<path d="M87.9824 147.828C91.0394 153.785 93.7249 159.899 93.6914 161.198" stroke="#1A3447" stroke-width="0.639928" stroke-miterlimit="10"/>
<path d="M80.9492 127.229C80.9492 127.229 83.8715 140.063 87.2308 146.431" stroke="#1A3447" stroke-width="0.639928" stroke-miterlimit="10"/>
<path d="M99.582 90.709C99.4892 97.1595 100.806 103.553 103.44 109.441C107.794 118.922 110.026 124.494 110.026 124.494" stroke="#1A3447" stroke-width="0.639928" stroke-miterlimit="10"/>
<path d="M118.463 104.327C119.322 105.893 119.886 106.971 119.895 107.34" stroke="#1A3447" stroke-width="0.639928" stroke-miterlimit="10"/>
<path d="M106.189 74.751C106.189 74.751 107.974 80.9072 111.073 89.3217C112.844 94.1358 115.458 98.9653 117.379 102.434" stroke="#1A3447" stroke-width="0.639928" stroke-miterlimit="10"/>
<path d="M132.644 76.6826C133.366 80.2943 133.905 83.1346 133.905 83.1346" stroke="#1A3447" stroke-width="0.639928" stroke-miterlimit="10"/>
<path d="M123.684 58.5713C123.684 58.5713 130.952 68.4168 131.985 73.4091L132.186 74.4118" stroke="#1A3447" stroke-width="0.639928" stroke-miterlimit="10"/>
<path d="M114.287 66.4834C114.287 66.4834 120.678 80.7753 123.331 86.472C125.985 92.1687 126.077 94.5507 126.077 94.5507" stroke="#1A3447" stroke-width="0.639928" stroke-miterlimit="10"/>
<path d="M134.205 53.3564C134.205 53.3564 141.43 64.6101 142.187 69.7505" stroke="#1A3447" stroke-width="0.639928" stroke-miterlimit="10"/>
<path d="M143.947 45.0879C143.947 45.0879 149.03 53.8329 148.756 57.2994" stroke="#1A3447" stroke-width="0.639928" stroke-miterlimit="10"/>
<path d="M101.78 149.656C108.05 147.66 114.501 146.283 121.039 145.543C131.255 144.472 136.389 141.239 138.872 139.579" stroke="#1A3447" stroke-width="0.639928" stroke-miterlimit="10"/>
<path d="M136.312 126.58C137.792 126.163 139.195 125.805 140.387 125.437C150.079 122.569 155.048 117.17 155.048 117.17" stroke="#1A3447" stroke-width="0.639928" stroke-miterlimit="10"/>
<path d="M109.556 133.069C109.556 133.069 123.029 130.037 133.378 127.365" stroke="#1A3447" stroke-width="0.639928" stroke-miterlimit="10"/>
<path d="M161.923 98.5521C163.543 97.6504 165.037 96.5402 166.368 95.25" stroke="#1A3447" stroke-width="0.639928" stroke-miterlimit="10"/>
<path d="M119.685 113.86C119.685 113.86 126.197 111.982 141.007 107.268C146.859 105.478 152.57 103.253 158.091 100.614" stroke="#1A3447" stroke-width="0.639928" stroke-miterlimit="10"/>
<path d="M138.743 91.5332C141.439 90.7219 144.805 89.6543 148.698 88.3115C156.117 85.729 162.995 81.7993 168.988 76.7199" stroke="#1A3447" stroke-width="0.639928" stroke-miterlimit="10"/>
<path d="M131.607 93.5299C131.607 93.5299 133.316 93.1179 136.351 92.2402" stroke="#1A3447" stroke-width="0.639928" stroke-miterlimit="10"/>
<path d="M146.017 74.9743C149.419 73.756 154.565 71.9178 159.649 70.047C168.282 66.8748 169.968 64.7722 169.968 64.7722" stroke="#1A3447" stroke-width="0.639928" stroke-miterlimit="10"/>
<path d="M142.189 76.3322L144.172 75.6288" stroke="#1A3447" stroke-width="0.639928" stroke-miterlimit="10"/>
<path d="M151.291 58.0087C151.291 58.0087 154.753 56.8676 159.204 54.8699C163.656 52.8722 165.339 51.4517 165.339 51.4517" stroke="#1A3447" stroke-width="0.639928" stroke-miterlimit="10"/>
<path d="M145.696 69.1049C145.696 69.1049 152.835 65.5062 159.82 62.3372C166.806 59.1681 168.131 57.4233 168.131 57.4233" stroke="#1A3447" stroke-width="0.639928" stroke-miterlimit="10"/>
<path d="M109.94 157.64C122.59 156.32 127.086 153.601 127.086 153.601" stroke="#1A3447" stroke-width="0.639928" stroke-miterlimit="10"/>
<path d="M96.4399 162.003C96.4399 162.003 97.155 159.448 106.964 158.009" stroke="#1A3447" stroke-width="0.639928" stroke-miterlimit="10"/>
</svg>
