<svg width="294" height="300" viewBox="0 0 294 300" fill="none" xmlns="http://www.w3.org/2000/svg">
<path d="M105.116 124.513C103.511 139.623 106.157 158.067 117.297 168.469C134.13 184.184 128.431 202.224 164.679 217.588C169.969 219.858 175.502 221.515 181.169 222.527C183.952 223.013 186.765 223.313 189.588 223.425C214.569 224.418 234.717 210.018 245.382 189.973C259.421 163.614 247.789 142.312 239.839 129.293C231.889 116.275 231.863 80.5376 196.363 65.1245C190.941 62.7457 185.249 61.0369 179.412 60.036C166.062 57.7958 150.571 59.5435 138.457 67.1204C137.544 67.6884 136.647 68.2896 135.767 68.9129C118.521 81.1572 107.304 103.915 105.116 124.513Z" fill="#F0C376"/>
<path opacity="0.7" d="M105.116 124.513C103.511 139.623 106.157 158.067 117.297 168.469C134.13 184.184 128.431 202.224 164.679 217.588C169.969 219.858 175.502 221.515 181.169 222.527C183.952 223.013 186.765 223.313 189.588 223.425C214.569 224.418 234.717 210.018 245.382 189.973C259.421 163.614 247.789 142.312 239.839 129.293C231.889 116.275 231.863 80.5376 196.363 65.1245C190.941 62.7457 185.249 61.0369 179.412 60.036C166.062 57.7958 150.571 59.5435 138.457 67.1204C137.544 67.6884 136.647 68.2896 135.767 68.9129C118.521 81.1572 107.304 103.915 105.116 124.513Z" fill="white"/>
<path d="M26.492 185.564C26.492 185.564 17.9369 188.902 14.2228 195.285C10.5086 201.669 10.43 213.479 17.5817 220.307C24.7333 227.135 38.3593 234.506 57.1299 235.132C75.9005 235.758 88.9074 223.599 91.3739 215.267C93.8404 206.935 90.3639 197.212 79.7623 189.866C69.1607 182.521 61.1837 182.686 49.9663 181.994C38.7489 181.302 26.492 185.564 26.492 185.564Z" fill="#362822" stroke="#1A3447" stroke-width="0.759608" stroke-miterlimit="10"/>
<path d="M109.109 211.409C108.891 210.981 108.628 210.577 108.325 210.203C106.246 207.574 97.5984 197.725 83.3402 195.753C68.7634 193.743 52.3856 195.505 46.2695 204.244C40.1534 212.982 42.2707 227.426 50.0127 233.689C64.5435 245.453 75.8498 243.084 88.1894 241.126C109.823 237.686 114.025 221.197 109.109 211.409Z" fill="white"/>
<path d="M44.4412 210.047C44.4412 210.047 45.675 216.496 46.6989 218.384C47.7229 220.272 52.7884 225.074 53.9929 226.096C55.1973 227.118 62.1415 231.408 63.6734 231.86C65.2054 232.311 77.0227 232.558 77.0227 232.558C77.0227 232.558 84.6206 233.245 86.5075 232.86C88.3945 232.475 94.0196 231.459 94.0196 231.459C95.9873 230.91 97.9026 230.189 99.7433 229.303C101.798 228.182 106.522 225.087 106.522 225.087C106.522 225.087 104.192 232.162 101.39 235.706C98.5872 239.249 85.9861 241.528 85.0507 241.715C84.1153 241.902 74.8558 243.586 67.835 241.997C60.8142 240.408 53.3455 237.135 50.0183 233.662C46.6911 230.189 43.3196 223.461 42.9268 220.412C42.534 217.363 44.4412 210.047 44.4412 210.047Z" fill="#362822"/>
<path d="M50.1807 213.085C50.1807 213.085 56.1143 214.322 58.1931 213.484C60.2719 212.645 64.7128 205.809 71.1509 205.393C77.5889 204.977 83.3042 206.495 89.0363 206.266C94.7684 206.036 99.0499 204.698 98.5163 206.491C97.9828 208.283 100.2 206.049 97.9814 208.29C95.7632 210.531 94.7695 209.997 83.5184 210.667C72.2673 211.338 69.3588 212.323 63.3409 214.557C57.323 216.791 57.0558 218.806 53.3745 218.198C49.6931 217.59 45.1901 212.524 46.0553 210.641C46.9204 208.757 49.0934 211.434 50.1807 213.085Z" fill="#362822" stroke="#362822" stroke-width="0.759608" stroke-miterlimit="10"/>
<path d="M109.099 211.462C108.881 211.033 108.618 210.629 108.315 210.256C106.237 207.627 97.5886 197.777 83.3304 195.805C68.7537 193.795 52.3758 195.558 46.2597 204.296C40.1436 213.035 42.2609 227.478 50.0029 233.741C64.5338 245.505 75.84 243.137 88.1796 241.178C109.813 237.738 114.015 221.249 109.099 211.462Z" stroke="#1A3447" stroke-width="0.759608" stroke-miterlimit="10"/>
<path d="M205.1 183.854C205.1 183.854 198.625 173.685 197.41 169.196C196.196 164.707 195.362 149.884 189.368 138.717C183.373 127.549 167.917 112.361 161.629 109.15C155.341 105.94 150.884 104.147 150.884 104.147C150.884 104.147 129.645 90.7826 116.875 88.0319C104.105 85.2812 87.3032 84.344 82.9887 85.3891C78.6742 86.4343 69.3966 89.385 65.7027 89.2588C62.0087 89.1326 56.8325 87.8785 57.1449 89.7544C57.4574 91.6304 61.3228 98.726 61.3228 98.726C61.3228 98.726 64.4671 113.977 68.9955 124.015C73.5238 134.052 83.9237 146.704 104.647 156.945C125.371 167.185 148.786 174.318 153.804 174.632C158.821 174.947 175.457 174.953 179.953 174.048C184.449 173.143 189.194 171.192 193.524 173.863C195.302 174.965 195.638 182.865 200.436 185.737C205.233 188.61 205.68 185.373 205.1 183.854Z" fill="#F0C376" stroke="#1A3447" stroke-width="0.639928" stroke-miterlimit="10"/>
<path d="M198.826 178.884C199.315 177.875 199.856 176.891 200.446 175.937C199.098 173.451 197.874 170.909 197.407 169.196C196.193 164.715 195.359 149.884 189.364 138.717C183.37 127.549 167.914 112.36 161.626 109.15C155.338 105.94 150.881 104.147 150.881 104.147C150.881 104.147 134.064 93.5683 121.359 89.2973C122.742 96.3181 125.456 104.27 130.07 113.078C140.69 133.36 155.497 152.968 159.43 156.267C163.363 159.566 177.099 169.738 181.376 171.812C182.271 172.248 183.206 172.658 184.139 173.072C187.321 172.37 190.525 171.996 193.531 173.849C194.873 174.681 195.401 179.385 197.635 182.88C197.905 181.513 198.304 180.176 198.826 178.884Z" fill="#1A3447" stroke="#1A3447" stroke-width="0.639928" stroke-miterlimit="10"/>
<path d="M63.6191 91.1996C63.6191 91.1996 88.9587 109.092 112.178 119.887C135.396 130.683 155.229 141.329 169.425 149.815C183.62 158.302 194.555 168.364 196.41 170.886" stroke="#1A3447" stroke-width="0.639928" stroke-miterlimit="10"/>
<path d="M193.122 171.353C186.633 164.604 179.421 158.588 171.618 153.414C158.496 144.669 134.007 130.978 124.861 126.932" stroke="#1A3447" stroke-width="0.639928" stroke-miterlimit="10"/>
<path d="M164.218 126.978C166.983 136.43 169.427 149.803 169.427 149.803" stroke="#1A3447" stroke-width="0.639928" stroke-miterlimit="10"/>
<path d="M155.714 109.247C155.714 109.247 159.686 113.942 162.934 122.993C163.168 123.629 163.377 124.297 163.613 125.014" stroke="#1A3447" stroke-width="0.639928" stroke-miterlimit="10"/>
<path d="M182.297 145.647C183.334 152.488 184.765 159.249 185.537 160.351" stroke="#1A3447" stroke-width="0.639928" stroke-miterlimit="10"/>
<path d="M175.925 123.99C175.925 123.99 181.045 136.669 182.096 144.026" stroke="#1A3447" stroke-width="0.639928" stroke-miterlimit="10"/>
<path d="M140.123 102.955C143.93 108.468 146.582 114.695 147.916 121.261C149.974 131.847 151.448 137.896 151.448 137.896" stroke="#1A3447" stroke-width="0.639928" stroke-miterlimit="10"/>
<path d="M133.166 125.223C133.39 127.053 133.571 128.292 133.791 128.599" stroke="#1A3447" stroke-width="0.639928" stroke-miterlimit="10"/>
<path d="M125.672 92.9033C125.672 92.9033 127.824 99.2073 130.256 108.172C131.474 113.042 132.353 117.991 132.886 122.983" stroke="#1A3447" stroke-width="0.639928" stroke-miterlimit="10"/>
<path d="M106.015 109.358C107.536 112.868 108.754 115.615 108.754 115.615" stroke="#1A3447" stroke-width="0.639928" stroke-miterlimit="10"/>
<path d="M102.588 88.7593C102.588 88.7593 102.565 101.295 104.647 106.17L105.059 107.146" stroke="#1A3447" stroke-width="0.639928" stroke-miterlimit="10"/>
<path d="M114.525 90.3179C114.525 90.3179 117.77 106.189 118.989 112.569C120.208 118.949 121.519 121.031 121.519 121.031" stroke="#1A3447" stroke-width="0.639928" stroke-miterlimit="10"/>
<path d="M91.3024 90.1553C91.3024 90.1553 92.1122 103.882 94.5098 108.733" stroke="#1A3447" stroke-width="0.639928" stroke-miterlimit="10"/>
<path d="M78.8532 88.4746C78.8532 88.4746 79.9143 98.8428 82.137 101.648" stroke="#1A3447" stroke-width="0.639928" stroke-miterlimit="10"/>
<path d="M172.5 154.914C166.416 156.696 160.537 159.116 154.962 162.134C146.307 166.925 140.401 167.012 137.497 166.959" stroke="#1A3447" stroke-width="0.639928" stroke-miterlimit="10"/>
<path d="M131.998 154.357C130.59 154.842 129.282 155.281 128.118 155.636C118.822 158.602 111.811 156.715 111.811 156.715" stroke="#1A3447" stroke-width="0.639928" stroke-miterlimit="10"/>
<path d="M156.787 144.989C156.787 144.989 144.441 149.902 134.738 153.386" stroke="#1A3447" stroke-width="0.639928" stroke-miterlimit="10"/>
<path d="M95.6516 144.543C93.8399 144.668 92.0197 144.547 90.2401 144.186" stroke="#1A3447" stroke-width="0.639928" stroke-miterlimit="10"/>
<path d="M137.731 134.124C137.731 134.124 131.504 136.148 117.153 140.369C111.505 142.099 105.728 143.376 99.8766 144.188" stroke="#1A3447" stroke-width="0.639928" stroke-miterlimit="10"/>
<path d="M109.814 125.546C107.226 126.352 103.959 127.314 100.123 128.33C92.7328 130.251 85.0392 130.711 77.4728 129.687" stroke="#1A3447" stroke-width="0.639928" stroke-miterlimit="10"/>
<path d="M116.577 123.278C116.577 123.278 114.995 123.875 112.098 124.818" stroke="#1A3447" stroke-width="0.639928" stroke-miterlimit="10"/>
<path d="M94.5097 115.36C91.1594 116.215 86.0267 117.505 80.944 118.739C72.323 120.829 69.7793 119.961 69.7793 119.961" stroke="#1A3447" stroke-width="0.639928" stroke-miterlimit="10"/>
<path d="M98.3115 114.39L96.3599 114.875" stroke="#1A3447" stroke-width="0.639928" stroke-miterlimit="10"/>
<path d="M80.5544 103.708C77.9052 104.416 75.2215 104.987 72.5137 105.42C67.8501 106.167 65.7122 105.909 65.7122 105.909" stroke="#1A3447" stroke-width="0.639928" stroke-miterlimit="10"/>
<path d="M91.3698 110.132C91.3698 110.132 83.6804 111.022 76.3506 112.196C69.0208 113.37 66.9732 112.61 66.9732 112.61" stroke="#1A3447" stroke-width="0.639928" stroke-miterlimit="10"/>
<path d="M170.686 166.365C159.976 172.3 154.886 172.465 154.886 172.465" stroke="#1A3447" stroke-width="0.639928" stroke-miterlimit="10"/>
<path d="M183.833 162.554C183.833 162.554 181.795 160.758 173.258 165.01" stroke="#1A3447" stroke-width="0.639928" stroke-miterlimit="10"/>
<path d="M202.833 190.624C202.833 190.624 203.148 179.015 204.691 174.807C206.234 170.598 214.102 158.473 215.404 146.344C216.705 134.215 212.188 113.637 208.631 107.597C205.074 101.556 202.292 97.6467 202.292 97.6467C202.292 97.6467 191.747 75.2962 182.327 65.9822C172.907 56.6682 159.004 46.5619 154.691 44.9672C150.378 43.3725 140.687 40.5131 137.574 38.346C134.462 36.179 130.737 32.3097 129.916 33.9565C129.096 35.6033 128.341 43.3423 128.341 43.3423C128.341 43.3423 122.227 57.0876 120.332 67.5078C118.438 77.9279 120.043 93.693 131.939 113.351C143.835 133.01 159.88 151.677 164.021 154.716C168.162 157.755 182.481 167.068 186.866 168.87C191.251 170.672 196.475 171.789 198.654 176.312C199.553 178.169 195.277 184.562 197.732 189.507C200.187 194.452 202.439 192.15 202.833 190.624Z" fill="#F0C376" stroke="#1A3447" stroke-width="0.639928" stroke-miterlimit="10"/>
<path d="M134.66 38.7124C134.66 38.7124 146.121 66.9427 159.861 88.4053C173.601 109.868 184.51 129.323 191.82 143.928C199.13 158.533 202.72 172.55 202.869 175.595" stroke="#1A3447" stroke-width="0.639928" stroke-miterlimit="10"/>
<path d="M199.756 174.102C198.056 165.111 195.326 156.346 191.62 147.979C185.391 133.773 172.216 109.316 166.697 101.033" stroke="#1A3447" stroke-width="0.639928" stroke-miterlimit="10"/>
<path d="M200.527 123.051C197.444 132.028 191.8 143.914 191.8 143.914" stroke="#1A3447" stroke-width="0.639928" stroke-miterlimit="10"/>
<path d="M203.496 104.364C203.496 104.364 204.197 110.28 201.758 119.21C201.585 119.837 201.389 120.496 201.175 121.177" stroke="#1A3447" stroke-width="0.639928" stroke-miterlimit="10"/>
<path d="M205.31 147.828C202.253 153.785 199.568 159.899 199.601 161.198" stroke="#1A3447" stroke-width="0.639928" stroke-miterlimit="10"/>
<path d="M212.343 127.229C212.343 127.229 209.421 140.062 206.062 146.431" stroke="#1A3447" stroke-width="0.639928" stroke-miterlimit="10"/>
<path d="M193.711 90.7085C193.803 97.159 192.487 103.552 189.853 109.441C185.499 118.921 183.266 124.494 183.266 124.494" stroke="#1A3447" stroke-width="0.639928" stroke-miterlimit="10"/>
<path d="M174.83 104.326C173.97 105.892 173.407 106.97 173.398 107.339" stroke="#1A3447" stroke-width="0.639928" stroke-miterlimit="10"/>
<path d="M187.103 74.7505C187.103 74.7505 185.318 80.9067 182.22 89.3212C180.449 94.1353 177.834 98.9648 175.913 102.434" stroke="#1A3447" stroke-width="0.639928" stroke-miterlimit="10"/>
<path d="M160.646 76.6821C159.925 80.2938 159.386 83.1341 159.386 83.1341" stroke="#1A3447" stroke-width="0.639928" stroke-miterlimit="10"/>
<path d="M169.609 58.5708C169.609 58.5708 162.34 68.4163 161.307 73.4086L161.106 74.4113" stroke="#1A3447" stroke-width="0.639928" stroke-miterlimit="10"/>
<path d="M179.006 66.4829C179.006 66.4829 172.615 80.7749 169.961 86.4716C167.308 92.1683 167.216 94.5502 167.216 94.5502" stroke="#1A3447" stroke-width="0.639928" stroke-miterlimit="10"/>
<path d="M159.088 53.3555C159.088 53.3555 151.862 64.6092 151.106 69.7495" stroke="#1A3447" stroke-width="0.639928" stroke-miterlimit="10"/>
<path d="M149.345 45.0879C149.345 45.0879 144.263 53.8329 144.536 57.2994" stroke="#1A3447" stroke-width="0.639928" stroke-miterlimit="10"/>
<path d="M191.513 149.655C185.242 147.66 178.792 146.282 172.253 145.543C162.038 144.471 156.903 141.238 154.42 139.578" stroke="#1A3447" stroke-width="0.639928" stroke-miterlimit="10"/>
<path d="M156.981 126.579C155.501 126.162 154.098 125.804 152.906 125.436C143.214 122.568 138.244 117.169 138.244 117.169" stroke="#1A3447" stroke-width="0.639928" stroke-miterlimit="10"/>
<path d="M183.736 133.068C183.736 133.068 170.264 130.037 159.915 127.365" stroke="#1A3447" stroke-width="0.639928" stroke-miterlimit="10"/>
<path d="M131.369 98.5521C129.75 97.6504 128.255 96.5402 126.925 95.25" stroke="#1A3447" stroke-width="0.639928" stroke-miterlimit="10"/>
<path d="M173.607 113.859C173.607 113.859 167.096 111.981 152.285 107.267C146.433 105.477 140.723 103.253 135.201 100.613" stroke="#1A3447" stroke-width="0.639928" stroke-miterlimit="10"/>
<path d="M154.55 91.5322C151.854 90.7209 148.487 89.6533 144.595 88.3106C137.176 85.728 130.297 81.7983 124.305 76.7189" stroke="#1A3447" stroke-width="0.639928" stroke-miterlimit="10"/>
<path d="M161.685 93.5294C161.685 93.5294 159.977 93.1174 156.942 92.2398" stroke="#1A3447" stroke-width="0.639928" stroke-miterlimit="10"/>
<path d="M147.276 74.9738C143.873 73.7555 138.728 71.9173 133.643 70.0465C125.011 66.8743 123.325 64.7717 123.325 64.7717" stroke="#1A3447" stroke-width="0.639928" stroke-miterlimit="10"/>
<path d="M151.103 76.3322L149.12 75.6288" stroke="#1A3447" stroke-width="0.639928" stroke-miterlimit="10"/>
<path d="M141.999 58.0082C141.999 58.0082 138.537 56.8671 134.086 54.8694C129.635 52.8717 127.951 51.4512 127.951 51.4512" stroke="#1A3447" stroke-width="0.639928" stroke-miterlimit="10"/>
<path d="M147.596 69.1049C147.596 69.1049 140.457 65.5062 133.472 62.3372C126.487 59.1681 125.162 57.4233 125.162 57.4233" stroke="#1A3447" stroke-width="0.639928" stroke-miterlimit="10"/>
<path d="M183.351 157.639C170.7 156.319 166.205 153.6 166.205 153.6" stroke="#1A3447" stroke-width="0.639928" stroke-miterlimit="10"/>
<path d="M196.853 162.003C196.853 162.003 196.138 159.448 186.328 158.009" stroke="#1A3447" stroke-width="0.639928" stroke-miterlimit="10"/>
</svg>
