<svg width="634" height="634" viewBox="0 0 634 634" fill="none" xmlns="http://www.w3.org/2000/svg">
<path d="M496.712 431.677C496.712 431.677 445.535 500.859 345.401 511.244C245.267 521.629 216.801 455.896 181.639 422.484C146.477 389.072 73.5419 365.183 66.9483 283.549C60.3547 201.916 104.075 160.021 165.662 160.883C227.249 161.745 245.99 147.468 297.762 118.735C349.535 90.0019 436.482 100.45 478.034 142.015C519.586 183.58 550.754 203.868 560.391 282.256C570.027 360.644 496.712 431.677 496.712 431.677Z" fill="#1A3447"/>
<path opacity="0.3" d="M496.712 431.677C496.712 431.677 445.535 500.859 345.401 511.244C245.267 521.629 216.801 455.896 181.639 422.484C146.477 389.072 73.5419 365.183 66.9483 283.549C60.3547 201.916 104.075 160.021 165.662 160.883C227.249 161.745 245.99 147.468 297.762 118.735C349.535 90.0019 436.482 100.45 478.034 142.015C519.586 183.58 550.754 203.868 560.391 282.256C570.027 360.644 496.712 431.677 496.712 431.677Z" fill="white"/>
<path d="M143.119 465.141H69.5371" stroke="#1A3447" stroke-width="1.268" stroke-linecap="round" stroke-linejoin="round"/>
<path d="M531.041 465.141H480.296" stroke="#1A3447" stroke-width="1.268" stroke-linecap="round" stroke-linejoin="round"/>
<path d="M526.997 405.481C526.997 405.481 529.445 394.133 542.822 394.133C556.199 394.133 571.707 402.096 571.707 402.096C571.707 402.096 557.265 406.344 549.834 409.64C542.404 412.937 530.928 413.977 526.997 405.481Z" fill="#F0C376"/>
<path d="M510.675 411.074C510.802 411.074 519.462 405.596 517.23 397.633C514.999 389.67 504.373 379.881 503.523 373.846C503.523 373.846 489.347 408.373 510.675 411.074Z" fill="#F0C376"/>
<path d="M489.45 423.043C489.45 423.043 493.14 415.017 485.063 408.88C476.985 402.742 451.613 402.096 451.613 402.096C451.613 402.096 462.125 409.526 465.637 415.156C469.149 420.786 482.134 430.093 489.45 423.043Z" fill="#F0C376"/>
<path d="M472.303 383.407C472.303 383.407 475.283 374.822 463.427 370.727C451.571 366.631 438.156 368.064 431.575 364.45C431.639 364.4 455.845 400.499 472.303 383.407Z" fill="#F0C376"/>
<path d="M528.238 389.429C528.238 389.429 523.977 366.707 548.906 357.476C548.906 357.476 544.671 361.952 545.102 371.233C545.533 380.515 545.521 390.545 528.238 389.429Z" fill="#F0C376"/>
<path opacity="0.2" d="M526.997 405.481C526.997 405.481 529.445 394.133 542.822 394.133C556.199 394.133 571.707 402.096 571.707 402.096C571.707 402.096 557.265 406.344 549.834 409.64C542.404 412.937 530.928 413.977 526.997 405.481Z" fill="#362822"/>
<path opacity="0.2" d="M510.675 411.074C510.802 411.074 519.462 405.596 517.23 397.633C514.999 389.67 504.373 379.881 503.523 373.846C503.523 373.846 489.347 408.373 510.675 411.074Z" fill="#362822"/>
<path opacity="0.2" d="M489.45 423.043C489.45 423.043 493.14 415.017 485.063 408.88C476.985 402.742 451.613 402.096 451.613 402.096C451.613 402.096 462.125 409.526 465.637 415.156C469.149 420.786 482.134 430.093 489.45 423.043Z" fill="#362822"/>
<path opacity="0.2" d="M472.303 383.407C472.303 383.407 475.283 374.822 463.427 370.727C451.571 366.631 438.156 368.064 431.575 364.45C431.639 364.4 455.845 400.499 472.303 383.407Z" fill="#362822"/>
<path opacity="0.2" d="M528.238 389.429C528.238 389.429 523.977 366.707 548.906 357.476C548.906 357.476 544.671 361.952 545.102 371.233C545.533 380.515 545.521 390.545 528.238 389.429Z" fill="#362822"/>
<path d="M521.582 438.437H485.748L491.657 465.851H514.773L521.582 438.437Z" fill="#1A3447"/>
<path d="M499.787 439.591L488.337 400.308L472.842 370.675" stroke="#1A3447" stroke-width="1.268" stroke-linecap="round" stroke-linejoin="round"/>
<path d="M483.617 419.835L496.018 426.682" stroke="#1A3447" stroke-width="1.268" stroke-linecap="round" stroke-linejoin="round"/>
<path d="M530.979 382.569L507.863 439.591" stroke="#1A3447" stroke-width="1.268" stroke-linecap="round" stroke-linejoin="round"/>
<path d="M507.862 402.096L514.48 423.259" stroke="#1A3447" stroke-width="1.268" stroke-linecap="round" stroke-linejoin="round"/>
<path d="M533.678 402.096L520.313 408.88" stroke="#1A3447" stroke-width="1.268" stroke-linecap="round" stroke-linejoin="round"/>
<path d="M483.617 391.28L462.201 379.551" stroke="#1A3447" stroke-width="1.268" stroke-linecap="round" stroke-linejoin="round"/>
<path d="M144.677 110.227C148.824 98.8153 159.158 94.0349 167.742 99.5634C170.391 101.322 172.568 103.704 174.082 106.499C180.765 91.7018 195.207 86.8961 206.353 95.7721C210.033 98.8288 212.9 102.75 214.696 107.184H215.495C218.534 107.197 221.528 107.913 224.244 109.276C228.898 94.6055 239.333 84.6264 251.291 83.4218C257.504 66.494 272.847 59.4692 285.603 67.7239C289.46 70.315 292.638 73.7937 294.872 77.8679C304.775 55.8681 326.217 48.7039 342.764 61.8911C348.242 66.42 352.511 72.236 355.191 78.8189H356.306C371.675 78.8189 385.47 91.4989 390.91 110.519C391.379 110.43 391.848 110.341 392.318 110.291C396.489 98.8787 406.824 94.111 415.421 99.6522C418.072 101.403 420.249 103.781 421.761 106.575C428.456 91.7652 442.898 86.9722 454.031 95.8608C457.706 98.923 460.571 102.842 462.375 107.273H463.173C476.944 107.273 488.077 122.197 488.039 140.507C488.001 158.817 476.804 173.602 463.034 173.551C456.149 173.551 449.568 169.747 444.876 163.014C439.183 171.256 429.85 172.841 422.788 166.818C416.346 176.163 405.429 176.797 398.391 168.226C398.1 167.858 397.795 167.465 397.516 167.072C394.837 167.648 392.059 167.577 389.413 166.865C386.767 166.153 384.328 164.82 382.3 162.976C367.82 182.136 344.4 182.059 329.995 162.811C329.742 162.482 329.488 162.139 329.247 161.784C320.802 174.02 306.943 176.379 296.444 167.363C286.871 181.311 270.628 182.161 260.192 169.418C259.748 168.885 259.33 168.327 258.924 167.744C250.593 169.62 242.047 167.034 235.149 160.554C226.78 175.06 211.146 177.799 200.228 166.666C199.138 165.546 198.138 164.342 197.236 163.065C191.543 171.307 182.21 172.892 175.147 166.869C168.719 176.214 157.814 176.848 150.789 168.302C150.485 167.921 150.18 167.528 149.889 167.122C138.185 169.836 127.065 159.413 124.998 143.855C122.931 128.296 130.793 113.423 142.496 110.76C143.213 110.566 143.942 110.418 144.677 110.316V110.227Z" fill="#1A3447"/>
<mask id="mask0_230_62439" style="mask-type:luminance" maskUnits="userSpaceOnUse" x="124" y="55" width="365" height="124">
<path d="M144.677 110.227C148.824 98.8153 159.158 94.0349 167.742 99.5634C170.391 101.322 172.568 103.704 174.082 106.499C180.765 91.7018 195.207 86.8961 206.353 95.7721C210.033 98.8288 212.9 102.75 214.696 107.184H215.495C218.534 107.197 221.528 107.913 224.244 109.276C228.898 94.6055 239.333 84.6264 251.291 83.4218C257.504 66.494 272.847 59.4692 285.603 67.7239C289.46 70.315 292.638 73.7937 294.872 77.8679C304.775 55.8681 326.217 48.7039 342.764 61.8911C348.242 66.42 352.511 72.236 355.191 78.8189H356.306C371.675 78.8189 385.47 91.4989 390.91 110.519C391.379 110.43 391.848 110.341 392.318 110.291C396.489 98.8787 406.824 94.111 415.421 99.6522C418.072 101.403 420.249 103.781 421.761 106.575C428.456 91.7652 442.898 86.9722 454.031 95.8608C457.706 98.923 460.571 102.842 462.375 107.273H463.173C476.944 107.273 488.077 122.197 488.039 140.507C488.001 158.817 476.804 173.602 463.034 173.551C456.149 173.551 449.568 169.747 444.876 163.014C439.183 171.256 429.85 172.841 422.788 166.818C416.346 176.163 405.429 176.797 398.391 168.226C398.1 167.858 397.795 167.465 397.516 167.072C394.837 167.648 392.059 167.577 389.413 166.865C386.767 166.153 384.328 164.82 382.3 162.976C367.82 182.136 344.4 182.059 329.995 162.811C329.742 162.482 329.488 162.139 329.247 161.784C320.802 174.02 306.943 176.379 296.444 167.363C286.871 181.311 270.628 182.161 260.192 169.418C259.748 168.885 259.33 168.327 258.924 167.744C250.593 169.62 242.047 167.034 235.149 160.554C226.78 175.06 211.146 177.799 200.228 166.666C199.138 165.546 198.138 164.342 197.236 163.065C191.543 171.307 182.21 172.892 175.147 166.869C168.719 176.214 157.814 176.848 150.789 168.302C150.485 167.921 150.18 167.528 149.889 167.122C138.185 169.836 127.065 159.413 124.998 143.855C122.931 128.296 130.793 113.423 142.496 110.76C143.213 110.566 143.942 110.418 144.677 110.316V110.227Z" fill="white"/>
</mask>
<g mask="url(#mask0_230_62439)">
<path opacity="0.2" d="M144.677 110.227C148.824 98.8153 159.158 94.0349 167.742 99.5634C170.391 101.322 172.568 103.704 174.082 106.499C180.765 91.7018 195.207 86.8961 206.353 95.7721C210.033 98.8288 212.9 102.75 214.696 107.184H215.495C218.534 107.197 221.528 107.913 224.244 109.276C228.898 94.6055 239.333 84.6264 251.291 83.4218C257.504 66.494 272.847 59.4692 285.603 67.7239C289.46 70.315 292.638 73.7937 294.872 77.8679C304.775 55.8681 326.217 48.7039 342.764 61.8911C348.242 66.42 352.511 72.236 355.191 78.8189H356.306C371.675 78.8189 385.47 91.4989 390.91 110.519C391.379 110.43 391.848 110.341 392.318 110.291C396.489 98.8787 406.824 94.111 415.421 99.6522C418.072 101.403 420.249 103.781 421.761 106.575C428.456 91.7652 442.898 86.9722 454.031 95.8608C457.706 98.923 460.571 102.842 462.375 107.273H463.173C476.944 107.273 488.077 122.197 488.039 140.507C488.001 158.817 476.804 173.602 463.034 173.551C456.149 173.551 449.568 169.747 444.876 163.014C439.183 171.256 429.85 172.841 422.788 166.818C416.346 176.163 405.429 176.797 398.391 168.226C398.1 167.858 397.795 167.465 397.516 167.072C394.837 167.648 392.059 167.577 389.413 166.865C386.767 166.153 384.328 164.82 382.3 162.976C367.82 182.136 344.4 182.059 329.995 162.811C329.742 162.482 329.488 162.139 329.247 161.784C320.802 174.02 306.943 176.379 296.444 167.363C286.871 181.311 270.628 182.161 260.192 169.418C259.748 168.885 259.33 168.327 258.924 167.744C250.593 169.62 242.047 167.034 235.149 160.554C226.78 175.06 211.146 177.799 200.228 166.666C199.138 165.546 198.138 164.342 197.236 163.065C191.543 171.307 182.21 172.892 175.147 166.869C168.719 176.214 157.814 176.848 150.789 168.302C150.485 167.921 150.18 167.528 149.889 167.122C138.185 169.836 127.065 159.413 124.998 143.855C122.931 128.296 130.793 113.423 142.496 110.76C143.213 110.566 143.942 110.418 144.677 110.316V110.227Z" fill="white"/>
</g>
<path d="M400.357 138.719L407.851 165.284H397.022L410.336 209.549L381.197 163.077L392.85 156.433L379.536 133.19L400.357 138.719Z" fill="#F0C376"/>
<path d="M144.677 122.87C148.836 111.458 159.17 106.69 167.755 112.218C170.399 113.988 172.574 116.372 174.095 119.167C180.777 104.357 195.22 99.5512 206.365 108.427C210.05 111.48 212.918 115.402 214.709 119.839H215.508C218.546 119.852 221.541 120.568 224.257 121.931C228.91 107.261 239.346 97.2814 251.303 96.0768C257.516 79.149 272.859 72.1243 285.615 80.379C289.472 82.97 292.651 86.4488 294.884 90.523C304.787 68.5359 326.229 61.359 342.764 74.5335C348.249 79.058 352.524 84.875 355.203 91.4613H356.306C371.624 91.4613 385.331 104.141 390.796 123.161C391.269 123.106 391.739 123.025 392.203 122.92C396.388 111.508 406.722 106.753 415.319 112.295C417.961 114.056 420.137 116.431 421.659 119.218C428.341 104.357 442.797 99.5638 453.942 108.453C457.609 111.488 460.471 115.382 462.273 119.788H463.072C471.365 119.788 479.112 125.254 483.74 134.396C476.043 149.612 460.561 153.555 449.149 143.335C447.571 141.906 446.155 140.307 444.927 138.568C439.246 146.81 429.914 148.395 422.851 142.372C416.409 151.717 405.479 152.338 398.455 143.779C398.15 143.399 397.859 143.018 397.58 142.625C394.9 143.199 392.123 143.128 389.477 142.415C386.831 141.703 384.393 140.371 382.364 138.529C367.87 157.676 344.438 157.549 330.033 138.314C329.792 137.997 329.551 137.667 329.323 137.338C320.866 149.561 307.019 151.907 296.52 142.904C286.947 156.776 270.729 157.714 260.281 144.996C259.837 144.451 259.406 143.88 259.013 143.297C257.259 143.68 255.469 143.875 253.674 143.88C246.752 143.751 240.147 140.952 235.238 136.07C226.843 150.575 211.209 153.302 200.292 142.156C199.203 141.05 198.211 139.854 197.324 138.58C191.631 146.822 182.299 148.407 175.236 142.384C168.807 151.729 157.902 152.363 150.878 143.817C150.561 143.437 150.269 143.044 149.977 142.638C142.496 144.337 134.888 140.66 129.981 132.963C133.684 127.067 138.971 123.466 144.677 122.87Z" fill="#1A3447"/>
<path d="M40.2703 306.856C45.2662 304.117 47.5486 306.4 49.3618 304.117C51.1751 301.835 44.3659 295.939 57.9969 290.03C57.9969 290.03 58.9099 277.35 77.5495 276.855C96.1891 276.361 91.1931 289.535 96.1891 292.756C101.185 295.977 102.529 290.943 107.601 294.126C112.673 297.308 110.327 303.674 114.41 304.587C118.493 305.499 123.971 300.491 128.967 303.674C133.963 306.856 133.963 309.582 136.233 309.582C138.502 309.582 143.067 307.769 145.793 309.582C148.519 311.396 151.689 313.665 151.689 313.665H36.6692C36.6692 313.665 35.2744 309.557 40.2703 306.856Z" fill="white"/>
<path opacity="0.2" d="M40.2703 306.856C45.2662 304.117 47.5486 306.4 49.3618 304.117C51.1751 301.835 44.3659 295.939 57.9969 290.03C57.9969 290.03 58.9099 277.35 77.5495 276.855C96.1891 276.361 91.1931 289.535 96.1891 292.756C101.185 295.977 102.529 290.943 107.601 294.126C112.673 297.308 110.327 303.674 114.41 304.587C118.493 305.499 123.971 300.491 128.967 303.674C133.963 306.856 133.963 309.582 136.233 309.582C138.502 309.582 143.067 307.769 145.793 309.582C148.519 311.396 151.689 313.665 151.689 313.665H36.6692C36.6692 313.665 35.2744 309.557 40.2703 306.856Z" fill="#362822"/>
<path d="M479.303 290.372C484.679 287.431 487.126 289.878 489.079 287.431C491.032 284.983 483.703 278.643 498.361 272.291C498.361 272.291 499.337 258.609 519.371 258.127C539.406 257.645 534.004 271.784 539.381 275.156C544.757 278.529 546.215 273.254 551.579 276.678C556.942 280.102 554.495 286.936 558.895 287.913C563.295 288.889 569.153 283.513 574.529 286.936C579.906 290.36 579.906 293.276 582.353 293.276C584.8 293.276 589.682 291.323 592.611 293.276C595.54 295.229 598.951 297.663 598.951 297.663H475.372C475.372 297.663 473.914 293.2 479.303 290.372Z" fill="white"/>
<path opacity="0.2" d="M479.303 290.372C484.679 287.431 487.126 289.878 489.079 287.431C491.032 284.983 483.703 278.643 498.361 272.291C498.361 272.291 499.337 258.609 519.371 258.127C539.406 257.645 534.004 271.784 539.381 275.156C544.757 278.529 546.215 273.254 551.579 276.678C556.942 280.102 554.495 286.936 558.895 287.913C563.295 288.889 569.153 283.513 574.529 286.936C579.906 290.36 579.906 293.276 582.353 293.276C584.8 293.276 589.682 291.323 592.611 293.276C595.54 295.229 598.951 297.663 598.951 297.663H475.372C475.372 297.663 473.914 293.2 479.303 290.372Z" fill="#362822"/>
<path d="M368.266 229.356H253.246C253.246 229.356 256.429 227.074 259.142 225.26C261.856 223.447 266.421 225.26 268.703 225.26C270.985 225.26 270.973 222.534 275.969 219.352C280.964 216.169 286.43 221.165 290.525 220.265C294.621 219.364 292.338 212.986 297.334 209.804C302.33 206.621 303.674 211.617 308.746 208.434C313.818 205.251 308.746 192.09 327.386 192.533C346.026 192.977 346.938 205.708 346.938 205.708C360.582 211.617 353.76 217.526 355.574 219.795C357.387 222.065 359.669 219.795 364.665 222.534C369.661 225.273 368.266 229.356 368.266 229.356Z" fill="white"/>
<path opacity="0.2" d="M368.266 229.356H253.246C253.246 229.356 256.429 227.074 259.142 225.26C261.856 223.447 266.421 225.26 268.703 225.26C270.985 225.26 270.973 222.534 275.969 219.352C280.964 216.169 286.43 221.165 290.525 220.265C294.621 219.364 292.338 212.986 297.334 209.804C302.33 206.621 303.674 211.617 308.746 208.434C313.818 205.251 308.746 192.09 327.386 192.533C346.026 192.977 346.938 205.708 346.938 205.708C360.582 211.617 353.76 217.526 355.574 219.795C357.387 222.065 359.669 219.795 364.665 222.534C369.661 225.273 368.266 229.356 368.266 229.356Z" fill="#362822"/>
<path d="M448.673 153.378L454.227 191.849" stroke="#1A3447" stroke-width="1.268" stroke-linecap="round" stroke-linejoin="round"/>
<path d="M388.593 178.637L394.146 217.108" stroke="#1A3447" stroke-width="1.268" stroke-linecap="round" stroke-linejoin="round"/>
<path d="M462.108 246.589L465.684 271.378" stroke="#1A3447" stroke-width="1.268" stroke-linecap="round" stroke-linejoin="round"/>
<path d="M430.422 214.483L433.998 239.298" stroke="#1A3447" stroke-width="1.268" stroke-linecap="round" stroke-linejoin="round"/>
<path d="M470.87 307.301L476.424 345.785" stroke="#1A3447" stroke-width="1.268" stroke-linecap="round" stroke-linejoin="round"/>
<path d="M207.405 193.421L212.959 231.905" stroke="#1A3447" stroke-width="1.268" stroke-linecap="round" stroke-linejoin="round"/>
<path d="M447.529 491.997L450.623 513.363" stroke="#1A3447" stroke-width="1.268" stroke-linecap="round" stroke-linejoin="round"/>
<path d="M222.992 160.567L226.061 181.946" stroke="#1A3447" stroke-width="1.268" stroke-linecap="round" stroke-linejoin="round"/>
<path d="M436.763 300.872L439.857 322.251" stroke="#1A3447" stroke-width="1.268" stroke-linecap="round" stroke-linejoin="round"/>
<path d="M309.454 416.323L312.535 437.689" stroke="#1A3447" stroke-width="1.268" stroke-linecap="round" stroke-linejoin="round"/>
<path d="M374.619 505.084L377.688 526.462" stroke="#1A3447" stroke-width="1.268" stroke-linecap="round" stroke-linejoin="round"/>
<path d="M218.932 318.117L222.014 339.496" stroke="#1A3447" stroke-width="1.268" stroke-linecap="round" stroke-linejoin="round"/>
<path d="M190 248.3L193.094 269.678" stroke="#1A3447" stroke-width="1.268" stroke-linecap="round" stroke-linejoin="round"/>
<path d="M494.393 218.578L497.475 239.944" stroke="#1A3447" stroke-width="1.268" stroke-linecap="round" stroke-linejoin="round"/>
<path d="M260.307 369.445L263.389 390.824" stroke="#1A3447" stroke-width="1.268" stroke-linecap="round" stroke-linejoin="round"/>
<path d="M210.35 383.305L213.432 404.683" stroke="#1A3447" stroke-width="1.268" stroke-linecap="round" stroke-linejoin="round"/>
<path d="M245.446 487.345L248.527 508.723" stroke="#1A3447" stroke-width="1.268" stroke-linecap="round" stroke-linejoin="round"/>
<path d="M303.316 170.318L306.41 191.71" stroke="#1A3447" stroke-width="1.268" stroke-linecap="round" stroke-linejoin="round"/>
<path d="M152.542 194.347L155.623 215.738" stroke="#1A3447" stroke-width="1.268" stroke-linecap="round" stroke-linejoin="round"/>
<path d="M165.5 284.147L168.568 305.513" stroke="#1A3447" stroke-width="1.268" stroke-linecap="round" stroke-linejoin="round"/>
<path d="M189.072 334.184L192.166 355.562" stroke="#1A3447" stroke-width="1.268" stroke-linecap="round" stroke-linejoin="round"/>
<path d="M258.341 189.554L261.422 210.932" stroke="#1A3447" stroke-width="1.268" stroke-linecap="round" stroke-linejoin="round"/>
<path d="M306.374 239.615L309.455 260.994" stroke="#1A3447" stroke-width="1.268" stroke-linecap="round" stroke-linejoin="round"/>
<path d="M357.17 274.522L360.264 295.901" stroke="#1A3447" stroke-width="1.268" stroke-linecap="round" stroke-linejoin="round"/>
<path d="M247.729 234.049L250.811 255.427" stroke="#1A3447" stroke-width="1.268" stroke-linecap="round" stroke-linejoin="round"/>
<path d="M249.493 290.183L252.574 311.574" stroke="#1A3447" stroke-width="1.268" stroke-linecap="round" stroke-linejoin="round"/>
<path d="M407.167 271.1L410.248 292.478" stroke="#1A3447" stroke-width="1.268" stroke-linecap="round" stroke-linejoin="round"/>
<path d="M373.068 234.049L376.162 255.427" stroke="#1A3447" stroke-width="1.268" stroke-linecap="round" stroke-linejoin="round"/>
<path d="M420.977 360.773L424.059 382.139" stroke="#1A3447" stroke-width="1.268" stroke-linecap="round" stroke-linejoin="round"/>
<path d="M367.135 392.979L370.203 414.358" stroke="#1A3447" stroke-width="1.268" stroke-linecap="round" stroke-linejoin="round"/>
<path d="M181.309 411.923L187.713 456.392" stroke="#1A3447" stroke-width="1.268" stroke-linecap="round" stroke-linejoin="round"/>
<path d="M128.412 233.795L134.828 278.264" stroke="#1A3447" stroke-width="1.268" stroke-linecap="round" stroke-linejoin="round"/>
<path d="M390.745 409.768L397.148 454.236" stroke="#1A3447" stroke-width="1.268" stroke-linecap="round" stroke-linejoin="round"/>
<path d="M454.794 431.831L457.875 453.21" stroke="#1A3447" stroke-width="1.268" stroke-linecap="round" stroke-linejoin="round"/>
<path d="M275.675 577.613C266.016 576.81 256.405 575.515 246.879 573.733C219.16 568.483 189.819 558.973 169.898 538.038C146.466 513.477 141.559 474.347 154.175 443.382C163.952 419.417 185.076 400.017 210.208 393.765C227.605 389.429 246.359 391.166 263.109 384.762C289.052 374.847 304.332 347.914 327.777 333.015C351.222 318.116 382.301 316.722 408.003 327.474C433.706 338.227 454.007 360.227 464.886 385.878C475.765 411.53 477.655 440.542 472.57 467.893C467.308 496.308 455.553 523.291 431.5 540.612C410.958 555.41 380.323 571.349 356.485 574.722C329.739 578.688 302.635 579.657 275.675 577.613Z" fill="#F0C376"/>
<path opacity="0.5" d="M275.675 577.613C266.016 576.81 256.405 575.515 246.879 573.733C219.16 568.483 189.819 558.973 169.898 538.038C146.466 513.477 141.559 474.347 154.175 443.382C163.952 419.417 185.076 400.017 210.208 393.765C227.605 389.429 246.359 391.166 263.109 384.762C289.052 374.847 304.332 347.914 327.777 333.015C351.222 318.116 382.301 316.722 408.003 327.474C433.706 338.227 454.007 360.227 464.886 385.878C475.765 411.53 477.655 440.542 472.57 467.893C467.308 496.308 455.553 523.291 431.5 540.612C410.958 555.41 380.323 571.349 356.485 574.722C329.739 578.688 302.635 579.657 275.675 577.613Z" fill="white"/>
<path opacity="0.1" d="M318.824 436.991C318.824 436.991 275.864 459.663 274.203 448.048C272.542 436.433 230.901 402.92 230.901 402.92C250.212 428.508 238.28 459.739 238.28 459.739C210.853 442.317 186.774 444.295 186.774 444.295C216.293 451.903 246.649 487.153 246.649 487.153L305.066 505.932C305.066 505.932 373.043 500.277 380.017 465.356C386.991 430.435 428.303 390.227 428.303 390.227L395.753 412.861C380.296 399.927 397.655 365.59 397.655 365.59C368.326 375.861 364.687 408.613 364.687 408.613L318.824 436.991Z" fill="#362822"/>
<path d="M441.67 385.27C441.67 385.27 386.208 399.053 369.609 458.129" stroke="#1A3447" stroke-width="2.536" stroke-linecap="round" stroke-linejoin="round"/>
<path d="M405.629 360.81C405.629 360.81 366.587 376.026 378.012 436.991" stroke="#1A3447" stroke-width="2.536" stroke-linecap="round" stroke-linejoin="round"/>
<path d="M262.77 480.573C262.77 480.573 226.619 437.93 175.48 445.069" stroke="#1A3447" stroke-width="2.536" stroke-linecap="round" stroke-linejoin="round"/>
<path d="M261.484 465.14C261.484 465.14 256.045 406.102 216.001 396.123" stroke="#1A3447" stroke-width="2.536" stroke-linecap="round" stroke-linejoin="round"/>
<path d="M337.135 450.534C337.135 450.534 351.083 450.952 371.447 446.413C391.811 441.873 408.447 445.145 411.605 462.897C414.762 480.649 362.863 498.73 326.763 505.337C290.663 511.943 254.487 514.796 236.938 507.873C219.389 500.949 219.794 475.742 226.565 464.203C233.337 452.664 255.894 451.028 267.636 452.791C279.378 454.553 337.135 450.534 337.135 450.534Z" fill="#1A3447"/>
<path d="M266.175 512.463C286.932 512.463 311.024 508.824 326.887 505.92C363.24 499.288 415.52 480.991 412.287 462.808C411.019 455.999 407.798 450.939 402.599 447.807C395.524 443.509 384.682 442.862 371.28 445.829C351.309 450.28 337.297 449.938 337.158 449.925C336.574 449.925 279.324 453.628 267.811 452.005C257.312 450.521 233.296 451.485 226.03 463.848C221.808 471.05 219.69 483.971 223.786 494.749C224.857 497.803 226.565 500.594 228.797 502.938C231.029 505.281 233.734 507.123 236.732 508.342C244.175 511.334 254.674 512.463 266.175 512.463ZM386.369 445.259C392.645 445.259 397.882 446.527 401.851 448.847C406.733 451.802 409.789 456.569 410.943 463.023C413.91 479.672 363.874 497.944 326.621 504.753C302.123 509.229 257.908 515.493 237.252 507.226C234.425 506.067 231.876 504.32 229.775 502.101C227.674 499.882 226.069 497.242 225.066 494.356C221.136 484.009 223.241 471.202 227.222 464.418C234.145 452.639 257.426 451.738 267.582 453.196C279.223 454.845 334.419 451.332 337.208 451.155C348.813 451.048 360.371 449.662 371.673 447.021C376.492 445.897 381.42 445.302 386.369 445.246V445.259Z" fill="#1A3447"/>
<path d="M251.214 337.416C251.772 333.979 252.228 330.404 252.698 326.942C253.517 319.124 254.928 311.38 256.92 303.776C259.279 294.418 263.095 284.933 272.58 279.785C278.216 276.809 284.502 275.277 290.876 275.328C297.249 275.379 303.51 277.011 309.098 280.077C315.314 283.617 320.209 289.082 323.046 295.648C325.988 302.609 323.668 310.775 323.338 318.066C322.945 327.749 324.04 337.435 326.584 346.786C313.257 354.115 278.539 369.052 249.832 345.518L251.214 337.416Z" fill="#1A3447"/>
<path d="M295.048 348.396C295.048 348.396 317.39 351.172 327.889 353.645C338.388 356.118 342.104 359.63 345.882 366.16C349.661 372.69 355.278 396.973 360.693 407.167C366.107 417.362 375.909 420.063 377.646 430.866C379.383 441.67 369.86 445.385 362.747 446.628C357.481 447.447 352.172 447.964 346.846 448.175C346.846 448.175 335.333 472.888 312.99 474.739C290.648 476.59 274.063 462.376 263.906 457.127C253.749 451.877 253.077 439.831 252.735 425.934C252.393 412.036 243.39 380.768 245.761 372.12C248.132 363.472 251.683 362.052 267.063 354.824C273.644 351.768 285.576 347.774 295.048 348.396Z" fill="white"/>
<path d="M255.132 361.596C255.132 361.596 262.106 369.432 262.563 377.471C263.019 385.51 263.894 430.829 263.894 430.829C263.894 430.829 274.545 400.828 278.768 395.059C278.768 395.059 267.647 374.428 267.356 355.357C262.802 356.323 258.585 358.475 255.132 361.596Z" fill="#F0C376"/>
<path d="M308.977 475.5C310.331 475.526 311.686 475.475 313.034 475.348C334.032 473.598 345.736 451.865 347.27 448.72C352.489 448.501 357.692 447.989 362.854 447.186C369.409 446.045 380.111 442.393 378.298 430.702C377.284 424.273 373.492 420.558 369.485 416.754C366.219 413.908 363.447 410.54 361.282 406.787C358.416 401.386 355.423 391.8 352.761 383.317C350.44 375.899 348.234 368.824 346.421 365.742C342.693 359.263 338.813 355.51 327.971 352.948C317.574 350.476 295.295 347.711 295.067 347.686C285.772 347.065 273.967 350.831 266.714 354.216L265.37 354.837C251.244 361.444 247.44 363.219 245.082 371.879C243.725 376.951 245.97 388.858 248.366 401.538C250.103 410.591 251.879 419.949 252.031 425.909C252.335 438.728 252.665 452.004 263.531 457.609C265.586 458.661 267.843 460.081 270.467 461.679C280.053 467.626 292.911 475.5 308.977 475.5ZM295.029 348.992C295.84 349.093 317.574 351.832 327.756 354.229C338.166 356.701 341.704 360.112 345.355 366.389C347.067 369.356 349.236 376.33 351.556 383.684C354.269 392.193 357.224 401.842 360.153 407.345C362.383 411.211 365.231 414.685 368.585 417.629C372.655 421.522 376.104 424.869 377.043 430.905C378.628 441.049 370.119 444.675 362.702 445.969C357.465 446.784 352.186 447.296 346.89 447.503C346.766 447.505 346.646 447.54 346.541 447.605C346.436 447.67 346.351 447.761 346.294 447.871C346.18 448.124 334.666 472.267 313.009 474.067C295.409 475.526 281.499 466.929 271.33 460.665C268.616 459.016 266.397 457.609 264.318 456.531C254.833 451.599 253.844 440.732 253.489 425.871C253.337 419.822 251.549 410.414 249.812 401.31C247.542 389.365 245.183 377.015 246.502 372.222C248.721 364.094 252.056 362.547 266.093 355.979L267.45 355.345C274.411 352.086 285.937 348.421 294.991 349.005L295.029 348.992Z" fill="#1A3447"/>
<path d="M341.432 435.812C341.515 435.838 341.603 435.838 341.686 435.812C341.764 435.789 341.836 435.749 341.898 435.695C341.96 435.641 342.01 435.575 342.045 435.501C342.079 435.427 342.098 435.347 342.1 435.265C342.101 435.183 342.085 435.102 342.053 435.026C341.977 434.874 335.282 419.645 335.282 415.486C335.282 412.57 336.74 409.616 338.439 406.192C339.175 404.708 339.936 403.174 340.658 401.5C342.992 395.997 337.679 387.375 336.943 386.284C336.613 384.04 332.974 359.238 329.462 354.584C329.353 354.451 329.198 354.362 329.028 354.334C328.857 354.306 328.683 354.341 328.536 354.432C328.465 354.475 328.404 354.531 328.356 354.599C328.308 354.666 328.274 354.743 328.257 354.824C328.241 354.905 328.241 354.989 328.259 355.07C328.276 355.151 328.31 355.227 328.359 355.294C331.77 359.783 335.599 386.297 335.624 386.551C335.645 386.636 335.679 386.717 335.726 386.792C335.726 386.88 341.609 395.87 339.39 401.082C338.706 402.718 337.945 404.239 337.209 405.723C335.46 409.26 333.938 412.342 333.938 415.512C333.938 419.899 340.481 434.874 340.709 435.508C340.781 435.629 340.89 435.725 341.02 435.779C341.15 435.834 341.295 435.846 341.432 435.812Z" fill="#1A3447"/>
<path d="M346.848 440.135C346.848 440.135 338.783 444.497 332.748 445.727L346.848 440.135Z" fill="white"/>
<path d="M338.723 449.406C336.149 450.283 333.463 450.791 330.747 450.915L338.723 449.406Z" fill="white"/>
<path d="M345.82 443.281C341.507 446.031 336.743 447.997 331.746 449.089L345.82 443.281Z" fill="white"/>
<path d="M307.057 344.719C307.057 344.719 310.088 360.785 310.392 370.675C310.696 380.565 302.531 390.557 291.03 377.852C279.529 365.147 281.342 344.161 281.342 344.161C289.528 347.625 298.729 347.824 307.057 344.719Z" fill="white"/>
<path d="M305.37 361.089L305.484 351.605L308.121 350.07L314.55 350.755L315.641 354.546L305.37 361.089Z" fill="#F0C376"/>
<path d="M306.462 365.502H306.576C306.66 365.494 306.742 365.469 306.816 365.429C306.89 365.388 306.956 365.333 307.008 365.267C307.06 365.2 307.098 365.124 307.12 365.042C307.142 364.96 307.146 364.875 307.134 364.792C306.246 360.214 306.83 351.769 306.83 351.68C306.833 351.597 306.82 351.514 306.791 351.436C306.762 351.358 306.718 351.286 306.662 351.225C306.605 351.163 306.537 351.114 306.462 351.079C306.386 351.044 306.304 351.024 306.221 351.021C306.049 351.01 305.879 351.063 305.746 351.171C305.612 351.279 305.523 351.434 305.498 351.604C305.498 351.947 304.89 360.252 305.815 365.007C305.845 365.154 305.927 365.284 306.046 365.375C306.165 365.466 306.313 365.511 306.462 365.502Z" fill="#1A3447"/>
<path d="M374.159 505.793C374.159 505.793 380.917 509.09 393.559 509.496C406.201 509.901 416.573 503.726 410.715 498.781C407.524 496.18 403.837 494.255 399.878 493.124C395.92 491.992 391.772 491.678 387.688 492.2C379.573 493.468 367.4 496.308 367.4 496.308L374.159 505.793Z" fill="white"/>
<path d="M394.74 510.078C403.197 510.078 410.983 507.199 412.72 503.307C413.098 502.414 413.15 501.417 412.867 500.49C412.584 499.563 411.985 498.765 411.173 498.235C407.907 495.561 404.129 493.584 400.071 492.424C396.013 491.264 391.761 490.946 387.576 491.489C379.448 492.757 367.288 495.597 367.288 495.623C367.189 495.645 367.096 495.69 367.017 495.754C366.938 495.818 366.875 495.899 366.831 495.99C366.788 496.082 366.771 496.184 366.782 496.285C366.793 496.385 366.832 496.481 366.895 496.561L373.666 506.02C373.727 506.111 373.81 506.185 373.907 506.236C374.198 506.363 380.969 509.609 393.611 510.04L394.74 510.078ZM391.57 492.465C398.378 492.507 404.968 494.874 410.248 499.173C410.877 499.53 411.354 500.105 411.588 500.79C411.822 501.474 411.796 502.221 411.516 502.888C410.171 505.995 402.88 509.228 393.649 508.861C382.339 508.493 375.733 505.767 374.629 505.297L368.48 496.65C371.459 495.965 381.084 493.784 387.817 492.757C389.059 492.565 390.313 492.467 391.57 492.465Z" fill="#1A3447"/>
<path d="M372.336 495.433C371.728 495.433 371.068 495.534 370.434 495.56C374.581 494.621 382.087 493.024 387.692 492.136C391.776 491.618 395.922 491.935 399.88 493.066C403.838 494.197 407.525 496.12 410.719 498.717C413.699 501.189 412.456 504.081 408.88 506.211C409.063 504.414 408.624 502.609 407.636 501.098C406.648 499.586 405.172 498.459 403.453 497.905C395.82 494.672 380.02 494.672 372.336 495.433Z" fill="white"/>
<path d="M408.879 506.832C409.004 506.825 409.125 506.791 409.234 506.73C411.58 505.348 412.899 503.725 413.038 502.051C413.064 501.312 412.907 500.577 412.579 499.913C412.252 499.249 411.765 498.677 411.162 498.247C407.896 495.574 404.118 493.597 400.06 492.437C396.002 491.277 391.749 490.958 387.564 491.502C381.96 492.351 374.301 493.974 370.256 494.925C370.098 494.956 369.957 495.045 369.861 495.173C369.765 495.302 369.72 495.463 369.736 495.623C369.78 495.777 369.873 495.912 370.002 496.008C370.13 496.104 370.286 496.156 370.446 496.155C371.103 496.148 371.76 496.102 372.411 496.016C380.539 495.153 395.92 495.306 403.186 498.488C404.78 498.992 406.149 500.034 407.061 501.435C407.972 502.837 408.368 504.511 408.182 506.172C408.171 506.293 408.197 506.415 408.255 506.521C408.314 506.627 408.403 506.713 408.511 506.768C408.628 506.817 408.753 506.839 408.879 506.832ZM391.571 492.465C398.379 492.508 404.969 494.874 410.249 499.173C410.703 499.481 411.075 499.897 411.329 500.384C411.584 500.871 411.713 501.413 411.707 501.963C411.571 502.581 411.312 503.165 410.946 503.681C410.58 504.197 410.115 504.635 409.577 504.968C409.484 503.265 408.883 501.629 407.849 500.273C406.816 498.916 405.399 497.901 403.782 497.36C397.505 494.659 386.562 494.19 378.688 494.418C381.782 493.797 385.028 493.15 387.805 492.757C389.051 492.564 390.31 492.467 391.571 492.465Z" fill="#1A3447"/>
<path d="M232.867 471.544C232.867 471.544 246.409 490.069 259.939 497.487C273.468 504.905 335.321 505.792 347.951 505.792H374.16V497.145C374.16 497.145 332.62 491.73 309.606 479.836C286.592 467.943 274.407 454.717 256.35 449.404C238.294 444.091 222.507 453.12 222.951 475.36" fill="#1A3447"/>
<path d="M347.963 506.35H374.16C374.245 506.353 374.33 506.34 374.409 506.311C374.489 506.281 374.562 506.236 374.625 506.179C374.687 506.121 374.738 506.052 374.773 505.974C374.809 505.897 374.829 505.814 374.832 505.729V497.056C374.826 496.9 374.764 496.753 374.656 496.64C374.549 496.528 374.404 496.459 374.249 496.447C373.83 496.447 332.582 490.957 309.948 479.228C301.498 474.716 293.326 469.703 285.476 464.214C275.636 457.557 267.128 451.851 256.553 448.694C247.487 445.993 239.017 446.855 232.715 451.167C225.766 455.858 222.051 464.417 222.266 475.259C222.273 475.422 222.342 475.577 222.461 475.691C222.579 475.804 222.736 475.867 222.9 475.867C222.985 475.871 223.069 475.857 223.148 475.828C223.227 475.798 223.299 475.753 223.361 475.695C223.422 475.637 223.471 475.568 223.505 475.491C223.54 475.414 223.558 475.33 223.56 475.246C223.344 464.81 226.869 456.606 233.463 452.143C239.41 448.136 247.411 447.325 256.071 449.899C266.431 452.98 274.85 458.661 284.614 465.241C292.499 470.756 300.71 475.791 309.2 480.318C330.604 491.438 368.264 496.916 373.412 497.626V505.12H347.9C347.19 505.12 274.964 505.031 260.243 496.967C246.992 489.714 233.513 471.404 233.374 471.214C233.266 471.078 233.114 470.986 232.944 470.953C232.774 470.921 232.598 470.95 232.448 471.036C232.376 471.074 232.312 471.126 232.262 471.191C232.211 471.255 232.175 471.329 232.156 471.408C232.137 471.488 232.135 471.57 232.15 471.65C232.166 471.731 232.198 471.807 232.245 471.873C232.372 472.051 246.016 490.601 259.545 498.007C274.647 506.249 347.24 506.35 347.963 506.35Z" fill="#1A3447"/>
<path d="M382.147 453.944L383.631 453.805L382.147 453.944Z" fill="#1A3447"/>
<path d="M382.151 454.592H382.214L383.685 454.465C383.77 454.462 383.853 454.442 383.93 454.406C384.008 454.371 384.077 454.32 384.135 454.258C384.193 454.195 384.237 454.122 384.267 454.042C384.296 453.963 384.31 453.878 384.306 453.793C384.278 453.625 384.189 453.473 384.055 453.368C383.921 453.262 383.753 453.211 383.583 453.222L382.062 453.362C381.979 453.368 381.897 453.39 381.823 453.427C381.748 453.464 381.681 453.516 381.626 453.579C381.572 453.642 381.53 453.715 381.503 453.794C381.477 453.873 381.466 453.957 381.472 454.04C381.478 454.123 381.5 454.205 381.537 454.279C381.575 454.354 381.626 454.421 381.689 454.476C381.752 454.53 381.825 454.572 381.905 454.599C381.984 454.625 382.067 454.636 382.151 454.63V454.592Z" fill="#1A3447"/>
<path d="M254.994 507.365C248.211 505.179 241.266 503.529 234.224 502.432C224.752 501.164 217.081 502.432 214.38 507.796C211.679 513.159 213.467 519.728 222.952 521.389C232.437 523.05 249.58 519.728 251.38 519.728C252.944 519.553 254.469 519.125 255.895 518.46L254.994 507.365Z" fill="white"/>
<path d="M229.354 522.418C235.657 522.265 241.943 521.697 248.171 520.718C249.769 520.49 251.024 520.313 251.379 520.313C253.044 520.158 254.672 519.729 256.197 519.045C256.316 519 256.417 518.918 256.483 518.81C256.55 518.702 256.579 518.575 256.565 518.449L255.677 507.328C255.66 507.207 255.61 507.093 255.531 506.999C255.453 506.905 255.35 506.835 255.234 506.796C248.405 504.601 241.413 502.947 234.324 501.851C223.483 500.43 216.369 502.408 213.757 507.557C212.992 508.925 212.58 510.462 212.558 512.029C212.535 513.597 212.904 515.145 213.631 516.534C214.734 518.499 217.219 521.035 222.824 522.012C224.985 522.331 227.169 522.467 229.354 522.418ZM255.183 518.106C253.977 518.639 252.692 518.973 251.379 519.095C250.238 519.184 249.097 519.324 247.968 519.514C242.224 520.338 230.292 521.986 223.065 520.782C219.007 520.072 216.217 518.411 214.835 515.951C214.204 514.725 213.887 513.361 213.913 511.982C213.94 510.603 214.309 509.252 214.987 508.051C217.929 502.231 227.021 502.117 234.134 503.042C240.986 504.113 247.743 505.715 254.346 507.836L255.183 518.106Z" fill="#1A3447"/>
<path d="M225.307 502.128C222.416 503.142 216.976 505.932 217.978 512.335C219.334 520.983 230.658 520.983 238.266 520.983C238.83 520.996 239.392 521.072 239.939 521.211C234.259 521.82 227.627 522.226 222.923 521.414C213.438 519.753 211.638 513.172 214.351 507.821C216.177 504.258 220.095 502.534 225.307 502.128Z" fill="white"/>
<path d="M229.366 522.417C232.934 522.388 236.498 522.168 240.042 521.758C240.194 521.75 240.337 521.688 240.446 521.583C240.555 521.478 240.624 521.338 240.638 521.187C240.643 521.039 240.596 520.894 240.506 520.776C240.416 520.659 240.288 520.575 240.144 520.541C239.539 520.389 238.917 520.312 238.293 520.312C230.545 520.312 219.932 520.312 218.651 512.185C217.738 506.326 222.582 503.689 225.549 502.637C225.692 502.587 225.813 502.489 225.89 502.359C225.966 502.229 225.994 502.075 225.968 501.926C225.923 501.775 225.826 501.644 225.694 501.557C225.561 501.471 225.402 501.436 225.245 501.457C219.412 501.926 215.545 503.93 213.757 507.493C212.991 508.863 212.579 510.403 212.557 511.972C212.535 513.541 212.904 515.092 213.63 516.483C214.733 518.448 217.218 520.972 222.823 521.948C224.986 522.295 227.175 522.452 229.366 522.417ZM229.505 521.149C227.35 521.167 225.197 521.018 223.064 520.706C219.006 519.995 216.217 518.334 214.835 515.874C214.203 514.648 213.886 513.284 213.913 511.905C213.939 510.526 214.308 509.176 214.987 507.975C215.649 506.79 216.557 505.762 217.651 504.959C218.745 504.156 219.998 503.598 221.327 503.321C219.821 504.238 218.628 505.588 217.902 507.194C217.176 508.8 216.951 510.588 217.256 512.324C218.258 518.461 223.673 520.515 229.505 521.225V521.149Z" fill="#1A3447"/>
<path d="M387.235 444.776C387.235 444.776 402.591 442.304 412.519 449.29C422.447 456.277 421.091 463.72 411.606 474.435C402.121 485.149 377.763 504.081 324.951 512.728C272.139 521.376 255.896 518.498 255.896 518.498L254.995 507.365C277.417 507.514 299.389 501.072 318.18 488.839C347.737 469.071 360.911 456.074 382.15 453.969" fill="#1A3447"/>
<path d="M265.009 519.59C274.798 519.59 293.272 518.537 325.023 513.339C380.929 504.184 404.527 483.35 412.084 474.817C418.082 468.046 420.491 463.012 419.907 458.472C419.464 454.998 417.207 451.828 412.883 448.81C402.815 441.722 387.713 444.055 387.079 444.169C386.998 444.174 386.918 444.195 386.846 444.231C386.773 444.267 386.708 444.317 386.655 444.379C386.601 444.44 386.561 444.511 386.536 444.589C386.511 444.666 386.501 444.748 386.508 444.829C386.548 444.996 386.65 445.142 386.794 445.236C386.938 445.331 387.112 445.366 387.282 445.336C387.421 445.336 402.498 442.99 412.021 449.736C416.002 452.551 418.132 455.442 418.538 458.612C419.071 462.733 416.674 467.627 411.006 474.018C403.55 482.45 380.219 503.017 324.782 512.121C277.739 519.818 259.62 518.297 256.475 517.954L255.676 508C277.981 507.911 299.793 501.434 318.531 489.335C325.226 484.859 331.147 480.688 336.372 476.972C354.124 464.445 365.929 456.152 382.159 454.541C382.245 454.537 382.329 454.515 382.405 454.477C382.482 454.439 382.551 454.385 382.606 454.32C382.662 454.255 382.704 454.179 382.729 454.097C382.755 454.016 382.764 453.929 382.755 453.844C382.727 453.673 382.633 453.52 382.493 453.418C382.353 453.316 382.178 453.273 382.007 453.299C365.396 454.96 353.578 463.316 335.547 475.983C330.323 479.699 324.402 483.832 317.795 488.346C299.099 500.435 277.293 506.832 255.029 506.758C254.937 506.751 254.845 506.763 254.757 506.794C254.67 506.824 254.59 506.872 254.522 506.935C254.457 506.997 254.406 507.072 254.373 507.155C254.34 507.238 254.326 507.328 254.332 507.417L255.22 518.537C255.242 518.677 255.308 518.807 255.408 518.907C255.508 519.007 255.638 519.073 255.778 519.095C258.837 519.504 261.923 519.669 265.009 519.59Z" fill="#1A3447"/>
<path d="M392.877 455.276C393.03 455.281 393.18 455.233 393.302 455.141C393.425 455.049 393.512 454.918 393.549 454.769C393.564 454.688 393.561 454.605 393.543 454.525C393.524 454.445 393.49 454.369 393.441 454.303C393.392 454.237 393.331 454.181 393.26 454.139C393.189 454.097 393.111 454.07 393.029 454.059C391.398 453.775 389.751 453.593 388.097 453.514C387.924 453.5 387.752 453.554 387.619 453.666C387.486 453.778 387.403 453.937 387.387 454.11C387.387 454.194 387.404 454.278 387.436 454.355C387.469 454.433 387.517 454.504 387.577 454.563C387.637 454.622 387.708 454.668 387.787 454.699C387.865 454.73 387.949 454.746 388.033 454.744C389.627 454.822 391.215 454.995 392.788 455.264L392.877 455.276Z" fill="white"/>
<path d="M261.841 327.551C270.146 331.557 271.313 323.518 271.249 318.675C271.168 318.63 271.105 318.558 271.072 318.472C270.476 316.24 271.072 305.145 278.071 300.72C284.246 296.802 292.425 293.429 300.058 293.416C302.637 293.496 305.161 294.18 307.427 295.413C309.693 296.647 311.638 298.395 313.106 300.517C316.529 305.246 316.238 310.737 316.517 316.189C316.796 321.642 317.366 327.69 316.174 333.155C314.577 340.446 307.121 355.764 298.055 355.764C289.838 355.764 275.231 344.542 270.235 337.923C269.113 337.59 268.067 337.043 267.154 336.312C265.29 334.842 261.562 332.42 261.841 327.551Z" fill="white"/>
<path d="M298.054 356.309C307.817 356.309 315.349 340.015 316.833 333.206C317.898 328.375 317.594 323.252 317.315 318.282L317.188 316.101L317.112 313.932C316.922 309.228 316.744 304.359 313.65 300.098C312.132 297.889 310.115 296.067 307.763 294.78C305.41 293.494 302.788 292.779 300.108 292.693C293.35 292.693 285.146 295.407 277.74 300.098C270.335 304.79 269.815 316.164 270.475 318.523C270.5 318.635 270.552 318.74 270.627 318.827C270.627 321.553 270.209 326.092 267.673 327.475C266.312 328.21 264.507 328.02 262.258 326.904C262.156 326.854 262.043 326.827 261.928 326.827C261.814 326.827 261.701 326.854 261.599 326.904C261.504 326.951 261.423 327.023 261.365 327.113C261.307 327.202 261.274 327.305 261.269 327.411C260.99 332.204 264.363 334.829 266.341 336.287L266.798 336.617C267.711 337.362 268.756 337.93 269.879 338.291C274.659 344.694 289.19 356.309 298.054 356.309ZM300.133 293.961C302.598 294.045 305.008 294.706 307.171 295.891C309.333 297.076 311.188 298.751 312.585 300.783C315.451 304.752 315.616 309.241 315.806 313.983L315.895 316.164L316.009 318.345C316.3 323.29 316.592 328.223 315.565 332.978C313.866 340.687 306.385 355.079 298.105 355.079C290.408 355.079 276.092 344.453 270.843 337.504C270.752 337.392 270.627 337.312 270.487 337.276C269.455 336.971 268.493 336.462 267.66 335.78L267.203 335.425C265.415 334.068 262.778 332.052 262.562 328.489C263.461 328.94 264.449 329.183 265.455 329.201C266.46 329.218 267.456 329.01 268.37 328.59C271.375 326.917 271.996 322.25 271.971 318.624C271.969 318.536 271.948 318.449 271.908 318.37C271.869 318.291 271.812 318.222 271.743 318.167C271.198 316.101 271.92 305.348 278.514 301.151C285.691 296.599 293.578 293.974 300.07 293.961H300.133Z" fill="#1A3447"/>
<path d="M319.901 320.88C320.003 320.875 320.102 320.851 320.193 320.807C320.285 320.764 320.367 320.702 320.434 320.627C320.487 320.563 320.526 320.49 320.548 320.411C320.571 320.331 320.576 320.248 320.564 320.167C320.552 320.086 320.523 320.008 320.479 319.938C320.435 319.869 320.376 319.809 320.307 319.764L317.112 317.571C316.964 317.474 316.787 317.434 316.613 317.458C316.438 317.481 316.278 317.566 316.161 317.697C316.11 317.762 316.074 317.836 316.054 317.916C316.033 317.995 316.03 318.078 316.043 318.159C316.056 318.24 316.085 318.317 316.13 318.386C316.174 318.455 316.232 318.514 316.3 318.56L319.534 320.804C319.648 320.861 319.774 320.887 319.901 320.88Z" fill="#1A3447"/>
<path d="M309.393 297.093C309.393 297.093 299.921 291.831 296.611 296.814C293.302 301.797 278.124 334.981 261.83 327.55C245.536 320.12 261.944 295.711 277.769 287.938C293.593 280.165 306.857 286.822 309.393 297.093Z" fill="#1A3447"/>
<path d="M266.686 329.25C279.201 329.25 290.118 309.685 295.114 300.707C296.014 299.109 296.725 297.829 297.194 297.144C297.482 296.705 297.854 296.327 298.289 296.033C298.725 295.739 299.214 295.535 299.73 295.432C303.534 294.595 308.935 297.601 308.986 297.626C309.141 297.71 309.321 297.736 309.493 297.699C309.665 297.661 309.818 297.564 309.924 297.423C309.968 297.356 309.997 297.281 310.01 297.203C310.023 297.124 310.02 297.044 310 296.967C309.351 294.401 308.099 292.027 306.348 290.042C304.597 288.057 302.398 286.519 299.933 285.555C293.352 282.79 285.351 283.424 277.388 287.342C266.369 292.769 254.158 306.882 254.361 317.698C254.36 319.942 255.039 322.133 256.309 323.982C257.579 325.832 259.38 327.253 261.474 328.058C263.101 328.836 264.882 329.244 266.686 329.25ZM301.226 294.05C300.634 294.046 300.043 294.105 299.463 294.228C298.773 294.361 298.115 294.63 297.53 295.02C296.944 295.409 296.442 295.912 296.052 296.497C295.571 297.22 294.784 298.513 293.922 300.2C288.419 310.09 275.524 333.168 262.133 327.043C260.262 326.327 258.652 325.058 257.519 323.404C256.387 321.751 255.785 319.791 255.793 317.787C255.616 307.402 267.434 293.784 278.11 288.522C285.718 284.819 293.326 284.185 299.451 286.784C301.487 287.6 303.329 288.834 304.859 290.406C306.388 291.979 307.569 293.856 308.327 295.914C306.105 294.833 303.692 294.2 301.226 294.05Z" fill="#1A3447"/>
<path d="M273.886 421.764C284.288 421.598 294.204 417.333 301.478 409.895C301.524 409.824 301.554 409.744 301.567 409.661C301.58 409.577 301.575 409.491 301.552 409.41C301.529 409.328 301.489 409.252 301.435 409.187C301.381 409.122 301.313 409.07 301.237 409.033C301.108 408.96 300.96 408.928 300.813 408.942C300.665 408.955 300.526 409.014 300.413 409.109C293.42 416.261 283.887 420.363 273.886 420.521C273.718 420.521 273.557 420.588 273.438 420.707C273.319 420.826 273.252 420.987 273.252 421.155C273.252 421.323 273.319 421.485 273.438 421.604C273.557 421.722 273.718 421.789 273.886 421.789V421.764Z" fill="#1A3447"/>
<path d="M304.992 324.533C307.246 324.586 309.436 323.779 311.116 322.276C311.202 322.205 311.27 322.115 311.317 322.014C311.364 321.914 311.389 321.804 311.389 321.693C311.389 321.581 311.364 321.472 311.317 321.371C311.27 321.27 311.202 321.181 311.116 321.109C310.942 320.953 310.716 320.867 310.482 320.867C310.248 320.867 310.023 320.953 309.848 321.109C306.133 324.495 300.972 322.022 300.744 321.921C300.529 321.809 300.281 321.781 300.047 321.841C299.812 321.902 299.609 322.048 299.476 322.251C299.42 322.348 299.385 322.455 299.374 322.566C299.362 322.678 299.374 322.79 299.409 322.897C299.444 323.003 299.5 323.101 299.575 323.184C299.65 323.267 299.742 323.334 299.844 323.379C301.454 324.137 303.212 324.531 304.992 324.533Z" fill="#1A3447"/>
<path d="M285.385 326.029C287.393 325.989 289.346 325.363 291.003 324.228C291.095 324.166 291.172 324.085 291.231 323.99C291.289 323.895 291.327 323.79 291.341 323.679C291.355 323.569 291.346 323.457 291.314 323.351C291.282 323.244 291.228 323.146 291.155 323.062C290.997 322.888 290.782 322.778 290.549 322.75C290.316 322.722 290.081 322.778 289.887 322.91C289.684 323.049 285.157 326.168 281.556 322.91C281.378 322.761 281.154 322.68 280.922 322.68C280.69 322.68 280.466 322.761 280.288 322.91C280.204 322.983 280.137 323.074 280.091 323.176C280.046 323.277 280.022 323.388 280.022 323.499C280.022 323.611 280.046 323.721 280.091 323.823C280.137 323.924 280.204 324.015 280.288 324.089C281.675 325.366 283.5 326.061 285.385 326.029Z" fill="#1A3447"/>
<path d="M295.696 337.174C297.338 337.143 298.901 336.464 300.045 335.285C300.127 335.21 300.192 335.119 300.237 335.018C300.282 334.916 300.305 334.806 300.305 334.696C300.305 334.585 300.282 334.475 300.237 334.373C300.192 334.272 300.127 334.181 300.045 334.106C299.867 333.957 299.643 333.876 299.411 333.876C299.179 333.876 298.955 333.957 298.777 334.106C296.52 336.274 294.542 335.272 294.326 335.146C294.117 335.029 293.873 334.992 293.639 335.044C293.405 335.095 293.199 335.231 293.058 335.425C292.995 335.516 292.952 335.62 292.932 335.729C292.912 335.838 292.915 335.95 292.942 336.058C292.968 336.166 293.017 336.267 293.085 336.354C293.153 336.442 293.239 336.514 293.337 336.566C294.061 336.961 294.871 337.17 295.696 337.174Z" fill="#1A3447"/>
<path d="M370.433 496.396C370.642 496.401 370.846 496.333 371.011 496.203C371.175 496.074 371.289 495.891 371.333 495.686C371.347 495.574 371.339 495.459 371.308 495.35C371.277 495.241 371.225 495.139 371.154 495.05C371.083 494.961 370.995 494.888 370.895 494.834C370.795 494.78 370.685 494.746 370.572 494.735C370.23 494.735 336.552 489.93 318.673 482.245C305.423 476.552 290.993 467.194 281.445 461.006C277.894 458.711 274.838 456.721 272.708 455.491C272.503 455.368 272.26 455.326 272.025 455.373C271.791 455.42 271.583 455.552 271.44 455.744C271.379 455.837 271.337 455.942 271.318 456.051C271.299 456.161 271.303 456.274 271.329 456.382C271.355 456.49 271.403 456.592 271.47 456.681C271.537 456.769 271.622 456.843 271.719 456.898C273.811 458.103 276.791 460.081 280.38 462.363C289.991 468.589 304.472 477.998 317.887 483.754C336.019 491.54 369.951 496.333 370.294 496.434L370.433 496.396Z" fill="white"/>
<path d="M324.481 485.645C324.62 485.645 324.758 485.619 324.887 485.569C332.013 482.323 337.63 477.301 343.083 472.445C344.477 471.177 345.885 469.909 347.305 468.717C356.871 460.805 368.994 456.653 381.402 457.039C381.631 457.046 381.856 456.967 382.03 456.817C382.204 456.666 382.314 456.456 382.34 456.227C382.333 455.996 382.237 455.777 382.071 455.616C381.905 455.455 381.683 455.365 381.452 455.365C368.571 454.977 355.99 459.295 346.062 467.512C344.617 468.78 343.209 470.048 341.802 471.253C336.464 476.021 330.935 480.953 324.05 484.072C323.946 484.114 323.852 484.178 323.775 484.258C323.697 484.339 323.637 484.435 323.599 484.54C323.56 484.645 323.545 484.757 323.552 484.869C323.56 484.981 323.592 485.089 323.644 485.188C323.728 485.334 323.851 485.454 323.998 485.534C324.146 485.615 324.313 485.653 324.481 485.645Z" fill="white"/>
<path d="M307.895 316.912C308.111 316.915 308.322 316.839 308.487 316.699C308.652 316.56 308.762 316.365 308.795 316.151C308.802 316.038 308.787 315.924 308.749 315.817C308.712 315.71 308.654 315.611 308.579 315.526C308.504 315.442 308.412 315.372 308.31 315.323C308.208 315.274 308.097 315.245 307.984 315.238C305.188 314.986 302.518 313.959 300.274 312.271C300.086 312.134 299.854 312.068 299.622 312.087C299.389 312.106 299.171 312.207 299.006 312.373C298.93 312.453 298.871 312.549 298.835 312.654C298.798 312.76 298.785 312.871 298.796 312.982C298.807 313.093 298.841 313.2 298.897 313.296C298.953 313.392 299.029 313.475 299.12 313.539C301.649 315.45 304.662 316.614 307.819 316.899L307.895 316.912Z" fill="#1A3447"/>
<path d="M280.584 317.976H280.748C281.623 317.824 282.498 317.748 283.424 317.659C284.349 317.571 285.3 317.495 286.239 317.33C288.256 317.093 290.14 316.202 291.602 314.794C291.68 314.713 291.74 314.617 291.777 314.511C291.815 314.405 291.829 314.293 291.819 314.181C291.81 314.069 291.776 313.961 291.721 313.863C291.667 313.766 291.591 313.681 291.501 313.614C291.313 313.478 291.083 313.412 290.851 313.428C290.619 313.444 290.4 313.542 290.233 313.703C289.042 314.806 287.524 315.491 285.909 315.656C285.047 315.808 284.185 315.884 283.259 315.96C282.333 316.036 281.382 316.138 280.431 316.29C280.318 316.304 280.209 316.34 280.11 316.397C280.011 316.455 279.925 316.531 279.856 316.622C279.788 316.713 279.738 316.817 279.711 316.928C279.683 317.039 279.678 317.154 279.696 317.266C279.74 317.469 279.852 317.65 280.013 317.779C280.175 317.908 280.376 317.978 280.584 317.976Z" fill="#1A3447"/>
<path d="M288.708 344.263H288.885C292.593 343.591 296.387 343.553 300.107 344.149C300.335 344.195 300.572 344.15 300.769 344.025C300.965 343.9 301.105 343.703 301.159 343.477C301.177 343.365 301.172 343.25 301.145 343.14C301.117 343.031 301.067 342.927 300.998 342.837C300.93 342.747 300.843 342.672 300.744 342.616C300.646 342.56 300.537 342.525 300.424 342.513C296.481 341.879 292.46 341.917 288.53 342.627C288.417 342.642 288.308 342.681 288.209 342.739C288.111 342.798 288.026 342.875 287.958 342.968C287.891 343.06 287.843 343.165 287.817 343.277C287.791 343.388 287.788 343.504 287.807 343.616C287.864 343.809 287.983 343.977 288.146 344.094C288.309 344.212 288.507 344.271 288.708 344.263Z" fill="#1A3447"/>
<path d="M294.847 402.033C297.193 402.022 299.53 401.732 301.808 401.171C304.665 400.604 307.37 399.443 309.749 397.763C312.128 396.083 314.127 393.922 315.617 391.42C324.29 376.584 314.957 351.795 314.552 350.755C314.461 350.538 314.292 350.364 314.078 350.267C313.863 350.171 313.62 350.159 313.398 350.235C313.288 350.264 313.186 350.315 313.096 350.385C313.007 350.456 312.934 350.543 312.88 350.643C312.827 350.743 312.794 350.853 312.785 350.966C312.776 351.079 312.79 351.193 312.827 351.3C312.929 351.554 322.299 376.445 313.994 390.608C312.621 392.894 310.782 394.865 308.597 396.395C306.413 397.924 303.931 398.976 301.314 399.484C294.34 401.146 288.329 400.233 283.435 396.796C268.523 386.297 268.282 355.599 268.282 355.282C268.256 355.057 268.148 354.849 267.978 354.698C267.809 354.548 267.59 354.464 267.363 354.464C267.136 354.464 266.917 354.548 266.748 354.698C266.579 354.849 266.47 355.057 266.444 355.282C266.444 356.55 266.697 387.109 282.319 398.102C285.974 400.704 290.36 402.081 294.847 402.033Z" fill="#1A3447"/>
<path d="M264.047 436.269C264.047 436.269 269.943 381.986 319.94 351.795C319.94 351.795 318.774 338.012 323.186 336.757C327.599 335.502 335.866 348.575 335.866 348.575C335.866 348.575 372.79 364.767 388.767 391.167C388.767 391.167 395.652 387.223 398.632 392.13C402.119 397.849 387.867 404.05 387.867 404.05C387.867 404.05 383.036 435.534 347.291 449.355" fill="white"/>
<path d="M347.303 450.14C347.424 450.138 347.544 450.116 347.658 450.077C381.146 437.118 387.905 408.461 388.678 404.556C390.618 403.655 398.29 399.889 399.824 395.515C400.055 394.893 400.139 394.227 400.071 393.567C400.003 392.907 399.784 392.272 399.431 391.711C399.038 391.027 398.507 390.433 397.872 389.966C397.236 389.498 396.511 389.169 395.741 388.997C393.482 388.638 391.167 388.998 389.122 390.024C373.703 365.273 339.848 349.448 336.563 347.914C334.826 345.226 327.687 334.6 322.92 335.944C318.152 337.288 318.761 348.117 319.002 351.363C269.55 381.478 263.21 435.622 263.146 436.167C263.138 436.28 263.152 436.395 263.188 436.503C263.225 436.611 263.283 436.71 263.358 436.795C263.434 436.881 263.526 436.95 263.629 436.999C263.732 437.047 263.844 437.075 263.958 437.08C264.189 437.109 264.423 437.048 264.61 436.908C264.797 436.768 264.922 436.562 264.959 436.332C264.959 435.799 271.401 382.099 320.447 352.479C320.581 352.404 320.69 352.293 320.762 352.158C320.833 352.023 320.865 351.87 320.853 351.718C320.396 346.266 320.853 338.265 323.465 337.542C326.077 336.819 331.821 343.793 335.118 348.954C335.215 349.099 335.351 349.213 335.511 349.283C335.879 349.448 372.346 365.679 387.968 391.533C388.032 391.634 388.116 391.72 388.214 391.788C388.312 391.855 388.422 391.902 388.539 391.926C388.778 391.986 389.032 391.955 389.249 391.838C389.249 391.838 392.596 389.948 395.297 390.57C395.828 390.69 396.328 390.921 396.765 391.246C397.202 391.571 397.566 391.985 397.833 392.459C398.072 392.832 398.218 393.257 398.26 393.698C398.302 394.139 398.238 394.583 398.074 394.995C396.603 399.217 387.562 403.186 387.474 403.224C387.343 403.281 387.228 403.368 387.137 403.479C387.047 403.589 386.984 403.719 386.954 403.858C386.954 404.175 380.449 435.558 345.63 449.024C345.173 449.202 345.63 449.468 345.82 449.887C346.01 450.305 346.948 450.14 347.303 450.14Z" fill="#1A3447"/>
<path d="M263.236 395.616L263.908 430.829C263.908 430.829 283.879 440.973 295.05 443.813C301.235 445.493 307.599 446.425 314.006 446.59C315.021 446.59 319.421 440.098 321.792 437.942C324.163 435.787 326.078 435.736 330.402 433.758C336.45 431.006 339.062 430.524 338.72 431.767C338.377 433.01 338.048 434.227 334.992 435.774C331.936 437.321 329.92 438.564 329.92 438.564L329.235 439.832C329.235 439.832 336.691 438.906 339.734 438.285C342.777 437.663 350.563 432.731 350.563 432.731C350.563 432.731 353.885 432.541 351.514 436.243C349.143 439.946 346.847 440.136 346.847 440.136C346.37 442.402 345.185 444.458 343.462 446.007C341.948 447.23 340.365 448.365 338.72 449.405C338.72 449.405 345.148 447.858 344.476 449.405C343.804 450.952 339.734 451.573 334.662 453.729C329.59 455.884 318.064 456.201 311.635 457.127C299.948 458.507 288.152 458.716 276.423 457.748C262.881 456.48 242.567 448.175 238.839 445.385C235.111 442.596 237.495 411.416 238.51 404.302C239.524 397.189 241.553 383.913 242.91 377.674C244.266 371.436 249.681 362.851 253.054 361C256.426 359.149 262.551 365.07 263.236 395.616Z" fill="white"/>
<path d="M263.934 395.693C263.491 375.748 260.536 362.941 255.806 360.57C255.338 360.307 254.809 360.17 254.272 360.17C253.735 360.17 253.207 360.307 252.738 360.57C249.099 362.56 243.608 371.5 242.277 377.65C240.946 383.799 238.853 397.329 237.852 404.278C237.408 407.435 233.959 442.584 238.435 445.919C242.328 448.822 262.933 457.191 276.348 458.421C281.179 458.865 286.023 458.979 290.651 458.979C297.7 459.014 304.744 458.59 311.738 457.711C313.678 457.432 316.138 457.204 318.737 456.976C324.621 456.43 331.316 455.809 334.98 454.262C336.819 453.489 338.505 452.918 339.989 452.411C342.766 451.46 344.592 450.839 345.137 449.609C345.23 449.438 345.265 449.241 345.235 449.048C345.205 448.856 345.113 448.678 344.972 448.543C344.478 448.011 343.146 447.998 341.65 448.201C342.322 447.707 343.096 447.123 343.945 446.439C345.678 444.908 346.896 442.88 347.432 440.631C349.428 439.875 351.084 438.426 352.098 436.548C353.087 434.989 353.303 433.835 352.745 433.01C352.475 432.692 352.133 432.443 351.747 432.284C351.361 432.125 350.942 432.061 350.526 432.097C350.402 432.094 350.281 432.135 350.184 432.212C350.108 432.212 342.474 437.093 339.583 437.664C337.364 438.12 332.685 438.742 330.428 439.046C330.935 438.729 332.774 437.651 335.297 436.371C338.607 434.71 339.013 433.251 339.355 431.971C339.434 431.77 339.443 431.548 339.381 431.341C339.319 431.134 339.189 430.954 339.013 430.829C338.556 430.5 337.656 429.828 330.137 433.289C328.666 433.974 327.423 434.418 326.421 434.798C324.55 435.353 322.82 436.305 321.349 437.588C319.941 439.009 318.628 440.521 317.419 442.115C316.386 443.55 315.209 444.875 313.906 446.071C307.602 445.869 301.343 444.937 295.254 443.294C285.11 440.758 267.282 431.882 264.619 430.55M343.717 449.355C342.449 450.281 341.002 450.933 339.469 451.27C337.947 451.777 336.248 452.36 334.397 453.159C330.986 454.617 324.418 455.226 318.636 455.758C316.024 456.012 313.564 456.228 311.56 456.519C299.932 457.888 288.195 458.092 276.526 457.128C263.313 455.86 243.114 447.745 239.322 444.904C236.14 442.533 237.966 413.496 239.221 404.328C240.21 397.405 242.239 384.04 243.608 377.802C244.978 371.563 250.379 363.207 253.448 361.546C253.711 361.396 254.008 361.317 254.31 361.317C254.613 361.317 254.91 361.396 255.172 361.546C256.745 362.345 261.944 367.151 262.578 395.617L263.262 430.829C263.261 430.94 263.293 431.049 263.354 431.142C263.415 431.234 263.502 431.307 263.605 431.349C263.795 431.463 283.766 441.62 294.899 444.384C301.143 446.076 307.566 447.021 314.033 447.199C314.832 447.199 315.656 446.299 318.496 442.749C319.674 441.21 320.944 439.745 322.3 438.361C323.658 437.215 325.244 436.372 326.954 435.889C328.019 435.483 329.224 435.039 330.758 434.342C335.83 431.996 337.529 431.806 338.062 431.806C337.745 432.96 337.364 433.961 334.714 435.306C331.671 436.852 329.642 438.108 329.579 438.12C329.482 438.173 329.403 438.252 329.35 438.349L328.666 439.617C328.61 439.715 328.581 439.827 328.581 439.94C328.581 440.053 328.61 440.165 328.666 440.263C328.744 440.36 328.846 440.434 328.962 440.478C329.077 440.522 329.203 440.536 329.325 440.517C329.617 440.517 336.819 439.579 339.862 438.97C342.905 438.361 349.537 434.19 350.704 433.416C350.857 433.416 351.009 433.446 351.15 433.504C351.292 433.563 351.42 433.65 351.528 433.759C351.642 433.923 351.807 434.507 350.868 436.003C348.738 439.325 346.722 439.604 346.709 439.604C346.569 439.609 346.435 439.66 346.327 439.75C346.219 439.839 346.144 439.962 346.113 440.099C345.651 442.22 344.544 444.147 342.943 445.614C341.453 446.824 339.89 447.942 338.264 448.962C338.192 449.003 338.13 449.059 338.08 449.126C338.031 449.193 337.996 449.27 337.978 449.351C337.96 449.432 337.96 449.516 337.976 449.598C337.993 449.679 338.026 449.756 338.074 449.824C338.159 449.937 338.275 450.022 338.409 450.067C338.543 450.112 338.687 450.116 338.822 450.078C340.436 449.622 342.104 449.392 343.78 449.393L343.717 449.355Z" fill="#1A3447"/>
<path d="M332.747 446.337H332.899C338.96 445.069 346.847 440.859 347.176 440.682C347.252 440.646 347.319 440.595 347.374 440.531C347.428 440.468 347.469 440.394 347.493 440.314C347.517 440.233 347.523 440.149 347.513 440.066C347.502 439.983 347.474 439.904 347.43 439.832C347.33 439.691 347.182 439.592 347.014 439.552C346.846 439.513 346.669 439.535 346.517 439.617C346.441 439.617 338.478 443.941 332.569 445.132C332.484 445.137 332.401 445.159 332.324 445.196C332.248 445.233 332.179 445.285 332.123 445.348C332.066 445.412 332.023 445.486 331.995 445.567C331.967 445.647 331.955 445.732 331.96 445.817C331.989 445.988 332.083 446.141 332.223 446.243C332.363 446.345 332.537 446.388 332.709 446.362L332.747 446.337Z" fill="#1A3447"/>
<path d="M330.743 451.534C333.543 451.412 336.31 450.887 338.96 449.975C339.039 449.95 339.111 449.91 339.174 449.857C339.236 449.804 339.288 449.739 339.324 449.665C339.361 449.592 339.383 449.512 339.388 449.43C339.393 449.348 339.381 449.266 339.353 449.188C339.281 449.028 339.15 448.901 338.988 448.833C338.826 448.765 338.644 448.76 338.478 448.821C335.982 449.672 333.378 450.168 330.743 450.292C330.575 450.292 330.414 450.358 330.295 450.477C330.176 450.596 330.109 450.757 330.109 450.926C330.109 451.094 330.176 451.255 330.295 451.374C330.414 451.493 330.575 451.56 330.743 451.56V451.534Z" fill="#1A3447"/>
<path d="M331.745 449.71H331.91C336.975 448.606 341.802 446.605 346.162 443.801C346.233 443.757 346.293 443.698 346.338 443.629C346.384 443.56 346.413 443.481 346.426 443.399C346.438 443.317 346.432 443.233 346.408 443.154C346.384 443.074 346.344 443.001 346.289 442.939C346.172 442.807 346.01 442.722 345.835 442.701C345.66 442.68 345.483 442.724 345.338 442.825C341.104 445.516 336.43 447.443 331.529 448.518C331.448 448.53 331.369 448.559 331.299 448.602C331.229 448.645 331.168 448.703 331.121 448.77C331.073 448.838 331.04 448.914 331.023 448.995C331.006 449.076 331.006 449.16 331.022 449.241C331.071 449.39 331.169 449.518 331.3 449.603C331.432 449.689 331.589 449.726 331.745 449.71Z" fill="#1A3447"/>
<path d="M354.606 411.111H355.037C353.579 405.151 356.52 403.871 356.52 403.871L358.321 399.572C361.909 406.534 372.269 416.259 372.269 416.259C371.812 410.857 365.929 406.115 371.191 408.106C376.453 410.097 386.407 424.425 386.407 424.425C390.617 430.042 387.954 437.435 378.508 439.464C369.061 441.492 359.247 431.298 354.656 423.512C350.066 415.727 354.606 411.111 354.606 411.111Z" fill="white"/>
<path d="M375.949 440.567C376.862 440.57 377.772 440.472 378.663 440.276C383.557 439.223 387.044 436.75 388.515 433.302C389.139 431.761 389.337 430.08 389.09 428.436C388.842 426.792 388.158 425.245 387.108 423.956C386.702 423.386 376.888 409.4 371.486 407.333C370.294 406.889 369.089 406.509 368.405 407.181C367.72 407.853 368.202 408.829 369.064 410.414C369.626 411.377 370.122 412.376 370.548 413.407C367.327 410.135 361.57 403.973 359.136 399.218C359.026 399.011 358.839 398.856 358.616 398.787C358.387 398.697 358.134 398.697 357.906 398.787C357.411 399.049 356.976 399.409 356.625 399.845C356.274 400.281 356.015 400.784 355.864 401.323C355.065 403.859 358.02 409.805 360.847 414.003C360.99 414.194 361.197 414.327 361.431 414.376C361.665 414.425 361.908 414.387 362.115 414.269C362.216 414.219 362.304 414.149 362.375 414.062C362.445 413.976 362.497 413.875 362.526 413.767C362.555 413.659 362.56 413.546 362.542 413.436C362.523 413.326 362.482 413.221 362.42 413.128C359.288 408.423 357.196 403.225 357.601 401.817C357.702 401.482 357.856 401.165 358.058 400.879C362.052 407.739 371.169 416.386 371.575 416.767C371.71 416.893 371.879 416.977 372.062 417.009C372.244 417.04 372.432 417.018 372.602 416.944C372.77 416.886 372.913 416.773 373.01 416.624C373.106 416.474 373.15 416.297 373.134 416.12C372.798 413.799 371.977 411.574 370.725 409.59C370.548 409.26 370.345 408.893 370.193 408.576L370.801 408.804C374.859 410.338 382.86 420.875 385.611 424.793C386.505 425.864 387.094 427.155 387.317 428.531C387.541 429.908 387.389 431.319 386.879 432.617C385.611 435.546 382.606 437.689 378.32 438.576C369.444 440.504 359.795 430.347 355.496 423.043C351.198 415.74 355.332 411.631 355.37 411.631C355.451 411.554 355.515 411.46 355.557 411.356C355.599 411.252 355.617 411.139 355.611 411.027C355.605 410.915 355.575 410.805 355.522 410.706C355.47 410.607 355.396 410.52 355.306 410.452C355.132 410.296 354.906 410.21 354.672 410.21C354.438 410.21 354.213 410.296 354.038 410.452C353.823 410.655 349.068 415.613 353.911 423.817C357.398 430.005 366.287 440.567 375.949 440.567Z" fill="#1A3447"/>
<path d="M358.044 418.441C358.158 418.431 358.269 418.401 358.373 418.352C358.477 418.309 358.571 418.244 358.649 418.162C358.727 418.081 358.787 417.984 358.825 417.877C358.863 417.771 358.879 417.658 358.871 417.546C358.863 417.433 358.832 417.323 358.779 417.224C354.252 408.982 356.484 404.544 356.509 404.544C356.607 404.491 356.693 404.419 356.761 404.332C356.829 404.245 356.879 404.144 356.906 404.037C356.934 403.93 356.938 403.818 356.92 403.709C356.902 403.599 356.861 403.495 356.801 403.402C356.666 403.201 356.459 403.06 356.223 403.008C355.987 402.956 355.739 402.998 355.533 403.123C355.33 403.238 351.729 408.195 357.105 418.022C357.2 418.18 357.341 418.304 357.509 418.379C357.677 418.453 357.863 418.475 358.044 418.441Z" fill="#1A3447"/>
<path d="M330.139 434.126C330.293 434.128 330.445 434.093 330.583 434.022C330.72 433.951 330.837 433.848 330.925 433.72C331.128 433.416 351.124 402.528 337.683 370.118C337.583 369.904 337.406 369.735 337.188 369.646C336.969 369.557 336.725 369.553 336.504 369.636C336.396 369.665 336.295 369.717 336.208 369.789C336.121 369.86 336.05 369.949 336 370.049C335.949 370.15 335.921 370.26 335.916 370.372C335.911 370.484 335.93 370.596 335.971 370.701C349.095 402.337 329.555 432.567 329.352 432.833C329.293 432.927 329.254 433.033 329.237 433.143C329.221 433.254 329.228 433.366 329.258 433.474C329.288 433.581 329.34 433.681 329.411 433.767C329.482 433.854 329.57 433.924 329.669 433.974C329.81 434.064 329.972 434.116 330.139 434.126Z" fill="#1A3447"/>
<path d="M314.031 398.152C314.225 398.154 314.415 398.097 314.576 397.987C314.671 397.928 314.752 397.849 314.814 397.756C314.876 397.663 314.917 397.558 314.935 397.447C314.953 397.337 314.947 397.224 314.918 397.116C314.889 397.008 314.837 396.907 314.766 396.821C311.822 393.271 308.277 390.266 304.292 387.945C304.087 387.822 303.844 387.78 303.609 387.827C303.375 387.874 303.167 388.006 303.024 388.198C302.961 388.291 302.918 388.395 302.898 388.505C302.877 388.616 302.881 388.729 302.907 388.837C302.933 388.946 302.982 389.048 303.05 389.137C303.119 389.226 303.205 389.299 303.303 389.352C307.116 391.573 310.5 394.459 313.295 397.873C313.392 397.968 313.507 398.042 313.633 398.09C313.76 398.138 313.895 398.159 314.031 398.152Z" fill="#1A3447"/>
<path d="M323.92 436.661C324.132 436.668 324.339 436.599 324.504 436.466C324.669 436.334 324.782 436.147 324.821 435.939C324.91 435.279 327.04 419.696 320.002 405.114C319.894 404.906 319.711 404.746 319.49 404.666C319.27 404.587 319.027 404.592 318.81 404.682C318.704 404.72 318.607 404.779 318.524 404.856C318.442 404.933 318.377 405.027 318.333 405.131C318.288 405.234 318.266 405.346 318.268 405.459C318.269 405.572 318.294 405.683 318.341 405.786C325.163 419.924 323.033 435.558 323.008 435.723C322.995 435.836 323.006 435.95 323.04 436.059C323.073 436.168 323.128 436.268 323.202 436.355C323.275 436.441 323.366 436.512 323.467 436.563C323.569 436.613 323.68 436.642 323.794 436.649L323.92 436.661Z" fill="#1A3447"/>
<path d="M261.626 323.721C266.088 323.608 270.355 321.867 273.622 318.827C277.324 315.492 279.645 311.295 281.876 306.933L282.333 306.02C284.116 302.084 286.428 298.411 289.205 295.102C290.271 293.856 291.595 292.856 293.086 292.173C293.789 291.862 294.549 291.702 295.317 291.702C296.086 291.702 296.846 291.862 297.549 292.173C297.762 292.294 298.013 292.328 298.25 292.266C298.487 292.205 298.69 292.053 298.817 291.843C298.875 291.748 298.912 291.641 298.926 291.53C298.939 291.418 298.929 291.306 298.895 291.199C298.862 291.092 298.806 290.993 298.731 290.91C298.656 290.827 298.564 290.76 298.462 290.715C297.502 290.287 296.463 290.066 295.412 290.066C294.362 290.066 293.323 290.287 292.363 290.715C290.629 291.495 289.088 292.647 287.849 294.088C284.969 297.513 282.567 301.314 280.71 305.386L280.253 306.286C278.098 310.508 275.866 314.566 272.379 317.698C268.575 321.084 263.668 322.707 259.458 321.92C259.228 321.87 258.988 321.911 258.787 322.034C258.586 322.156 258.44 322.352 258.38 322.58C258.361 322.692 258.364 322.807 258.39 322.917C258.416 323.028 258.464 323.132 258.532 323.223C258.6 323.315 258.685 323.391 258.783 323.449C258.882 323.506 258.99 323.542 259.103 323.556C259.938 323.685 260.782 323.74 261.626 323.721Z" fill="white"/>
<path d="M261.79 299.109C265.367 298.907 268.74 297.379 271.249 294.823C272.213 293.948 273.101 292.997 273.976 292.084C275.484 290.375 277.186 288.848 279.048 287.532C284.196 284.159 291.816 283.956 298.435 287.037C298.654 287.149 298.906 287.173 299.142 287.105C299.378 287.036 299.578 286.881 299.703 286.67C299.756 286.571 299.787 286.462 299.795 286.35C299.803 286.239 299.787 286.127 299.749 286.021C299.711 285.916 299.651 285.82 299.573 285.74C299.495 285.659 299.401 285.596 299.298 285.554C292.07 282.194 283.714 282.447 278.02 286.175C276.048 287.567 274.243 289.184 272.644 290.994C271.795 291.881 270.92 292.807 270.007 293.644C268.232 295.267 264.681 297.917 260.814 297.372C260.582 297.33 260.344 297.379 260.148 297.509C259.951 297.639 259.813 297.84 259.761 298.069C259.747 298.182 259.756 298.296 259.787 298.405C259.818 298.514 259.87 298.616 259.941 298.705C260.012 298.794 260.1 298.867 260.2 298.921C260.299 298.975 260.409 299.009 260.522 299.02C260.942 299.079 261.366 299.109 261.79 299.109Z" fill="white"/>
<path d="M322.631 511.74C327.571 511.814 332.506 511.44 337.378 510.624C337.491 510.609 337.599 510.571 337.696 510.512C337.794 510.453 337.878 510.375 337.943 510.282C338.009 510.189 338.054 510.084 338.077 509.972C338.1 509.861 338.099 509.746 338.076 509.635C338.013 509.41 337.866 509.219 337.665 509.1C337.464 508.982 337.225 508.946 336.998 509.001C336.478 509.102 285.416 518.511 238.094 477.783C237.918 477.629 237.693 477.545 237.46 477.545C237.227 477.545 237.001 477.629 236.826 477.783C236.742 477.855 236.676 477.945 236.63 478.046C236.584 478.146 236.56 478.256 236.56 478.366C236.56 478.477 236.584 478.586 236.63 478.687C236.676 478.787 236.742 478.877 236.826 478.949C256.121 495.818 279.874 506.759 305.234 510.459C310.996 511.294 316.809 511.722 322.631 511.74Z" fill="white"/>
<path d="M138.085 500.175C138.085 500.175 139.226 495.61 143.03 497.132C146.834 498.653 146.441 508.734 145.693 514.44C144.945 520.146 139.797 517.483 139.797 517.483V514.06C139.797 514.06 141.699 515.569 142.65 513.489C143.601 511.409 143.411 500.936 142.46 501.126C141.509 501.316 139.607 504.537 139.607 504.537C139.607 504.537 139.036 504.182 138.085 500.175Z" fill="#F0C376" stroke="#1A3447" stroke-width="1.268" stroke-linecap="round" stroke-linejoin="round"/>
<path d="M140.824 500.937V525.916C140.824 528.858 134.066 531.242 125.722 531.242C117.379 531.242 110.633 528.858 110.633 525.916V500.937H140.824Z" fill="#F0C376" stroke="#1A3447" stroke-width="1.268" stroke-linecap="round" stroke-linejoin="round"/>
<path d="M110.633 500.937C110.633 503.473 117.392 505.527 125.722 505.527C134.053 505.527 140.824 503.473 140.824 500.937C140.824 498.401 134.066 496.347 125.722 496.347C117.379 496.347 110.633 498.414 110.633 500.937Z" fill="white" stroke="#1A3447" stroke-width="1.268" stroke-linecap="round" stroke-linejoin="round"/>
<path d="M112.609 500.937C112.609 503.143 118.48 504.931 125.72 504.931C132.96 504.931 138.844 503.143 138.844 500.937C138.844 498.73 132.96 496.942 125.72 496.942C118.48 496.942 112.609 498.73 112.609 500.937Z" fill="white" stroke="#1A3447" stroke-width="1.268" stroke-linecap="round" stroke-linejoin="round"/>
<path d="M135.844 503.473C129.24 505.4 122.223 505.4 115.619 503.473C122.223 501.546 129.24 501.546 135.844 503.473Z" fill="#1A3447" stroke="#1A3447" stroke-width="1.268" stroke-linecap="round" stroke-linejoin="round"/>
<path d="M130.045 494.318C130.045 494.318 119.47 487.978 122.919 480.7C126.368 473.422 138.033 468.629 138.033 457.305C138.033 447.554 127.661 443.941 120.89 440.035" stroke="#1A3447" stroke-width="1.268" stroke-linecap="round" stroke-linejoin="round"/>
<path d="M120.285 494.115C120.285 494.115 114.388 490.197 114.388 483.971C114.388 479.799 118.852 477.06 124.748 470.34" stroke="#1A3447" stroke-width="1.268" stroke-linecap="round" stroke-linejoin="round"/>
</svg>
