<svg width="258" height="179" viewBox="0 0 258 179" fill="none" xmlns="http://www.w3.org/2000/svg">
<path d="M215.919 101.139C210.884 111.342 201.823 121.954 190.608 124.074C173.664 127.277 170.046 140.974 140.956 136.179C136.7 135.498 132.535 134.33 128.544 132.701C126.588 131.894 124.688 130.958 122.858 129.898C106.653 120.522 99.6705 103.342 100.95 86.3864C102.623 64.0852 118.514 55.2643 128.758 50.2106C139.002 45.1569 153.33 22.5541 181.965 27.0178C186.349 27.6842 190.635 28.8826 194.729 30.5865C204.074 34.5154 213.176 41.8249 217.807 51.4709C218.157 52.1958 218.484 52.9353 218.791 53.6822C224.8 68.3364 222.784 87.229 215.919 101.139Z" fill="#F0C376"/>
<path opacity="0.7" d="M215.919 101.139C210.884 111.342 201.823 121.954 190.608 124.074C173.664 127.277 170.046 140.974 140.956 136.179C136.7 135.498 132.535 134.33 128.544 132.701C126.588 131.894 124.688 130.958 122.858 129.898C106.653 120.522 99.6705 103.342 100.95 86.3864C102.623 64.0852 118.514 55.2643 128.758 50.2106C139.002 45.1569 153.33 22.5541 181.965 27.0178C186.349 27.6842 190.635 28.8826 194.729 30.5865C204.074 34.5154 213.176 41.8249 217.807 51.4709C218.157 52.1958 218.484 52.9353 218.791 53.6822C224.8 68.3364 222.784 87.229 215.919 101.139Z" fill="white"/>
<path d="M245.138 22.8197C245.138 22.8197 252.585 26.4825 255.443 32.5036C258.3 38.5248 257.468 49.1873 250.503 54.8058C243.538 60.4243 230.699 66.0059 213.744 65.1093C196.789 64.2126 185.996 52.2853 184.41 44.5928C182.824 36.9003 186.706 28.3996 196.819 22.5948C206.931 16.79 214.107 17.5494 224.265 17.7807C234.424 18.012 245.138 22.8197 245.138 22.8197Z" fill="#362822" stroke="#1A3447" stroke-width="0.6868" stroke-miterlimit="10"/>
<path d="M209.899 4.49939C209.899 4.49939 218.11 5.73575 222.653 10.6111C227.196 15.4864 229.635 25.8975 224.699 33.3611C219.762 40.8246 209.215 50.0654 192.792 54.3353C176.368 58.6052 162.462 50.5131 158.625 43.6593C154.789 36.8056 155.887 27.539 163.788 18.9379C171.689 10.3368 178.764 8.89168 188.488 6.04403C198.213 3.19638 209.899 4.49939 209.899 4.49939Z" fill="white"/>
<path d="M158.625 43.6591C156.629 40.049 155.994 35.842 156.838 31.8036C159.755 34.6762 168.187 40.3651 189.34 40.5745C205.504 40.7287 219.036 30.2523 227.322 21.7823C227.805 25.8287 226.878 29.9176 224.699 33.3609C219.762 40.8244 209.215 50.0345 192.792 54.3351C176.368 58.6358 162.45 50.5126 158.625 43.6591Z" fill="#362822"/>
<path d="M209.899 4.49939C209.899 4.49939 218.11 5.73575 222.653 10.6111C227.196 15.4864 229.635 25.8975 224.699 33.3611C219.762 40.8246 209.215 50.0654 192.792 54.3353C176.368 58.6053 162.462 50.5131 158.625 43.6593C154.789 36.8056 155.887 27.539 163.788 18.9379C171.689 10.3368 178.764 8.89168 188.488 6.04403C198.213 3.19638 209.899 4.49939 209.899 4.49939Z" stroke="#1A3447" stroke-width="0.6868" stroke-miterlimit="10"/>
<path d="M208.934 8.29987C208.925 8.70573 209.41 9.04811 210.019 9.06086C210.628 9.07362 211.133 8.75198 211.141 8.34613C211.15 7.94027 210.659 7.59778 210.05 7.58503C209.441 7.57227 208.942 7.89401 208.934 8.29987Z" stroke="#1A3447" stroke-width="0.6868" stroke-miterlimit="10"/>
<path d="M200.045 10.654C200.034 11.1828 200.738 11.6282 201.617 11.6466C202.497 11.6651 203.225 11.2497 203.236 10.7208C203.247 10.192 202.543 9.74659 201.657 9.72804C200.772 9.70948 200.056 10.119 200.045 10.654Z" stroke="#1A3447" stroke-width="0.6868" stroke-miterlimit="10"/>
<path d="M206.443 12.6647C206.435 13.0706 206.926 13.4131 207.535 13.4258C208.143 13.4386 208.649 13.1169 208.657 12.7111C208.666 12.3052 208.174 11.9689 207.565 11.9561C206.957 11.9434 206.452 12.2588 206.443 12.6647Z" stroke="#1A3447" stroke-width="0.6868" stroke-miterlimit="10"/>
<path d="M59.2164 108.639C59.2164 108.639 65.2925 109.236 70.9487 114.82C73.6341 117.533 75.6543 120.832 76.8508 124.456C78.0473 128.081 78.3875 131.934 77.8447 135.713C76.7568 142.87 67.2472 157.185 57.4174 164.782C47.5877 172.378 34.4065 175.531 22.63 171.847C10.8534 168.164 5.48951 155.575 4.28075 153.836C3.07199 152.096 -1.97794 139.959 2.64759 127.588C7.27312 115.216 12.5918 107.194 22.6877 101.947C32.7835 96.7009 43.2404 96.6046 49.2479 100.474C55.2554 104.344 56.8806 108.591 56.8806 108.591L59.2164 108.639Z" fill="white"/>
<path d="M0.770562 136.733L1.70546 130.705C1.87021 130.045 2.06208 129.378 2.28106 128.704C2.21179 132.009 2.25506 137.662 3.45706 142.425C5.27857 149.652 7.30595 151.683 17.6652 158.951C28.0244 166.219 30.7763 165.315 35.2268 165.925C39.6774 166.536 49.9837 163.979 59.869 157.588C65.7918 153.722 70.5549 148.322 73.6511 141.964L78.0535 131.755C78.0859 133.078 78.0041 134.402 77.8088 135.712C76.7209 142.869 67.2113 157.184 57.3816 164.78C47.5518 172.377 34.3707 175.529 22.5941 171.846C10.8176 168.163 5.45366 155.574 4.2449 153.835C3.37471 152.531 0.313557 145.424 0.770562 136.733Z" fill="#362822"/>
<path d="M53.7125 110.553C53.7125 110.553 51.8438 110.207 47.9383 117.928C44.0329 125.649 36.2626 131.429 32.9689 137.74C29.6751 144.05 26.9335 150.251 25.9436 152.729C24.9538 155.207 22.7292 157.182 21.9074 159.356C21.0857 161.53 20.8588 164.638 20.0863 164.46C19.3138 164.282 21.7866 157.793 21.3539 156.061C20.9212 154.33 18.4954 150.859 19.0002 149.147C19.5051 147.435 22.5298 144.701 21.9126 144.058C21.2954 143.414 13.0645 141.851 16.653 141.926C20.2415 142.001 24.1224 143.174 24.7451 141.627C25.3677 140.079 25.469 136.79 25.469 136.79C25.469 136.79 24.2308 136.457 25.8169 135.237C27.403 134.017 29.0363 130.162 29.0363 130.162C29.0363 130.162 33.7127 123.08 37.0612 119.56C40.4096 116.04 42.0184 114.513 43.8969 113.614C45.7755 112.716 45.62 113.19 47.2159 111.501C48.8119 109.812 47.9051 108.71 49.6087 109.214C51.3123 109.719 55.7984 107.476 53.7125 110.553Z" fill="#362822" stroke="#362822" stroke-width="0.902678" stroke-miterlimit="10"/>
<path d="M64.4966 154.313C64.4966 154.313 57.6903 158.852 52.2039 162.141C46.7175 165.43 35.1466 165.826 30.7593 165.282" stroke="#1A3447" stroke-width="0.902678" stroke-miterlimit="10"/>
<path d="M26.8273 164.601C26.8273 164.601 23.1081 163.432 22.0203 162.479" stroke="#1A3447" stroke-width="0.902678" stroke-miterlimit="10"/>
<path d="M18.8165 160.068C18.8165 160.068 13.2308 156.522 10.5256 153.652C7.82039 150.781 5.60259 150.12 3.42703 142.426C1.25147 134.731 2.73453 130.711 2.73453 130.711" stroke="#1A3447" stroke-width="0.902678" stroke-miterlimit="10"/>
<path d="M59.2164 108.639C59.2164 108.639 65.2925 109.236 70.9487 114.82C73.6341 117.533 75.6543 120.832 76.8508 124.456C78.0473 128.081 78.3875 131.934 77.8447 135.713C76.7568 142.87 67.2472 157.185 57.4174 164.782C47.5877 172.378 34.4065 175.531 22.63 171.847C10.8534 168.164 5.48951 155.575 4.28075 153.836C3.07199 152.096 -1.97794 139.959 2.64759 127.588C7.27311 115.216 12.5918 107.194 22.6877 101.947C32.7835 96.7009 43.2404 96.6046 49.2479 100.474C55.2554 104.344 56.8806 108.591 56.8806 108.591L59.2164 108.639Z" stroke="#1A3447" stroke-width="0.902678" stroke-miterlimit="10"/>
<path d="M43.433 159.379C43.4246 159.783 44.121 160.121 44.9858 160.139C45.8505 160.157 46.5686 159.849 46.577 159.444C46.5855 159.04 45.8891 158.702 45.0162 158.684C44.1434 158.666 43.4413 158.983 43.433 159.379Z" stroke="#1A3447" stroke-width="0.902678" stroke-miterlimit="10"/>
<path d="M41.2455 102.216C41.2371 102.62 41.9334 102.958 42.7982 102.976C43.663 102.994 44.3811 102.686 44.3895 102.281C44.398 101.877 43.7016 101.539 42.8287 101.521C41.9558 101.503 41.2538 101.82 41.2455 102.216Z" stroke="#1A3447" stroke-width="0.902678" stroke-miterlimit="10"/>
<path d="M32.5408 101.636C32.5231 102.485 33.5915 103.202 34.9332 103.23C36.2748 103.259 37.3724 102.586 37.3902 101.738C37.4079 100.889 36.3393 100.179 34.9977 100.151C33.656 100.123 32.5586 100.787 32.5408 101.636Z" stroke="#1A3447" stroke-width="0.902678" stroke-miterlimit="10"/>
</svg>
