<svg width="625" height="625" viewBox="0 0 625 625" fill="none" xmlns="http://www.w3.org/2000/svg">
<g clip-path="url(#clip0_432_1562)">
<path d="M579.574 145.463C577.599 142.13 575.516 138.838 573.324 135.588C544.362 92.6505 494.499 63.288 445.449 50.0005C423.929 44.2749 401.821 41.0494 379.562 40.388C233.749 35.463 175.737 150.351 127.562 180.001C79.3869 209.651 5.26191 260.288 10.1994 366.526C15.1369 472.763 91.7369 572.776 239.974 579.026C388.212 585.276 398.099 518.476 480.862 493.751C535.637 477.401 574.549 422.176 593.612 371.138C619.574 301.601 618.349 211.251 579.574 145.463Z" fill="#F0C376"/>
<path opacity="0.7" d="M579.574 145.463C577.599 142.13 575.516 138.838 573.324 135.588C544.362 92.6505 494.499 63.288 445.449 50.0005C423.929 44.2749 401.821 41.0494 379.562 40.388C233.749 35.463 175.737 150.351 127.562 180.001C79.3869 209.651 5.26191 260.288 10.1994 366.526C15.1369 472.763 91.7369 572.776 239.974 579.026C388.212 585.276 398.099 518.476 480.862 493.751C535.637 477.401 574.549 422.176 593.612 371.138C619.574 301.601 618.349 211.251 579.574 145.463Z" fill="white"/>
<path d="M266.825 246.862C277.35 258.437 295.138 267.825 295.138 267.825C294.415 263.866 292.97 260.073 290.875 256.637C287.7 251.925 257.5 231.25 257.5 231.25C262.458 233.217 267.52 234.911 272.663 236.325C277.663 237.4 313.713 245.075 313.713 245.075C311.663 244.188 309.718 243.077 307.913 241.762C304.663 239.45 292.988 235.225 276.738 229.387C260.488 223.55 238.538 212 238.538 212C238.538 212 246.113 211.675 251.825 211.662C257.538 211.65 318.85 227.525 318.85 227.525C314.859 225.393 310.724 223.543 306.475 221.987C299.363 219.375 296.475 218.912 289.313 216.3C280.538 212.906 271.482 210.288 262.25 208.475C251.588 206.512 217.25 195.6 216.213 195.287C232.9 210.287 244.888 221.412 244.888 221.412C244.888 221.412 256.25 235.3 266.825 246.862Z" fill="#F0C376"/>
<path d="M108.213 63.875C108.213 63.875 130.288 53.4875 148.75 52.75C167.213 52.0125 227.1 48.1125 227.1 48.1125C227.1 48.1125 211.1 46.525 200.75 47.325C190.4 48.125 183.438 46.425 175.75 45.825C168.063 45.225 149.5 45.95 142.213 44.8C134.925 43.65 123.013 50 107.8 52.9875C92.5879 55.975 69.5754 66.5875 69.5754 66.5875C69.5754 66.5875 63.3254 58.1 65.4629 56.3125C67.6004 54.525 72.4129 52.2875 82.2879 48.75C94.9224 44.171 107.785 40.2491 120.825 37C137.738 32.725 210.138 29.5625 210.138 29.5625L164.313 26.25C164.313 26.25 144.463 30.075 134.313 29.3875C124.163 28.7 101.425 32.1375 84.8879 35.875C69.5254 39.35 50.4379 50 47.8379 51.5375C50.5504 53.65 53.1754 55.65 55.6504 57.4875C63.684 63.6715 71.32 70.3556 78.5129 77.5C83.0411 74.3325 87.8633 71.6074 92.9129 69.3625C103.963 64.125 108.213 63.875 108.213 63.875Z" fill="#F0C376"/>
<path d="M263.413 201.249C275.538 202.499 321.838 202.837 321.838 202.837C321.838 202.837 292.688 196.787 288.276 196.112C283.863 195.437 274.676 194.587 257.913 194.074C241.151 193.562 231.476 189.962 220.876 186.499C213.592 183.987 206.53 180.872 199.763 177.187C199.763 177.187 213.051 176.862 220.401 177.999C227.751 179.137 236.401 179.587 263.601 182.637C290.801 185.687 320.788 182.524 320.788 182.524L311.663 179.287C307.101 177.674 303.938 178.687 297.676 178.312C291.413 177.937 276.651 178.049 265.838 176.062C255.026 174.074 249.288 174.087 227.426 171.574C205.563 169.062 182.813 164.324 182.813 164.324C189.14 163.863 195.487 163.746 201.826 163.974C210.488 164.424 210.101 164.962 219.326 165.799C228.551 166.637 236.001 162.974 251.538 161.787C267.076 160.599 313.576 153.712 313.576 153.712C313.576 153.712 304.913 153.262 301.076 152.962C297.238 152.662 275.426 153.474 267.626 155.274C259.826 157.074 225.276 158.599 203.951 156.524C191.963 155.412 180.099 153.229 168.501 149.999C168.501 149.999 182.101 151.524 188.201 150.962C194.301 150.399 206.663 150.237 222.426 147.574C238.188 144.912 300.988 135.762 300.988 135.762C300.988 135.762 272.401 135.762 266.301 136.362C260.201 136.962 249.688 136.787 220.051 141.787C190.413 146.787 156.513 138.199 156.513 138.199C156.513 138.199 171.126 137.174 178.688 136.849C190.167 136.541 201.609 135.409 212.926 133.462C229.601 130.637 291.326 120.712 291.326 120.712C291.326 120.712 258.326 120.074 244.651 120.949C230.976 121.824 229.826 123.449 204.951 128.599C180.076 133.749 143.201 127.099 143.201 127.099C143.201 127.099 156.026 123.987 159.576 122.437C163.126 120.887 178.326 117.837 191.863 116.037C205.401 114.237 274.188 101.249 274.188 101.249C274.188 101.249 250.001 101.999 247.063 101.537C244.126 101.074 228.051 101.887 216.776 102.787C205.501 103.687 185.188 110.499 168.501 113.312C156.372 115.162 144.148 116.33 131.888 116.812C131.888 116.812 134.113 115.774 138.051 113.674C147.779 108.615 157.905 104.36 168.326 100.949C183.226 96.0493 259.001 78.9743 259.001 78.9743C259.001 78.9743 199.976 85.1243 181.501 88.2493C163.026 91.3743 148.751 100.899 137.576 105.162C126.401 109.424 120.351 107.662 120.351 107.662L106.251 97.5743C110.457 96.8529 114.572 95.6795 118.526 94.0743C122.604 92.2679 126.551 90.1795 130.338 87.8243C137.288 83.7993 144.938 81.0743 151.113 78.1243C157.288 75.1743 167.638 74.3743 179.151 71.9743C190.663 69.5743 246.138 64.9618 246.138 64.9618C246.138 64.9618 232.688 64.3743 225.888 63.6118C219.088 62.8493 213.526 63.7868 205.951 64.1118C198.376 64.4368 186.176 65.5118 172.501 66.3868C158.826 67.2618 159.913 68.0243 141.251 73.5493C122.588 79.0743 100.676 87.0743 93.1758 84.9993C88.9967 83.7433 84.9554 82.0682 81.1133 79.9993C95.6883 94.1618 111.413 110.224 133.988 126.249C155.451 141.524 191.138 172.799 216.226 195.337C216.638 195.424 227.763 197.737 239.301 199.537C251.051 201.387 251.251 199.912 263.413 201.249Z" fill="#F0C376"/>
<path d="M0.5375 0L0 0.225V11.6625L6.7875 8.05C15.6125 3.3625 20.4 3.3 30.3375 0H0.5375Z" fill="#F0C376"/>
<path d="M43.0121 36.25C46.4121 33.75 47.4871 34.55 50.1121 33.15C52.7371 31.75 68.9496 26.1625 74.8996 24.675C84.0861 22.6507 93.3687 21.0904 102.712 20C112.5 18.825 191.25 16.0375 191.25 16.0375C191.25 16.0375 159.087 11.925 153.75 11.4C148.412 10.875 135.662 11.5875 130.337 11.0625C125.012 10.5375 104.287 12.1125 100.975 12.2C89.4237 12.8352 78.0829 15.5539 67.4996 20.225C51.9871 27.125 23.4746 30.5125 23.4746 30.5125L11.9121 21.4875C17.7055 21.0637 23.4641 20.2535 29.1496 19.0625C36.9496 17.2625 80.9746 6.9875 99.1496 2C103.415 0.972674 107.76 0.303679 112.137 0L85.4996 0C75.4996 1.9375 63.7496 4.1625 52.2246 6.1125C29.7246 9.8625 7.98711 12.025 0.412109 12.7C10.4121 21.1625 28.9996 36.775 45.0621 49.375L37.2996 42C38.9212 39.8219 40.8446 37.8858 43.0121 36.25Z" fill="#F0C376"/>
<path d="M53.3633 205C53.6552 206.976 54.2942 208.884 55.2508 210.637C55.2508 210.637 54.4258 208.188 53.3633 205Z" fill="#F0C376"/>
<path d="M240 218.024L217.775 197.824C224.025 207.412 247.05 242.137 254.9 249.824C264.038 258.774 277.975 273.574 277.975 273.574C277.975 273.574 267.813 255.737 260.475 246.474C253.138 237.212 240 218.024 240 218.024Z" fill="#F0C376"/>
<path d="M227.499 234.425C238.212 258.363 241.324 265.463 246.662 271.713C249.868 275.464 253.477 278.851 257.424 281.813C257.424 281.813 244.887 252.5 236.962 233.75C231.416 221.282 224.978 209.23 217.699 197.688L200.324 181.9C202.649 185.988 217.674 212.388 227.499 234.425Z" fill="#F0C376"/>
<path d="M116.912 129.626C118.675 123.851 121.137 111.838 121.338 110.876L61.8375 60.2633L0 11.1133V21.2508C1.3125 28.3008 2.3875 40.4883 0.7875 60.1383C0.525 63.3883 0.2625 66.3883 0 69.3633V126.251C4.25 139.276 10.475 154.251 10.475 154.251C10.475 154.251 8.4875 122.651 7.725 92.7508C6.9625 62.8508 8.4375 20.6508 8.4375 20.6508C8.4375 20.6508 16.625 18.3133 18.5 66.1383C20.375 113.963 16 136.138 16.875 144.113C17.75 152.088 23.3375 174.013 23.3375 174.013C23.3375 174.013 22.0125 126.513 26.3625 98.6633C30.7125 70.8133 23.45 30.5133 23.45 30.5133C23.45 30.5133 40 46.3133 35.4 92.8508C30.8 139.388 29.575 162.951 30.5125 168.513C31.45 174.076 35.7375 191.013 35.7375 191.013C35.7375 191.013 39.65 135.051 42.7875 116.888C45.175 103.051 45.1125 81.3258 44.1375 69.3883C49.1375 91.1883 54.9375 120.638 53.7875 136.976C51.8375 164.951 47.775 183.226 48.7125 188.838C49.9741 194.305 51.5263 199.7 53.3625 205.001C52.4625 200.438 51.9875 192.851 54.1125 181.251C58.0875 159.601 68 130.763 64.25 108.513C60.5 86.2633 47.5 51.7133 47.5 51.7133L67.425 70.7633C67.425 70.7633 72.2375 82.3383 71.05 109.238C69.8625 136.138 64.4125 151.826 64.0625 169.526C63.7125 187.226 66.9375 220.513 66.9375 220.513C66.9375 220.513 68.6375 182.576 71.3125 167.351C73.9875 152.126 80.8375 133.326 83.425 114.776C86.0125 96.2258 77.7125 78.0883 77.7125 78.0883C77.7125 78.0883 97.075 102.501 95.1 119.001C93.125 135.501 89.0625 153.863 84.7 176.051C81.93 191.223 80.5368 206.615 80.5375 222.038C80.475 224.438 85.4375 236.938 84.5875 234.701C83.7375 232.463 87.7375 185.551 92.8 170.401C97.8625 155.251 98.85 141.251 101.075 128.963C103.3 116.676 96.3625 89.7133 96.3625 89.7133C96.3625 89.7133 114.4 109.076 113.25 110.701C112.1 112.326 111.787 116.188 105.75 159.163C99.7125 202.138 101.85 220.838 103.1 228.251C104.35 235.663 109.95 251.888 109.95 251.888C109.95 251.888 105.475 216.888 109.05 190.063C112.625 163.238 115.075 135.651 116.912 129.626Z" fill="#F0C376"/>
<path d="M37.3008 42C37.3008 42 37.4133 42.3875 37.6008 43.1L37.3008 42Z" fill="#F0C376"/>
<path d="M121.363 110.763V110.838L128.863 117.2C126.101 105.35 121.363 110.763 121.363 110.763Z" fill="#F0C376"/>
<path d="M128.837 117.199C129.812 121.474 130.537 127.962 130.687 137.787C131.224 174.874 124.787 204.562 125.124 217.849C125.462 231.137 132.237 262.849 132.237 262.849C132.237 262.849 126.449 222.849 132.737 203.662C139.024 184.474 141.612 154.499 141.487 142.137L141.299 129.774C141.299 129.774 153.799 150.074 151.824 172.274C149.849 194.474 141.824 228.787 142.599 239.137C143.374 249.487 153.399 272.112 153.399 272.112C153.399 272.112 151.499 243.837 153.687 220.112C155.874 196.387 158.399 180.224 158.462 172.112C158.524 163.999 155.862 142.524 155.862 142.524C155.862 142.524 162.899 147.524 165.424 173.774C167.949 200.024 169.599 218.349 167.849 227.699C166.099 237.049 166.599 251.274 168.437 256.687C170.274 262.099 177.499 279.574 177.499 279.574C177.499 279.574 172.662 256.549 175.712 235.062C178.374 216.312 177.912 189.912 177.174 178.112C180.162 191.174 183.699 208.524 185.124 222.999C187.799 250.187 190.537 269.249 193.562 272.999C196.587 276.749 201.924 282.999 201.924 282.999C201.924 282.999 196.999 268.174 195.749 254.999C194.499 241.824 194.649 211.812 191.924 198.449C189.199 185.087 186.149 169.862 186.149 169.862C194.385 187.463 200.692 205.904 204.962 224.862C211.424 254.749 212.762 265.487 216.949 273.362C220.077 278.865 223.822 283.994 228.112 288.649C228.112 288.649 220.099 260.924 217.974 245.549C215.849 230.174 212.112 207.924 209.862 203.049C207.824 198.649 201.424 184.487 200.212 181.799L132.499 120.324L128.837 117.199Z" fill="#F0C376"/>
<g opacity="0.3">
<path d="M128.838 117.199C129.813 121.474 130.538 127.962 130.688 137.787C130.688 141.112 130.688 144.387 130.688 147.587C134.05 151.337 137.388 154.974 140.688 158.487C141.225 151.874 141.45 146.124 141.4 142.174L141.213 129.812C141.213 129.812 152.663 148.437 151.9 169.562C153.975 171.495 156.096 173.395 158.263 175.262C158.263 174.149 158.375 173.112 158.375 172.199C158.375 164.087 155.775 142.612 155.775 142.612C155.775 142.612 162.813 147.612 165.338 173.862C165.588 176.549 165.838 179.124 166.075 181.649C169.738 184.487 173.575 187.249 177.575 189.937C177.475 185.249 177.3 181.187 177.113 178.087C178.05 182.212 179.05 186.774 180.025 191.537C183.784 193.962 187.75 196.333 191.925 198.649V198.462C189.2 185.099 186.15 169.874 186.15 169.874C191.097 180.416 195.344 191.273 198.863 202.374C202.846 204.416 207.05 206.408 211.475 208.349C211.081 206.558 210.542 204.802 209.863 203.099C207.825 198.699 201.425 184.537 200.213 181.849L132.5 120.324L128.838 117.199Z" fill="#362822"/>
<path d="M121.363 110.761V110.836L128.863 117.198C126.101 105.348 121.363 110.761 121.363 110.761Z" fill="#362822"/>
<path d="M200.212 181.837L200.325 181.937L200 181.387L200.212 181.837Z" fill="#362822"/>
<path d="M0 18.3867V21.2492C0.3875 23.2492 0.75 25.7492 1.025 28.7492L8.025 35.0992C8.15 30.0992 8.2625 26.0867 8.35 23.5742L0 18.3867Z" fill="#362822"/>
<path d="M215.712 210.163C219.545 211.829 223.562 213.429 227.762 214.962C223.624 207.362 219.749 201 217.699 197.725L200.324 181.938C201.812 184.537 208.499 196.25 215.712 210.163Z" fill="#362822"/>
<path d="M41.7504 44.3L26.7754 35C30.4684 41.3538 33.0075 48.3111 34.2754 55.55C39.8754 59.5875 46.6879 64.6625 54.1504 70.55C50.5504 59.775 47.5004 51.7125 47.5004 51.7125L67.4254 70.7625C67.4254 70.7625 69.1379 74.9125 70.2754 84.0125C74.4129 87.5875 78.6129 91.35 82.7754 95.2625C81.736 89.3591 80.0292 83.593 77.6879 78.075C77.6879 78.075 88.3879 91.5375 93.0629 105.25C95.6754 107.887 98.2754 110.588 100.813 113.325C99.7687 105.372 98.2747 97.4841 96.3379 89.7C96.3379 89.7 114.4 109.075 113.25 110.7C112.538 111.688 112.15 113.512 110.588 124.45L116.5 131.25C116.638 130.6 116.775 130 116.913 129.587C118.675 123.812 121.138 111.8 121.338 110.837L61.8379 60.2625L41.7504 44.3ZM37.3004 42C37.3004 42 37.4129 42.3875 37.6004 43.1L37.3004 42Z" fill="#362822"/>
<path d="M23.9004 33.2234L13.2129 26.5859C14.9747 31.9091 16.1524 37.4081 16.7254 42.9859L19.0504 45.0984C19.0504 45.0984 21.6629 46.7734 26.1004 49.8359C25.3129 42.4984 24.4254 36.4859 23.9004 33.2234Z" fill="#362822"/>
<path d="M217.801 197.824C220.088 201.312 224.563 208.087 229.726 215.699L230.801 216.099C234.551 217.462 238.063 218.762 241.426 220.024L240.026 218.024L217.801 197.824Z" fill="#362822"/>
<path d="M217.7 197.724L217.8 197.824L216.188 195.324C216.188 195.324 216.75 196.249 217.7 197.724Z" fill="#362822"/>
</g>
<path d="M253.75 227.05C239.788 215.013 240 208.1 131.925 116.8C82.15 74.7879 37.6125 38.4129 0 8.52539V16.4754C22.9625 34.5754 47.3875 54.4754 72.95 76.2504C224.938 205.338 260.45 236.95 260.45 236.95C258.942 233.214 256.658 229.84 253.75 227.05Z" fill="#F0C376"/>
<g opacity="0.3">
<path d="M168.388 256.801C170.263 262.201 177.476 279.576 177.476 279.576C175.794 270.7 174.869 261.696 174.713 252.663C172.647 246.785 170.022 241.117 166.876 235.738C166.376 243.888 167.001 252.776 168.388 256.801Z" fill="#362822"/>
<path d="M259.312 254.2C267.938 262.95 278.062 273.587 278.062 273.587C278.062 273.587 270.987 261.188 264.425 251.688C263.262 250.62 261.916 249.773 260.45 249.188C260 250.8 259.675 252.5 259.312 254.2Z" fill="#362822"/>
<path d="M65.5383 156.926C66.6508 166.351 68.5383 176.013 69.2008 185.426C67.7258 182.338 66.0633 178.538 64.0508 174.801C64.2883 193.101 66.9383 220.513 66.9383 220.513C66.9383 220.513 68.6383 182.576 71.3133 167.351C71.5633 165.926 71.8883 164.451 72.2008 162.976C70.6684 160.311 68.3379 158.195 65.5383 156.926Z" fill="#362822"/>
<path d="M103.039 228.25C104.289 235.675 109.889 251.887 109.889 251.887C109.889 251.887 105.414 216.887 108.989 190.062C109.476 186.462 109.939 182.85 110.376 179.275C109.172 173.376 107.474 167.589 105.301 161.975C99.6885 202.95 101.814 221 103.039 228.25Z" fill="#362822"/>
<path d="M201.901 283.074C199.087 274.242 197.062 265.177 195.851 255.987C194.846 254.741 193.72 253.597 192.488 252.574C192.638 258.262 192.751 264.649 192.488 270.987C192.75 271.723 193.116 272.418 193.576 273.049C196.563 276.837 201.901 283.074 201.901 283.074Z" fill="#362822"/>
<path d="M23.9633 124.05L23.7508 123.85C20.5383 127.875 20.2008 133.562 19.3008 138.7C18.7508 128.325 19.4633 115.362 18.8133 102.725C18.2133 126.037 16.3133 138.562 16.8883 144.112C17.7508 152.075 23.3508 174.012 23.3508 174.012C23.3508 174.012 22.6383 148.612 23.9633 124.05Z" fill="#362822"/>
<path d="M253.287 278.412C255.787 280.587 257.462 281.812 257.462 281.812C257.462 281.812 256.287 279.087 254.45 274.787C254.087 276 253.75 277.212 253.287 278.412Z" fill="#362822"/>
<path d="M224.676 284.699C226.651 287.124 228.113 288.674 228.113 288.674C228.113 288.674 227.051 284.924 225.613 279.574C225.301 281.249 225.001 282.987 224.676 284.699Z" fill="#362822"/>
<path d="M7.65055 88.75C7.35055 91.95 7.07555 95.125 6.51305 98.1125C4.75055 107.5 0.225551 119.25 1.00055 129.238C5.16305 141.45 10.4756 154.238 10.4756 154.238C10.4756 154.238 8.48805 122.65 7.72555 92.75C7.70055 91.45 7.67555 90.125 7.65055 88.75Z" fill="#362822"/>
<path d="M53.3887 205C53.6874 206.951 54.3173 208.836 55.2512 210.575C55.2512 210.575 54.4387 208.212 53.3887 205Z" fill="#362822"/>
<path d="M30.5122 168.512C31.4497 174.062 35.7372 191.012 35.7372 191.012C35.7372 191.012 37.3372 168.212 39.2997 147C37.0842 142.218 34.5796 137.576 31.7997 133.1C30.2372 153.475 29.8997 164.875 30.5122 168.512Z" fill="#362822"/>
<path d="M54.1139 181.25C55.0014 176.25 56.2514 170.9 57.5014 165.363C55.7923 163.487 53.7272 161.97 51.4264 160.9C49.7389 175.4 48.0889 185 48.7514 188.75C50.0193 194.246 51.5798 199.671 53.4264 205C52.5014 200.45 51.9764 192.863 54.1139 181.25Z" fill="#362822"/>
<path d="M131.576 208.15C130.326 203.075 129.076 196.525 127.614 190C126.239 202.15 124.964 211.75 125.114 217.85C125.439 231.15 132.226 262.85 132.226 262.85C132.226 262.85 127.251 228.438 131.576 208.15Z" fill="#362822"/>
<path d="M142.9 231.488C142.56 234.053 142.443 236.641 142.55 239.226C143.337 249.576 153.35 272.201 153.35 272.201C153.35 272.201 152.887 265.238 152.675 255.326C149.1 247.651 145.912 239.588 142.9 231.488Z" fill="#362822"/>
</g>
<path d="M614.737 36.65C616.349 40.175 619.637 55.4 621.649 68.8375C622.149 72.1875 623.399 78.9625 624.999 87.2375V50.2625C624.649 48.6375 624.312 47.025 624.024 45.45C621.997 33.352 620.653 21.1493 619.999 8.9C619.999 8.9 621.074 11.1125 623.237 15.0125C623.687 15.8375 624.312 17.0125 625.062 18.45V0H618.637C615.949 3.5375 613.262 7.2375 610.562 11.15C595.637 32.85 564.937 69.025 542.787 94.4625C542.699 94.875 540.562 106.038 538.949 117.6C537.299 129.375 538.774 129.575 537.699 141.738C536.624 153.9 537.037 200.175 537.037 200.175C537.037 200.175 542.624 170.938 543.287 166.525C543.949 162.113 544.599 152.9 544.837 136.125C545.074 119.35 548.587 109.625 551.837 98.975C554.233 91.6547 557.235 84.5467 560.812 77.725C560.812 77.725 561.349 91 560.324 98.3625C559.299 105.725 558.987 114.387 556.374 141.637C553.762 168.887 557.387 198.812 557.387 198.812C557.387 198.812 558.924 194.225 560.474 189.638C562.024 185.05 560.949 181.9 561.224 175.637C561.499 169.375 561.162 154.613 562.987 143.762C564.812 132.913 564.699 127.188 566.862 105.288C569.024 83.3875 573.412 60.575 573.412 60.575C573.972 66.8919 574.189 73.2346 574.062 79.575C573.749 88.2375 573.199 87.8625 572.512 97.075C571.824 106.288 575.587 113.712 577.024 129.225C578.462 144.738 586.074 191.125 586.074 191.125C586.074 191.125 586.387 182.462 586.624 178.625C586.862 174.787 585.712 152.975 583.799 145.212C581.887 137.45 579.799 102.925 581.587 81.5625C582.481 69.5783 584.443 57.6978 587.449 46.0625C587.449 46.0625 586.199 59.6875 586.799 65.7875C587.399 71.8875 587.824 84.2375 590.724 99.95C593.624 115.662 603.787 178.325 603.787 178.325C603.787 178.325 603.274 149.738 602.624 143.638C601.974 137.538 601.949 127.037 596.474 97.45C590.999 67.8625 599.062 33.875 599.062 33.875C599.062 33.875 600.312 48.4625 600.774 56.025C601.259 67.4962 602.571 78.9175 604.699 90.2C607.774 106.838 618.674 168.4 618.674 168.4C618.674 168.4 618.787 135.387 617.699 121.738C616.612 108.088 614.962 106.938 609.424 82.15C603.887 57.3625 609.949 20.3875 609.949 20.3875C609.949 20.3875 613.137 33.125 614.737 36.65Z" fill="#F0C376"/>
<path d="M492.012 145.862C480.612 156.575 471.5 174.512 471.5 174.512C475.448 173.719 479.219 172.211 482.625 170.062C487.287 166.812 507.45 136.312 507.45 136.312C505.562 141.298 503.951 146.385 502.625 151.55C501.625 156.55 494.462 192.8 494.462 192.8C495.317 190.732 496.399 188.766 497.687 186.937C499.95 183.65 503.937 171.937 509.575 155.587C515.212 139.237 526.362 117.112 526.362 117.112C526.362 117.112 526.8 124.612 526.9 130.387C527 136.162 512.1 197.662 512.1 197.662C514.169 193.625 515.953 189.448 517.438 185.162C519.938 178.012 520.35 175.062 522.85 167.912C526.109 159.084 528.585 149.987 530.25 140.725C532.05 130.037 542.412 95.4871 542.75 94.4746C528.025 111.387 517.088 123.562 517.088 123.562C517.088 123.562 503.412 135.15 492.012 145.862Z" fill="#F0C376"/>
<path d="M488.862 134.012C480.112 143.287 465.475 157.463 465.475 157.463C465.475 157.463 483.15 147.025 492.287 139.6C501.425 132.175 520.437 118.625 520.437 118.625L540.275 96.125C530.787 102.5 496.437 126.037 488.862 134.012Z" fill="#F0C376"/>
<path d="M466.851 126.138C463.15 129.398 459.822 133.058 456.926 137.05C456.926 137.05 486.063 124.025 504.626 115.8C519.326 109.288 534.626 99.6754 540.376 95.9629L555.888 78.3379C551.876 80.7379 525.713 96.2504 503.838 106.388C480.076 117.5 473.013 120.7 466.851 126.138Z" fill="#F0C376"/>
<path d="M625.001 0H624.313L619.488 5.85C621.425 5.44524 623.286 4.73647 625.001 3.75V0Z" fill="#F0C376"/>
<path d="M518.75 3.75004C505.475 4.30004 473.837 11.575 473.837 11.575C473.837 11.575 513.75 5.12504 533.062 11.125C552.375 17.125 582.362 19.2125 594.725 18.8375L607.075 18.475C607.075 18.475 586.975 31.25 564.687 29.65C542.4 28.05 508.037 20.5375 497.7 21.4875C487.362 22.4375 464.9 32.8125 464.9 32.8125C464.9 32.8125 493.137 30.45 516.9 32.275C540.662 34.1 556.9 36.3625 564.962 36.3C573.025 36.2375 594.512 33.225 594.512 33.225C594.512 33.225 589.612 40.3375 563.387 43.225C537.162 46.1125 518.875 48.1125 509.5 46.5C500.125 44.8875 485.912 45.6 480.537 47.55C475.162 49.5 457.9 57 457.9 57C457.9 57 480.837 51.8 502.375 54.5C521.125 56.85 547.55 55.975 559.35 55.0625C546.325 58.25 529.037 62.0625 514.6 63.7125C487.5 66.875 468.412 69.925 464.675 73C460.937 76.075 454.787 81.525 454.787 81.525C454.787 81.525 469.612 76.3875 482.725 74.925C495.837 73.4625 525.887 73.1625 539.212 70.2125C552.537 67.2625 567.7 63.9625 567.7 63.9625C550.235 72.4776 531.899 79.0744 513.012 83.6375C483.225 90.575 472.512 92.0875 464.7 96.4C459.252 99.6136 454.187 103.434 449.6 107.788C449.6 107.788 477.2 99.3375 492.537 96.9875C507.875 94.6375 530.037 90.525 534.887 88.2375C539.25 86.1375 553.312 79.4875 555.987 78.2375L616.425 9.57504L619.487 5.82504C615.237 6.87504 608.75 7.70004 598.937 8.00004C561.862 9.15004 532.075 3.17504 518.75 3.75004Z" fill="#F0C376"/>
<g opacity="0.3">
<path d="M619.488 5.84961C615.238 6.89961 608.751 7.72461 598.938 8.02461C595.613 8.12461 592.338 8.16211 589.138 8.16211C585.388 11.5746 581.863 14.9746 578.401 18.3996C585.026 18.8246 590.776 18.9621 594.726 18.8371L607.076 18.4746C607.076 18.4746 588.638 30.1996 567.501 29.7246C565.592 31.8413 563.726 33.9913 561.901 36.1746C563.013 36.1746 564.051 36.2496 564.963 36.2496C573.076 36.1746 594.513 33.1746 594.513 33.1746C594.513 33.1746 589.613 40.2871 563.388 43.1746L555.613 44.0371C552.826 47.7871 550.126 51.6121 547.501 55.6746C552.188 55.4996 556.251 55.2621 559.351 55.0246C555.238 56.0246 550.688 57.0996 545.951 58.1496C543.576 61.9496 541.263 65.9538 539.013 70.1621H539.213C552.526 67.2246 567.701 63.9121 567.701 63.9121C557.251 69.0291 546.473 73.4471 535.438 77.1371C533.48 81.2121 531.559 85.4704 529.676 89.9121C531.457 89.4946 533.2 88.9302 534.888 88.2246C539.251 86.1246 553.313 79.4746 555.988 78.2246L616.426 9.57461L619.488 5.84961Z" fill="#362822"/>
<path d="M625.001 0H624.313L619.488 5.85C621.425 5.44524 623.286 4.73647 625.001 3.75V0Z" fill="#362822"/>
<path d="M555.989 78.2379L555.889 78.3504L556.426 78.0254L555.989 78.2379Z" fill="#362822"/>
<path d="M527.901 94.1758C526.342 98.0591 524.809 102.084 523.301 106.251C530.801 102.001 537.138 98.0258 540.376 95.9258L555.888 78.3008C553.313 79.8758 541.688 86.7508 527.901 94.1758Z" fill="#362822"/>
<path d="M540.275 96.0879C536.825 98.4254 530.125 103 522.6 108.275C522.463 108.65 522.338 108.988 522.213 109.363C520.963 113.113 519.713 116.663 518.463 120.05L520.45 118.625L540.275 96.0879Z" fill="#362822"/>
<path d="M540.375 95.9758L540.275 96.0883L542.775 94.4258C542.775 94.4258 541.875 95.0008 540.375 95.9758Z" fill="#362822"/>
</g>
<path d="M624.999 0H617.887C525.912 111.462 501.887 139.275 501.887 139.275C505.572 137.725 508.889 135.416 511.624 132.5C523.437 118.35 530.374 118.463 619.937 8.95L624.999 2.7V0Z" fill="#F0C376"/>
<g opacity="0.3">
<path d="M480.538 47.6016C475.163 49.5516 457.9 57.0516 457.9 57.0516C466.748 55.2315 475.735 54.1652 484.763 53.8641C490.611 51.7074 496.237 48.9906 501.563 45.7516C493.413 45.3891 484.538 46.1516 480.538 47.6016Z" fill="#362822"/>
<path d="M484.562 138.477C476 147.227 465.475 157.464 465.475 157.464C465.475 157.464 477.762 150.202 487.15 143.477C488.197 142.302 489.016 140.941 489.562 139.464C487.975 139.139 486.25 138.752 484.562 138.477Z" fill="#362822"/>
<path d="M454.787 81.5254C463.571 78.5533 472.603 76.3696 481.775 75.0004C483.006 73.9776 484.133 72.8344 485.137 71.5879C479.45 71.8129 473.075 72.0379 466.725 71.8254C465.993 72.105 465.303 72.4835 464.675 72.9504C460.95 76.0879 454.787 81.5254 454.787 81.5254Z" fill="#362822"/>
<path d="M460.261 132.826C459.077 134.177 457.964 135.587 456.924 137.051L463.911 133.939C462.674 133.589 461.461 133.214 460.261 132.826Z" fill="#362822"/>
<path d="M453.525 104.326C451.137 106.339 449.6 107.814 449.6 107.814C449.6 107.814 453.275 106.689 458.662 105.164C456.962 104.901 455.237 104.626 453.525 104.326Z" fill="#362822"/>
<path d="M528.588 10.0009C533.65 8.6384 540.188 7.3759 546.675 5.7509C534.513 4.6009 524.888 3.4759 518.75 3.7509C505.475 4.2884 473.838 11.5759 473.838 11.5759C473.838 11.5759 508.238 6.0259 528.588 10.0009Z" fill="#362822"/>
<path d="M505.438 21.7134C502.869 21.4234 500.281 21.3482 497.7 21.4884C487.363 22.4384 464.9 32.8134 464.9 32.8134C464.9 32.8134 471.85 32.2259 481.763 31.8759C489.375 28.1634 497.388 24.8634 505.438 21.7134Z" fill="#362822"/>
</g>
<path d="M569.863 487.238H600.126" stroke="#1A3447" stroke-linecap="round" stroke-linejoin="round"/>
<path d="M25.5508 487.238H559.626" stroke="#1A3447" stroke-linecap="round" stroke-linejoin="round"/>
<path d="M483.812 507.488H600.125" stroke="#1A3447" stroke-linecap="round" stroke-linejoin="round"/>
<path d="M25.5508 507.488H390.626" stroke="#1A3447" stroke-linecap="round" stroke-linejoin="round"/>
<path d="M569.863 545.713H600.126" stroke="#1A3447" stroke-linecap="round" stroke-linejoin="round"/>
<path d="M25.5508 545.713H559.626" stroke="#1A3447" stroke-linecap="round" stroke-linejoin="round"/>
<path d="M149.227 592.863H600.127" stroke="#1A3447" stroke-linecap="round" stroke-linejoin="round"/>
<path d="M25.5508 592.863H96.4633" stroke="#1A3447" stroke-linecap="round" stroke-linejoin="round"/>
<path d="M478.887 37.6743C478.482 36.96 477.94 36.3325 477.292 35.8277C476.644 35.3229 475.903 34.9508 475.111 34.7325C474.32 34.5143 473.493 34.4542 472.678 34.5558C471.863 34.6573 471.076 34.9185 470.362 35.3243L378.012 87.8243C376.902 88.4638 376.009 89.4218 375.449 90.5743L366.087 110.324C365.679 111.187 365.473 112.132 365.487 113.087L366.824 212.249H379.324L377.999 114.399L385.899 97.7493L476.549 46.2493C477.269 45.8431 477.902 45.2981 478.409 44.6459C478.917 43.9937 479.291 43.2472 479.508 42.4497C479.726 41.6522 479.783 40.8195 479.676 39.9998C479.569 39.1801 479.301 38.3897 478.887 37.6743Z" fill="#1A3447" stroke="#1A3447" stroke-linecap="round" stroke-linejoin="round"/>
<path d="M376.438 90.3496C376.438 90.3496 376.275 96.0121 383.825 97.5871L376.438 90.3496Z" fill="#1A3447"/>
<path d="M376.438 90.3496C376.438 90.3496 376.275 96.0121 383.825 97.5871" stroke="#362822" stroke-linecap="round" stroke-linejoin="round"/>
<path d="M376.588 98.2109C377.265 99.1872 378.192 99.9641 379.271 100.461C380.351 100.958 381.543 101.156 382.725 101.036" fill="#1A3447"/>
<path d="M376.588 98.2109C377.265 99.1872 378.192 99.9641 379.271 100.461C380.351 100.958 381.543 101.156 382.725 101.036" stroke="#362822" stroke-linecap="round" stroke-linejoin="round"/>
<path d="M371.725 101.512C371.725 101.512 373.762 105.762 380.675 106.074L371.725 101.512Z" fill="#1A3447"/>
<path d="M371.725 101.512C371.725 101.512 373.762 105.762 380.675 106.074" stroke="#362822" stroke-linecap="round" stroke-linejoin="round"/>
<path d="M367.949 111.574C370.923 111.479 373.878 112.069 376.587 113.299L367.949 111.574Z" fill="#1A3447"/>
<path d="M367.949 111.574C370.923 111.479 373.878 112.069 376.587 113.299" stroke="#362822" stroke-linecap="round" stroke-linejoin="round"/>
<path d="M369.363 106.537C369.841 107.195 370.452 107.745 371.156 108.152C371.86 108.559 372.642 108.814 373.451 108.9" fill="#1A3447"/>
<path d="M369.363 106.537C369.841 107.195 370.452 107.745 371.156 108.152C371.86 108.559 372.642 108.814 373.451 108.9" stroke="#362822" stroke-linecap="round" stroke-linejoin="round"/>
<path d="M479.725 40.4876C479.787 41.2388 479.693 41.9948 479.449 42.7078C479.204 43.4208 478.814 44.0753 478.304 44.6299C477.794 45.1845 477.174 45.6273 476.483 45.9301C475.793 46.233 475.048 46.3893 474.294 46.3893C473.54 46.3893 472.794 46.233 472.104 45.9301C471.414 45.6273 470.794 45.1845 470.284 44.6299C469.773 44.0753 469.383 43.4208 469.139 42.7078C468.894 41.9948 468.8 41.2388 468.863 40.4876C468.8 39.7364 468.894 38.9805 469.139 38.2675C469.383 37.5545 469.773 36.9 470.284 36.3454C470.794 35.7907 471.414 35.348 472.104 35.0451C472.794 34.7423 473.54 34.5859 474.294 34.5859C475.048 34.5859 475.793 34.7423 476.483 35.0451C477.174 35.348 477.794 35.7907 478.304 36.3454C478.814 36.9 479.204 37.5545 479.449 38.2675C479.693 38.9805 479.787 39.7364 479.725 40.4876Z" fill="#1A3447" stroke="#362822" stroke-linecap="round" stroke-linejoin="round"/>
<path d="M445 510.874C427.4 518.136 399.8 522.811 368.75 522.811C341.937 522.811 317.7 519.311 300.25 513.699C299.422 513.424 298.651 513 297.975 512.449L298.725 525.761C298.819 527.396 299.42 528.962 300.444 530.24C301.467 531.519 302.863 532.448 304.437 532.899C314.754 536.051 325.376 538.104 336.125 539.024H338.25C339.672 539.086 341.097 538.993 342.5 538.749C345.514 538.118 348.646 538.365 351.525 539.461L352.062 539.674C353.393 540.188 354.799 540.483 356.225 540.549C360.337 540.724 364.537 540.811 368.8 540.811C390.325 540.811 406.762 539.349 422.787 535.561L424.7 534.949C425.38 534.75 426.011 534.41 426.55 533.949C427.2 533.374 428.7 532.549 431.9 532.699C433.144 532.765 434.391 532.622 435.587 532.274C437.062 531.824 438.487 531.361 439.862 530.886C441.332 530.344 442.607 529.375 443.522 528.103C444.437 526.831 444.952 525.315 445 523.749L445.637 510.549C445.431 510.669 445.218 510.777 445 510.874Z" fill="#F0C376" stroke="#1A3447" stroke-linecap="round" stroke-linejoin="round"/>
<path d="M368.75 240.598C316.875 240.598 273.275 238.236 260.75 235.048L267.087 337.786C267.105 337.953 267.175 338.111 267.287 338.236L272.512 349.848L290.625 474.411L295.187 507.611C295.38 508.997 295.955 510.301 296.85 511.377C297.745 512.453 298.922 513.257 300.25 513.698C317.75 519.311 341.937 522.811 368.75 522.811C399.812 522.811 427.412 518.136 445 510.873C446.254 510.368 447.348 509.534 448.167 508.458C448.985 507.382 449.498 506.104 449.65 504.761L452.687 477.261L464.975 349.761L470.2 338.148C470.317 338.026 470.388 337.867 470.4 337.698L477.65 234.711C466.475 238.111 421.975 240.598 368.75 240.598Z" fill="#F0C376" stroke="#1A3447" stroke-linecap="round" stroke-linejoin="round"/>
<path d="M368.75 221.362C307.1 221.362 257.125 218.049 257.125 213.949V233.174C257.125 237.274 307.125 240.599 368.75 240.599C430.375 240.599 480.375 237.274 480.375 233.174V213.949C480.387 218.049 430.413 221.362 368.75 221.362Z" fill="#F0C376" stroke="#1A3447" stroke-linecap="round" stroke-linejoin="round"/>
<path d="M368.762 221.373C430.411 221.373 480.387 218.049 480.387 213.948C480.387 209.848 430.411 206.523 368.762 206.523C307.113 206.523 257.137 209.848 257.137 213.948C257.137 218.049 307.113 221.373 368.762 221.373Z" fill="#F0C376" stroke="#1A3447" stroke-linecap="round" stroke-linejoin="round"/>
<path d="M310 353.949C293.35 352.949 281.037 351.549 275.662 349.924" stroke="#1A3447" stroke-linecap="round" stroke-linejoin="round"/>
<path d="M463.15 349.574C454.175 352.962 415.375 355.499 368.862 355.499C349.437 355.499 331.362 355.062 316.225 354.249" stroke="#1A3447" stroke-linecap="round" stroke-linejoin="round"/>
<path d="M284.488 341.675C273.876 340.425 267.676 338.837 267.676 337.162" stroke="#1A3447" stroke-linecap="round" stroke-linejoin="round"/>
<path d="M441.887 342.274C423.374 343.699 397.249 344.574 368.299 344.574C336.774 344.574 308.587 343.524 289.949 341.887" stroke="#1A3447" stroke-linecap="round" stroke-linejoin="round"/>
<path d="M470 337.162C470 338.85 462.187 340.425 449.037 341.675" stroke="#1A3447" stroke-linecap="round" stroke-linejoin="round"/>
<path d="M368.75 218.362C417.5 218.362 458.887 216.287 474.125 213.362C474.125 212.112 474.225 210.862 474.225 209.55C474.225 154.387 427.412 109.662 369.662 109.662C311.912 109.662 265.1 154.387 265.1 209.55C265.1 210.937 265.1 212.312 265.212 213.687C281.775 216.437 321.887 218.362 368.75 218.362Z" stroke="#1A3447" stroke-linecap="round" stroke-linejoin="round"/>
<path d="M413.137 124.999C404.787 120.86 395.882 117.951 386.699 116.361" stroke="#1A3447" stroke-linecap="round" stroke-linejoin="round"/>
<path d="M283.226 168.812C277.954 180.209 275.228 192.618 275.238 205.175C275.238 206.425 275.238 207.675 275.338 208.925C290.276 211.425 326.513 213.125 368.851 213.125C412.851 213.125 450.263 211.25 464.026 208.637C464.026 207.487 464.126 206.35 464.126 205.2C464.126 177.387 450.963 152.525 430.263 135.975" stroke="#1A3447" stroke-linecap="round" stroke-linejoin="round"/>
<path d="M275.225 213.936L281.05 204.624C281.05 204.624 288.8 203.461 291.125 203.849C293.45 204.236 307.8 213.549 307.8 213.549L308.187 216.649C308.187 216.649 279.5 215.486 275.225 213.936Z" fill="white" stroke="#1A3447" stroke-linecap="round" stroke-linejoin="round"/>
<path d="M302.5 209.861L303.312 203.124C303.312 203.124 305.125 201.161 306.763 201.486C308.4 201.811 324.975 200.674 326.937 202.311C328.9 203.949 336.788 206.899 337.113 208.374C337.438 209.849 336.287 217.899 336.287 217.899C336.287 217.899 311.288 217.199 308.213 216.649L307.825 213.549L302.5 209.861Z" fill="white" stroke="#1A3447" stroke-linecap="round" stroke-linejoin="round"/>
<path d="M333.975 205.924C335.836 204.738 337.812 203.746 339.875 202.961C341.512 202.636 356.287 206.899 356.287 206.899C356.287 206.899 366.612 207.236 367.437 207.399C368.262 207.561 380.075 218.386 380.075 218.386C380.075 218.386 345.95 218.874 336.262 217.899C336.262 217.899 337.087 211.499 336.6 209.524C336.079 208.101 335.169 206.854 333.975 205.924Z" fill="white" stroke="#1A3447" stroke-linecap="round" stroke-linejoin="round"/>
<path d="M356.775 217.899C356.775 217.899 359.075 204.999 359.888 203.749C360.7 202.499 381.713 201.124 383.025 201.449C384.338 201.774 386.463 218.024 386.463 218.024C386.463 218.024 363.988 219.211 356.775 217.899Z" fill="white" stroke="#1A3447" stroke-linecap="round" stroke-linejoin="round"/>
<path d="M385.15 209.523C385.15 209.523 400.25 208.873 401.563 209.198C402.875 209.523 410.425 214.448 410.75 215.111C411.075 215.773 411.238 217.736 409.763 217.736L386.463 218.061L385.15 209.523Z" fill="white" stroke="#1A3447" stroke-linecap="round" stroke-linejoin="round"/>
<path d="M393.75 208.749C394.569 206.7 395.555 204.722 396.7 202.836C397.525 202.024 418.025 204.311 418.525 204.474C419.025 204.636 420.488 209.074 420.488 212.186C420.525 213.95 420.13 215.697 419.338 217.274L409.825 217.774C409.825 217.774 412.125 216.124 410.812 215.149C409.5 214.174 402.45 209.561 401.625 209.236C399.01 208.936 396.382 208.774 393.75 208.749Z" fill="white" stroke="#1A3447" stroke-linecap="round" stroke-linejoin="round"/>
<path d="M417.8 206.412C417.8 206.412 414.187 210.162 412.387 211C411.52 211.452 410.573 211.732 409.6 211.825" stroke="#1A3447" stroke-linecap="round" stroke-linejoin="round"/>
<path d="M382.863 202.799C382.863 202.799 376.613 212.799 375.363 214.124C374.113 215.449 372.275 214.586 368.812 213.949" stroke="#1A3447" stroke-linecap="round" stroke-linejoin="round"/>
<path d="M307.562 203.75C307.562 203.75 316.587 214.737 320.687 214.25C324.787 213.762 333.475 210.5 333.475 210.5" stroke="#1A3447" stroke-linecap="round" stroke-linejoin="round"/>
<path d="M420 208.211C420 208.211 427.375 204.611 430.338 204.611C433.3 204.611 446.738 207.561 447.4 209.524C448.063 211.486 445.75 216.249 445.75 216.249L419.338 217.236C420.464 214.364 420.695 211.218 420 208.211Z" fill="white" stroke="#1A3447" stroke-linecap="round" stroke-linejoin="round"/>
<path d="M470.962 213.461C470.962 213.461 462.424 204.936 460.624 204.111C458.824 203.286 444.212 207.398 443.399 208.048C442.587 208.698 443.224 216.423 443.224 216.423C443.224 216.423 464.887 215.273 470.962 213.461Z" fill="white" stroke="#1A3447" stroke-linecap="round" stroke-linejoin="round"/>
<path opacity="0.22" d="M387.5 294.836C381.47 290.018 374.797 286.064 367.675 283.086C356.675 278.686 347.863 276.486 339.788 275.749C331.713 275.011 325.838 280.149 328.038 284.561C330.238 288.974 353.038 291.161 353.038 291.161C353.038 291.161 365.538 313.186 374.288 315.386C383.038 317.586 399.288 309.511 398.513 305.849C397.738 302.186 387.5 294.836 387.5 294.836Z" fill="#362822"/>
<path opacity="0.22" d="M413 307.5C413 307.5 395.375 320.712 398.313 325.125C401.25 329.537 406.388 333.937 407.85 331.725C409.313 329.512 423.275 317.05 421.8 311.912C420.325 306.775 413 307.5 413 307.5Z" fill="#362822"/>
<path opacity="0.22" d="M443.826 281.099C443.826 281.099 433.551 266.424 427.676 268.599C421.801 270.774 417.401 279.611 420.338 283.274C423.276 286.936 434.288 305.299 440.163 301.624C446.038 297.949 451.163 289.886 449.701 285.474C449.285 284.232 448.5 283.147 447.449 282.365C446.399 281.583 445.134 281.141 443.826 281.099Z" fill="#362822"/>
<path opacity="0.22" d="M311.063 362.612L298.238 368.862C294.617 370.585 291.794 373.631 290.35 377.372C288.906 381.113 288.951 385.265 290.476 388.975C290.826 390.112 291.571 391.087 292.576 391.725C296.251 393.187 324.151 397.587 327.813 391.725C331.476 385.862 324.151 366.725 322.676 363.087C321.288 359.625 315.963 360.737 312.288 362.112C311.876 362.237 311.463 362.412 311.063 362.612Z" fill="#362822"/>
<path d="M373.787 457.962C400.103 457.962 421.437 436.628 421.437 410.312C421.437 383.996 400.103 362.662 373.787 362.662C347.47 362.662 326.137 383.996 326.137 410.312C326.137 436.628 347.47 457.962 373.787 457.962Z" fill="white" stroke="#1A3447" stroke-linecap="round" stroke-linejoin="round"/>
<path d="M373.787 449.625C395.499 449.625 413.1 432.024 413.1 410.313C413.1 388.601 395.499 371 373.787 371C352.075 371 334.475 388.601 334.475 410.313C334.475 432.024 352.075 449.625 373.787 449.625Z" stroke="#1A3447" stroke-linecap="round" stroke-linejoin="round"/>
<path d="M346.488 421.249C348.001 419.232 349.723 417.38 351.625 415.724C356.827 411.398 362.924 408.277 369.475 406.587C375.189 405.033 380.686 402.769 385.838 399.849C389.831 397.616 393.429 394.74 396.488 391.337C392.98 386.872 387.842 383.983 382.205 383.305C376.567 382.628 370.891 384.217 366.425 387.724L353.613 397.787C349.865 400.743 347.214 404.868 346.082 409.504C344.949 414.141 345.4 419.024 347.363 423.374C347.033 422.682 346.741 421.973 346.488 421.249Z" fill="#1A3447"/>
<path d="M396.488 391.324C396.993 391.972 397.46 392.648 397.888 393.349C397.369 394.649 396.742 395.904 396.013 397.099C394.203 399.976 391.955 402.553 389.351 404.737C384.14 409.046 378.066 412.187 371.538 413.949C365.806 415.416 360.295 417.64 355.151 420.562C352.761 421.983 350.491 423.597 348.363 425.387C348.85 426.224 349.388 427.03 349.976 427.799C353.48 432.249 358.606 435.128 364.229 435.805C369.853 436.482 375.515 434.902 379.976 431.412L392.801 421.349C397.269 417.855 400.168 412.73 400.859 407.1C401.55 401.47 399.978 395.796 396.488 391.324Z" fill="#1A3447"/>
<path opacity="0.22" d="M430.613 486.649C430.613 486.649 418.113 480.774 414.463 483.711C410.813 486.649 407.125 494.724 410.788 496.211C414.45 497.699 430.613 504.961 434.288 500.611C437.963 496.261 437.225 486.649 430.613 486.649Z" fill="#362822"/>
<path opacity="0.22" d="M442.363 380.199C442.363 380.199 439.425 401.449 437.95 413.236C436.475 425.024 434.288 435.261 439.425 431.586C444.563 427.911 455.575 386.811 454.838 380.199C454.1 373.586 444.563 375.061 442.363 380.199Z" fill="#362822"/>
<path opacity="0.22" d="M301.413 311.25C301.413 311.25 281.588 319.325 286 323.75C290.413 328.175 294.75 332.563 298.5 329.625C302.25 326.688 311.713 323.025 310.25 317.887C308.788 312.75 301.413 311.25 301.413 311.25Z" fill="#362822"/>
<path opacity="0.22" d="M473.926 260.7L474.488 237.175C459.563 240.113 417.876 242.175 368.763 242.175C318.551 242.175 276.076 239.975 262.051 236.938L265.001 283.025C265.001 283.025 263.976 288.6 284.526 292.262C305.076 295.925 314.626 288.6 328.576 270.25C342.526 251.9 363.813 261.5 375.551 262.175C387.288 262.85 394.638 254.825 401.251 253.362C407.863 251.9 421.076 259.237 432.088 265.112C443.101 270.987 450.438 273.862 459.976 270.975C465.659 269.236 470.579 265.611 473.926 260.7Z" fill="#362822"/>
<path d="M184.999 444.876C172.274 430.451 137.237 426.026 121.124 422.626C105.012 419.226 60.9118 424.326 60.9118 424.326C60.9118 424.326 81.2493 451.463 94.8118 466.738C108.374 482.013 145.699 494.726 162.662 496.413C179.624 498.101 197.424 495.563 205.912 495.563C214.399 495.563 224.574 502.351 224.574 502.351C224.574 502.351 183.862 504.851 175.374 506.588C166.887 508.326 160.112 505.751 138.062 504.088C116.012 502.426 110.924 501.588 96.4993 505.788C82.0743 509.988 62.5868 521.901 58.3368 526.138C54.0868 530.376 48.1618 537.163 44.7743 540.551C41.3868 543.938 76.1493 538.863 107.537 545.638C138.924 552.413 150.787 549.888 163.512 538.013C176.237 526.138 183.862 519.351 186.399 515.963C188.937 512.576 200.824 510.001 200.824 510.001C200.824 510.001 224.574 508.301 228.812 509.151C233.049 510.001 248.312 514.238 251.712 515.088C255.112 515.938 269.712 523.038 270.562 518.838C271.412 514.638 271.212 514.276 264.424 510.888C257.637 507.501 246.249 507.563 241.162 505.888C236.074 504.213 221.712 498.113 221.712 498.113C221.712 498.113 197.699 459.288 184.999 444.876Z" fill="#F0C376" stroke="#1A3447" stroke-linecap="round" stroke-linejoin="round"/>
<path d="M125.736 513.075C147.299 511.825 162.899 511.088 169.849 511.438C175.37 511.646 180.892 511.065 186.249 509.713" stroke="#1A3447" stroke-linecap="round" stroke-linejoin="round"/>
<path d="M51.4121 537.801C51.4121 537.801 78.6496 515.763 108.912 514.051L119.85 513.426" stroke="#1A3447" stroke-linecap="round" stroke-linejoin="round"/>
<path d="M78.2109 534.776C80.8109 531.751 86.8609 519.651 86.8609 519.651L79.5109 517.926" stroke="#1A3447" stroke-linecap="round" stroke-linejoin="round"/>
<path d="M103.287 534.777C108.475 529.589 114.087 514.902 114.087 514.902C114.087 514.902 105.013 508.852 100.688 508.414" stroke="#1A3447" stroke-linecap="round" stroke-linejoin="round"/>
<path d="M135.736 526C136.636 519.275 136.986 513.162 136.986 513.162C136.986 513.162 129.636 507.55 125.736 506.688" stroke="#1A3447" stroke-linecap="round" stroke-linejoin="round"/>
<path d="M131.812 541.689C133.269 538.704 134.255 535.512 134.738 532.227" stroke="#1A3447" stroke-linecap="round" stroke-linejoin="round"/>
<path d="M160.187 525.364C161.175 519.464 162.062 512.302 162.062 512.302L150 508.414" stroke="#1A3447" stroke-linecap="round" stroke-linejoin="round"/>
<path d="M158.611 532.613C158.929 531.739 159.176 530.84 159.349 529.926" stroke="#1A3447" stroke-linecap="round" stroke-linejoin="round"/>
<path d="M124.348 454.375C121.845 452.935 119.428 451.349 117.111 449.625C102.848 438.825 73.0234 428.875 73.0234 428.875" stroke="#1A3447" stroke-linecap="round" stroke-linejoin="round"/>
<path d="M177.499 477.5C164.599 472.575 144.999 465.225 130.299 457.588" stroke="#1A3447" stroke-linecap="round" stroke-linejoin="round"/>
<path d="M205 490.063C197.736 486.185 190.28 482.676 182.662 479.551" stroke="#1A3447" stroke-linecap="round" stroke-linejoin="round"/>
<path d="M213.936 495.001C213.936 495.001 212.348 494.064 209.648 492.576" stroke="#1A3447" stroke-linecap="round" stroke-linejoin="round"/>
<path d="M167.611 454.514C167.132 453.287 166.581 452.089 165.961 450.926C160.774 441.414 152.986 438.826 152.986 438.826" stroke="#1A3447" stroke-linecap="round" stroke-linejoin="round"/>
<path d="M136.137 484.214C136.137 484.214 151.262 483.339 155.149 482.051C159.037 480.764 172.012 475.564 172.012 475.564C171.586 470.38 170.725 465.241 169.437 460.201" stroke="#1A3447" stroke-linecap="round" stroke-linejoin="round"/>
<path d="M130.248 440.125L131.811 441.85C135.698 446.175 145.211 464.762 145.211 464.762C145.211 464.762 126.623 468.213 120.998 469.075C115.373 469.938 108.898 470.325 108.898 470.325" stroke="#1A3447" stroke-linecap="round" stroke-linejoin="round"/>
<path d="M119.273 428.014L127.111 436.651" stroke="#1A3447" stroke-linecap="round" stroke-linejoin="round"/>
<path d="M92.4984 427.15C92.4984 427.15 95.5234 428.013 99.8484 431.913C104.173 435.813 117.111 449.625 117.111 449.625C117.111 449.625 92.9109 448.75 88.5859 447.5" stroke="#1A3447" stroke-linecap="round" stroke-linejoin="round"/>
<path d="M184.548 454.812L190.598 482.912C190.598 482.912 178.098 491.55 170.273 492.85" stroke="#1A3447" stroke-linecap="round" stroke-linejoin="round"/>
<path d="M356.25 540.489C356.25 540.489 328.75 530.814 304.513 532.914C280.275 535.014 268.113 540.414 260.688 549.864C253.263 559.314 243.75 570.101 243.75 570.101C243.75 570.101 257.912 572.126 272.75 574.151C287.587 576.176 301.762 580.889 316.6 574.151C331.438 567.414 348.975 556.651 358.425 554.589C367.875 552.526 376.638 549.189 372.588 547.164C368.538 545.139 356.25 540.489 356.25 540.489Z" fill="#F0C376" stroke="#1A3447" stroke-linecap="round" stroke-linejoin="round"/>
<path d="M351.549 545.188C358.799 546.438 366.136 548.037 366.136 548.037" stroke="#1A3447" stroke-linecap="round" stroke-linejoin="round"/>
<path d="M282.975 550.45L285.025 549.675C310.637 540.15 334.287 542.788 342.525 543.763C343.512 543.888 344.612 544.038 345.787 544.213" stroke="#1A3447" stroke-linecap="round" stroke-linejoin="round"/>
<path d="M249.236 568.402C249.236 568.402 257.874 560.589 279.236 551.914" stroke="#1A3447" stroke-linecap="round" stroke-linejoin="round"/>
<path d="M265.987 566.75C269.599 563.138 274.849 554.6 274.849 554.6C274.849 554.6 265.324 551.65 262.699 551.65" stroke="#1A3447" stroke-linecap="round" stroke-linejoin="round"/>
<path d="M287.325 565.762C289.764 559.76 291.851 553.621 293.575 547.375C293.575 547.375 283.075 542.125 277.812 541.125" stroke="#1A3447" stroke-linecap="round" stroke-linejoin="round"/>
<path d="M310.686 558.225C312.177 553.374 313.367 548.435 314.249 543.438C314.249 543.438 303.086 538.188 299.799 537.188" stroke="#1A3447" stroke-linecap="round" stroke-linejoin="round"/>
<path d="M305.711 570.701C306.751 568.714 307.678 566.669 308.486 564.576" stroke="#1A3447" stroke-linecap="round" stroke-linejoin="round"/>
<path d="M328.049 563.752C331.324 557.839 336.912 543.064 336.912 543.064C336.912 543.064 328.374 536.814 322.137 534.852" stroke="#1A3447" stroke-linecap="round" stroke-linejoin="round"/>
<path d="M516.551 526.912C516.551 526.912 523.602 508.737 533.064 507.387C542.527 506.037 554.839 509.637 559.189 517.587C563.539 525.537 558.451 542.362 541.476 543.712C524.501 545.062 513.251 541.325 516.551 526.912Z" fill="#362822" stroke="#1A3447" stroke-linecap="round" stroke-linejoin="round"/>
<path d="M521 540.163C520.568 540.164 520.144 540.048 519.772 539.828C519.4 539.608 519.094 539.292 518.887 538.913C518.588 538.341 518.521 537.676 518.7 537.057C518.88 536.437 519.292 535.911 519.85 535.588L555 516.163C555.278 516.01 555.584 515.915 555.9 515.882C556.216 515.849 556.535 515.88 556.838 515.972C557.142 516.063 557.425 516.215 557.669 516.417C557.914 516.62 558.115 516.869 558.262 517.15C558.558 517.72 558.623 518.382 558.444 518.999C558.265 519.616 557.855 520.14 557.3 520.463L522.175 539.863C521.816 540.062 521.411 540.165 521 540.163Z" fill="#1A3447" stroke="#1A3447" stroke-linecap="round" stroke-linejoin="round"/>
<path d="M428.339 530.375C428.339 530.375 435.389 512.212 444.852 510.85C454.314 509.487 466.627 513.1 470.977 521.062C475.327 529.025 470.239 545.825 453.264 547.187C436.289 548.55 425.002 544.787 428.339 530.375Z" fill="#362822" stroke="#1A3447" stroke-linecap="round" stroke-linejoin="round"/>
<path d="M432.788 543.625C432.356 543.626 431.932 543.511 431.56 543.291C431.188 543.071 430.882 542.754 430.675 542.375C430.38 541.805 430.315 541.143 430.494 540.526C430.673 539.91 431.083 539.385 431.638 539.063L466.763 519.663C467.041 519.51 467.347 519.415 467.663 519.382C467.979 519.349 468.298 519.38 468.601 519.472C468.905 519.563 469.188 519.715 469.432 519.917C469.677 520.12 469.878 520.369 470.025 520.65C470.321 521.22 470.386 521.882 470.207 522.499C470.028 523.116 469.618 523.64 469.063 523.963L433.938 543.363C433.583 543.545 433.187 543.636 432.788 543.625Z" fill="#1A3447" stroke="#1A3447" stroke-linecap="round" stroke-linejoin="round"/>
<path d="M385.664 533.275C385.664 533.275 392.726 515.1 402.176 513.75C411.626 512.4 423.951 516 428.301 523.95C432.651 531.9 427.564 548.725 410.601 550.075C393.639 551.425 382.364 547.688 385.664 533.275Z" fill="#362822" stroke="#1A3447" stroke-linecap="round" stroke-linejoin="round"/>
<path d="M390.113 546.526C389.681 546.527 389.257 546.411 388.885 546.191C388.513 545.971 388.208 545.655 388.001 545.276C387.701 544.704 387.634 544.039 387.813 543.42C387.993 542.8 388.405 542.274 388.963 541.951L424.088 522.501C424.367 522.348 424.673 522.253 424.988 522.22C425.304 522.187 425.623 522.217 425.927 522.309C426.231 522.401 426.513 522.553 426.757 522.755C427.002 522.958 427.204 523.207 427.351 523.488C427.646 524.058 427.711 524.72 427.532 525.337C427.353 525.954 426.943 526.478 426.388 526.801L391.251 546.251C390.9 546.435 390.509 546.53 390.113 546.526Z" fill="#1A3447" stroke="#1A3447" stroke-linecap="round" stroke-linejoin="round"/>
<path d="M518.412 536.687C518.412 536.687 509.1 548.975 484.6 546.125C474.15 544.875 472.325 540.762 470.587 531.837C468.85 522.912 485.875 508.912 504.075 513.087C522.275 517.262 526.95 524.1 518.412 536.687Z" fill="#362822" stroke="#1A3447" stroke-linecap="round" stroke-linejoin="round"/>
<path d="M518.451 522.712C518.888 522.836 519.284 523.078 519.594 523.411C519.905 523.743 520.119 524.154 520.213 524.6C520.26 524.93 520.241 525.267 520.156 525.59C520.071 525.913 519.922 526.215 519.718 526.48C519.514 526.744 519.259 526.965 518.969 527.13C518.678 527.294 518.357 527.399 518.026 527.437L474.488 534.537C473.821 534.672 473.128 534.54 472.556 534.172C471.984 533.803 471.578 533.225 471.426 532.562C471.378 532.231 471.398 531.895 471.483 531.572C471.568 531.249 471.717 530.946 471.92 530.682C472.124 530.417 472.379 530.196 472.67 530.032C472.961 529.867 473.281 529.763 473.613 529.725L517.151 522.625C517.585 522.552 518.03 522.582 518.451 522.712Z" fill="#1A3447" stroke="#1A3447" stroke-linecap="round" stroke-linejoin="round"/>
<path d="M578.427 546.937C578.427 546.937 575.927 536.537 560.589 532.762C546.939 529.399 531.364 533.712 525.914 539.849C520.464 545.987 519.477 553.074 527.402 556.387C535.327 559.699 552.664 563.474 562.577 561.112C572.489 558.749 579.914 553.549 578.427 546.937Z" fill="#362822" stroke="#1A3447" stroke-linecap="round" stroke-linejoin="round"/>
<path d="M466.839 539.588C466.839 539.588 464.339 529.2 449.001 525.413C435.351 522.063 419.776 526.363 414.326 532.5C408.876 538.638 407.889 545.738 415.814 549.038C423.739 552.338 441.076 556.125 450.989 553.763C460.901 551.4 468.326 546.25 466.839 539.588Z" fill="#362822" stroke="#1A3447" stroke-linecap="round" stroke-linejoin="round"/>
<path d="M207.501 522.287C207.501 522.287 214.551 504.112 224.001 502.762C233.451 501.412 245.776 505.012 250.126 512.962C254.476 520.912 249.388 537.737 232.426 539.087C215.463 540.437 204.163 536.7 207.501 522.287Z" fill="#362822" stroke="#1A3447" stroke-linecap="round" stroke-linejoin="round"/>
<path d="M211.9 535.537C211.468 535.538 211.044 535.422 210.672 535.202C210.3 534.982 209.995 534.666 209.788 534.287C209.488 533.716 209.421 533.051 209.601 532.431C209.78 531.811 210.192 531.285 210.75 530.962L245.875 511.574C246.153 511.42 246.458 511.322 246.773 511.288C247.089 511.253 247.408 511.282 247.712 511.373C248.017 511.464 248.299 511.615 248.544 511.817C248.789 512.019 248.991 512.268 249.138 512.549C249.437 513.121 249.504 513.786 249.325 514.405C249.146 515.025 248.734 515.551 248.175 515.874L213.05 535.262C212.697 535.45 212.301 535.544 211.9 535.537Z" fill="#1A3447" stroke="#1A3447" stroke-linecap="round" stroke-linejoin="round"/>
</g>
<defs>
<clipPath id="clip0_432_1562">
<rect width="625" height="625" fill="white"/>
</clipPath>
</defs>
</svg>
