<svg width="647" height="647" viewBox="0 0 647 647" fill="none" xmlns="http://www.w3.org/2000/svg">
<g clip-path="url(#clip0_230_39867)">
<path d="M170.672 476.214C204.596 505.169 253.133 529.435 295.443 519.944C359.359 505.601 394.011 549.245 487.115 487.673C500.768 478.73 513.31 468.193 524.482 456.283C529.974 450.391 535.056 444.127 539.694 437.536C580.79 379.173 577.211 306.853 545.395 247.945C503.585 170.464 434.239 163.041 390.571 160.525C346.904 158.008 260.721 98.6814 168.674 158.417C154.56 167.502 141.644 178.333 130.231 190.654C104.175 218.987 84.4282 259.129 83.9108 300.838C83.8714 303.977 83.9252 307.125 84.0721 310.284C86.9292 372.027 124.426 436.757 170.672 476.214Z" fill="#F0C376"/>
<path opacity="0.8" d="M170.672 476.214C204.596 505.169 253.133 529.435 295.443 519.944C359.359 505.601 394.011 549.245 487.115 487.673C500.768 478.73 513.31 468.193 524.482 456.283C529.974 450.391 535.056 444.127 539.694 437.536C580.79 379.173 577.211 306.853 545.395 247.945C503.585 170.464 434.239 163.041 390.571 160.525C346.904 158.008 260.721 98.6814 168.674 158.417C154.56 167.502 141.644 178.333 130.231 190.654C104.175 218.987 84.4282 259.129 83.9108 300.838C83.8714 303.977 83.9252 307.125 84.0721 310.284C86.9292 372.027 124.426 436.757 170.672 476.214Z" fill="white"/>
<path d="M124.743 340.827C116.503 344.366 106.943 340.527 103.39 332.253C99.837 323.979 103.636 314.404 111.876 310.865C120.116 307.327 129.676 311.166 133.229 319.439C136.782 327.713 132.983 337.289 124.743 340.827Z" stroke="#1A3447" stroke-width="1.59375" stroke-miterlimit="10"/>
<path d="M271.988 578.791C266.625 571.56 268.109 561.356 275.303 555.999C282.497 550.642 292.677 552.161 298.04 559.391C303.403 566.622 301.919 576.826 294.725 582.183C287.531 587.54 277.351 586.021 271.988 578.791Z" stroke="#1A3447" stroke-width="1.59375" stroke-miterlimit="10"/>
<path d="M520.876 448.933C512.682 445.241 509.005 435.595 512.662 427.389C516.32 419.183 525.928 415.523 534.121 419.216C542.315 422.908 545.993 432.554 542.335 440.76C538.678 448.966 529.07 452.625 520.876 448.933Z" stroke="#1A3447" stroke-width="1.59375" stroke-miterlimit="10"/>
<path d="M234.471 149.095C229.888 147.409 227.526 142.32 229.194 137.73C230.862 133.139 235.93 130.785 240.512 132.472C245.095 134.159 247.457 139.247 245.789 143.838C244.12 148.428 239.053 150.782 234.471 149.095Z" stroke="#1A3447" stroke-width="1.59375" stroke-miterlimit="10"/>
<path d="M464.222 171.012C459.69 169.192 457.476 164.037 459.277 159.498C461.078 154.959 466.212 152.754 470.744 154.574C475.276 156.393 477.49 161.549 475.689 166.088C473.888 170.627 468.754 172.832 464.222 171.012Z" stroke="#1A3447" stroke-width="1.59375" stroke-miterlimit="10"/>
<path d="M341.265 371.958C338.353 368.026 339.165 362.481 343.077 359.573C346.989 356.665 352.521 357.495 355.432 361.427C358.344 365.359 357.532 370.904 353.62 373.812C349.708 376.72 344.176 375.89 341.265 371.958Z" stroke="#1A3447" stroke-width="1.59375" stroke-miterlimit="10"/>
<path d="M401.032 79.3047C396.5 77.4849 394.287 72.3298 396.088 67.7904C397.889 63.251 403.023 61.0464 407.555 62.8661C412.087 64.6859 414.301 69.841 412.499 74.3804C410.698 78.9198 405.564 81.1244 401.032 79.3047Z" stroke="#1A3447" stroke-width="1.59375" stroke-miterlimit="10"/>
<path d="M140.643 404.995C141.151 406.178 141.997 407.184 143.074 407.887C144.151 408.589 145.411 408.956 146.694 408.941C147.977 408.925 149.225 408.529 150.281 407.801C151.337 407.074 152.153 406.048 152.626 404.853C153.099 403.658 153.208 402.349 152.938 401.09C152.669 399.831 152.033 398.68 151.112 397.781C150.191 396.883 149.025 396.278 147.763 396.043C146.501 395.808 145.199 395.954 144.021 396.462C142.444 397.142 141.203 398.422 140.569 400.022C139.936 401.622 139.962 403.41 140.643 404.995Z" stroke="#1A3447" stroke-width="1.59375" stroke-miterlimit="10"/>
<path d="M210.061 573.494C210.569 574.677 211.415 575.683 212.492 576.386C213.569 577.088 214.829 577.455 216.112 577.44C217.395 577.424 218.643 577.028 219.699 576.3C220.755 575.573 221.571 574.547 222.044 573.352C222.517 572.157 222.626 570.848 222.356 569.589C222.087 568.33 221.451 567.179 220.53 566.28C219.609 565.382 218.443 564.777 217.181 564.542C215.919 564.307 214.616 564.453 213.439 564.961C211.862 565.641 210.621 566.921 209.987 568.521C209.354 570.121 209.38 571.909 210.061 573.494Z" stroke="#1A3447" stroke-width="1.59375" stroke-miterlimit="10"/>
<path d="M166.682 173.491C170.709 172.323 174.665 170.925 178.531 169.302L206.929 157.108C206.929 157.108 193.536 184.663 188.912 195.092C184.289 205.521 165.31 234.779 152.068 249.615C138.827 264.452 134.593 267.663 124.807 277.501C115.021 287.339 112.979 293.295 112.979 293.295L103.504 281.742C103.504 281.742 91.8775 267.737 90.9201 244.287C90.765 240.699 90.9664 237.106 91.5212 233.561" stroke="#1A3447" stroke-width="1.59375" stroke-miterlimit="10"/>
<path d="M92.5174 228.567C98.1952 206.553 117.572 190.721 138.71 182.072C145.851 179.145 153.343 177.235 160.773 175.18" stroke="#1A3447" stroke-width="1.59375" stroke-miterlimit="10"/>
<path d="M188.442 170.766C188.442 170.766 176.543 185.647 151.063 202.45C134.435 213.426 120.212 228.76 112.468 247.353C107.118 260.216 108.642 274.326 112.115 287.557" stroke="#1A3447" stroke-width="1.59375" stroke-miterlimit="10"/>
<path d="M156.489 180.513C153.827 187.576 152.018 194.935 151.102 202.434" stroke="#1A3447" stroke-width="1.59375" stroke-miterlimit="10"/>
<path d="M134.109 190.97C134.109 190.97 130.669 206.515 131.964 217.681C131.964 217.681 142.211 226.138 158.996 224.448" stroke="#1A3447" stroke-width="1.59375" stroke-miterlimit="10"/>
<path d="M107.987 210.792C107.987 210.792 110.092 227.471 114.868 239.488" stroke="#1A3447" stroke-width="1.59375" stroke-miterlimit="10"/>
<path d="M153.406 204.178C153.406 204.178 166.703 204.329 178.532 199.249" stroke="#1A3447" stroke-width="1.59375" stroke-miterlimit="10"/>
<path d="M117.832 240.947C126.263 242.493 134.846 243.006 143.394 242.475" stroke="#1A3447" stroke-width="1.59375" stroke-miterlimit="10"/>
<path d="M133.711 260.701C133.711 260.701 120.053 266.963 108.959 264.687C104.422 257.448 100.295 249.959 96.5954 242.257" stroke="#1A3447" stroke-width="1.59375" stroke-miterlimit="10"/>
<path d="M494.791 196.677C489.892 194.168 484.747 192.18 479.438 190.745C468.871 187.879 457.764 187.709 447.294 184.672C438.575 182.159 424.048 177.951 424.048 177.951C424.048 177.951 437.191 198.022 441.832 205.672C446.472 213.323 464.112 234.174 475.877 244.401C487.643 254.628 491.243 256.725 499.823 263.412C508.404 270.099 510.573 274.503 510.573 274.503L516.769 264.631C516.769 264.631 524.422 252.634 522.774 234.334C521.495 219.626 513.163 208.524 501.989 200.84" stroke="#1A3447" stroke-width="1.59375" stroke-miterlimit="10"/>
<path d="M439.688 186.78C439.688 186.78 450.406 197.178 471.848 207.749C485.875 214.669 498.415 225.185 506.293 238.86C511.729 248.312 511.923 259.425 510.601 270.011" stroke="#1A3447" stroke-width="1.59375" stroke-miterlimit="10"/>
<path d="M465.473 191.275C468.243 196.494 470.381 202.025 471.844 207.75" stroke="#1A3447" stroke-width="1.59375" stroke-miterlimit="10"/>
<path d="M483.868 197.228C483.868 197.228 488.094 208.957 488.214 217.734C488.214 217.734 481.105 225.309 467.929 225.588" stroke="#1A3447" stroke-width="1.59375" stroke-miterlimit="10"/>
<path d="M506.124 210.077C506.124 210.077 506.165 223.217 503.658 232.962" stroke="#1A3447" stroke-width="1.59375" stroke-miterlimit="10"/>
<path d="M470.245 209.328C470.245 209.328 459.941 210.731 450.263 207.922" stroke="#1A3447" stroke-width="1.59375" stroke-miterlimit="10"/>
<path d="M486.896 237.619C485.267 237.826 483.571 237.976 481.848 238.062" stroke="#1A3447" stroke-width="1.59375" stroke-miterlimit="10"/>
<path d="M501.523 234.415C498.335 235.425 495.088 236.236 491.799 236.844" stroke="#1A3447" stroke-width="1.59375" stroke-miterlimit="10"/>
<path d="M491.195 251.271C491.195 251.271 502.414 254.81 510.79 251.974C513.579 245.922 516.026 239.717 518.12 233.387" stroke="#1A3447" stroke-width="1.59375" stroke-miterlimit="10"/>
<path d="M427.178 466.318C429.69 468.399 432.048 470.659 434.234 473.082C440.289 479.728 444.52 487.79 450.621 494.321L464.159 508.8C464.159 508.8 444.702 506.677 437.413 506.154C431.622 505.715 416.681 502.381 404.867 498.625" stroke="#1A3447" stroke-width="1.59375" stroke-miterlimit="10"/>
<path d="M400.168 497.056C398.913 496.62 397.77 496.168 396.687 495.733C384.887 490.942 382.033 489.093 373.987 485.315C365.941 481.538 361.939 481.585 361.939 481.585L366.78 473.378C366.78 473.378 372.638 463.362 386.496 457.689C398.707 452.703 410.93 455.522 421.274 462.041" stroke="#1A3447" stroke-width="1.59375" stroke-miterlimit="10"/>
<path d="M403.526 473.927C398.924 472.483 394.162 471.619 389.351 471.356C380.463 470.887 372.344 474.866 365.168 479.823" stroke="#1A3447" stroke-width="1.59375" stroke-miterlimit="10"/>
<path d="M451.935 500.626C451.935 500.626 440.432 496.651 424.729 484.932C419.697 481.137 414.193 478.019 408.357 475.655" stroke="#1A3447" stroke-width="1.59375" stroke-miterlimit="10"/>
<path d="M439.038 483.459C434.226 483.378 429.424 483.873 424.732 484.932" stroke="#1A3447" stroke-width="1.59375" stroke-miterlimit="10"/>
<path d="M427.879 472.222C427.879 472.222 417.807 473.493 411.389 476.688C411.389 476.688 408.559 484.708 413.271 494.438" stroke="#1A3447" stroke-width="1.59375" stroke-miterlimit="10"/>
<path d="M410.27 460.743C410.27 460.743 400.73 465.612 394.575 471.083" stroke="#1A3447" stroke-width="1.59375" stroke-miterlimit="10"/>
<path d="M424.212 486.73C426.156 491.897 429.026 496.668 432.678 500.805" stroke="#1A3447" stroke-width="1.59375" stroke-miterlimit="10"/>
<path d="M394.351 473.184C395.275 478.613 396.855 483.911 399.055 488.961" stroke="#1A3447" stroke-width="1.59375" stroke-miterlimit="10"/>
<path d="M386.008 487.063C386.008 487.063 379.253 480.18 378.186 472.999C381.529 468.703 385.111 464.6 388.915 460.709" stroke="#1A3447" stroke-width="1.59375" stroke-miterlimit="10"/>
<path d="M399.278 440.776L398.346 441.562C383.9 453.52 379.504 455.932 368.986 463.717C358.468 471.502 355.74 476.755 355.74 476.755L348.516 464.653C348.516 464.653 339.632 449.954 342.01 427.91C342.56 422.714 343.911 417.637 346.016 412.861" stroke="#1A3447" stroke-width="1.59375" stroke-miterlimit="10"/>
<path d="M348.569 407.888C358.158 391.502 376.506 381.276 395.388 376.692C408.205 373.589 421.603 373.728 434.309 370.415L462.517 363.048C462.517 363.048 446.149 386.856 440.358 395.933C435.169 404.076 417.086 424.709 402.992 437.512" stroke="#1A3447" stroke-width="1.59375" stroke-miterlimit="10"/>
<path d="M443.386 373.171C443.386 373.171 430.196 385.371 404.061 397.441C386.974 405.335 371.577 417.615 361.735 433.831C354.938 445.065 354.368 458.424 355.762 471.262" stroke="#1A3447" stroke-width="1.59375" stroke-miterlimit="10"/>
<path d="M412.159 377.762C408.685 383.972 405.966 390.579 404.059 397.441" stroke="#1A3447" stroke-width="1.59375" stroke-miterlimit="10"/>
<path d="M389.822 384.355C389.822 384.355 384.429 398.36 384.072 408.96C384.072 408.96 392.458 418.324 408.349 419.076" stroke="#1A3447" stroke-width="1.59375" stroke-miterlimit="10"/>
<path d="M362.655 399.149C362.655 399.149 362.279 414.997 365.046 426.881" stroke="#1A3447" stroke-width="1.59375" stroke-miterlimit="10"/>
<path d="M405.969 399.395C405.969 399.395 418.356 401.405 430.066 398.358" stroke="#1A3447" stroke-width="1.59375" stroke-miterlimit="10"/>
<path d="M367.615 428.659C375.267 431.284 383.205 432.973 391.256 433.689" stroke="#1A3447" stroke-width="1.59375" stroke-miterlimit="10"/>
<path d="M371.589 450.813C366.931 451.323 361.012 451.379 355.995 449.537C352.779 442.146 349.98 434.58 347.609 426.877" stroke="#1A3447" stroke-width="1.59375" stroke-miterlimit="10"/>
<path d="M379.649 449.313C378.066 449.724 376.463 450.055 374.847 450.304" stroke="#1A3447" stroke-width="1.59375" stroke-miterlimit="10"/>
<path d="M422.928 134.03L524.761 367.018C528.386 373.422 509.543 399.118 479.462 416.289C449.381 433.46 419.574 435.514 415.942 429.144L267.464 222.787L422.928 134.03Z" fill="#F0C376" stroke="#1A3447" stroke-width="1.59375" stroke-miterlimit="10"/>
<path d="M496.783 303.012C420.497 310.913 362.245 305.295 320.032 295.854L270.552 227.098C280.853 232.5 299.505 240.723 327.391 247.241C376.409 258.689 429.109 259.277 476.056 255.489L496.783 303.012Z" fill="#1A3447"/>
<path d="M358.55 349.376C369.181 353.209 380.028 356.405 391.034 358.946C435.055 369.218 482.036 370.729 525.136 368.197C526.392 376.09 507.874 400.06 479.46 416.291C478.228 417.002 476.991 417.673 475.754 418.322C451.442 417.806 427.196 415.509 403.208 411.448L358.55 349.376Z" fill="#1A3447"/>
<path d="M416.906 137.46C419.371 137.334 421.809 137.198 424.207 137.068L445.132 184.924C402.154 188.636 365.18 187.992 333.831 184.889L416.906 137.46Z" fill="#1A3447"/>
<path d="M427.419 121.055L431.226 127.734C437.356 138.506 403.521 169.397 355.641 196.73C307.76 224.063 263.975 237.497 257.835 226.73L254.037 220.046L427.419 121.055Z" fill="#1A3447" stroke="#1A3447" stroke-width="1.59375" stroke-miterlimit="10"/>
<path d="M254.033 220.095C247.896 209.324 281.735 178.43 329.614 151.091C377.492 123.753 421.281 110.322 427.418 121.093C433.555 131.864 399.717 162.758 351.838 190.096C303.959 217.435 260.17 230.866 254.033 220.095Z" fill="white" stroke="#1A3447" stroke-width="1.59375" stroke-miterlimit="10"/>
<path d="M420 111.694L423.735 118.255C429.761 128.835 396.493 159.183 349.525 186.006C302.557 212.829 259.518 226.039 253.491 215.459L249.747 208.902L420 111.694Z" fill="#1A3447" stroke="#1A3447" stroke-width="1.59375" stroke-miterlimit="10"/>
<path d="M249.746 208.915C243.719 198.338 276.945 168.001 323.959 141.156C370.972 114.312 413.97 101.124 419.997 111.702C426.023 122.279 392.797 152.615 345.784 179.46C298.77 206.305 255.772 219.492 249.746 208.915Z" fill="white" stroke="#1A3447" stroke-width="1.59375" stroke-miterlimit="10"/>
<path d="M396.218 90.6411L409.899 114.649C415.082 123.76 385.162 150.623 343.067 174.657C300.973 198.691 262.634 210.794 257.452 201.683L243.729 177.703L396.218 90.6411Z" fill="#1A3447" stroke="#1A3447" stroke-width="1.59375" stroke-miterlimit="10"/>
<path d="M243.762 177.69C238.575 168.587 268.494 141.722 310.589 117.686C352.683 93.6502 391.012 81.545 396.199 90.6483C401.386 99.7516 371.466 126.616 329.372 150.652C287.278 174.688 248.948 186.793 243.762 177.69Z" fill="white" stroke="#1A3447" stroke-width="1.59375" stroke-miterlimit="10"/>
<path d="M256.475 170.432C252.152 162.845 277.08 140.459 312.153 120.433C347.226 100.406 379.163 90.3213 383.486 97.9082C387.809 105.495 362.881 127.88 327.808 147.907C292.735 167.934 260.798 178.018 256.475 170.432Z" fill="#1A3447" stroke="#1A3447" stroke-width="1.59375" stroke-miterlimit="10"/>
<path d="M258.638 172.202C255.029 165.866 280.146 144.718 314.74 124.965C349.333 105.212 380.303 94.335 383.912 100.67C387.522 107.005 362.405 128.153 327.811 147.906C293.218 167.659 262.248 178.537 258.638 172.202Z" fill="white" stroke="#1A3447" stroke-width="1.59375" stroke-miterlimit="10"/>
<path d="M279.381 152.562C277.674 149.567 286.546 141.283 299.197 134.06C311.847 126.837 323.486 123.409 325.192 126.404C326.899 129.399 318.027 137.683 305.377 144.906C292.726 152.13 281.087 155.557 279.381 152.562Z" fill="#1A3447"/>
<path d="M419.182 334.081C390.193 342.498 359.819 325.735 351.339 296.639C342.859 267.543 359.485 237.133 388.474 228.716C417.462 220.299 447.836 237.062 456.316 266.158C464.796 295.253 448.17 325.664 419.182 334.081Z" fill="white"/>
<path d="M378.888 295.662C389.351 314.012 406.249 324.092 423.045 314.501C439.841 304.909 439.261 285.518 428.804 267.155C418.346 248.791 401.965 238.425 385.169 248.016C368.373 257.608 368.431 277.298 378.888 295.662Z" fill="#1A3447"/>
<path d="M414.95 310.798C412.134 305.707 409.929 300.921 409.293 295.762C408.657 290.603 408.938 284.996 408.052 279.055C407.849 277.589 407.527 276.12 407.228 274.652C406.837 273.201 406.357 271.775 405.79 270.383C404.675 267.641 403.234 265.044 401.497 262.648C399.719 260.152 397.538 257.97 395.044 256.194C392.398 254.48 389.339 252.847 385.645 252.944C387.971 254.493 389.894 256.577 391.254 259.021C392.612 261.278 393.772 263.647 394.722 266.104C395.642 268.57 396.637 271.11 397.28 273.577C398.004 276.092 398.548 278.655 398.909 281.246C399.759 286.431 400.039 292.375 402.392 298.029C404.811 303.727 409.302 308.293 414.95 310.798Z" fill="white"/>
<path d="M311.324 266.27L320.472 520.234C321.509 527.493 294.474 544.427 260.199 549.245C225.923 554.064 197.387 544.964 196.351 537.705L134.029 291.243L311.324 266.27Z" fill="#F0C376" stroke="#1A3447" stroke-width="1.59375" stroke-miterlimit="10"/>
<path d="M320.053 508.67L168.277 426.681L134.014 291.206L167.381 286.51L314.918 366.206L320.053 508.67Z" fill="white"/>
<path d="M178.473 404.621L170.859 397.326L178.131 389.735L172.485 380.835L181.372 375.24L178.024 365.234L187.995 361.938L187.12 351.428L197.592 350.617L199.235 340.204L209.612 341.93L213.706 332.232L223.365 336.41L229.66 327.985L238.066 334.34L246.179 327.663L252.829 335.843L262.319 331.329L266.804 340.878L277.103 338.77L279.196 349.111L289.7 349.518L289.281 360.048L299.393 362.971L296.452 373.094L305.569 378.372L300.3 387.471L307.918 394.775L300.633 402.361L306.293 411.267L297.393 416.857L300.749 426.859L290.769 430.158L291.653 440.665L281.172 441.48L279.53 451.893L269.153 450.167L265.062 459.874L255.399 455.687L249.104 464.112L240.698 457.757L232.585 464.434L225.944 456.249L216.455 460.764L211.961 451.218L201.671 453.323L199.572 442.995L189.064 442.578L189.492 432.044L179.38 429.122L182.316 419.011L173.199 413.733L178.473 404.621Z" fill="#1A3447"/>
<path d="M195.441 432.596C175.23 408.196 178.521 372.043 202.792 351.847C227.064 331.65 263.124 335.058 283.336 359.459C303.548 383.859 300.257 420.012 275.985 440.208C251.714 460.405 215.653 456.997 195.441 432.596Z" fill="white"/>
<path d="M246.292 444.342C255.814 443.003 264.718 438.86 271.877 432.439C279.036 426.018 284.13 417.606 286.513 408.268C288.896 398.929 288.463 389.083 285.267 379.975C282.071 370.867 276.256 362.906 268.558 357.099C260.86 351.292 251.624 347.899 242.019 347.35C232.414 346.801 222.87 349.12 214.596 354.014C206.321 358.908 199.687 366.157 195.532 374.845C191.377 383.533 189.888 393.269 191.253 402.822C193.096 415.624 199.926 427.186 210.245 434.97C220.563 442.755 233.527 446.125 246.292 444.342Z" fill="#1A3447"/>
<path d="M311.324 266.27L320.472 520.234C321.509 527.493 294.474 544.427 260.199 549.245C225.923 554.064 197.387 544.964 196.351 537.705L134.029 291.243L311.324 266.27Z" stroke="#1A3447" stroke-width="1.59375" stroke-miterlimit="10"/>
<path d="M208.342 400.946C208.419 400.671 208.574 400.424 208.788 400.235C209.002 400.046 209.267 399.923 209.549 399.881L215.216 399.087C215.188 398.874 215.143 398.669 215.115 398.456C214.961 397.428 214.873 396.393 214.851 395.355L268.933 387.731C269.208 388.74 269.424 389.764 269.577 390.797C271.04 401.087 265.908 410.856 257.252 416.266C257.523 416.44 257.756 416.667 257.938 416.933C258.12 417.199 258.247 417.499 258.311 417.815C258.684 420.397 253.419 423.269 246.569 424.239C239.719 425.21 233.85 423.894 233.47 421.293C233.445 420.972 233.485 420.649 233.586 420.344C233.688 420.039 233.85 419.758 234.062 419.517C231.472 418.783 229 417.679 226.722 416.24C226.246 416.348 225.739 416.437 225.199 416.519C223.123 416.87 220.995 416.787 218.95 416.275C216.905 415.763 214.986 414.833 213.314 413.544C206.433 408.131 208.246 401.245 208.342 400.946ZM215.138 411.207C217.493 413.013 220.426 413.89 223.377 413.669C219.832 410.553 217.236 406.497 215.888 401.97L211.041 402.659C210.871 404.35 211.122 408.067 215.12 411.215L215.138 411.207Z" fill="#F0C376"/>
<path d="M257.503 387.422C257.702 387.395 257.888 387.308 258.036 387.172C258.183 387.035 258.286 386.857 258.329 386.66C258.864 383.238 258.268 379.731 256.633 376.674C255.167 374.089 253.341 371.727 251.209 369.66C249.825 368.342 248.615 366.852 247.609 365.227C245.947 362.051 246.018 357.521 246.02 357.477C246.023 357.347 246 357.219 245.954 357.098C245.907 356.978 245.837 356.868 245.747 356.774C245.658 356.681 245.552 356.606 245.434 356.553C245.316 356.501 245.189 356.473 245.06 356.469C244.931 356.466 244.803 356.489 244.683 356.535C244.563 356.582 244.453 356.652 244.36 356.741C244.267 356.83 244.192 356.937 244.141 357.055C244.089 357.173 244.061 357.301 244.058 357.43C244.017 360.431 244.639 363.406 245.878 366.141C246.961 367.934 248.275 369.574 249.788 371.02C251.793 372.948 253.513 375.154 254.895 377.57C256.325 380.231 256.871 383.278 256.452 386.266C256.424 386.393 256.421 386.524 256.444 386.651C256.466 386.779 256.514 386.901 256.584 387.011C256.653 387.12 256.744 387.215 256.85 387.289C256.957 387.363 257.077 387.416 257.203 387.444C257.304 387.452 257.405 387.445 257.503 387.422Z" fill="#F0C376"/>
<path d="M243.03 389.458C243.227 389.43 243.411 389.342 243.557 389.207C243.702 389.072 243.804 388.895 243.847 388.7C244.386 385.278 243.793 381.77 242.16 378.71C240.693 376.125 238.864 373.764 236.728 371.7C235.344 370.382 234.134 368.893 233.127 367.267C231.461 364.082 231.536 359.561 231.539 359.517C231.542 359.387 231.52 359.258 231.473 359.137C231.427 359.016 231.357 358.906 231.268 358.812C231.179 358.717 231.073 358.642 230.955 358.589C230.837 358.536 230.71 358.507 230.581 358.503C230.451 358.499 230.323 358.521 230.202 358.567C230.082 358.614 229.972 358.683 229.878 358.772C229.785 358.861 229.709 358.968 229.657 359.086C229.605 359.204 229.576 359.331 229.573 359.461C229.574 359.664 229.483 364.546 231.393 368.172C232.477 369.963 233.791 371.604 235.302 373.051C237.313 374.978 239.035 377.188 240.413 379.61C241.819 382.26 242.346 385.289 241.916 388.254C241.863 388.509 241.913 388.774 242.055 388.993C242.197 389.211 242.419 389.364 242.672 389.419C242.788 389.457 242.91 389.471 243.03 389.458Z" fill="#F0C376"/>
<path d="M227.797 391.587C227.994 391.558 228.178 391.471 228.324 391.335C228.469 391.2 228.571 391.023 228.614 390.829C229.164 387.406 228.571 383.895 226.927 380.838C225.464 378.254 223.636 375.896 221.498 373.837C220.116 372.514 218.908 371.02 217.903 369.391C216.232 366.22 216.316 361.694 216.315 361.641C216.318 361.381 216.219 361.129 216.038 360.942C215.858 360.754 215.611 360.646 215.351 360.64C215.093 360.635 214.842 360.732 214.655 360.911C214.468 361.089 214.359 361.335 214.352 361.594C214.312 364.596 214.93 367.571 216.164 370.31C217.247 372.103 218.565 373.742 220.082 375.185C222.087 377.117 223.805 379.327 225.184 381.748C226.588 384.397 227.118 387.423 226.696 390.388C226.642 390.642 226.69 390.907 226.83 391.126C226.97 391.345 227.19 391.5 227.443 391.557C227.558 391.588 227.678 391.598 227.797 391.587Z" fill="#F0C376"/>
<path d="M320.271 255.903L321.354 263.517C323.109 275.781 280.219 291.971 225.655 299.641C171.092 307.311 125.355 303.604 123.599 291.339L122.517 283.725L320.271 255.903Z" fill="#1A3447"/>
<path d="M224.565 292.029C169.956 299.714 124.266 295.997 122.514 283.728C120.761 271.459 163.609 255.283 218.218 247.598C272.827 239.913 318.517 243.629 320.27 255.899C322.023 268.168 279.174 284.344 224.565 292.029Z" fill="white" stroke="#1A3447" stroke-width="1.59375" stroke-miterlimit="10"/>
<path d="M316.805 244.448L317.878 251.916C319.593 263.962 277.52 279.844 223.904 287.385C170.288 294.926 125.423 291.284 123.698 279.242L122.625 271.774L316.805 244.448Z" fill="#1A3447"/>
<path d="M222.841 279.925C169.219 287.471 124.355 283.821 122.634 271.772C120.913 259.723 162.987 243.839 216.609 236.293C270.231 228.747 315.095 232.397 316.816 244.445C318.537 256.494 276.463 272.379 222.841 279.925Z" fill="white" stroke="#1A3447" stroke-width="1.59375" stroke-miterlimit="10"/>
<path d="M302.404 216.099L306.318 243.476C307.794 253.846 270.071 267.732 222.064 274.493C174.057 281.254 133.93 278.31 132.456 267.971L128.543 240.593L302.404 216.099Z" fill="#1A3447"/>
<path d="M218.151 247.113C170.14 253.87 130.018 250.941 128.537 240.571C127.056 230.201 164.776 216.318 212.787 209.561C260.799 202.805 300.92 205.734 302.402 216.104C303.883 226.473 266.163 240.357 218.151 247.113Z" fill="white" stroke="#1A3447" stroke-width="1.59375" stroke-miterlimit="10"/>
<path d="M143.044 238.524C144.279 247.165 177.687 249.62 217.697 243.967C257.708 238.315 289.137 226.768 287.894 218.109C286.651 209.449 253.251 207.013 213.231 212.669C173.212 218.326 141.809 229.882 143.044 238.524Z" fill="#1A3447"/>
<path d="M217.708 243.987C178.188 249.549 145.304 248.137 144.261 240.835C143.218 233.533 174.41 223.104 213.931 217.543C253.451 211.981 286.335 213.392 287.378 220.695C288.421 227.997 257.229 238.425 217.708 243.987Z" fill="white" stroke="#1A3447" stroke-width="1.59375" stroke-miterlimit="10"/>
<path d="M170.911 230.403C171.395 233.817 183.522 234.92 197.916 232.907C212.311 230.893 223.651 226.463 223.167 223.049C222.682 219.636 210.556 218.532 196.152 220.549C181.749 222.567 170.418 226.993 170.911 230.403Z" fill="#1A3447"/>
</g>
<defs>
<clipPath id="clip0_230_39867">
<rect width="492.265" height="492.265" fill="white" transform="matrix(-0.91886 0.394583 0.394583 0.91886 452.323 0)"/>
</clipPath>
</defs>
</svg>
