<svg width="500" height="500" viewBox="0 0 500 500" fill="none" xmlns="http://www.w3.org/2000/svg">
<path d="M437.4 314.929C437.4 314.929 488.49 257.509 472.25 157.599C456.01 57.6893 372.58 20.8793 317.25 40.1093C261.92 59.3393 249.44 92.8093 204.25 111.949C159.06 131.089 73.1905 117.949 30.2505 182.239C-12.6895 246.529 42.1305 353.059 111.92 419.859C181.71 486.659 359.8 444.839 437.4 314.929Z" fill="#FAEDD6"/>
<path d="M61.5801 476.25H461.73" stroke="#1A3447" stroke-miterlimit="10"/>
<path d="M123.67 324.26L139.55 476.05" stroke="#1A3447" stroke-width="2" stroke-miterlimit="10"/>
<path d="M136.73 444.909L129.67 437.449" stroke="#1A3447" stroke-width="2" stroke-miterlimit="10"/>
<path d="M131.819 439.688C131.807 438.546 131.549 437.419 131.065 436.384C130.58 435.349 129.879 434.43 129.009 433.688C127.199 432.068 117.659 428.058 116.759 431.418C115.769 435.078 125.529 442.258 131.819 439.688Z" fill="#F0C376" stroke="#1A3447" stroke-miterlimit="10"/>
<path d="M131.82 439.689L122.74 434.029" stroke="#1A3447" stroke-width="0.5" stroke-miterlimit="10"/>
<path d="M138.499 461.88L131.449 454.42" stroke="#1A3447" stroke-width="2" stroke-miterlimit="10"/>
<path d="M133.591 456.659C133.578 455.516 133.321 454.39 132.836 453.355C132.351 452.32 131.651 451.401 130.781 450.659C128.971 449.039 119.431 445.029 118.531 448.389C117.541 452.049 127.301 459.219 133.591 456.659Z" fill="#F0C376" stroke="#1A3447" stroke-miterlimit="10"/>
<path d="M133.59 456.66L124.51 451" stroke="#1A3447" stroke-width="0.5" stroke-miterlimit="10"/>
<path d="M132.41 403.499L125.35 396.049" stroke="#1A3447" stroke-width="2" stroke-miterlimit="10"/>
<path d="M127.501 398.279C127.488 397.136 127.231 396.009 126.746 394.974C126.262 393.939 125.561 393.02 124.691 392.279C122.881 390.669 113.341 386.649 112.441 390.009C111.451 393.679 121.211 400.849 127.501 398.279Z" fill="#F0C376" stroke="#1A3447" stroke-miterlimit="10"/>
<path d="M127.5 398.279L118.42 392.629" stroke="#1A3447" stroke-width="0.5" stroke-miterlimit="10"/>
<path d="M134.179 420.47L127.119 413.02" stroke="#1A3447" stroke-width="2" stroke-miterlimit="10"/>
<path d="M129.27 415.249C129.258 414.106 129 412.979 128.516 411.944C128.031 410.909 127.33 409.99 126.46 409.249C124.65 407.629 115.11 403.619 114.21 406.979C113.22 410.639 123 417.819 129.27 415.249Z" fill="#F0C376" stroke="#1A3447" stroke-miterlimit="10"/>
<path d="M129.269 415.25L120.189 409.59" stroke="#1A3447" stroke-width="0.5" stroke-miterlimit="10"/>
<path d="M129.54 375.939L122.48 368.479" stroke="#1A3447" stroke-width="2" stroke-miterlimit="10"/>
<path d="M124.621 370.72C124.608 369.577 124.351 368.45 123.866 367.415C123.381 366.38 122.68 365.461 121.811 364.72C120.001 363.1 110.461 359.09 109.561 362.45C108.581 366.11 118.341 373.29 124.621 370.72Z" fill="#F0C376" stroke="#1A3447" stroke-miterlimit="10"/>
<path d="M124.621 370.719L115.541 365.059" stroke="#1A3447" stroke-width="0.5" stroke-miterlimit="10"/>
<path d="M126.65 348.259L119.59 340.799" stroke="#1A3447" stroke-width="2" stroke-miterlimit="10"/>
<path d="M121.73 342.999C121.717 341.856 121.46 340.729 120.975 339.694C120.491 338.659 119.79 337.74 118.92 336.999C117.11 335.379 107.58 331.369 106.67 334.729C105.69 338.429 115.45 345.599 121.73 342.999Z" fill="#F0C376" stroke="#1A3447" stroke-miterlimit="10"/>
<path d="M121.73 343.029L112.65 337.379" stroke="#1A3447" stroke-width="0.5" stroke-miterlimit="10"/>
<path d="M135.551 434.869L140.911 426.119" stroke="#1A3447" stroke-width="2" stroke-miterlimit="10"/>
<path d="M139.28 428.748C139.058 427.629 139.078 426.476 139.338 425.365C139.599 424.254 140.094 423.212 140.79 422.308C142.23 420.308 150.73 414.458 152.31 417.558C154 420.928 146 429.998 139.28 428.748Z" fill="#F0C376" stroke="#1A3447" stroke-miterlimit="10"/>
<path d="M139.279 428.75L147.449 420.93" stroke="#1A3447" stroke-width="0.5" stroke-miterlimit="10"/>
<path d="M130.891 390.219L136.251 381.469" stroke="#1A3447" stroke-width="2" stroke-miterlimit="10"/>
<path d="M134.62 384.089C134.4 382.972 134.42 381.82 134.681 380.711C134.941 379.602 135.435 378.562 136.13 377.659C137.57 375.659 146.07 369.799 147.65 372.899C149.37 376.269 141.3 385.309 134.62 384.089Z" fill="#F0C376" stroke="#1A3447" stroke-miterlimit="10"/>
<path d="M134.619 384.089L142.789 376.279" stroke="#1A3447" stroke-width="0.5" stroke-miterlimit="10"/>
<path d="M128.84 370.59L134.21 361.84" stroke="#1A3447" stroke-width="2" stroke-miterlimit="10"/>
<path d="M132.571 364.47C132.349 363.351 132.369 362.198 132.629 361.087C132.89 359.976 133.385 358.934 134.081 358.03C135.521 356.08 144.021 350.18 145.601 353.28C147.321 356.65 139.251 365.69 132.571 364.47Z" fill="#F0C376" stroke="#1A3447" stroke-miterlimit="10"/>
<path d="M132.57 364.47L140.74 356.66" stroke="#1A3447" stroke-width="0.5" stroke-miterlimit="10"/>
<path d="M125.84 341.83L131.2 333.08" stroke="#1A3447" stroke-width="2" stroke-miterlimit="10"/>
<path d="M129.571 335.699C129.349 334.58 129.369 333.426 129.629 332.315C129.89 331.205 130.385 330.162 131.081 329.259C132.521 327.309 141.021 321.409 142.601 324.509C144.321 327.879 136.251 336.919 129.571 335.699Z" fill="#F0C376" stroke="#1A3447" stroke-miterlimit="10"/>
<path d="M129.57 335.699L137.74 327.889" stroke="#1A3447" stroke-width="0.5" stroke-miterlimit="10"/>
<path d="M123.54 323.429C123.32 322.312 123.34 321.16 123.601 320.051C123.861 318.942 124.355 317.902 125.05 316.999C126.49 314.999 134.99 309.139 136.57 312.239C138.29 315.609 130.22 324.649 123.54 323.429Z" fill="#F0C376" stroke="#1A3447" stroke-miterlimit="10"/>
<path d="M123.541 323.429L131.721 315.619" stroke="#1A3447" stroke-width="0.5" stroke-miterlimit="10"/>
<path d="M124 323.77C122.863 323.874 121.717 323.733 120.639 323.357C119.561 322.981 118.575 322.378 117.75 321.59C115.95 319.96 110.98 310.88 114.23 309.64C117.78 308.28 125.92 317.26 124 323.77Z" fill="#F0C376" stroke="#1A3447" stroke-miterlimit="10"/>
<path d="M124.02 323.77L117.1 314.82" stroke="#1A3447" stroke-width="0.5" stroke-miterlimit="10"/>
<path d="M164.739 344.809L151.609 476.049" stroke="#1A3447" stroke-width="2" stroke-miterlimit="10"/>
<path d="M152.681 465.559L147.311 456.809" stroke="#1A3447" stroke-width="2" stroke-miterlimit="10"/>
<path d="M149 459.44C149.221 458.32 149.199 457.166 148.937 456.055C148.675 454.944 148.178 453.903 147.48 453C146.04 451.05 137.54 445.16 135.96 448.26C134.19 451.63 142.27 460.66 149 459.44Z" fill="#F0C376" stroke="#1A3447" stroke-miterlimit="10"/>
<path d="M148.95 459.439L141.23 452.029" stroke="#1A3447" stroke-width="0.5" stroke-miterlimit="10"/>
<path d="M156.979 424.148L151.609 415.398" stroke="#1A3447" stroke-width="2" stroke-miterlimit="10"/>
<path d="M153.239 418C153.462 416.881 153.442 415.728 153.181 414.617C152.921 413.506 152.426 412.464 151.729 411.56C150.289 409.61 141.779 403.72 140.209 406.82C138.489 410.22 146.559 419.25 153.239 418Z" fill="#F0C376" stroke="#1A3447" stroke-miterlimit="10"/>
<path d="M153.239 418.029L145.529 410.629" stroke="#1A3447" stroke-width="0.5" stroke-miterlimit="10"/>
<path d="M155.22 441.119L149.84 432.369" stroke="#1A3447" stroke-width="2" stroke-miterlimit="10"/>
<path d="M151.479 435C151.701 433.881 151.682 432.728 151.421 431.617C151.161 430.506 150.666 429.464 149.969 428.56C148.529 426.61 140.019 420.72 138.439 423.82C136.729 427.19 144.799 436.22 151.479 435Z" fill="#F0C376" stroke="#1A3447" stroke-miterlimit="10"/>
<path d="M151.48 435L143.76 427.6" stroke="#1A3447" stroke-width="0.5" stroke-miterlimit="10"/>
<path d="M159.841 396.59L154.471 387.84" stroke="#1A3447" stroke-width="2" stroke-miterlimit="10"/>
<path d="M156.101 390.469C156.323 389.35 156.303 388.197 156.043 387.086C155.782 385.975 155.287 384.933 154.591 384.029C153.151 382.029 144.591 376.179 143.071 379.279C141.351 382.649 149.421 391.679 156.101 390.469Z" fill="#F0C376" stroke="#1A3447" stroke-miterlimit="10"/>
<path d="M156.101 390.469L148.391 383.059" stroke="#1A3447" stroke-width="0.5" stroke-miterlimit="10"/>
<path d="M162.71 368.898L157.34 360.148" stroke="#1A3447" stroke-width="2" stroke-miterlimit="10"/>
<path d="M159 362.78C159.221 361.66 159.2 360.506 158.937 359.395C158.675 358.284 158.178 357.242 157.48 356.34C156.04 354.39 147.54 348.5 145.96 351.6C144.22 355 152.3 364 159 362.78Z" fill="#F0C376" stroke="#1A3447" stroke-miterlimit="10"/>
<path d="M158.98 362.779L151.26 355.379" stroke="#1A3447" stroke-width="0.5" stroke-miterlimit="10"/>
<path d="M153.59 455.489L160.64 448.029" stroke="#1A3447" stroke-width="2" stroke-miterlimit="10"/>
<path d="M158.5 450.269C158.511 449.127 158.767 448 159.25 446.966C159.733 445.931 160.432 445.011 161.3 444.269C163.11 442.649 172.65 438.629 173.56 441.989C174.54 445.649 164.79 452.829 158.5 450.269Z" fill="#F0C376" stroke="#1A3447" stroke-miterlimit="10"/>
<path d="M158.5 450.269L168.11 444.309" stroke="#1A3447" stroke-width="0.5" stroke-miterlimit="10"/>
<path d="M158.221 410.839L165.281 403.379" stroke="#1A3447" stroke-width="2" stroke-miterlimit="10"/>
<path d="M163.131 405.61C163.143 404.467 163.401 403.341 163.886 402.306C164.37 401.271 165.071 400.352 165.941 399.61C167.751 397.99 177.281 393.98 178.191 397.33C179.181 401 169.421 408.18 163.131 405.61Z" fill="#F0C376" stroke="#1A3447" stroke-miterlimit="10"/>
<path d="M163.131 405.608L172.741 399.648" stroke="#1A3447" stroke-width="0.5" stroke-miterlimit="10"/>
<path d="M160.26 391.21L167.31 383.75" stroke="#1A3447" stroke-width="2" stroke-miterlimit="10"/>
<path d="M165.17 385.999C165.181 384.857 165.437 383.731 165.92 382.696C166.403 381.661 167.102 380.742 167.97 379.999C169.78 378.379 179.32 374.359 180.23 377.719C181.21 381.369 171.46 388.549 165.17 385.999Z" fill="#F0C376" stroke="#1A3447" stroke-miterlimit="10"/>
<path d="M165.17 385.989L174.78 380.029" stroke="#1A3447" stroke-width="0.5" stroke-miterlimit="10"/>
<path d="M163.24 362.439L170.3 354.979" stroke="#1A3447" stroke-width="2" stroke-miterlimit="10"/>
<path d="M168.15 357.22C168.163 356.077 168.42 354.95 168.905 353.915C169.39 352.88 170.091 351.961 170.96 351.22C172.77 349.6 182.3 345.58 183.21 348.94C184.2 352.6 174.44 359.78 168.15 357.22Z" fill="#F0C376" stroke="#1A3447" stroke-miterlimit="10"/>
<path d="M168.15 357.22L177.76 351.26" stroke="#1A3447" stroke-width="0.5" stroke-miterlimit="10"/>
<path d="M164.779 343.999C164.792 342.856 165.049 341.729 165.534 340.694C166.019 339.659 166.72 338.74 167.589 337.999C169.399 336.379 178.929 332.369 179.839 335.729C180.829 339.359 171.069 346.539 164.779 343.999Z" fill="#F0C376" stroke="#1A3447" stroke-miterlimit="10"/>
<path d="M164.779 343.97L174.389 338.01" stroke="#1A3447" stroke-width="0.5" stroke-miterlimit="10"/>
<path d="M165.18 344.399C164.047 344.265 162.956 343.891 161.98 343.301C161.004 342.711 160.165 341.919 159.52 340.979C158.09 338.979 155.1 329.109 158.52 328.559C162.27 327.999 168.39 338.419 165.18 344.399Z" fill="#F0C376" stroke="#1A3447" stroke-miterlimit="10"/>
<path d="M165.18 344.399L160.25 334.219" stroke="#1A3447" stroke-width="0.5" stroke-miterlimit="10"/>
<path d="M146.999 284.049L146.029 476.279" stroke="#1A3447" stroke-width="2" stroke-miterlimit="10"/>
<path d="M147.15 444.369L140.9 436.219" stroke="#1A3447" stroke-width="2" stroke-miterlimit="10"/>
<path d="M142.799 438.659C142.903 437.524 142.763 436.381 142.389 435.304C142.014 434.228 141.415 433.245 140.629 432.419C138.999 430.619 129.929 425.639 128.679 428.879C127.319 432.419 136.279 440.559 142.799 438.659Z" fill="#F0C376" stroke="#1A3447" stroke-miterlimit="10"/>
<path d="M142.799 438.66L134.359 432.09" stroke="#1A3447" stroke-width="0.5" stroke-miterlimit="10"/>
<path d="M147.15 408.91L140.9 400.76" stroke="#1A3447" stroke-width="2" stroke-miterlimit="10"/>
<path d="M142.799 403.199C142.903 402.065 142.763 400.921 142.389 399.845C142.014 398.769 141.415 397.785 140.629 396.959C138.999 395.159 129.929 390.179 128.679 393.429C127.319 396.999 136.279 405.099 142.799 403.199Z" fill="#F0C376" stroke="#1A3447" stroke-miterlimit="10"/>
<path d="M142.799 403.199L134.359 396.629" stroke="#1A3447" stroke-width="0.5" stroke-miterlimit="10"/>
<path d="M147.15 367.279L140.9 359.129" stroke="#1A3447" stroke-width="2" stroke-miterlimit="10"/>
<path d="M142.799 361.569C142.903 360.434 142.763 359.29 142.389 358.214C142.014 357.138 141.415 356.154 140.629 355.328C138.999 353.528 129.929 348.548 128.679 351.798C127.319 355.328 136.279 363.469 142.799 361.569Z" fill="#F0C376" stroke="#1A3447" stroke-miterlimit="10"/>
<path d="M142.799 361.57L134.359 355" stroke="#1A3447" stroke-width="0.5" stroke-miterlimit="10"/>
<path d="M147.15 339.56L140.9 331.42" stroke="#1A3447" stroke-width="2" stroke-miterlimit="10"/>
<path d="M142.799 333.86C142.904 332.724 142.765 331.578 142.391 330.5C142.016 329.422 141.416 328.437 140.629 327.61C138.999 325.82 129.929 320.84 128.679 324.08C127.319 327.61 136.279 335.76 142.799 333.86Z" fill="#F0C376" stroke="#1A3447" stroke-miterlimit="10"/>
<path d="M142.799 333.859L134.359 327.289" stroke="#1A3447" stroke-width="0.5" stroke-miterlimit="10"/>
<path d="M147.15 311.73L140.9 303.58" stroke="#1A3447" stroke-width="2" stroke-miterlimit="10"/>
<path d="M142.799 305.998C142.904 304.862 142.765 303.717 142.391 302.639C142.016 301.561 141.416 300.575 140.629 299.748C138.999 297.948 129.929 292.968 128.679 296.218C127.319 299.778 136.279 307.928 142.799 305.998Z" fill="#F0C376" stroke="#1A3447" stroke-miterlimit="10"/>
<path d="M142.799 306.029L134.359 299.459" stroke="#1A3447" stroke-width="0.5" stroke-miterlimit="10"/>
<path d="M147.01 455.189L153.26 447.049" stroke="#1A3447" stroke-width="2" stroke-miterlimit="10"/>
<path d="M151.36 449.489C151.255 448.353 151.394 447.207 151.769 446.129C152.143 445.051 152.744 444.066 153.53 443.239C155.16 441.449 164.23 436.469 165.48 439.709C166.84 443.239 157.87 451.389 151.36 449.489Z" fill="#F0C376" stroke="#1A3447" stroke-miterlimit="10"/>
<path d="M151.359 449.49L160.299 442.57" stroke="#1A3447" stroke-width="0.5" stroke-miterlimit="10"/>
<path d="M147.01 398.798L153.26 390.648" stroke="#1A3447" stroke-width="2" stroke-miterlimit="10"/>
<path d="M151.36 393.1C151.255 391.964 151.394 390.818 151.769 389.74C152.143 388.662 152.744 387.677 153.53 386.85C155.16 385.05 164.23 380.07 165.48 383.32C166.84 386.85 157.87 395 151.36 393.1Z" fill="#F0C376" stroke="#1A3447" stroke-miterlimit="10"/>
<path d="M151.359 393.1L160.299 386.17" stroke="#1A3447" stroke-width="0.5" stroke-miterlimit="10"/>
<path d="M147.01 370.96L153.26 362.82" stroke="#1A3447" stroke-width="2" stroke-miterlimit="10"/>
<path d="M151.36 365.259C151.255 364.122 151.394 362.977 151.769 361.899C152.143 360.821 152.744 359.835 153.53 359.009C155.16 357.219 164.23 352.239 165.48 355.479C166.84 358.999 157.87 367.159 151.36 365.259Z" fill="#F0C376" stroke="#1A3447" stroke-miterlimit="10"/>
<path d="M151.359 365.26L160.299 358.34" stroke="#1A3447" stroke-width="0.5" stroke-miterlimit="10"/>
<path d="M147.01 334.169L153.26 326.029" stroke="#1A3447" stroke-width="2" stroke-miterlimit="10"/>
<path d="M151.36 328.47C151.255 327.333 151.394 326.188 151.769 325.11C152.143 324.032 152.744 323.046 153.53 322.22C155.16 320.43 164.23 315.45 165.48 318.69C166.84 322.22 157.87 330.37 151.36 328.47Z" fill="#F0C376" stroke="#1A3447" stroke-miterlimit="10"/>
<path d="M151.359 328.469L160.299 321.549" stroke="#1A3447" stroke-width="0.5" stroke-miterlimit="10"/>
<path d="M147.01 305.25L153.26 297.1" stroke="#1A3447" stroke-width="2" stroke-miterlimit="10"/>
<path d="M151.36 299.549C151.255 298.413 151.394 297.267 151.769 296.189C152.143 295.111 152.744 294.126 153.53 293.299C155.16 291.499 164.23 286.519 165.48 289.769C166.84 293.299 157.87 301.449 151.36 299.549Z" fill="#F0C376" stroke="#1A3447" stroke-miterlimit="10"/>
<path d="M151.359 299.549L160.299 292.629" stroke="#1A3447" stroke-width="0.5" stroke-miterlimit="10"/>
<path d="M146.639 286.719C146.534 285.583 146.674 284.437 147.048 283.359C147.422 282.281 148.023 281.296 148.809 280.469C150.439 278.669 159.509 273.699 160.759 276.939C162.119 280.469 153.149 288.619 146.639 286.719Z" fill="#F0C376" stroke="#1A3447" stroke-miterlimit="10"/>
<path d="M146.641 286.719L155.581 279.799" stroke="#1A3447" stroke-width="0.5" stroke-miterlimit="10"/>
<path d="M147.071 287.099C145.928 287.087 144.801 286.829 143.766 286.345C142.731 285.86 141.812 285.159 141.071 284.289C139.451 282.469 135.451 272.929 138.811 272.029C142.481 271.049 149.651 280.819 147.071 287.099Z" fill="#F0C376" stroke="#1A3447" stroke-miterlimit="10"/>
<path d="M147.071 287.1L141.131 277.49" stroke="#1A3447" stroke-width="0.5" stroke-miterlimit="10"/>
<path d="M401.042 476.249L395.262 409.619H258.412L250.852 476.249H401.042Z" fill="#1A3447" stroke="#1A3447" stroke-miterlimit="10"/>
<path d="M317.221 207.67C317.221 207.67 277.221 218.67 259.721 231.91C242.221 245.15 230.121 258.69 232.941 284.34C235.761 309.99 254.081 380.17 254.081 380.17C254.081 380.17 251.541 408.64 251.541 410.33C251.541 412.02 251.261 416.81 257.461 417.09C263.661 417.37 338.071 420.48 354.701 420.76C371.331 421.04 393.321 419.35 395.851 417.38C397.104 416.339 398.126 415.05 398.854 413.594C399.583 412.137 400 410.546 400.081 408.92C400.361 405.54 403.181 364.1 403.181 364.1L403.461 345.5C403.461 345.5 421.791 284.62 422.911 264.89C424.031 245.16 416.711 238.68 408.541 232.48C400.371 226.28 374.931 215.78 361.191 211.62C347.451 207.46 317.221 207.67 317.221 207.67Z" fill="#F0C376" stroke="#1A3447" stroke-miterlimit="10"/>
<path d="M327.091 302.27C325.091 329.72 321.431 380.27 321.751 388.98C322.201 400.98 317.311 404.53 317.311 408.98" stroke="#1A3447" stroke-miterlimit="10"/>
<path d="M328.422 284.561C328.422 284.561 328.062 289.231 327.512 296.621" stroke="#1A3447" stroke-miterlimit="10"/>
<path d="M346.281 319.82L348.841 350.02L363.171 349L346.281 319.82Z" fill="#1A3447" stroke="#1A3447" stroke-miterlimit="10"/>
<path d="M332.701 372.48C332.701 372.48 367.701 366.98 370.331 367.56C372.961 368.14 390.881 376.82 393.491 377.4C395.189 377.802 396.838 378.385 398.411 379.14L402.341 382.43L401.001 372.48C401.001 372.48 395.791 366.11 384.211 361.48C372.631 356.85 366.841 359.48 364.211 360.33C361.581 361.18 332.701 372.48 332.701 372.48Z" fill="#1A3447" stroke="#1A3447" stroke-miterlimit="10"/>
<path d="M278.88 346.069L369.88 345.779C369.88 345.779 399.2 342.969 400.32 342.679C401.44 342.389 413.01 345.499 414.14 346.349C415.27 347.199 415.26 349.729 414.7 352.269L414.14 354.799C414.552 356.943 414.833 359.111 414.98 361.289C414.98 363.289 412.73 363.819 412.44 364.669C412.15 365.519 414.14 368.609 411.88 370.589L409.63 372.589C409.63 372.589 409.34 377.949 408.22 379.359C407.1 380.769 403.71 383.299 402.3 382.459C400.89 381.619 401.45 379.359 401.45 377.949C401.45 376.539 400.89 375.129 399.2 375.129C397.51 375.129 397.2 376.539 388.49 374.279C379.78 372.019 370.17 364.419 369.32 364.129C368.47 363.839 292.09 384.429 269.54 387.249C246.99 390.069 245.02 386.969 244.17 383.249C243.32 379.529 241.92 370.849 241.92 370.849L237.92 353.659L278.88 346.069Z" fill="white" stroke="#1A3447" stroke-miterlimit="10"/>
<path d="M338.05 240.711C338.05 240.711 342.76 235.711 345.73 237.981C348.7 240.251 351.42 252.091 355.13 251.101C358.84 250.111 366.27 227.101 366.27 217.941C366.27 208.781 359.83 203.341 358.35 202.841C356.87 202.341 319 201.841 314.54 203.591C310.08 205.341 308.36 220.911 306.63 230.311C304.9 239.711 308.85 241.941 311.33 240.711C313.81 239.481 323.45 235.511 325.68 235.511C327.91 235.511 338.05 240.711 338.05 240.711Z" fill="#F0C376" stroke="#1A3447" stroke-miterlimit="10"/>
<path d="M363.4 188.539C363.4 188.539 359.85 206.079 358.47 210.409C357.09 214.739 347.04 227.949 344.47 230.709C341.9 233.469 334.42 247.059 332.47 247.459C330.52 247.859 325 229.329 325 229.329C325 229.329 317.9 217.109 316.52 213.959C315.14 210.809 313 201.549 313 201.549C313 201.549 324.62 211.549 337 209.429C349.38 207.309 355.71 194.849 355.71 194.849L363.4 188.539Z" fill="white" stroke="#1A3447" stroke-miterlimit="10"/>
<path d="M315.291 153.599C315.291 153.599 311.821 149.879 309.841 155.599C307.861 161.319 311.841 171.429 311.841 171.429L315.291 153.599Z" fill="white" stroke="#1A3447" stroke-miterlimit="10"/>
<path d="M315.911 142C315.911 142 310.201 182.59 310.201 185C310.201 187.41 308.621 195.24 310.991 200.37C313.361 205.5 320.441 211.79 326.161 212.58C331.881 213.37 343.101 212.19 349.411 207.26C355.721 202.33 363.001 191.7 363.001 191.7C363.001 191.7 370.891 190.51 376.001 188.35C381.111 186.19 385.061 181.25 384.871 176.13C384.644 172.852 383.482 169.708 381.521 167.07L378.521 161.55L386.401 146.77C386.401 146.77 381.871 138.3 367.291 130.22C352.711 122.14 339.701 119.58 333.601 119.58C327.501 119.58 319.801 122.14 317.601 127.07C315.401 132 315.911 142 315.911 142Z" fill="white" stroke="#1A3447" stroke-miterlimit="10"/>
<path d="M334.63 122.14C334.63 122.14 345.86 140.66 354.34 139.88C362.82 139.1 365.34 135.15 365.34 135.15L371.05 142.83C371.05 142.83 364.95 145.39 366.13 148.55C367.31 151.71 372.63 158.79 372.63 158.79L368.29 177.31C368.29 177.31 371.64 177.9 372.24 176.72C372.84 175.54 375.78 168.25 375.78 168.25C376.575 167.74 377.437 167.343 378.34 167.07C379.382 166.846 380.459 166.846 381.5 167.07C381.5 167.07 383.66 159.78 384.5 159.58C385.34 159.38 393.17 157.21 396.13 149.53C399.09 141.85 394.55 129.63 384.3 119.98C374.05 110.33 352.38 107.76 351.2 105.98C350.02 104.2 356.72 106.76 355.34 102.82C353.96 98.8799 345.29 93.7599 334.26 99.2799C323.23 104.8 324.8 110.9 325.98 112.87L327.16 114.87C327.16 114.87 317.9 111.72 311.4 115.66C304.9 119.6 301.75 127.48 304.7 128.27C307.65 129.06 311.4 127.27 311.4 127.27C311.4 127.27 307.46 133.77 308.64 135.15C309.82 136.53 315.93 142.04 315.93 142.04C315.93 142.04 318.3 128.25 323.22 126.28C328.14 124.31 334.63 122.14 334.63 122.14Z" fill="#1A3447" stroke="#1A3447" stroke-miterlimit="10"/>
<path d="M331.081 148.74L332.861 154.46L322.811 173.37L333.451 177.51" stroke="#1A3447" stroke-miterlimit="10"/>
<path d="M329.111 146.569C329.111 146.569 324.391 142.829 320.441 143.819C316.491 144.809 318.871 145.389 321.631 146.379C324.391 147.369 329.901 149.919 329.111 146.569Z" fill="#1A3447" stroke="#1A3447" stroke-miterlimit="10"/>
<path d="M343.702 145.791C343.702 145.791 339.162 146.971 341.332 147.951C343.502 148.931 350.002 146.951 352.562 147.951C355.122 148.951 358.472 152.291 358.282 150.711C357.991 149.352 357.351 148.092 356.425 147.056C355.499 146.02 354.319 145.242 353.002 144.801C349.412 143.621 343.702 145.791 343.702 145.791Z" fill="#1A3447" stroke="#1A3447" stroke-miterlimit="10"/>
<path d="M325.485 152.846C325.662 152.888 325.882 153.074 326.021 153.525C326.155 153.962 326.178 154.559 326.025 155.201C325.868 155.845 325.578 156.365 325.261 156.69C324.936 157.024 324.655 157.089 324.471 157.044C324.283 156.997 324.064 156.808 323.928 156.365C323.795 155.933 323.774 155.34 323.928 154.695C324.08 154.055 324.372 153.535 324.691 153.208C325.021 152.871 325.306 152.803 325.485 152.846Z" fill="#1A3447" stroke="#1A3447"/>
<path d="M346.971 158.425C347.15 158.469 347.371 158.662 347.509 159.125C347.642 159.572 347.662 160.177 347.515 160.819C347.357 161.457 347.065 161.976 346.746 162.302C346.417 162.638 346.135 162.706 345.956 162.663C345.781 162.621 345.56 162.436 345.421 161.979C345.286 161.537 345.263 160.927 345.417 160.262C345.57 159.6 345.859 159.083 346.174 158.766C346.494 158.442 346.779 158.377 346.971 158.425Z" fill="#1A3447" stroke="#1A3447"/>
<path d="M316.701 179.869L324.781 185.189" stroke="#1A3447" stroke-miterlimit="10"/>
<path d="M399.8 227.68C399.8 227.68 427.7 238.4 433.06 254.46C438.42 270.52 431.65 290.82 428.83 299.28C426.01 307.74 408.54 340.71 405.72 348.6C402.9 356.49 398.67 366.08 398.67 366.08C398.67 366.08 394.73 342.4 384 327.75C373.27 313.1 370.75 299.84 370.75 299.84C370.75 299.84 390.2 265.45 395.27 254.74" fill="#F0C376"/>
<path d="M399.8 227.68C399.8 227.68 427.7 238.4 433.06 254.46C438.42 270.52 431.65 290.82 428.83 299.28C426.01 307.74 408.54 340.71 405.72 348.6C402.9 356.49 398.67 366.08 398.67 366.08C398.67 366.08 394.73 342.4 384 327.75C373.27 313.1 370.75 299.84 370.75 299.84C370.75 299.84 390.2 265.45 395.27 254.74" stroke="#1A3447" stroke-miterlimit="10"/>
<path d="M373.731 293.879C373.731 293.879 379.441 291.029 381.341 291.979C383.241 292.929 407.671 305.979 410.841 320.849C413.13 332.035 411.566 343.666 406.401 353.849C403.541 359.249 398.151 369.709 394.031 370.979C389.911 372.249 386.411 338.309 377.851 320.549C369.291 302.789 373.731 293.879 373.731 293.879Z" fill="#F0C376" stroke="#1A3447" stroke-miterlimit="10"/>
<path d="M383.172 277.569C383.172 277.569 388.242 260.379 390.222 253.619" stroke="#1A3447" stroke-miterlimit="10"/>
<path d="M332.271 216.519C332.271 216.519 324.391 205.519 318.271 198.199C312.151 190.879 305.851 186.569 303.691 187.199C301.531 187.829 300.691 189.959 302.111 192.519C303.531 195.079 309.991 200.799 311.171 202.379C312.351 203.959 314.171 209.669 314.171 209.669C314.171 209.669 308.461 210.059 307.471 211.239C306.55 212.609 305.76 214.062 305.111 215.579C303.921 216.182 302.893 217.059 302.111 218.139C301.523 218.963 301.12 219.905 300.931 220.899C300.731 221.689 297.931 223.069 298.171 226.609C298.411 230.149 301.721 235.279 302.901 237.609C304.081 239.939 312.751 250.409 314.331 252.189C315.911 253.969 324.971 269.719 327.331 275.039C329.691 280.359 352.551 342.039 359.251 351.299C365.951 360.559 378.361 369.419 385.061 372.579C391.761 375.739 396.491 370.409 399.641 363.709C402.791 357.009 405.551 343.609 399.451 328.239C393.351 312.869 381.321 299.669 372.061 291.789C362.801 283.909 345.461 264.209 343.491 260.659C341.521 257.109 339.001 249.229 339.001 249.229C339.001 249.229 344.121 234.229 344.511 230.709C344.901 227.189 342.941 220.859 343.511 218.099C344.081 215.339 346.461 209.819 347.451 207.459C348.441 205.099 351.781 201.149 350.011 199.379C348.241 197.609 340.951 199.769 338.391 203.909C336.108 207.99 334.064 212.201 332.271 216.519Z" fill="white" stroke="#1A3447" stroke-miterlimit="10"/>
<path d="M271.371 259.19C271.961 256.06 272.371 253.9 272.371 253.9Z" fill="#F0C376"/>
<path d="M271.371 259.19C271.961 256.06 272.371 253.9 272.371 253.9" stroke="#1A3447" stroke-miterlimit="10"/>
<path d="M269.581 226.84C269.581 226.84 254.641 228.84 239.141 245.44C223.641 262.04 230.401 301.53 231.811 309.71C233.221 317.89 235.481 343 235.481 343L275.221 329.75C275.221 329.75 268.741 285.5 268.171 281.55C267.891 279.55 268.971 272.55 270.111 266.05" fill="#F0C376"/>
<path d="M269.581 226.84C269.581 226.84 254.641 228.84 239.141 245.44C223.641 262.04 230.401 301.53 231.811 309.71C233.221 317.89 235.481 343 235.481 343L275.221 329.75C275.221 329.75 268.741 285.5 268.171 281.55C267.891 279.55 268.971 272.55 270.111 266.05" stroke="#1A3447" stroke-miterlimit="10"/>
<path d="M231.53 334.231C231.53 334.231 235.48 355.371 237.45 356.491C239.42 357.611 270.14 349.171 273.53 348.601C276.92 348.031 278.88 348.881 278.88 346.071C278.88 343.261 276.06 330.001 274.37 327.751C272.68 325.501 236.04 330.281 232.94 331.131C229.84 331.981 231.53 334.231 231.53 334.231Z" fill="#F0C376" stroke="#1A3447" stroke-miterlimit="10"/>
<path d="M254 317.889C261.001 320.692 267.794 323.987 274.33 327.749C274.33 327.749 264.75 309.749 260.8 306.039" stroke="#1A3447" stroke-miterlimit="10"/>
<path d="M248.721 315.91C249.851 316.3 250.971 316.71 252.071 317.12" stroke="#1A3447" stroke-miterlimit="10"/>
<path d="M341.16 408.18C348.45 405.58 355.16 402.72 359.16 399.9" stroke="#1A3447" stroke-miterlimit="10"/>
<path d="M306.791 418.22C306.791 418.22 322.361 414.53 337.141 409.57" stroke="#1A3447" stroke-miterlimit="10"/>
<path d="M372.28 398.73C364.62 402.55 352.49 408.13 342.58 410.61" stroke="#1A3447" stroke-miterlimit="10"/>
<path d="M379.791 394.83C379.791 394.83 378.221 395.7 375.611 397.04" stroke="#1A3447" stroke-miterlimit="10"/>
<path d="M116.121 37.14C49.0509 69.45 36.3309 164.31 78.8709 221.33C87.7609 233.25 99.3809 243.33 113.151 249.14C160.151 269.07 197.821 229.44 220.731 193.02C257.311 134.89 261.881 120.52 261.231 130.31C260.581 140.1 277.561 150.56 287.361 99C299.891 33 207.531 18 160.781 24.24C145.308 26.1616 130.235 30.5153 116.121 37.14Z" fill="#1A3447" stroke="#1A3447" stroke-miterlimit="10"/>
<path d="M281.688 157.123C285.622 150.021 285.356 142.35 281.095 139.99C276.834 137.63 270.19 141.474 266.257 148.576C262.323 155.678 262.589 163.349 266.85 165.709C271.112 168.069 277.755 164.225 281.688 157.123Z" fill="#1A3447" stroke="#1A3447" stroke-miterlimit="10"/>
<path d="M288.69 158.579C286.37 162.769 286.53 167.309 289.04 168.699C291.55 170.089 295.49 167.819 297.81 163.629C300.13 159.439 299.98 154.899 297.46 153.509C294.94 152.119 291 154.379 288.69 158.579Z" fill="#1A3447" stroke="#1A3447" stroke-miterlimit="10"/>
<path d="M120.001 30.9993C52.9111 63.2693 40.1911 158.129 82.7311 215.149C91.6211 227.069 103.251 237.149 117.011 242.959C164.011 262.889 201.681 223.259 224.591 186.839C261.171 128.709 265.751 114.339 265.091 124.129C264.431 133.919 281.421 144.379 291.221 92.7793C303.751 26.7793 211.391 11.7793 164.641 18.0193C149.17 19.9683 134.105 24.349 120.001 30.9993Z" fill="white" stroke="#1A3447" stroke-miterlimit="10"/>
<path d="M270.12 142.4C266.18 149.5 266.45 157.17 270.71 159.53C274.97 161.89 281.61 158.04 285.55 150.94C289.49 143.84 289.211 136.17 284.951 133.81C280.691 131.45 274.05 135.3 270.12 142.4Z" fill="white" stroke="#1A3447" stroke-miterlimit="10"/>
<path d="M292.561 152.4C290.231 156.6 290.391 161.13 292.911 162.52C295.431 163.91 299.351 161.65 301.671 157.45C303.991 153.25 303.841 148.72 301.321 147.33C298.801 145.94 294.881 148.2 292.561 152.4Z" fill="white" stroke="#1A3447" stroke-miterlimit="10"/>
<path d="M188.353 113.267C188.353 113.267 195.52 112.499 198.238 113.102C200.956 113.706 209.06 117.543 216.627 117.335C224.194 117.126 236.482 112.65 239.897 109.963C243.312 107.276 245.488 105.233 245.488 105.233C245.488 105.233 258.367 96.8936 263.323 90.339C268.278 83.7843 273.341 74.3876 273.958 71.6032C274.576 68.8189 275.539 62.6195 276.623 60.5279C277.706 58.4363 279.771 55.8206 278.692 55.4521C277.613 55.0835 272.786 55.2611 272.786 55.2611C272.786 55.2611 263.829 52.6366 257.243 52.3257C250.657 52.0149 241.114 54.3197 230.025 63.2767C218.937 72.2338 208.763 83.6334 207.226 86.4266C205.69 89.2199 201.156 98.8031 200.414 101.65C199.672 104.496 199.415 107.8 196.812 109.519C195.742 110.22 191.452 108.12 188.619 110.043C185.786 111.966 187.385 113.147 188.353 113.267Z" fill="#F0C376" stroke="#1A3447" stroke-width="1.44103" stroke-miterlimit="10"/>
<path d="M276.145 58.7656C276.145 58.7656 259.714 68.149 247.666 78.3762C237.582 86.9882 227.068 95.0824 216.163 102.627C207.787 108.334 199.456 111.7 197.613 112.033" stroke="#1A3447" stroke-width="1.44103" stroke-miterlimit="10"/>
<path d="M198.258 110.01C203.648 108.219 208.814 105.814 213.654 102.842C221.874 97.8331 235.827 87.7169 240.468 83.627" stroke="#1A3447" stroke-width="1.44103" stroke-miterlimit="10"/>
<path d="M229.717 106.273C223.944 105.114 216.164 102.627 216.164 102.627" stroke="#1A3447" stroke-width="1.44103" stroke-miterlimit="10"/>
<path d="M241.465 106.534C241.465 106.534 237.886 107.457 232.188 106.693C231.793 106.64 231.371 106.574 230.932 106.498" stroke="#1A3447" stroke-width="1.44103" stroke-miterlimit="10"/>
<path d="M214.875 111.266C210.954 109.872 206.975 108.731 206.176 108.855" stroke="#1A3447" stroke-width="1.44103" stroke-miterlimit="10"/>
<path d="M228.133 113.871C228.133 113.871 219.993 113.116 215.801 111.598" stroke="#1A3447" stroke-width="1.44103" stroke-miterlimit="10"/>
<path d="M249.054 99.3859C245.091 99.9784 241.048 99.6965 237.206 98.56C231.015 96.6682 227.4 95.7578 227.4 95.7578" stroke="#1A3447" stroke-width="1.44103" stroke-miterlimit="10"/>
<path d="M239.114 88.9065C238.486 88.6132 237.824 88.3999 237.143 88.2715" stroke="#1A3447" stroke-width="1.44103" stroke-miterlimit="10"/>
<path d="M258.331 93.9922C258.331 93.9922 254.396 93.4016 248.969 92.1937C246.042 91.4758 243.171 90.5421 240.381 89.4004" stroke="#1A3447" stroke-width="1.44103" stroke-miterlimit="10"/>
<path d="M254.941 77.8863C252.663 77.7442 250.873 77.6465 250.873 77.6465" stroke="#1A3447" stroke-width="1.44103" stroke-miterlimit="10"/>
<path d="M266.824 81.9056C266.824 81.9056 260.162 78.2464 257.009 78.0288L256.379 77.9844" stroke="#1A3447" stroke-width="1.44103" stroke-miterlimit="10"/>
<path d="M262.742 88.3234C262.742 88.3234 253.417 85.579 249.7 84.4155C245.983 83.252 244.504 83.3941 244.504 83.3941" stroke="#1A3447" stroke-width="1.44103" stroke-miterlimit="10"/>
<path d="M269.165 75.0019C269.165 75.0019 261.646 71.4759 258.418 71.4492" stroke="#1A3447" stroke-width="1.44103" stroke-miterlimit="10"/>
<path d="M273.443 68.3277C273.443 68.3277 267.643 65.9253 265.547 66.3871" stroke="#1A3447" stroke-width="1.44103" stroke-miterlimit="10"/>
<path d="M212.615 102.903C213.325 98.8786 213.641 94.7944 213.557 90.7087C213.37 84.3317 214.933 80.9078 215.742 79.2559" stroke="#1A3447" stroke-width="1.44103" stroke-miterlimit="10"/>
<path d="M223.949 79.7639C224.074 78.8136 224.198 77.9343 224.318 77.1616C225.277 70.9445 228.186 67.4629 228.186 67.4629" stroke="#1A3447" stroke-width="1.44103" stroke-miterlimit="10"/>
<path d="M222.172 96.7573C222.172 96.7573 222.922 88.2221 223.717 81.623" stroke="#1A3447" stroke-width="1.44103" stroke-miterlimit="10"/>
<path d="M239.088 61.6925C239.511 60.6213 240.071 59.6093 240.753 58.6816" stroke="#1A3447" stroke-width="1.44103" stroke-miterlimit="10"/>
<path d="M233.146 88.9421C233.146 88.9421 233.773 84.7677 235.438 75.2822C236.054 71.5361 236.945 67.8403 238.102 64.2246" stroke="#1A3447" stroke-width="1.44103" stroke-miterlimit="10"/>
<path d="M245.305 75.3697C245.58 73.6422 245.962 71.484 246.464 68.9794C247.44 64.2015 249.288 59.6446 251.917 55.5371" stroke="#1A3447" stroke-width="1.44103" stroke-miterlimit="10"/>
<path d="M244.67 79.9207C244.67 79.9207 244.781 78.8371 245.07 76.8965" stroke="#1A3447" stroke-width="1.44103" stroke-miterlimit="10"/>
<path d="M254.889 69.5192C255.333 67.3432 256.061 64.0126 256.794 60.7264C258.028 55.1577 259.183 53.9453 259.183 53.9453" stroke="#1A3447" stroke-width="1.44103" stroke-miterlimit="10"/>
<path d="M254.367 71.9943C254.367 71.9943 254.469 71.5192 254.638 70.7109" stroke="#1A3447" stroke-width="1.44103" stroke-miterlimit="10"/>
<path d="M264.889 64.875C264.889 64.875 265.297 62.6546 266.163 59.7503C267.029 56.846 267.757 55.6914 267.757 55.6914" stroke="#1A3447" stroke-width="1.44103" stroke-miterlimit="10"/>
<path d="M258.525 69.2364C258.525 69.2364 260.146 64.5469 261.523 59.9862C262.9 55.4255 263.854 54.4707 263.854 54.4707" stroke="#1A3447" stroke-width="1.44103" stroke-miterlimit="10"/>
<path d="M207.031 98.5547C206.795 90.6634 208.092 87.6836 208.092 87.6836" stroke="#1A3447" stroke-width="1.44103" stroke-miterlimit="10"/>
<path d="M205.463 107.219C205.463 107.219 206.973 106.571 207.048 100.416" stroke="#1A3447" stroke-width="1.44103" stroke-miterlimit="10"/>
<path d="M179.506 147.898C179.506 147.898 180.114 140.712 181.224 138.163C182.335 135.614 187.637 128.394 188.876 120.911C190.115 113.428 188.046 100.532 186.06 96.6641C184.075 92.7961 182.477 90.2782 182.477 90.2782C182.477 90.2782 176.739 76.0366 171.246 69.9393C165.753 63.8421 157.479 57.061 154.873 55.9331C152.266 54.8051 146.355 52.6735 144.499 51.2214C142.643 49.7692 140.502 47.2247 139.911 48.2283C139.321 49.2319 138.579 54.0013 138.579 54.0013C138.579 54.0013 134.298 62.2967 132.744 68.687C131.19 75.0773 131.638 84.9004 138.322 97.49C145.005 110.08 154.269 122.234 156.72 124.272C159.171 126.311 167.715 132.581 170.371 133.856C173.027 135.13 176.22 136.005 177.41 138.887C177.898 140.068 175.021 143.883 176.366 147.032C177.712 150.18 179.208 148.83 179.506 147.898Z" fill="#F0C376" stroke="#1A3447" stroke-width="1.44103" stroke-miterlimit="10"/>
<path d="M142.682 51.3457C142.682 51.3457 148.779 69.2421 156.524 83.0308C163.062 94.5639 169.012 106.421 174.349 118.557C178.346 127.883 180.082 136.68 180.06 138.541" stroke="#1A3447" stroke-width="1.44103" stroke-miterlimit="10"/>
<path d="M178.191 137.541C177.458 131.91 176.079 126.382 174.083 121.066C170.726 112.042 163.425 96.4238 160.316 91.0859" stroke="#1A3447" stroke-width="1.44103" stroke-miterlimit="10"/>
<path d="M180.5 105.953C178.28 111.406 174.35 118.569 174.35 118.569" stroke="#1A3447" stroke-width="1.44103" stroke-miterlimit="10"/>
<path d="M182.993 94.4668C182.993 94.4668 183.22 98.1571 181.385 103.602C181.261 103.983 181.115 104.383 180.941 104.801" stroke="#1A3447" stroke-width="1.44103" stroke-miterlimit="10"/>
<path d="M182.579 121.48C180.469 125.06 178.582 128.754 178.582 129.558" stroke="#1A3447" stroke-width="1.44103" stroke-miterlimit="10"/>
<path d="M187.66 108.959C187.66 108.959 185.391 116.801 183.086 120.629" stroke="#1A3447" stroke-width="1.44103" stroke-miterlimit="10"/>
<path d="M177.419 85.6621C177.247 89.6648 176.201 93.5813 174.355 97.1371C171.317 102.857 169.736 106.232 169.736 106.232" stroke="#1A3447" stroke-width="1.44103" stroke-miterlimit="10"/>
<path d="M165.236 93.4277C164.827 93.9883 164.491 94.5986 164.236 95.244" stroke="#1A3447" stroke-width="1.44103" stroke-miterlimit="10"/>
<path d="M173.878 75.5293C173.878 75.5293 172.546 79.2818 170.325 84.3798C169.064 87.1174 167.602 89.758 165.951 92.28" stroke="#1A3447" stroke-width="1.44103" stroke-miterlimit="10"/>
<path d="M157.429 75.8145C156.851 78.0349 156.416 79.7668 156.416 79.7668" stroke="#1A3447" stroke-width="1.44103" stroke-miterlimit="10"/>
<path d="M163.63 64.8926C163.63 64.8926 158.776 70.7322 157.959 73.7742C157.906 73.9784 157.853 74.1827 157.795 74.387" stroke="#1A3447" stroke-width="1.44103" stroke-miterlimit="10"/>
<path d="M169.16 70.1191C169.16 70.1191 164.692 78.7476 162.845 82.1848C160.998 85.622 160.855 87.0697 160.855 87.0697" stroke="#1A3447" stroke-width="1.44103" stroke-miterlimit="10"/>
<path d="M157.297 61.2832C157.297 61.2832 152.412 67.9932 151.764 71.1595" stroke="#1A3447" stroke-width="1.44103" stroke-miterlimit="10"/>
<path d="M151.555 55.8301C151.555 55.8301 148.095 61.0702 148.153 63.2107" stroke="#1A3447" stroke-width="1.44103" stroke-miterlimit="10"/>
<path d="M173.955 122.11C170.139 120.646 166.188 119.56 162.16 118.868C155.868 117.838 152.803 115.653 151.338 114.547" stroke="#1A3447" stroke-width="1.44103" stroke-miterlimit="10"/>
<path d="M153.378 106.581C152.468 106.279 151.624 105.99 150.891 105.728C144.99 103.606 142.107 100.084 142.107 100.084" stroke="#1A3447" stroke-width="1.44103" stroke-miterlimit="10"/>
<path d="M169.726 111.557C169.726 111.557 161.488 109.194 155.16 107.16" stroke="#1A3447" stroke-width="1.44103" stroke-miterlimit="10"/>
<path d="M138.513 88.3024C137.54 87.6813 136.653 86.9348 135.875 86.082" stroke="#1A3447" stroke-width="1.44103" stroke-miterlimit="10"/>
<path d="M164.138 99.2976C164.138 99.2976 160.141 97.8898 151.158 94.4482C147.596 93.1308 144.137 91.55 140.811 89.7188" stroke="#1A3447" stroke-width="1.44103" stroke-miterlimit="10"/>
<path d="M153.122 84.7797C151.483 84.1802 149.436 83.3986 147.069 82.4261C142.565 80.5611 138.443 77.8814 134.91 74.5215" stroke="#1A3447" stroke-width="1.44103" stroke-miterlimit="10"/>
<path d="M157.474 86.2669C157.474 86.2669 156.43 85.9516 154.578 85.2988" stroke="#1A3447" stroke-width="1.44103" stroke-miterlimit="10"/>
<path d="M149.207 74.258C147.156 73.3698 144.02 72.0376 140.934 70.7054C135.703 68.4317 134.717 67.0684 134.717 67.0684" stroke="#1A3447" stroke-width="1.44103" stroke-miterlimit="10"/>
<path d="M151.532 75.2367L150.324 74.7305" stroke="#1A3447" stroke-width="1.44103" stroke-miterlimit="10"/>
<path d="M146.543 63.5621C146.543 63.5621 144.447 62.7406 141.752 61.3417C139.056 59.9429 138.07 59.0059 138.07 59.0059" stroke="#1A3447" stroke-width="1.44103" stroke-miterlimit="10"/>
<path d="M149.611 70.6374C149.611 70.6374 145.317 68.155 141.098 65.9391C136.879 63.7231 136.129 62.5996 136.129 62.5996" stroke="#1A3447" stroke-width="1.44103" stroke-miterlimit="10"/>
<path d="M168.612 126.763C160.818 125.497 158.141 123.654 158.141 123.654" stroke="#1A3447" stroke-width="1.44103" stroke-miterlimit="10"/>
<path d="M176.823 129.948C176.823 129.948 176.472 128.345 170.441 127.102" stroke="#1A3447" stroke-width="1.44103" stroke-miterlimit="10"/>
<path d="M200.59 107.246C200.59 107.246 236.133 90.102 243.713 112.621C251.293 135.139 235.968 161.135 223.829 166.193C211.691 171.25 195.576 159.776 195.576 159.776L199.136 149.422C199.136 149.422 214.6 155.118 223.786 149.891C232.972 144.664 238.516 117.144 225.839 114.487C213.163 111.83 197.738 122.441 197.738 122.441L200.59 107.246Z" fill="white" stroke="#1A3447" stroke-width="1.44103" stroke-linecap="round" stroke-linejoin="round"/>
<path opacity="0.24" d="M224.808 113.413C227.413 113.813 230.747 115.944 231.941 118.137C230.856 114.885 229.123 111.151 224.995 110.5C214.849 108.894 201.508 114.625 197.401 117.142L196.846 120.108C197.345 120.646 212.887 111.59 224.808 113.413Z" fill="#362822"/>
<path opacity="0.24" d="M242.97 112.548C242.678 111.682 242.326 110.838 241.915 110.021C241.976 110.182 242.037 110.338 242.093 110.499C249.669 133.022 234.214 156.756 222.076 161.814C211.991 166.012 199.162 158.775 195.112 156.226L194.699 157.42C194.699 157.42 210.866 170.21 223.005 165.157C235.143 160.103 250.546 135.067 242.97 112.548Z" fill="#362822"/>
<g opacity="0.24">
<path d="M197.738 122.442C200.922 120.353 204.299 118.575 207.823 117.132C207.906 111.962 207.823 107.551 207.693 104.412C205.276 105.229 202.906 106.176 200.591 107.247L197.738 122.442Z" fill="#362822"/>
<path d="M204.441 150.917C202.645 150.517 200.874 150.012 199.136 149.406L195.576 159.778C197.348 160.989 199.199 162.081 201.116 163.047C202.491 159.082 203.602 155.029 204.441 150.917Z" fill="#362822"/>
</g>
<path d="M75 101.604C75.3994 138.505 73.4111 187.697 138.561 187.697C206.815 187.675 201.727 138.505 202.122 101.604H75Z" fill="white" stroke="#1A3447" stroke-width="1.44103" stroke-linecap="round" stroke-linejoin="round"/>
<g opacity="0.24">
<path d="M195.314 101.604C195.079 131.45 197.732 168.946 165.793 182.066C202.694 169.828 199.317 131.585 199.655 101.604H195.314Z" fill="#362822"/>
</g>
<path d="M75.0684 109.27V110.138H202.091V109.27H75.0684Z" fill="#1A3447" stroke="#1A3447" stroke-width="1.44103" stroke-miterlimit="10"/>
<path d="M202.062 117.748C202.083 115.885 202.088 114.032 202.092 112.195H75.0957C75.1218 114.03 75.1594 115.881 75.2086 117.748H202.062Z" fill="#1A3447" stroke="#1A3447" stroke-width="1.44103" stroke-miterlimit="10"/>
<path d="M128.964 161.933C128.964 161.933 124.332 164.091 122.495 167.761C120.659 171.431 121.034 178.006 125.249 181.555C129.464 185.104 137.296 188.706 147.746 188.372C158.195 188.039 164.993 180.835 166.069 176.12C167.144 171.405 164.864 166.121 158.714 162.417C152.563 158.713 148.136 159.088 141.879 159.1C135.622 159.111 128.964 161.933 128.964 161.933Z" fill="#362822" stroke="#1A3447" stroke-width="1.44103" stroke-miterlimit="10"/>
<path d="M75.0582 167.176C75.0582 167.176 70.7747 169.967 69.4756 173.868C68.1766 177.769 69.4756 184.215 74.1492 187.124C78.8228 190.033 87.0868 192.502 97.3884 190.711C107.69 188.919 113.397 180.814 113.795 175.993C114.193 171.171 111.193 166.267 104.581 163.468C97.9678 160.669 93.6389 161.665 87.4466 162.563C81.2543 163.46 75.0582 167.176 75.0582 167.176Z" fill="#362822" stroke="#1A3447" stroke-width="1.44103" stroke-miterlimit="10"/>
<path d="M208.15 166.223C208.15 166.223 210.892 167.026 213.013 170.082C214.016 171.565 214.661 173.26 214.898 175.035C215.134 176.809 214.956 178.614 214.377 180.308C213.24 183.509 207.639 189.273 202.454 191.917C197.269 194.56 190.929 194.875 185.824 192.159C180.718 189.443 179.344 183.179 178.938 182.27C178.533 181.361 177.257 175.347 180.453 170.044C183.65 164.742 186.801 161.519 191.903 159.977C197.004 158.436 201.829 159.3 204.257 161.602C206.685 163.905 207.067 166.003 207.067 166.003L208.15 166.223Z" fill="white"/>
<path d="M178.807 174.091L179.746 171.391C179.878 171.099 180.026 170.807 180.185 170.52C179.856 172.034 179.394 174.644 179.534 176.939C179.75 180.424 180.496 181.533 184.631 185.779C188.767 190.025 190.116 189.843 192.115 190.509C194.115 191.176 199.073 190.888 204.182 188.809C207.251 187.548 209.92 185.477 211.904 182.817L214.836 178.503C214.734 179.115 214.581 179.717 214.377 180.302C213.241 183.503 207.64 189.267 202.455 191.911C197.27 194.554 190.93 194.869 185.824 192.153C180.719 189.438 179.344 183.173 178.939 182.264C178.632 181.586 177.845 178.034 178.807 174.091Z" fill="#362822"/>
<path d="M205.453 166.627C205.453 166.627 204.623 166.305 202.158 169.52C199.692 172.736 195.613 174.716 193.564 177.349C191.515 179.981 189.701 182.587 189.02 183.64C188.338 184.692 187.156 185.412 186.588 186.34C186.02 187.268 185.645 188.681 185.304 188.533C184.963 188.385 186.664 185.609 186.615 184.776C186.565 183.943 185.755 182.125 186.134 181.39C186.512 180.655 188.141 179.648 187.917 179.299C187.694 178.951 184.035 177.512 185.679 177.86C187.323 178.208 189.008 179.08 189.444 178.424C189.879 177.769 190.201 176.269 190.201 176.269C190.201 176.269 189.66 176.004 190.493 175.584C191.326 175.163 192.421 173.523 192.421 173.523C192.421 173.523 195.185 170.668 197.034 169.357C198.882 168.047 199.745 167.464 200.696 167.214C201.647 166.964 201.525 167.164 202.408 166.528C203.29 165.892 202.965 165.301 203.707 165.684C204.449 166.066 206.684 165.392 205.453 166.627Z" fill="#362822" stroke="#362822" stroke-width="1.44103" stroke-miterlimit="10"/>
<path d="M206.624 187.709C206.624 187.709 203.098 189.205 200.265 190.254C197.432 191.303 192.077 190.478 190.119 189.841" stroke="#1A3447" stroke-width="1.44103" stroke-miterlimit="10"/>
<path d="M188.392 189.179C188.392 189.179 186.782 188.319 186.369 187.785" stroke="#1A3447" stroke-width="1.44103" stroke-miterlimit="10"/>
<path d="M185.091 186.397C185.091 186.397 182.849 184.284 181.83 182.724C180.812 181.163 179.887 180.686 179.535 176.94C179.183 173.194 180.232 171.486 180.232 171.486" stroke="#1A3447" stroke-width="1.44103" stroke-miterlimit="10"/>
<path d="M208.15 166.223C208.15 166.223 210.892 167.026 213.013 170.082C214.016 171.565 214.661 173.26 214.898 175.035C215.134 176.809 214.956 178.614 214.377 180.308C213.24 183.509 207.639 189.273 202.454 191.917C197.269 194.56 190.929 194.875 185.824 192.159C180.718 189.443 179.344 183.179 178.938 182.27C178.533 181.361 177.257 175.347 180.453 170.044C183.65 164.742 186.801 161.519 191.903 159.977C197.004 158.436 201.829 159.3 204.257 161.602C206.685 163.905 207.067 166.003 207.067 166.003L208.15 166.223Z" stroke="#1A3447" stroke-width="1.44103" stroke-miterlimit="10"/>
<path d="M196.486 188.215C196.445 188.397 196.736 188.616 197.134 188.7C197.532 188.783 197.891 188.7 197.926 188.518C197.96 188.336 197.676 188.116 197.274 188.033C196.873 187.95 196.524 188.029 196.486 188.215Z" stroke="#1A3447" stroke-width="1.44103" stroke-miterlimit="10"/>
<path d="M201.889 162.023C201.927 161.839 201.635 161.621 201.236 161.537C200.837 161.454 200.482 161.535 200.443 161.719C200.404 161.903 200.697 162.121 201.096 162.205C201.495 162.289 201.85 162.207 201.889 162.023Z" stroke="#1A3447" stroke-width="1.44103" stroke-miterlimit="10"/>
<path d="M196.475 160.683C196.392 161.062 196.824 161.493 197.437 161.622C198.051 161.751 198.615 161.539 198.695 161.149C198.774 160.759 198.346 160.338 197.733 160.21C197.119 160.081 196.551 160.293 196.475 160.683Z" stroke="#1A3447" stroke-width="1.44103" stroke-miterlimit="10"/>
<path d="M150.893 151.109C150.893 151.109 145.822 151.764 142.962 154.707C140.103 157.65 138.467 164.028 141.409 168.687C144.352 173.345 150.726 179.17 160.782 182.011C170.837 184.851 179.503 180.049 181.953 175.879C184.403 171.709 183.847 165.99 179.094 160.593C174.34 155.196 170.004 154.215 164.054 152.336C158.104 150.458 150.893 151.109 150.893 151.109Z" fill="white"/>
<path d="M181.949 175.878C183.225 173.681 183.67 171.099 183.203 168.602C181.37 170.333 176.106 173.726 163.081 173.583C153.128 173.469 144.932 166.845 139.94 161.523C139.591 164.008 140.109 166.538 141.406 168.685C144.349 173.344 150.723 179.15 160.778 182.009C170.834 184.869 179.507 180.048 181.949 175.878Z" fill="#362822"/>
<path d="M150.893 151.109C150.893 151.109 145.822 151.764 142.962 154.707C140.103 157.65 138.467 164.028 141.409 168.687C144.352 173.345 150.726 179.17 160.782 182.011C170.837 184.851 179.503 180.049 181.953 175.879C184.403 171.709 183.847 165.99 179.094 160.593C174.34 155.196 170.004 154.215 164.054 152.336C158.104 150.458 150.893 151.109 150.893 151.109Z" stroke="#1A3447" stroke-width="1.44103" stroke-miterlimit="10"/>
<path d="M151.438 153.46C151.438 153.71 151.135 153.915 150.76 153.915C150.385 153.915 150.078 153.71 150.078 153.46C150.078 153.21 150.385 153.006 150.76 153.006C151.135 153.006 151.438 153.21 151.438 153.46Z" stroke="#1A3447" stroke-width="1.44103" stroke-miterlimit="10"/>
<path d="M156.878 155.026C156.878 155.352 156.438 155.617 155.897 155.617C155.355 155.617 154.912 155.352 154.912 155.026C154.912 154.701 155.351 154.436 155.897 154.436C156.442 154.436 156.878 154.697 156.878 155.026Z" stroke="#1A3447" stroke-width="1.44103" stroke-miterlimit="10"/>
<path d="M152.914 156.181C152.914 156.431 152.607 156.636 152.233 156.636C151.858 156.636 151.551 156.431 151.551 156.181C151.551 155.931 151.858 155.73 152.233 155.73C152.607 155.73 152.914 155.931 152.914 156.181Z" stroke="#1A3447" stroke-width="1.44103" stroke-miterlimit="10"/>
<path d="M192.057 186.416C192.057 186.416 190.739 184.954 184.675 182.689C178.612 180.424 171.446 179.473 169.473 179.693C167.5 179.913 166.258 179.473 164.065 180.132C161.872 180.791 160.921 180.935 160.63 181.299C160.338 181.662 159.531 182.397 159.459 182.617C159.387 182.836 156.024 183.567 155.952 189.707C155.88 195.846 159.459 200.156 166.258 203.372C173.056 206.587 176.415 208.269 183.797 208.049C191.178 207.829 194.689 204.031 196.954 200.959C199.219 197.888 198.636 192.703 196.954 190.29C195.817 188.769 194.271 187.602 192.496 186.927L192.057 186.416Z" fill="white"/>
<path d="M197.689 195.334C197.477 198.148 195.579 200.326 193.962 201.451C192.345 202.576 188.145 203.409 187.084 203.488C186.024 203.568 178.718 203.208 175.487 202.648C172.257 202.087 168.882 200.303 166.136 199.201C163.391 198.099 159.88 195.474 157.77 192.384C156.346 190.289 156.365 187.559 156.528 186.006C156.133 187.199 155.937 188.449 155.948 189.706C155.873 195.846 159.456 200.156 166.254 203.371C173.052 206.587 176.411 208.268 183.793 208.049C191.175 207.829 194.685 204.03 196.95 200.959C198.681 198.61 198.745 195.027 197.927 192.391C197.871 193.138 197.795 194.134 197.689 195.334Z" fill="#362822"/>
<path d="M161.212 184.001C161.212 184.001 164.356 186.273 164.867 186.633C165.379 186.993 167.352 187.803 169.033 188.606C170.715 189.409 174.661 190.879 178.899 192.189C183.137 193.499 188.182 195.476 189.061 195.768C189.94 196.06 191.034 196.791 191.178 197.817C191.322 198.843 188.841 201.764 189.864 201.983C190.886 202.203 192.201 200.374 192.42 199.643C192.64 198.912 192.201 198.181 192.86 197.961C193.519 197.741 194.98 198.472 194.98 197.961C194.98 197.45 193.087 196.355 193.087 196.355C191.659 195.427 190.169 194.597 188.629 193.871C186.508 192.92 185.558 193.14 183.001 191.75C180.445 190.36 178.244 188.826 176.051 187.879C174.424 187.238 172.733 186.772 171.007 186.489C170.715 186.417 172.101 187.659 169.836 185.834C167.571 184.008 164.795 184.004 164.064 183.861C163.333 183.717 159.311 182.103 161.212 184.001Z" fill="#362822" stroke="#362822" stroke-width="1.44103" stroke-miterlimit="10"/>
<path d="M156.683 189.191C156.683 189.191 155.952 192.263 160.19 195.251C164.428 198.239 166.329 199.565 168.901 200.296" stroke="#1A3447" stroke-width="1.44103" stroke-miterlimit="10"/>
<path d="M170.275 200.814C173.187 201.985 176.23 202.795 179.339 203.227C184.088 203.81 189.943 203.151 189.943 203.151" stroke="#1A3447" stroke-width="1.44103" stroke-miterlimit="10"/>
<path d="M192.496 202.131C193.365 201.794 194.177 201.327 194.905 200.744C196.101 199.765 196.97 198.444 197.393 196.957" stroke="#1A3447" stroke-width="1.44103" stroke-miterlimit="10"/>
<path d="M192.057 186.416C192.057 186.416 190.739 184.954 184.675 182.689C178.612 180.424 171.446 179.473 169.473 179.693C167.5 179.913 166.258 179.473 164.065 180.132C161.872 180.791 160.921 180.935 160.63 181.299C160.338 181.662 159.531 182.397 159.459 182.617C159.387 182.836 156.024 183.567 155.952 189.707C155.88 195.846 159.459 200.156 166.258 203.372C173.056 206.587 176.415 208.269 183.797 208.049C191.178 207.829 194.689 204.031 196.954 200.959C199.219 197.888 198.636 192.703 196.954 190.29C195.817 188.769 194.271 187.602 192.496 186.927L192.057 186.416Z" stroke="#1A3447" stroke-width="1.44103" stroke-miterlimit="10"/>
<path d="M166.319 196.353C166.788 196.353 167.167 196.099 167.167 195.785C167.167 195.471 166.788 195.217 166.319 195.217C165.851 195.217 165.471 195.471 165.471 195.785C165.471 196.099 165.851 196.353 166.319 196.353Z" stroke="#1A3447" stroke-width="1.44103" stroke-miterlimit="10"/>
<path d="M170.339 198.167C170.339 198.353 170.086 198.508 169.775 198.508C169.465 198.508 169.207 198.353 169.207 198.167C169.207 197.981 169.461 197.826 169.775 197.826C170.089 197.826 170.339 197.978 170.339 198.167Z" stroke="#1A3447" stroke-width="1.44103" stroke-miterlimit="10"/>
<path d="M178.222 197.263C178.442 197.263 178.62 197.161 178.62 197.036C178.62 196.91 178.442 196.809 178.222 196.809C178.002 196.809 177.824 196.91 177.824 197.036C177.824 197.161 178.002 197.263 178.222 197.263Z" stroke="#1A3447" stroke-width="1.44103" stroke-miterlimit="10"/>
<path d="M194.374 189.55C194.374 189.739 194.044 189.891 193.635 189.891C193.226 189.891 192.9 189.739 192.9 189.55C192.9 189.36 193.23 189.209 193.635 189.209C194.04 189.209 194.374 189.36 194.374 189.55Z" stroke="#1A3447" stroke-width="1.44103" stroke-miterlimit="10"/>
<path d="M122.752 175.476C122.585 175.268 122.396 175.077 122.188 174.908C120.757 173.711 114.924 169.326 106.929 169.871C98.7559 170.431 90.0298 173.253 87.6892 178.711C85.3487 184.168 88.1437 191.8 93.0749 194.334C102.331 199.094 108.224 196.519 114.727 194.05C126.127 189.717 126.544 180.252 122.752 175.476Z" fill="white"/>
<path d="M87.3504 182.082C87.3504 182.082 88.7555 185.457 89.5281 186.369C90.3007 187.282 93.6071 189.324 94.3797 189.744C95.1523 190.164 99.4244 191.713 100.311 191.785C101.197 191.857 107.666 190.649 107.666 190.649C107.666 190.649 111.885 190.161 112.869 189.736C113.854 189.312 116.805 188.119 116.805 188.119C117.815 187.596 118.777 186.986 119.679 186.294C120.671 185.449 122.895 183.226 122.895 183.226C122.895 183.226 122.429 187.347 121.304 189.596C120.179 191.846 113.57 194.52 113.082 194.728C112.593 194.936 107.738 196.906 103.731 196.838C99.7236 196.77 95.2811 195.834 93.073 194.319C90.865 192.804 88.2631 189.52 87.7026 187.903C87.1421 186.286 87.3504 182.082 87.3504 182.082Z" fill="#362822"/>
<path d="M90.8248 183.086C90.8248 183.086 94.1993 183.086 95.237 182.393C96.2747 181.7 97.9185 177.47 101.38 176.512C104.842 175.553 108.129 175.731 111.227 174.955C114.325 174.178 116.507 172.963 116.42 174C116.333 175.038 117.287 173.569 116.333 175.042C115.378 176.515 114.776 176.337 108.72 177.981C102.664 179.625 101.191 180.492 98.1646 182.393C95.1385 184.295 95.2219 185.423 93.1464 185.51C91.0709 185.597 88.0411 183.348 88.2986 182.223C88.5561 181.098 90.0446 182.31 90.8248 183.086Z" fill="#362822" stroke="#362822" stroke-width="1.44103" stroke-miterlimit="10"/>
<path d="M88.4004 184.404C88.4004 184.404 89.7866 187.544 91.9794 188.495C94.1723 189.445 96.2932 191.566 100.312 191.786C104.33 192.006 107.913 190.396 109.886 190.104C111.859 189.813 112.537 189.957 113.469 189.445C114.401 188.934 115.15 188.351 115.662 188.055" stroke="#1A3447" stroke-width="1.44103" stroke-miterlimit="10"/>
<path d="M117.268 187.031C117.268 187.031 118.729 187.106 119.68 186.3C120.305 185.754 120.869 185.142 121.362 184.474L122.896 183.232L124.066 181.842" stroke="#1A3447" stroke-width="1.44103" stroke-miterlimit="10"/>
<path d="M122.752 175.476C122.585 175.268 122.396 175.077 122.188 174.908C120.757 173.711 114.924 169.326 106.929 169.871C98.7559 170.431 90.0298 173.253 87.6892 178.711C85.3487 184.168 88.1437 191.8 93.0749 194.334C102.331 199.094 108.224 196.519 114.727 194.05C126.127 189.717 126.544 180.252 122.752 175.476Z" stroke="#1A3447" stroke-width="1.44103" stroke-miterlimit="10"/>
<path d="M109.977 188.748C110.446 188.748 110.826 188.493 110.826 188.179C110.826 187.866 110.446 187.611 109.977 187.611C109.509 187.611 109.129 187.866 109.129 188.179C109.129 188.493 109.509 188.748 109.977 188.748Z" stroke="#1A3447" stroke-width="1.44103" stroke-miterlimit="10"/>
<path d="M99.5476 188.686C99.5476 188.845 99.3582 188.97 99.1234 188.97C98.8886 188.97 98.6992 188.845 98.6992 188.686C98.6992 188.527 98.8886 188.402 99.1234 188.402C99.3582 188.402 99.5476 188.531 99.5476 188.686Z" stroke="#1A3447" stroke-width="1.44103" stroke-miterlimit="10"/>
<path d="M117.063 181.944C117.063 182.103 116.87 182.228 116.635 182.228C116.4 182.228 116.211 182.103 116.211 181.944C116.211 181.785 116.4 181.664 116.635 181.664C116.87 181.664 117.063 181.789 117.063 181.944Z" stroke="#1A3447" stroke-width="1.44103" stroke-miterlimit="10"/>
<path d="M91.0162 179.052C91.0162 179.207 90.8231 179.336 90.5882 179.336C90.3534 179.336 90.1641 179.207 90.1641 179.052C90.1641 178.896 90.3534 178.768 90.5882 178.768C90.8231 178.768 91.0162 178.896 91.0162 179.052Z" stroke="#1A3447" stroke-width="1.44103" stroke-miterlimit="10"/>
<path d="M130.991 181.125C130.991 181.125 128.139 181.344 125.435 183.905C124.15 185.149 123.172 186.674 122.576 188.36C121.98 190.046 121.783 191.848 122 193.623C122.439 196.986 126.753 203.785 131.282 207.439C135.812 211.094 141.955 212.7 147.507 211.09C153.06 209.481 155.696 203.637 156.279 202.834C156.862 202.031 159.347 196.395 157.302 190.555C155.256 184.715 152.844 180.905 148.166 178.348C143.489 175.792 138.592 175.644 135.74 177.398C132.888 179.151 132.085 181.125 132.085 181.125H130.991Z" fill="white"/>
<path d="M158.091 194.856L157.712 192.023C157.642 191.713 157.558 191.398 157.462 191.08C157.462 192.629 157.387 195.277 156.777 197.496C155.853 200.863 154.883 201.795 149.96 205.097C145.036 208.4 143.756 207.949 141.665 208.192C139.575 208.434 134.772 207.135 130.205 204.044C127.469 202.176 125.291 199.6 123.903 196.591L121.941 191.766C121.913 192.385 121.938 193.006 122.017 193.621C122.456 196.985 126.77 203.783 131.299 207.438C135.829 211.093 141.972 212.699 147.524 211.089C153.077 209.479 155.713 203.635 156.296 202.832C156.716 202.23 158.22 198.931 158.091 194.856Z" fill="#362822"/>
<path d="M133.549 182.077C133.549 182.077 134.428 181.933 136.181 185.588C137.935 189.242 141.517 192.026 142.998 195.014C144.479 198.003 145.702 200.934 146.142 202.104C146.581 203.275 147.604 204.222 147.967 205.248C148.331 206.274 148.407 207.733 148.77 207.657C149.134 207.581 148.039 204.517 148.259 203.71C148.479 202.904 149.649 201.302 149.429 200.495C149.21 199.688 147.82 198.378 148.115 198.082C148.41 197.787 152.281 197.135 150.6 197.135C148.918 197.135 147.089 197.647 146.812 196.916C146.536 196.185 146.521 194.643 146.521 194.643C146.521 194.643 147.104 194.499 146.373 193.912C145.642 193.325 144.915 191.504 144.915 191.504C144.915 191.504 142.794 188.14 141.26 186.459C139.726 184.777 138.988 184.046 138.116 183.607C137.245 183.167 137.314 183.391 136.583 182.584C135.852 181.778 136.287 181.27 135.484 181.49C134.681 181.709 132.602 180.615 133.549 182.077Z" fill="#362822" stroke="#362822" stroke-width="1.44103" stroke-miterlimit="10"/>
<path d="M128.07 202.467C128.07 202.467 131.214 204.66 133.751 206.254C136.289 207.849 141.705 208.148 143.765 207.936" stroke="#1A3447" stroke-width="1.44103" stroke-miterlimit="10"/>
<path d="M145.611 207.656C145.611 207.656 147.365 207.145 147.884 206.709" stroke="#1A3447" stroke-width="1.44103" stroke-miterlimit="10"/>
<path d="M149.412 205.609C149.412 205.609 152.063 204.003 153.359 202.685C154.654 201.367 155.699 201.079 156.794 197.496C157.888 193.913 157.233 192.016 157.233 192.016" stroke="#1A3447" stroke-width="1.44103" stroke-miterlimit="10"/>
<path d="M130.991 181.125C130.991 181.125 128.139 181.344 125.435 183.905C124.15 185.149 123.172 186.674 122.576 188.36C121.98 190.046 121.783 191.848 122 193.623C122.439 196.986 126.753 203.785 131.282 207.439C135.812 211.094 141.955 212.7 147.507 211.09C153.06 209.481 155.696 203.637 156.279 202.834C156.862 202.031 159.347 196.395 157.302 190.555C155.256 184.715 152.844 180.905 148.166 178.348C143.489 175.792 138.592 175.644 135.74 177.398C132.888 179.151 132.085 181.125 132.085 181.125H130.991Z" stroke="#1A3447" stroke-width="1.44103" stroke-miterlimit="10"/>
<path d="M137.885 205.044C137.885 205.233 137.556 205.385 137.151 205.385C136.745 205.385 136.412 205.233 136.412 205.044C136.412 204.855 136.742 204.703 137.151 204.703C137.56 204.703 137.885 204.858 137.885 205.044Z" stroke="#1A3447" stroke-width="1.44103" stroke-miterlimit="10"/>
<path d="M139.473 178.292C139.473 178.481 139.144 178.633 138.739 178.633C138.333 178.633 138 178.481 138 178.292C138 178.103 138.33 177.951 138.739 177.951C139.148 177.951 139.473 178.106 139.473 178.292Z" stroke="#1A3447" stroke-width="1.44103" stroke-miterlimit="10"/>
<path d="M143.556 178.106C143.556 178.504 143.048 178.83 142.419 178.83C141.791 178.83 141.283 178.504 141.283 178.106C141.283 177.709 141.791 177.387 142.419 177.387C143.048 177.387 143.556 177.709 143.556 178.106Z" stroke="#1A3447" stroke-width="1.44103" stroke-miterlimit="10"/>
<path d="M88.1994 191.976C88.1994 191.976 89.5136 190.533 95.581 188.261C101.648 185.989 108.81 185.042 110.783 185.261C112.757 185.481 113.999 185.042 116.192 185.701C118.385 186.36 119.335 186.504 119.627 186.871C119.918 187.238 120.721 187.966 120.797 188.185C120.873 188.405 124.232 189.136 124.304 195.275C124.376 201.415 120.805 205.717 113.987 208.933C107.17 212.148 103.83 213.83 96.4483 213.61C89.0667 213.39 85.5824 209.592 83.31 206.52C81.0376 203.448 81.6208 198.26 83.31 195.836C84.4466 194.314 85.9927 193.148 87.7677 192.473L88.1994 191.976Z" fill="white"/>
<path d="M82.551 200.893C82.7593 203.703 84.6568 205.885 86.274 207.01C87.8912 208.134 92.1103 208.975 93.1632 209.047C94.2161 209.119 101.529 208.767 104.764 208.203C107.998 207.638 111.365 205.858 114.115 204.76C116.864 203.662 120.371 201.033 122.481 197.943C123.905 195.852 123.886 193.117 123.723 191.568C124.118 192.76 124.314 194.009 124.303 195.265C124.375 201.404 120.796 205.718 113.997 208.934C107.199 212.149 103.84 213.831 96.4582 213.611C89.0766 213.391 85.5809 209.589 83.3085 206.517C81.5739 204.169 81.5133 200.582 82.3314 197.946C82.3806 198.696 82.4601 199.689 82.551 200.893Z" fill="#362822"/>
<path d="M119.043 189.56L115.389 192.193C114.877 192.571 112.904 193.359 111.222 194.166C109.541 194.972 105.594 196.438 101.353 197.745C97.1108 199.052 92.0737 201.036 91.195 201.328C90.3163 201.619 89.2218 202.35 89.0741 203.373C88.9264 204.396 91.4147 207.319 90.3921 207.539C89.3695 207.759 88.0515 205.933 87.8318 205.202C87.6122 204.471 88.0515 203.74 87.3963 203.521C86.7411 203.301 85.2754 204.032 85.2754 203.521C85.2754 203.009 87.1691 201.911 87.1691 201.911C88.6025 200.983 90.0969 200.153 91.6419 199.426C93.759 198.476 94.7097 198.696 97.2699 197.309C99.8302 195.923 102.019 194.385 104.212 193.435C105.836 192.792 107.525 192.326 109.249 192.045C109.541 191.973 108.151 193.215 110.416 191.386C112.681 189.557 115.461 189.56 116.191 189.413C116.922 189.265 120.941 187.659 119.043 189.56Z" fill="#362822" stroke="#362822" stroke-width="1.44103" stroke-miterlimit="10"/>
<path d="M123.573 194.752C123.573 194.752 124.304 197.824 120.066 200.812C115.828 203.8 113.927 205.122 111.355 205.853" stroke="#1A3447" stroke-width="1.44103" stroke-miterlimit="10"/>
<path d="M109.98 206.373C107.069 207.545 104.025 208.356 100.917 208.786C96.164 209.373 90.3125 208.714 90.3125 208.714" stroke="#1A3447" stroke-width="1.44103" stroke-miterlimit="10"/>
<path d="M87.7603 207.689C86.8897 207.352 86.076 206.883 85.3478 206.299C84.1499 205.322 83.2824 204 82.8633 202.512" stroke="#1A3447" stroke-width="1.44103" stroke-miterlimit="10"/>
<path d="M88.1994 191.976C88.1994 191.976 89.5136 190.533 95.581 188.261C101.648 185.989 108.81 185.042 110.783 185.261C112.757 185.481 113.999 185.042 116.192 185.701C118.385 186.36 119.335 186.504 119.627 186.871C119.918 187.238 120.721 187.966 120.797 188.185C120.873 188.405 124.232 189.136 124.304 195.275C124.376 201.415 120.805 205.717 113.987 208.933C107.17 212.148 103.83 213.83 96.4483 213.61C89.0667 213.39 85.5824 209.592 83.31 206.52C81.0376 203.448 81.6208 198.26 83.31 195.836C84.4466 194.314 85.9927 193.148 87.7677 192.473L88.1994 191.976Z" stroke="#1A3447" stroke-width="1.44103" stroke-miterlimit="10"/>
<path d="M113.938 201.912C114.407 201.912 114.787 201.657 114.787 201.344C114.787 201.03 114.407 200.775 113.938 200.775C113.47 200.775 113.09 201.03 113.09 201.344C113.09 201.657 113.47 201.912 113.938 201.912Z" stroke="#1A3447" stroke-width="1.44103" stroke-miterlimit="10"/>
<path d="M109.912 203.722C109.912 203.911 110.166 204.063 110.48 204.063C110.795 204.063 111.048 203.911 111.048 203.722C111.048 203.532 110.795 203.385 110.48 203.385C110.166 203.385 109.912 203.536 109.912 203.722Z" stroke="#1A3447" stroke-width="1.44103" stroke-miterlimit="10"/>
<path d="M101.637 202.592C101.637 202.717 101.815 202.82 102.034 202.82C102.254 202.82 102.432 202.717 102.432 202.592C102.432 202.467 102.254 202.365 102.034 202.365C101.815 202.365 101.637 202.467 101.637 202.592Z" stroke="#1A3447" stroke-width="1.44103" stroke-miterlimit="10"/>
<path d="M85.8809 195.11C85.8809 195.296 86.2104 195.447 86.6156 195.447C87.0209 195.447 87.3731 195.296 87.3731 195.11C87.3731 194.925 87.0436 194.77 86.6156 194.77C86.1876 194.77 85.8809 194.921 85.8809 195.11Z" stroke="#1A3447" stroke-width="1.44103" stroke-miterlimit="10"/>
</svg>
