<svg width="719" height="719" viewBox="0 0 719 719" fill="none" xmlns="http://www.w3.org/2000/svg">
<path d="M636.391 220.1C636.391 220.1 540.39 105.29 391.701 78.9312C243.012 52.5726 213.835 164.578 163.936 230.453C114.037 296.328 57.6247 320.788 54.7918 415.84C51.959 510.892 90.5981 559.827 164.9 593.706C239.201 627.586 315.472 645.474 389.817 655.814C464.162 666.153 523.436 660.53 552.627 599.358C581.819 538.185 568.632 509.957 602.512 480.78C636.391 451.603 712.619 318.905 636.391 220.1Z" fill="#F0C376"/>
<path opacity="0.7" d="M636.391 220.1C636.391 220.1 540.39 105.29 391.701 78.9312C243.012 52.5726 213.835 164.578 163.936 230.453C114.037 296.328 57.6247 320.788 54.7918 415.84C51.959 510.892 90.5981 559.827 164.9 593.706C239.201 627.586 315.472 645.474 389.817 655.814C464.162 666.153 523.436 660.53 552.627 599.358C581.819 538.185 568.632 509.957 602.512 480.78C636.391 451.603 712.619 318.905 636.391 220.1Z" fill="white"/>
<path d="M656.154 279.048C672.065 274.883 681.587 258.607 677.422 242.696C673.257 226.784 656.981 217.262 641.07 221.428C625.158 225.593 615.636 241.868 619.802 257.78C623.967 273.691 640.243 283.213 656.154 279.048Z" fill="white" stroke="#1A3447" stroke-width="1.438" stroke-linecap="round" stroke-linejoin="round"/>
<path d="M640.87 226.627L647.557 232.969L635.219 230.078" stroke="#1A3447" stroke-width="2.876" stroke-linecap="round" stroke-linejoin="round"/>
<path d="M672.361 242.086L662.842 240.476L672.174 248.226" stroke="#1A3447" stroke-width="2.876" stroke-linecap="round" stroke-linejoin="round"/>
<path d="M630.909 234.652C627.918 247.594 631.901 259.961 641.522 264.678C651.142 269.394 663.379 264.965 671.72 254.712L668.455 252.383C658.04 244.921 646.447 239.258 634.159 235.63L630.909 234.652Z" fill="#1A3447" stroke="#1A3447" stroke-width="1.438" stroke-linecap="round" stroke-linejoin="round"/>
<path d="M658.804 264.593C655.839 260.031 651.684 256.366 646.787 253.994C641.891 251.621 636.439 250.633 631.021 251.134C631.637 254.049 632.912 256.785 634.748 259.131C636.584 261.478 638.932 263.374 641.614 264.673C644.295 265.972 647.238 266.64 650.218 266.626C653.197 266.613 656.134 265.917 658.804 264.593Z" fill="#F0C376" stroke="#1A3447" stroke-width="1.438" stroke-linecap="round" stroke-linejoin="round"/>
<path d="M209.265 63.7312C212.58 58.5289 217.363 54.4264 223.009 51.9424C228.656 49.4584 234.912 48.7044 240.986 49.7758C247.061 50.8472 252.682 53.6959 257.138 57.9616C261.594 62.2274 264.685 67.7186 266.02 73.741C267.355 79.7633 266.875 86.0463 264.639 91.7956C262.403 97.5448 258.513 102.502 253.461 106.041C248.408 109.579 242.419 111.54 236.252 111.675C230.085 111.81 224.016 110.113 218.813 106.799C215.358 104.599 212.37 101.739 210.021 98.3834C207.671 95.0279 206.005 91.2424 205.118 87.243C204.232 83.2437 204.141 79.1088 204.853 75.0746C205.564 71.0404 207.064 67.1859 209.265 63.7312Z" fill="white" stroke="#1A3447" stroke-width="1.438" stroke-linecap="round" stroke-linejoin="round"/>
<path d="M266.273 74.0701L265.582 72.5459C264.947 71.0895 263.819 69.9035 262.396 69.1961C260.974 68.4887 259.347 68.3051 257.803 68.6776" stroke="#1A3447" stroke-width="2.876" stroke-linecap="round" stroke-linejoin="round"/>
<path d="M241.025 63.6878L239.86 62.4942C238.754 61.3596 237.284 60.649 235.708 60.4861C234.131 60.3232 232.548 60.7183 231.232 61.6027" stroke="#1A3447" stroke-width="2.876" stroke-linecap="round" stroke-linejoin="round"/>
<path d="M228.873 68.7053C226.889 71.8114 227.076 75.4495 229.261 76.8444C231.447 78.2393 234.827 76.8444 236.811 73.7671C238.795 70.6898 238.608 67.0229 236.408 65.628C234.208 64.2331 230.843 65.6136 228.873 68.7053Z" fill="#1A3447" stroke="#1A3447" stroke-width="1.438" stroke-linecap="round" stroke-linejoin="round"/>
<path d="M255.205 78.4861C254.745 82.1386 256.484 85.3453 259.059 85.6761C261.633 86.0068 264.092 83.289 264.537 79.6509C264.983 76.0127 263.257 72.7916 260.683 72.4609C258.109 72.1301 255.65 74.8479 255.205 78.4861Z" fill="#1A3447" stroke="#1A3447" stroke-width="1.438" stroke-linecap="round" stroke-linejoin="round"/>
<path d="M238.033 87.3424C237.185 90.5492 238.465 93.6696 240.909 94.3024C243.354 94.9351 245.985 92.8644 246.834 89.6576C247.682 86.4509 246.388 83.3304 243.958 82.6977C241.528 82.065 238.867 84.1357 238.033 87.3424Z" fill="#1A3447" stroke="#1A3447" stroke-width="1.438" stroke-linecap="round" stroke-linejoin="round"/>
<path d="M536.41 546.955C553.632 546.582 567.29 532.319 566.918 515.097C566.545 497.875 552.282 484.216 535.06 484.589C517.838 484.961 504.179 499.225 504.552 516.447C504.925 533.668 519.188 547.327 536.41 546.955Z" fill="white" stroke="#1A3447" stroke-width="1.438" stroke-linecap="round" stroke-linejoin="round"/>
<path d="M515.436 491.883L516.874 491.092C518.269 490.332 519.886 490.086 521.445 490.396C523.003 490.706 524.403 491.553 525.401 492.789" stroke="#1A3447" stroke-width="2.876" stroke-linecap="round" stroke-linejoin="round"/>
<path d="M541.748 499.116L543.402 498.886C544.976 498.664 546.578 499.001 547.929 499.84C549.28 500.678 550.293 501.964 550.793 503.473" stroke="#1A3447" stroke-width="2.876" stroke-linecap="round" stroke-linejoin="round"/>
<path d="M548.291 510.489C547.946 514.156 545.588 516.931 543 516.687C540.411 516.442 538.585 513.293 538.916 509.64C539.246 505.988 541.619 503.198 544.208 503.443C546.796 503.687 548.622 506.865 548.291 510.489Z" fill="#1A3447" stroke="#1A3447" stroke-width="1.438" stroke-linecap="round" stroke-linejoin="round"/>
<path d="M521.473 502.147C519.604 505.296 516.268 506.792 514.039 505.454C511.81 504.117 511.508 500.493 513.392 497.33C515.275 494.166 518.597 492.699 520.826 494.022C523.055 495.345 523.429 498.983 521.473 502.147Z" fill="#1A3447" stroke="#1A3447" stroke-width="1.438" stroke-linecap="round" stroke-linejoin="round"/>
<path d="M529.641 519.666C528.346 522.715 525.427 524.397 523.112 523.419C520.797 522.441 519.977 519.105 521.272 516.114C522.566 513.123 525.485 511.383 527.8 512.361C530.115 513.339 530.935 516.603 529.641 519.666Z" fill="#1A3447" stroke="#1A3447" stroke-width="1.438" stroke-linecap="round" stroke-linejoin="round"/>
<path d="M497.618 120.824C519.371 110.988 529.032 85.3809 519.197 63.6279C509.361 41.8749 483.754 32.214 462.001 42.0495C440.248 51.8851 430.587 77.4927 440.422 99.2457C450.258 120.999 475.865 130.66 497.618 120.824Z" fill="white" stroke="#1A3447" stroke-width="1.438" stroke-linecap="round" stroke-linejoin="round"/>
<path d="M465.652 91.6424L468.687 90.8659C471.568 90.1014 474.628 90.3755 477.328 91.6401C480.028 92.9048 482.197 95.0793 483.455 97.7827" stroke="#1A3447" stroke-width="2.876" stroke-linecap="round" stroke-linejoin="round"/>
<path d="M467.768 70.9788C466.56 74.4587 463.224 76.4719 460.319 75.4653C457.415 74.4587 456.005 70.8206 457.257 67.3406C458.508 63.8607 461.786 61.8475 464.691 62.8541C467.596 63.8607 468.976 67.4988 467.768 70.9788Z" fill="#1A3447" stroke="#1A3447" stroke-width="1.438" stroke-linecap="round" stroke-linejoin="round"/>
<path d="M506.679 84.4534C505.471 87.9477 502.135 89.9609 499.23 88.9543C496.325 87.9477 494.916 84.2952 496.153 80.8152C497.389 77.3353 500.697 75.3221 503.601 76.3287C506.506 77.3353 507.887 80.9734 506.679 84.4534Z" fill="#1A3447" stroke="#1A3447" stroke-width="1.438" stroke-linecap="round" stroke-linejoin="round"/>
<path d="M470.846 57.8502C470.846 57.8502 465.641 51.523 458.939 57.8502" stroke="#1A3447" stroke-width="2.876" stroke-linecap="round" stroke-linejoin="round"/>
<path d="M501.658 68.5188C501.658 68.5188 509.668 66.7789 511.034 75.8814" stroke="#1A3447" stroke-width="2.876" stroke-linecap="round" stroke-linejoin="round"/>
<path d="M151.579 176.214C159.257 159.824 152.194 140.313 135.803 132.635C119.413 124.957 99.9019 132.02 92.2241 148.411C84.5463 164.801 91.6093 184.312 108 191.99C124.39 199.668 143.901 192.605 151.579 176.214Z" fill="white" stroke="#1A3447" stroke-width="1.438" stroke-linecap="round" stroke-linejoin="round"/>
<path d="M105.161 140.591C100.847 137.111 94.5913 137.715 91.8016 141.195C90.8759 142.482 90.3531 144.015 90.2993 145.6C90.2456 147.185 90.6633 148.749 91.4996 150.096C90.0125 149.556 88.3982 149.47 86.862 149.849C85.3257 150.228 83.9368 151.055 82.8716 152.225C80.0819 155.661 80.729 161.946 84.9998 165.425C89.2707 168.905 94.1887 167.741 98.7184 166.979C102.112 166.418 106.052 165.152 109.446 164.591C109.259 160.033 109.633 154.799 109.446 150.211C109.288 146.674 108.511 143.295 105.161 140.591Z" fill="#F0C376" stroke="#1A3447" stroke-width="1.438" stroke-linecap="round" stroke-linejoin="round"/>
<path d="M142.36 134.495C141.928 129.62 137.614 126.011 133.732 126.356C132.363 126.59 131.091 127.216 130.071 128.158C129.05 129.099 128.324 130.317 127.98 131.662C127.396 130.384 126.449 129.305 125.258 128.559C124.067 127.812 122.684 127.431 121.279 127.463C117.367 127.808 113.758 132.122 114.189 136.997C114.621 141.872 118.388 144.273 121.681 146.689C124.126 148.501 127.433 150.241 129.82 152.039C132.61 149.163 136.191 146.114 138.981 143.18C140.169 142.087 141.092 140.735 141.678 139.23C142.263 137.724 142.497 136.105 142.36 134.495Z" fill="#F0C376" stroke="#1A3447" stroke-width="1.438" stroke-linecap="round" stroke-linejoin="round"/>
<path d="M108.887 169.509C117.214 164.369 126.517 161.015 136.209 159.659C136.209 159.659 142.795 174.039 127.581 179.403C112.367 184.767 108.887 169.509 108.887 169.509Z" fill="#1A3447" stroke="#1A3447" stroke-width="1.438" stroke-linecap="round" stroke-linejoin="round"/>
<path d="M130.929 174.646C131.288 175.954 129.016 177.694 125.881 178.528C122.747 179.362 119.899 178.974 119.554 177.666C119.209 176.357 121.481 174.631 124.616 173.797C127.751 172.963 130.584 173.337 130.929 174.646Z" fill="white" stroke="#1A3447" stroke-width="1.438" stroke-linecap="round" stroke-linejoin="round"/>
<path d="M378.539 258.164C414.46 258.164 443.58 229.044 443.58 193.123C443.58 157.202 414.46 128.082 378.539 128.082C342.618 128.082 313.498 157.202 313.498 193.123C313.498 229.044 342.618 258.164 378.539 258.164Z" fill="white" stroke="#1A3447" stroke-width="1.438" stroke-linecap="round" stroke-linejoin="round"/>
<path d="M340.682 154.341L359.894 160.352L332.902 166.549" stroke="#1A3447" stroke-width="2.876" stroke-linecap="round" stroke-linejoin="round"/>
<path d="M417.268 154.341L397.078 160.352L422.804 166.549" stroke="#1A3447" stroke-width="2.876" stroke-linecap="round" stroke-linejoin="round"/>
<path d="M328.857 179.751C335.4 207.907 355.173 228.37 378.54 228.37C401.908 228.37 421.68 207.907 428.223 179.751L419.595 178.313C392.013 173.711 363.855 173.769 336.292 178.486L328.857 179.751Z" fill="#1A3447" stroke="#1A3447" stroke-width="1.438" stroke-linecap="round" stroke-linejoin="round"/>
<path d="M412.406 211.631C403.778 205.879 392.015 202.413 378.943 202.413C365.627 202.413 353.606 206.094 344.992 211.976C354.052 222.142 365.743 228.311 378.541 228.311C391.339 228.311 403.303 222.013 412.406 211.631Z" fill="#F0C376" stroke="#1A3447" stroke-width="1.438" stroke-linecap="round" stroke-linejoin="round"/>
<path d="M578.666 251.845C592.345 217.73 575.779 178.986 541.665 165.306C507.55 151.627 468.805 168.193 455.126 202.307C441.447 236.422 458.013 275.166 492.127 288.846C526.242 302.525 564.986 285.959 578.666 251.845Z" fill="white" stroke="#1A3447" stroke-width="1.438" stroke-linecap="round" stroke-linejoin="round"/>
<path d="M484.504 181.19L487.481 179.234C490.292 177.33 493.686 176.481 497.063 176.839C500.44 177.197 503.581 178.738 505.93 181.19" stroke="#1A3447" stroke-width="2.876" stroke-linecap="round" stroke-linejoin="round"/>
<path d="M541.838 191.469L545.318 190.663C548.619 189.883 552.09 190.288 555.124 191.807C558.157 193.326 560.56 195.864 561.912 198.975" stroke="#1A3447" stroke-width="2.876" stroke-linecap="round" stroke-linejoin="round"/>
<path d="M557.946 214.447C557.946 222.284 553.446 228.64 547.88 228.64C542.315 228.64 537.814 222.284 537.814 214.447C537.814 206.61 542.301 200.254 547.88 200.254C553.46 200.254 557.946 206.61 557.946 214.447Z" fill="#1A3447" stroke="#1A3447" stroke-width="1.438" stroke-linecap="round" stroke-linejoin="round"/>
<path d="M499.36 201.852C495.995 208.927 489.193 212.738 484.189 210.35C479.185 207.963 477.862 200.284 481.313 193.21C484.764 186.135 491.48 182.338 496.484 184.725C501.488 187.112 502.739 194.777 499.36 201.852Z" fill="#1A3447" stroke="#1A3447" stroke-width="1.438" stroke-linecap="round" stroke-linejoin="round"/>
<path d="M520.112 237.485C517.955 244.229 512.074 248.37 506.969 246.731C501.864 245.092 499.491 238.319 501.648 231.575C503.805 224.83 509.687 220.703 514.777 222.328C519.868 223.953 522.269 230.755 520.112 237.485Z" fill="#1A3447" stroke="#1A3447" stroke-width="1.438" stroke-linecap="round" stroke-linejoin="round"/>
<path d="M242.279 285.571C278.923 285.571 308.628 255.865 308.628 219.221C308.628 182.578 278.923 152.872 242.279 152.872C205.635 152.872 175.93 182.578 175.93 219.221C175.93 255.865 205.635 285.571 242.279 285.571Z" fill="white" stroke="#1A3447" stroke-width="1.438" stroke-linecap="round" stroke-linejoin="round"/>
<path d="M225.77 255.778C225.77 257.892 222.966 259.603 219.515 259.603C216.064 259.603 213.26 257.892 213.26 255.778C213.26 253.664 216.064 251.938 219.515 251.938C222.966 251.938 225.77 253.664 225.77 255.778Z" fill="#1A3447" stroke="#1A3447" stroke-width="1.438" stroke-linecap="round" stroke-linejoin="round"/>
<path d="M284.37 255.778C284.37 257.892 281.566 259.603 278.115 259.603C274.663 259.603 271.859 257.892 271.859 255.778C271.859 253.664 274.663 251.938 278.115 251.938C281.566 251.938 284.37 253.664 284.37 255.778Z" fill="#1A3447" stroke="#1A3447" stroke-width="1.438" stroke-linecap="round" stroke-linejoin="round"/>
<path d="M204.396 244.026C205.151 245.416 206.289 246.559 207.675 247.319C209.875 248.412 225.765 251.144 234.537 251.144" stroke="#1A3447" stroke-width="2.876" stroke-linecap="round" stroke-linejoin="round"/>
<path d="M293.655 244.026C292.892 245.414 291.75 246.557 290.362 247.319C288.176 248.412 272.272 251.144 263.5 251.144" stroke="#1A3447" stroke-width="2.876" stroke-linecap="round" stroke-linejoin="round"/>
<path d="M234.397 270.345C239.153 268.146 244.315 266.961 249.554 266.866C261.36 266.564 265.76 270.647 263.934 271.295C257.894 273.38 225.913 274.084 234.397 270.345Z" fill="#1A3447" stroke="#1A3447" stroke-width="1.438" stroke-linecap="round" stroke-linejoin="round"/>
<path d="M237.214 390.558C251.007 356.926 234.925 318.481 201.294 304.688C167.662 290.895 129.217 306.977 115.424 340.608C101.631 374.239 117.713 412.685 151.344 426.478C184.975 440.271 223.42 424.189 237.214 390.558Z" fill="white" stroke="#1A3447" stroke-width="1.438" stroke-linecap="round" stroke-linejoin="round"/>
<path d="M171.266 391.68L173.811 387.654C176.22 383.803 179.907 380.922 184.227 379.516C188.546 378.109 193.222 378.267 197.437 379.961" stroke="#1A3447" stroke-width="2.876" stroke-linecap="round" stroke-linejoin="round"/>
<path d="M148.452 379.315C152.721 377.402 154.321 371.698 152.026 366.574C149.73 361.45 144.409 358.846 140.14 360.758C135.871 362.67 134.271 368.375 136.566 373.499C138.862 378.623 144.183 381.227 148.452 379.315Z" fill="#1A3447" stroke="#1A3447" stroke-width="1.438" stroke-linecap="round" stroke-linejoin="round"/>
<path d="M209.278 340.936C211.579 346.055 209.983 351.764 205.712 353.677C201.441 355.589 196.106 352.986 193.82 347.925C191.533 342.863 193.115 337.097 197.386 335.184C201.657 333.271 206.992 335.802 209.278 340.936Z" fill="#1A3447" stroke="#1A3447" stroke-width="1.438" stroke-linecap="round" stroke-linejoin="round"/>
<path d="M141.776 348.787C141.776 348.787 129.395 347.205 128.547 361.183" stroke="#1A3447" stroke-width="2.876" stroke-linecap="round" stroke-linejoin="round"/>
<path d="M187.102 328.484C187.102 328.484 194.148 318.188 205.163 326.859" stroke="#1A3447" stroke-width="2.876" stroke-linecap="round" stroke-linejoin="round"/>
<path d="M578.129 437.125C611.609 423.03 627.324 384.463 613.23 350.983C599.135 317.503 560.568 301.788 527.088 315.882C493.608 329.977 477.893 368.543 491.987 402.024C506.081 435.504 544.648 451.219 578.129 437.125Z" fill="white" stroke="#1A3447" stroke-width="1.438" stroke-linecap="round" stroke-linejoin="round"/>
<path d="M547.13 321.695C543.521 311.241 532.089 305.69 523.705 308.58C517.838 310.608 514.2 316.504 513.754 323.421C509.124 318.244 502.624 315.857 496.771 317.884C488.373 320.76 482.808 332.192 486.418 342.661C490.142 353.432 499.619 356.336 508.146 359.917C514.516 362.534 522.526 364.576 528.954 367.193C533.455 359.241 539.667 350.699 544.168 342.747C547.763 336.348 549.949 329.863 547.13 321.695Z" fill="#F0C376" stroke="#1A3447" stroke-width="1.438" stroke-linecap="round" stroke-linejoin="round"/>
<path d="M617.076 350.786C621.505 342.028 617.981 331.315 610.95 327.778C606.046 325.29 600.035 326.613 595.347 330.654C595.793 324.499 593.291 318.891 588.387 316.403C581.356 312.851 570.642 316.403 566.199 325.117C561.641 334.148 565.653 341.985 568.687 349.563C570.944 355.243 574.626 361.643 576.898 367.323C584.749 365.281 594.024 363.958 601.89 361.916C608.131 360.248 613.624 357.63 617.076 350.786Z" fill="#F0C376" stroke="#1A3447" stroke-width="1.438" stroke-linecap="round" stroke-linejoin="round"/>
<path d="M522.816 374.932C542.493 375.008 561.939 379.175 579.919 387.169C579.919 387.169 575.849 418.805 544.228 411.615C512.606 404.425 522.816 374.932 522.816 374.932Z" fill="#1A3447" stroke="#1A3447" stroke-width="1.438" stroke-linecap="round" stroke-linejoin="round"/>
<path d="M554.956 407.069C554.165 409.657 548.457 410.218 542.216 408.305C535.975 406.393 531.574 402.74 532.365 400.152C533.156 397.563 538.865 396.988 545.106 398.901C551.347 400.813 555.747 404.466 554.956 407.069Z" fill="#F0C376" stroke="#1A3447" stroke-width="1.438" stroke-linecap="round" stroke-linejoin="round"/>
<path d="M56.3301 431.385L72.0043 581.541" stroke="#1A3447" stroke-width="1.438" stroke-miterlimit="10"/>
<path d="M69.467 552.81L62.3633 545.304" stroke="#1A3447" stroke-width="1.438" stroke-miterlimit="10"/>
<path d="M64.5397 547.546C64.52 546.394 64.253 545.26 63.7568 544.22C63.2606 543.181 62.5468 542.26 61.6637 541.521C59.8374 539.896 50.246 535.855 49.3256 539.234C48.3766 542.915 58.2125 550.134 64.5397 547.546Z" fill="#F0C376" stroke="#1A3447" stroke-width="1.438" stroke-miterlimit="10"/>
<path d="M64.5422 547.547L55.3965 541.853" stroke="#1A3447" stroke-width="0.719" stroke-miterlimit="10"/>
<path d="M71.2561 569.879L64.1523 562.387" stroke="#1A3447" stroke-width="1.438" stroke-miterlimit="10"/>
<path d="M66.3073 564.63C66.2905 563.478 66.0248 562.343 65.5284 561.303C65.032 560.263 64.3166 559.342 63.4313 558.605C61.6051 556.98 52.0136 552.939 51.0933 556.318C50.1586 559.985 59.9945 567.218 66.3073 564.63Z" fill="#F0C376" stroke="#1A3447" stroke-width="1.438" stroke-miterlimit="10"/>
<path d="M66.3051 564.628L57.1738 558.934" stroke="#1A3447" stroke-width="0.719" stroke-miterlimit="10"/>
<path d="M65.1252 511.138L58.0215 503.632" stroke="#1A3447" stroke-width="1.438" stroke-miterlimit="10"/>
<path d="M60.1816 505.872C60.1619 504.72 59.895 503.586 59.3988 502.547C58.9025 501.507 58.1887 500.586 57.3056 499.847C55.4937 498.222 45.8879 494.181 44.982 497.56C44.0329 501.242 53.8544 508.46 60.1816 505.872Z" fill="#F0C376" stroke="#1A3447" stroke-width="1.438" stroke-miterlimit="10"/>
<path d="M60.1762 505.875L51.0449 500.181" stroke="#1A3447" stroke-width="0.719" stroke-miterlimit="10"/>
<path d="M66.9143 528.205L59.8105 520.713" stroke="#1A3447" stroke-width="1.438" stroke-miterlimit="10"/>
<path d="M61.9609 522.957C61.9412 521.805 61.6742 520.671 61.178 519.632C60.6818 518.592 59.968 517.671 59.0849 516.932C57.273 515.307 47.6672 511.266 46.7613 514.645C45.8122 518.327 55.6337 525.545 61.9609 522.957Z" fill="#F0C376" stroke="#1A3447" stroke-width="1.438" stroke-miterlimit="10"/>
<path d="M61.9653 522.958L52.834 517.264" stroke="#1A3447" stroke-width="0.719" stroke-miterlimit="10"/>
<path d="M62.2365 483.395L55.1328 475.889" stroke="#1A3447" stroke-width="1.438" stroke-miterlimit="10"/>
<path d="M57.293 478.134C57.2733 476.982 57.0063 475.848 56.5101 474.808C56.0139 473.769 55.3001 472.848 54.417 472.108C52.5907 470.484 42.9992 466.443 42.0933 469.822C41.1442 473.503 50.9658 480.722 57.293 478.134Z" fill="#F0C376" stroke="#1A3447" stroke-width="1.438" stroke-miterlimit="10"/>
<path d="M57.2844 478.135L48.1387 472.44" stroke="#1A3447" stroke-width="0.719" stroke-miterlimit="10"/>
<path d="M59.331 455.527L52.2129 448.021" stroke="#1A3447" stroke-width="2.876" stroke-miterlimit="10"/>
<path d="M54.3856 450.28C54.3651 449.126 54.0979 447.99 53.6018 446.949C53.1057 445.907 52.3923 444.983 51.5096 444.24C49.6833 442.615 40.0918 438.575 39.1715 441.954C38.2368 445.635 48.0584 452.854 54.3856 450.28Z" fill="#F0C376" stroke="#1A3447" stroke-width="1.438" stroke-miterlimit="10"/>
<path d="M54.3879 450.279L45.2422 444.585" stroke="#1A3447" stroke-width="0.719" stroke-miterlimit="10"/>
<path d="M68.2695 542.7L73.6764 533.885" stroke="#1A3447" stroke-width="2.876" stroke-miterlimit="10"/>
<path d="M72.0437 536.531C71.8076 535.412 71.8138 534.256 72.0618 533.14C72.3099 532.023 72.794 530.973 73.4817 530.06C74.9197 528.09 83.5477 522.151 85.0863 525.271C86.8838 528.665 78.7591 537.811 72.0437 536.531Z" fill="#F0C376" stroke="#1A3447" stroke-width="1.438" stroke-miterlimit="10"/>
<path d="M72.043 536.533L80.2683 528.682" stroke="#1A3447" stroke-width="0.719" stroke-miterlimit="10"/>
<path d="M63.5859 497.762L68.9928 488.947" stroke="#1A3447" stroke-width="1.438" stroke-miterlimit="10"/>
<path d="M67.3447 491.593C67.1235 490.468 67.145 489.309 67.4079 488.193C67.6708 487.077 68.1689 486.03 68.869 485.122C70.307 483.152 78.935 477.213 80.4592 480.334C82.1992 483.727 74.0745 492.816 67.3447 491.593Z" fill="#F0C376" stroke="#1A3447" stroke-width="1.438" stroke-miterlimit="10"/>
<path d="M67.3379 491.596L75.5632 483.73" stroke="#1A3447" stroke-width="0.719" stroke-miterlimit="10"/>
<path d="M61.5352 478.005L66.942 469.204" stroke="#1A3447" stroke-width="1.438" stroke-miterlimit="10"/>
<path d="M65.2903 471.852C65.0688 470.724 65.0902 469.563 65.353 468.445C65.6159 467.326 66.1141 466.277 66.8146 465.366C68.2526 463.396 76.8806 457.472 78.4048 460.592C80.1304 463.986 72.0201 473.103 65.2903 471.852Z" fill="#F0C376" stroke="#1A3447" stroke-width="1.438" stroke-miterlimit="10"/>
<path d="M65.2871 471.851L73.5125 463.985" stroke="#1A3447" stroke-width="0.719" stroke-miterlimit="10"/>
<path d="M58.5117 449.058L63.9042 440.243" stroke="#1A3447" stroke-width="1.438" stroke-miterlimit="10"/>
<path d="M62.2638 442.904C62.0378 441.779 62.057 440.619 62.32 439.502C62.5831 438.385 63.0838 437.338 63.788 436.433C65.226 434.463 73.854 428.524 75.3783 431.644C77.1039 435.024 69.0224 444.112 62.2638 442.904Z" fill="#F0C376" stroke="#1A3447" stroke-width="1.438" stroke-miterlimit="10"/>
<path d="M62.2656 442.888L70.491 435.036" stroke="#1A3447" stroke-width="0.719" stroke-miterlimit="10"/>
<path d="M56.2024 430.549C55.9809 429.422 56.0023 428.26 56.2652 427.142C56.528 426.024 57.0262 424.974 57.7267 424.064C59.1647 422.093 67.7927 416.169 69.3169 419.289C71.0425 422.669 62.9322 431.771 56.2024 430.549Z" fill="#F0C376" stroke="#1A3447" stroke-width="1.438" stroke-miterlimit="10"/>
<path d="M56.1934 430.55L64.4187 422.685" stroke="#1A3447" stroke-width="0.719" stroke-miterlimit="10"/>
<path d="M56.6704 430.883C55.5183 430.997 54.3552 430.86 53.2607 430.483C52.1662 430.106 51.1661 429.497 50.3288 428.697C48.5313 427.043 43.527 417.912 46.7913 416.661C50.4007 415.295 58.5973 424.326 56.6704 430.883Z" fill="#F0C376" stroke="#1A3447" stroke-width="1.438" stroke-miterlimit="10"/>
<path d="M56.6728 430.881L49.7129 421.879" stroke="#1A3447" stroke-width="0.719" stroke-miterlimit="10"/>
<path d="M97.668 452.062L82.0801 602.232" stroke="#1A3447" stroke-width="1.438" stroke-miterlimit="10"/>
<path d="M85.5358 573.589L80.1289 564.788" stroke="#1A3447" stroke-width="1.438" stroke-miterlimit="10"/>
<path d="M81.7674 567.432C81.9927 566.305 81.9732 565.142 81.7102 564.023C81.4472 562.904 80.9469 561.855 80.2432 560.946C78.8052 558.976 70.1772 553.052 68.6529 556.172C66.9273 559.566 75.052 568.654 81.7674 567.432Z" fill="#F0C376" stroke="#1A3447" stroke-width="1.438" stroke-miterlimit="10"/>
<path d="M81.7691 567.436L74.0039 559.973" stroke="#1A3447" stroke-width="0.719" stroke-miterlimit="10"/>
<path d="M89.8444 531.915L84.4375 523.114" stroke="#1A3447" stroke-width="1.438" stroke-miterlimit="10"/>
<path d="M86.094 525.76C86.3155 524.633 86.2941 523.471 86.0312 522.353C85.7684 521.234 85.2701 520.185 84.5697 519.274C83.1317 517.304 74.5037 511.38 72.965 514.5C71.2394 517.894 79.3785 526.982 86.094 525.76Z" fill="#F0C376" stroke="#1A3447" stroke-width="1.438" stroke-miterlimit="10"/>
<path d="M86.0953 525.761L78.3301 518.298" stroke="#1A3447" stroke-width="0.719" stroke-miterlimit="10"/>
<path d="M88.0807 549L82.6738 540.185" stroke="#1A3447" stroke-width="1.438" stroke-miterlimit="10"/>
<path d="M84.3215 542.831C84.5427 541.706 84.5212 540.547 84.2583 539.431C83.9954 538.315 83.4973 537.268 82.7972 536.36C81.3592 534.39 72.7312 528.465 71.1926 531.571C69.467 534.936 77.6492 544.053 84.3215 542.831Z" fill="#F0C376" stroke="#1A3447" stroke-width="1.438" stroke-miterlimit="10"/>
<path d="M84.3238 542.831L76.5586 535.382" stroke="#1A3447" stroke-width="0.719" stroke-miterlimit="10"/>
<path d="M92.737 504.176L87.3301 495.361" stroke="#1A3447" stroke-width="1.438" stroke-miterlimit="10"/>
<path d="M88.9706 498.009C89.1965 496.884 89.1773 495.724 88.9143 494.607C88.6512 493.491 88.1505 492.444 87.4463 491.538C86.0083 489.568 77.3803 483.644 75.856 486.764C74.1304 490.158 82.2551 499.231 88.9706 498.009Z" fill="#F0C376" stroke="#1A3447" stroke-width="1.438" stroke-miterlimit="10"/>
<path d="M88.9703 498.008L81.2051 490.56" stroke="#1A3447" stroke-width="0.719" stroke-miterlimit="10"/>
<path d="M95.6217 476.308L90.2148 467.508" stroke="#1A3447" stroke-width="1.438" stroke-miterlimit="10"/>
<path d="M91.8593 470.224C92.0845 469.097 92.065 467.934 91.802 466.815C91.539 465.696 91.0387 464.647 90.335 463.738C88.897 461.768 80.269 455.844 78.7447 458.964C77.0191 462.286 85.1438 471.374 91.8593 470.224Z" fill="#F0C376" stroke="#1A3447" stroke-width="1.438" stroke-miterlimit="10"/>
<path d="M91.8629 470.152L84.0977 462.688" stroke="#1A3447" stroke-width="0.719" stroke-miterlimit="10"/>
<path d="M86.4375 563.45L93.5412 555.943" stroke="#1A3447" stroke-width="1.438" stroke-miterlimit="10"/>
<path d="M91.3789 558.204C91.3995 557.053 91.6669 555.919 92.1631 554.88C92.6592 553.84 93.3725 552.919 94.2549 552.179C96.0812 550.54 105.673 546.499 106.593 549.878C107.528 553.632 97.778 560.822 91.3789 558.204Z" fill="#F0C376" stroke="#1A3447" stroke-width="1.438" stroke-miterlimit="10"/>
<path d="M91.3789 558.2L101.042 552.189" stroke="#1A3447" stroke-width="0.719" stroke-miterlimit="10"/>
<path d="M91.0996 518.512L98.2033 511.006" stroke="#1A3447" stroke-width="1.438" stroke-miterlimit="10"/>
<path d="M96.0488 513.253C96.0713 512.102 96.3395 510.968 96.8355 509.929C97.3315 508.89 98.0439 507.969 98.9248 507.228C100.751 505.603 110.343 501.562 111.263 504.941C112.169 508.608 102.376 515.841 96.0488 513.253Z" fill="#F0C376" stroke="#1A3447" stroke-width="1.438" stroke-miterlimit="10"/>
<path d="M96.0488 513.248L105.727 507.252" stroke="#1A3447" stroke-width="0.719" stroke-miterlimit="10"/>
<path d="M93.1523 498.77L100.256 491.249" stroke="#1A3447" stroke-width="2.876" stroke-miterlimit="10"/>
<path d="M98.1016 493.507C98.1184 492.355 98.3842 491.22 98.8806 490.18C99.377 489.14 100.092 488.22 100.978 487.482C102.804 485.843 112.395 481.802 113.301 485.181C114.236 488.92 104.429 496.11 98.1016 493.507Z" fill="#F0C376" stroke="#1A3447" stroke-width="1.438" stroke-miterlimit="10"/>
<path d="M98.1016 493.503L107.765 487.507" stroke="#1A3447" stroke-width="0.719" stroke-miterlimit="10"/>
<path d="M96.1602 469.807L103.264 462.301" stroke="#1A3447" stroke-width="1.438" stroke-miterlimit="10"/>
<path d="M101.104 464.544C101.121 463.392 101.387 462.257 101.884 461.217C102.38 460.177 103.095 459.257 103.98 458.519C105.806 456.894 115.397 452.853 116.303 456.232C117.238 459.899 107.431 467.132 101.104 464.544Z" fill="#F0C376" stroke="#1A3447" stroke-width="1.438" stroke-miterlimit="10"/>
<path d="M101.104 464.546L110.767 458.55" stroke="#1A3447" stroke-width="0.719" stroke-miterlimit="10"/>
<path d="M97.7832 451.216C97.8001 450.063 98.0658 448.928 98.5622 447.889C99.0586 446.849 99.7739 445.928 100.659 445.19C102.485 443.566 112.077 439.525 112.983 442.904C113.86 446.571 104.039 453.804 97.7832 451.216Z" fill="#F0C376" stroke="#1A3447" stroke-width="1.438" stroke-miterlimit="10"/>
<path d="M97.7129 451.215L107.376 445.219" stroke="#1A3447" stroke-width="0.719" stroke-miterlimit="10"/>
<path d="M98.1024 451.645C96.9529 451.52 95.8439 451.148 94.8512 450.555C93.8586 449.961 93.0056 449.161 92.3504 448.208C90.9124 446.224 87.907 436.258 91.3582 435.698C95.1833 435.108 101.338 445.62 98.1024 451.645Z" fill="#F0C376" stroke="#1A3447" stroke-width="1.438" stroke-miterlimit="10"/>
<path d="M98.0991 451.648L93.1523 441.409" stroke="#1A3447" stroke-width="0.719" stroke-miterlimit="10"/>
<path d="M79.8086 390.902V580.805" stroke="#1A3447" stroke-width="1.438" stroke-miterlimit="10"/>
<path d="M79.9559 552.263L73.6719 544.052" stroke="#1A3447" stroke-width="1.438" stroke-miterlimit="10"/>
<path d="M75.5803 546.51C75.6782 545.363 75.5285 544.208 75.1415 543.124C74.7545 542.04 74.1391 541.052 73.337 540.226C71.6977 538.414 62.5664 533.41 61.3153 536.674C60.0068 540.226 69.023 548.437 75.5803 546.51Z" fill="#F0C376" stroke="#1A3447" stroke-width="1.438" stroke-miterlimit="10"/>
<path d="M75.5806 546.511L67.082 539.91" stroke="#1A3447" stroke-width="0.719" stroke-miterlimit="10"/>
<path d="M79.9559 516.572L73.6719 508.375" stroke="#1A3447" stroke-width="1.438" stroke-miterlimit="10"/>
<path d="M75.5803 510.835C75.6782 509.688 75.5285 508.533 75.1415 507.449C74.7545 506.365 74.1391 505.376 73.337 504.551C71.6977 502.739 62.5664 497.72 61.3153 500.984C60.0068 504.551 69.023 512.747 75.5803 510.835Z" fill="#F0C376" stroke="#1A3447" stroke-width="1.438" stroke-miterlimit="10"/>
<path d="M75.5806 510.834L67.082 504.22" stroke="#1A3447" stroke-width="1.438" stroke-miterlimit="10"/>
<path d="M79.9559 474.668L73.6719 466.472" stroke="#1A3447" stroke-width="1.438" stroke-miterlimit="10"/>
<path d="M75.5803 468.932C75.6782 467.785 75.5285 466.63 75.1415 465.546C74.7545 464.462 74.1391 463.473 73.337 462.648C71.6977 460.836 62.5664 455.817 61.3153 459.096C60.0068 462.648 69.023 470.844 75.5803 468.932Z" fill="#F0C376" stroke="#1A3447" stroke-width="1.438" stroke-miterlimit="10"/>
<path d="M75.5806 468.929L67.082 462.314" stroke="#1A3447" stroke-width="0.719" stroke-miterlimit="10"/>
<path d="M79.9559 446.783L73.6719 438.572" stroke="#1A3447" stroke-width="1.438" stroke-miterlimit="10"/>
<path d="M75.5803 441.032C75.6782 439.885 75.5285 438.731 75.1415 437.647C74.7545 436.562 74.1391 435.574 73.337 434.748C71.6977 432.936 62.5664 427.932 61.3153 431.196C60.0068 434.748 69.023 442.902 75.5803 441.032Z" fill="#F0C376" stroke="#1A3447" stroke-width="1.438" stroke-miterlimit="10"/>
<path d="M75.5806 441.034L67.082 434.434" stroke="#1A3447" stroke-width="0.719" stroke-miterlimit="10"/>
<path d="M79.9559 418.758L73.6719 410.562" stroke="#1A3447" stroke-width="1.438" stroke-miterlimit="10"/>
<path d="M75.5803 413.022C75.6782 411.875 75.5285 410.72 75.1415 409.636C74.7545 408.552 74.1391 407.563 73.337 406.738C71.6977 404.926 62.5664 399.921 61.3153 403.186C60.0068 406.738 69.023 414.934 75.5803 413.022Z" fill="#F0C376" stroke="#1A3447" stroke-width="1.438" stroke-miterlimit="10"/>
<path d="M75.5806 413.021L67.082 406.421" stroke="#1A3447" stroke-width="1.438" stroke-miterlimit="10"/>
<path d="M79.8242 563.162L86.1083 554.951" stroke="#1A3447" stroke-width="1.438" stroke-miterlimit="10"/>
<path d="M84.1941 557.41C84.0887 556.267 84.2293 555.115 84.6063 554.031C84.9833 552.948 85.5881 551.957 86.3799 551.126C88.0192 549.314 97.1505 544.31 98.4015 547.574C99.7676 551.126 90.7514 559.38 84.1941 557.41Z" fill="#F0C376" stroke="#1A3447" stroke-width="1.438" stroke-miterlimit="10"/>
<path d="M84.1914 557.41L93.1933 550.45" stroke="#1A3447" stroke-width="0.719" stroke-miterlimit="10"/>
<path d="M79.8242 506.39L86.1083 498.193" stroke="#1A3447" stroke-width="1.438" stroke-miterlimit="10"/>
<path d="M84.1941 500.652C84.0887 499.51 84.2293 498.358 84.6063 497.274C84.9833 496.19 85.5881 495.199 86.3799 494.368C88.0192 492.556 97.1505 487.552 98.4015 490.817C99.7676 494.368 90.7514 502.565 84.1941 500.652Z" fill="#F0C376" stroke="#1A3447" stroke-width="1.438" stroke-miterlimit="10"/>
<path d="M84.1914 500.652L93.1933 493.692" stroke="#1A3447" stroke-width="0.719" stroke-miterlimit="10"/>
<path d="M79.8242 478.378L86.1083 470.182" stroke="#1A3447" stroke-width="1.438" stroke-miterlimit="10"/>
<path d="M84.1941 472.643C84.0887 471.5 84.2293 470.348 84.6063 469.264C84.9833 468.18 85.5881 467.189 86.3799 466.359C88.0192 464.547 97.1505 459.542 98.4015 462.807C99.7676 466.359 90.7514 474.541 84.1941 472.643Z" fill="#F0C376" stroke="#1A3447" stroke-width="1.438" stroke-miterlimit="10"/>
<path d="M84.1914 472.64L93.1933 465.68" stroke="#1A3447" stroke-width="0.719" stroke-miterlimit="10"/>
<path d="M79.8242 441.349L86.1083 433.152" stroke="#1A3447" stroke-width="1.438" stroke-miterlimit="10"/>
<path d="M84.1941 435.61C84.0887 434.468 84.2293 433.316 84.6063 432.232C84.9833 431.148 85.5881 430.157 86.3799 429.326C88.0192 427.514 97.1505 422.51 98.4015 425.775C99.7676 429.326 90.7514 437.523 84.1941 435.61Z" fill="#F0C376" stroke="#1A3447" stroke-width="1.438" stroke-miterlimit="10"/>
<path d="M84.1914 435.612L93.1933 428.652" stroke="#1A3447" stroke-width="0.719" stroke-miterlimit="10"/>
<path d="M79.8242 412.247L86.1083 404.051" stroke="#1A3447" stroke-width="1.438" stroke-miterlimit="10"/>
<path d="M84.1941 406.509C84.0887 405.366 84.2293 404.214 84.6063 403.13C84.9833 402.046 85.5881 401.056 86.3799 400.225C88.0192 398.413 97.1505 393.394 98.4015 396.673C99.7676 400.225 90.7514 408.393 84.1941 406.509Z" fill="#F0C376" stroke="#1A3447" stroke-width="1.438" stroke-miterlimit="10"/>
<path d="M84.1914 406.507L93.1933 399.532" stroke="#1A3447" stroke-width="0.719" stroke-miterlimit="10"/>
<path d="M79.448 393.594C79.3427 392.451 79.4832 391.299 79.8602 390.215C80.2372 389.131 80.842 388.141 81.6338 387.31C83.2731 385.498 92.4044 380.479 93.6554 383.758C95.0215 387.31 86.0053 395.449 79.448 393.594Z" fill="#F0C376" stroke="#1A3447" stroke-width="1.438" stroke-miterlimit="10"/>
<path d="M79.4473 393.593L88.4348 386.633" stroke="#1A3447" stroke-width="0.719" stroke-miterlimit="10"/>
<path d="M79.8828 394.01C78.731 393.991 77.597 393.724 76.5575 393.227C75.5179 392.731 74.5972 392.017 73.8576 391.134C72.2326 389.308 68.2062 379.702 71.5855 378.796C75.2668 377.833 82.4712 387.654 79.8828 394.01Z" fill="#F0C376" stroke="#1A3447" stroke-width="1.438" stroke-miterlimit="10"/>
<path d="M79.8805 393.984L73.8984 384.307" stroke="#1A3447" stroke-width="0.719" stroke-miterlimit="10"/>
<path d="M87.6197 630.059H67.5165L65 579.269H90.1362L87.6197 630.059Z" fill="#1A3447" stroke="#1A3447" stroke-width="1.438" stroke-miterlimit="10"/>
<path d="M466.187 316.531C466.187 316.531 359.401 302.151 275.811 317.868L299.969 521.159L439.613 521.619L475.362 322.355C475.362 322.355 471.019 316.531 466.187 316.531Z" fill="white" stroke="#1A3447" stroke-width="1.438" stroke-linecap="round" stroke-linejoin="round"/>
<path d="M312.537 518.918C312.537 518.918 287.89 323.71 283.547 316.98C279.205 310.25 265.673 285.114 249.237 295.885C232.8 306.655 285 519.824 285 519.824L312.537 518.918Z" fill="white" stroke="#1A3447" stroke-width="1.438" stroke-linecap="round" stroke-linejoin="round"/>
<path d="M469.978 436.345C469.978 436.345 494.655 331.371 496.452 314.733C498.25 298.095 482.532 290.503 474.882 294.529C467.232 298.555 465.463 297.232 457.827 342.112C450.192 386.992 440.327 504.118 441.218 506.807C442.11 509.496 447.057 511.293 449.746 511.293C452.435 511.293 469.978 436.345 469.978 436.345Z" fill="white" stroke="#1A3447" stroke-width="1.438" stroke-linecap="round" stroke-linejoin="round"/>
<path d="M282.179 515.781C282.179 515.781 278.138 452.049 270.963 438.129C263.787 424.209 255.26 420.182 237.759 419.737C220.259 419.291 209.474 433.642 213.069 443.521C216.664 453.4 235.516 458.318 238.651 465.508C241.786 472.698 260.221 604.994 260.221 604.994L282.179 515.781Z" fill="white" stroke="#1A3447" stroke-width="1.438" stroke-linecap="round" stroke-linejoin="round"/>
<path d="M276.34 515.781C276.34 515.781 270.588 447.346 265.138 438.56C259.688 429.774 253.231 427.214 239.944 426.927C226.657 426.639 218.503 435.727 221.25 441.954C223.997 448.18 238.276 451.315 240.663 455.859C243.05 460.403 256.999 544.052 256.999 544.052L276.34 515.781Z" fill="white" stroke="#1A3447" stroke-width="1.438" stroke-linecap="round" stroke-linejoin="round"/>
<path d="M432.723 515.781C432.723 515.781 436.763 452.049 443.953 438.129C451.143 424.209 459.656 420.182 477.157 419.737C494.657 419.291 505.428 433.642 501.833 443.521C498.238 453.4 479.4 458.318 476.251 465.508C473.102 472.698 454.681 604.994 454.681 604.994L432.723 515.781Z" fill="white" stroke="#1A3447" stroke-width="1.438" stroke-linecap="round" stroke-linejoin="round"/>
<path d="M438.586 515.781C438.586 515.781 444.338 447.346 449.788 438.56C455.238 429.774 461.709 427.214 474.982 426.927C488.254 426.639 496.437 435.727 493.676 441.954C490.915 448.18 476.664 451.315 474.277 455.859C471.89 460.403 457.927 544.052 457.927 544.052L438.586 515.781Z" fill="white" stroke="#1A3447" stroke-width="1.438" stroke-linecap="round" stroke-linejoin="round"/>
<path d="M420.069 491.551C420.069 491.551 422.241 494.053 418.056 498.813C413.871 503.573 401.965 502.393 401.965 502.393L403.158 469.319C403.158 469.319 419.091 485.77 420.069 491.551Z" fill="#1A3447" stroke="#1A3447" stroke-width="1.438" stroke-linecap="round" stroke-linejoin="round"/>
<path d="M396.718 474.54C396.718 474.54 410.279 481.83 411.185 484.606C412.091 487.381 410.379 499.992 408.639 505.111C406.899 510.231 399.45 514.401 394.403 515.422C389.356 516.443 383.978 514.688 379.592 506.391C375.206 498.094 378.499 466.875 384.05 466.444C389.6 466.012 396.718 474.54 396.718 474.54Z" fill="#F0C376" stroke="#1A3447" stroke-width="1.438" stroke-linecap="round" stroke-linejoin="round"/>
<path d="M383.742 336.779C383.742 336.779 384.835 348.714 386.618 354.898C387.852 358.876 389.844 362.577 392.486 365.798C392.486 365.798 410.259 367.869 417.996 371.708C425.732 375.547 426.465 376.712 428.177 383.73C429.888 390.747 441.349 455.529 438.085 462.748C434.82 469.967 411.855 455.4 411.855 455.4L420.081 491.551C420.081 491.551 413.193 483.613 405.485 479.486C397.777 475.359 351.977 452.035 325.604 446.599C299.231 441.163 288.863 439.61 288.863 439.61C288.863 439.61 300.367 386.088 303.977 377.244C307.586 368.401 311.167 369.479 328.926 367.682C346.685 365.884 350.712 367.552 350.927 364.532C351.143 361.513 348.454 348.642 348.454 348.642C348.454 348.642 347.519 334.234 383.742 336.779Z" fill="white" stroke="#1A3447" stroke-width="1.438" stroke-linecap="round" stroke-linejoin="round"/>
<path d="M403.213 428.869L433.857 415.783C431.456 400.526 428.91 386.764 428.105 383.73C426.394 376.712 425.646 375.562 417.924 371.708C410.202 367.854 392.414 365.798 392.414 365.798C389.773 362.577 387.781 358.876 386.547 354.898C384.778 348.714 383.671 336.779 383.671 336.779C347.448 334.234 348.368 348.642 348.368 348.642C348.368 348.642 351.057 361.585 350.841 364.532C350.626 367.48 346.614 365.899 328.84 367.682C311.066 369.465 307.543 368.401 303.891 377.244C300.238 386.088 288.777 439.61 288.777 439.61C288.777 439.61 299.145 441.163 325.518 446.599C351.891 452.035 397.691 475.359 405.399 479.486C413.107 483.613 419.995 491.551 419.995 491.551L411.769 455.4C411.769 455.4 414.832 457.341 418.959 459.455L403.213 428.869Z" fill="white" stroke="#1A3447" stroke-width="1.438" stroke-linecap="round" stroke-linejoin="round"/>
<path d="M407.154 490.917C407.154 490.917 404.033 464.501 366.991 442.025C329.948 419.549 313.785 409.627 295.091 431.959C276.397 454.292 312.649 496.339 329.761 508.015C346.873 519.692 356.249 515.665 366.933 516.643C377.617 517.621 399.633 518.383 403.832 509.568" fill="#F0C376"/>
<path d="M407.154 490.917C407.154 490.917 404.033 464.501 366.991 442.025C329.948 419.549 313.785 409.627 295.091 431.959C276.397 454.292 312.649 496.339 329.761 508.015C346.873 519.692 356.249 515.665 366.933 516.643C377.617 517.621 399.633 518.383 403.832 509.568" stroke="#1A3447" stroke-width="1.438" stroke-linecap="round" stroke-linejoin="round"/>
<path d="M392.058 335.831C392.058 335.831 396.156 340.677 400.556 344.847C404.957 349.018 414.39 367.855 403.792 377.346C393.194 386.837 381.963 381.876 377.908 356.222C373.853 330.568 390.505 334.192 392.058 335.831Z" fill="#1A3447" stroke="#1A3447" stroke-width="1.438" stroke-linecap="round" stroke-linejoin="round"/>
<path d="M409.025 385.384C409.025 385.384 403.561 408.162 403.273 428.826L444.817 422.355C444.817 422.355 436.879 390.086 431.127 381.689C425.375 373.291 412.117 369.595 410.392 370.587" fill="white"/>
<path d="M409.025 385.384C409.025 385.384 403.561 408.162 403.273 428.826L444.817 422.355C444.817 422.355 436.879 390.086 431.127 381.689C425.375 373.291 412.117 369.595 410.392 370.587" stroke="#1A3447" stroke-width="1.438" stroke-linecap="round" stroke-linejoin="round"/>
<path d="M371.354 383.946C378.256 383.328 386.884 372.227 391.802 365.008C389.485 361.989 387.727 358.58 386.611 354.942C384.842 348.758 383.735 336.823 383.735 336.823C347.512 334.278 348.432 348.686 348.432 348.686C348.432 348.686 351.121 361.628 350.905 364.576C350.876 364.533 361.086 384.823 371.354 383.946Z" fill="white" stroke="#1A3447" stroke-width="1.438" stroke-linecap="round" stroke-linejoin="round"/>
<path d="M384.223 322.111C384.223 322.111 387.516 315.64 391.858 318.516C396.201 321.392 396.934 331.242 392.06 335.772C387.185 340.302 383.432 340.834 383.432 340.834L384.223 322.111Z" fill="white" stroke="#1A3447" stroke-width="1.438" stroke-linecap="round" stroke-linejoin="round"/>
<path d="M332.177 320.215C332.177 320.215 327.446 316.851 325.605 323.336C323.765 329.821 335.671 337.27 335.671 337.27L332.177 320.215Z" fill="white" stroke="#1A3447" stroke-width="1.438" stroke-linecap="round" stroke-linejoin="round"/>
<path d="M337.74 280.883C337.74 280.883 331.398 284.852 329.687 297.42C327.976 309.988 333.569 336.577 336.23 341.725C338.89 346.873 351.055 366.473 359.238 368.428C367.42 370.384 373.157 366.645 376.58 361.095C380.002 355.544 383.77 349.461 385.956 341.337C388.141 333.212 390.27 304.136 386.2 290.618C382.131 277.101 371.734 272.773 359.051 272.715C346.368 272.658 338.113 279.531 337.74 280.883Z" fill="white" stroke="#1A3447" stroke-width="1.438" stroke-linecap="round" stroke-linejoin="round"/>
<path d="M386.147 290.618C382.135 277.101 371.68 272.773 358.997 272.715C346.314 272.658 338.117 279.531 337.744 280.883C337.744 280.883 331.402 284.852 329.691 297.42C329.191 303.003 329.341 308.625 330.137 314.173C332.538 312.303 330.137 317.049 330.137 317.049C330.137 317.049 341.137 321.765 349.938 313.583C355.904 307.848 361.347 301.592 366.202 294.889C366.202 294.889 370.127 313.037 379.144 318.07C388.16 323.103 388.246 319.436 388.246 319.436V319.508C388.692 309.169 388.261 297.665 386.147 290.618Z" fill="#1A3447" stroke="#1A3447" stroke-width="1.438" stroke-linecap="round" stroke-linejoin="round"/>
<path d="M342.242 335.527C343.167 334.403 344.445 333.626 345.869 333.322C347.293 333.019 348.777 333.209 350.079 333.859" stroke="#1A3447" stroke-width="1.438" stroke-linecap="round" stroke-linejoin="round"/>
<path d="M365.801 333.041C365.801 333.041 369.381 329.159 374.846 333.947" stroke="#1A3447" stroke-width="1.438" stroke-linecap="round" stroke-linejoin="round"/>
<path d="M339.668 328.18C339.668 328.18 344.989 323.032 350.64 325.089" stroke="#1A3447" stroke-width="1.438" stroke-linecap="round" stroke-linejoin="round"/>
<path d="M363.885 324.903C363.885 324.903 369.378 321.437 375.044 327.074" stroke="#1A3447" stroke-width="1.438" stroke-linecap="round" stroke-linejoin="round"/>
<path d="M354.971 346.069C355.272 346.915 355.86 347.628 356.632 348.085C357.404 348.542 358.312 348.714 359.198 348.571C362.276 347.953 362.937 346.357 362.937 346.357" stroke="#1A3447" stroke-width="1.438" stroke-linecap="round" stroke-linejoin="round"/>
<path d="M352.525 353.344C352.525 353.344 362.98 357.658 368.343 351.144" stroke="#1A3447" stroke-width="1.438" stroke-linecap="round" stroke-linejoin="round"/>
<path d="M440.031 449.692C441.108 451.729 441.666 454.001 441.656 456.306C441.656 460.361 441.182 465.351 438.967 468.874C436.494 472.843 425.047 474.799 408.769 459.873C392.491 444.946 368.304 419.537 368.304 419.537L361.114 414.892C361.114 414.892 351.22 410.348 347.611 406.782C344.002 403.215 342.822 400.383 344.088 397.981C345.353 395.58 351.738 402.928 354.528 402.583C357.317 402.237 357.404 400.843 356.455 398.571C355.506 396.299 353.018 392.545 350.53 392.646C348.042 392.747 344.404 393.595 342.578 392.085C340.752 390.575 345.051 388.131 347.568 387.771C350.084 387.412 361.445 390.403 361.445 390.403C360.615 389.302 359.648 388.312 358.569 387.455C356.14 386.183 353.381 385.681 350.66 386.017C349.222 386.463 343.469 382.753 345.77 380.984C348.071 379.215 352.558 378.697 354.672 379.949C356.785 381.2 367.614 384.162 367.614 384.162C367.614 384.162 358.827 375.821 355.304 374.757C351.781 373.693 350.99 370.041 354.513 370.285C358.036 370.53 364.45 374.283 367.858 376.727C371.266 379.172 377.392 386.233 377.392 386.233C377.392 386.233 376.313 378.151 377.579 375.764C378.844 373.377 382.109 374.153 382.166 377.202C382.224 380.25 382.425 389.353 382.971 393.25C383.518 397.147 378.657 412.246 378.657 412.246C378.657 412.246 432.007 440.028 436.149 444.342C437.668 445.95 438.973 447.749 440.031 449.692Z" fill="white" stroke="#1A3447" stroke-width="1.438" stroke-linecap="round" stroke-linejoin="round"/>
<path d="M377.512 386.261L374.881 396.269" stroke="#1A3447" stroke-width="1.438" stroke-linecap="round" stroke-linejoin="round"/>
<path d="M367.74 384.19C368.865 385.657 369.512 387.434 369.595 389.281L367.74 384.19Z" fill="white"/>
<path d="M367.74 384.19C368.865 385.657 369.512 387.434 369.595 389.281" stroke="#1A3447" stroke-width="1.438" stroke-linecap="round" stroke-linejoin="round"/>
<path d="M372.438 399.145C372.438 399.145 368.283 403.257 368.556 407.413" stroke="#1A3447" stroke-width="1.438" stroke-linecap="round" stroke-linejoin="round"/>
<path d="M323.55 370.456L332.465 406.248C332.723 407.283 333.33 408.198 334.184 408.837C335.038 409.476 336.087 409.801 337.153 409.756L354.625 408.994C355.306 408.968 355.974 408.791 356.579 408.477C357.184 408.162 357.711 407.717 358.124 407.174C358.536 406.63 358.823 406.003 358.964 405.335C359.105 404.668 359.096 403.978 358.939 403.314L350.469 367.364C350.224 366.309 349.616 365.374 348.751 364.722C347.886 364.07 346.82 363.743 345.738 363.798L327.806 364.704C327.123 364.739 326.455 364.924 325.852 365.248C325.249 365.571 324.725 366.024 324.318 366.574C323.911 367.124 323.631 367.757 323.498 368.429C323.365 369.1 323.383 369.792 323.55 370.456Z" fill="#F0C376" stroke="#1A3447" stroke-width="1.438" stroke-linecap="round" stroke-linejoin="round"/>
<path d="M318.59 416.602C319.908 412.643 320.478 408.474 320.272 404.307C319.942 397.39 322.573 395.089 323.22 389.927C323.867 384.764 321.782 379.616 324.471 379.861C327.16 380.105 328.21 389.495 327.822 391.12C327.623 393.782 327.623 396.454 327.822 399.116C327.822 399.116 337.399 380.422 339.527 377.546C341.655 374.67 344.963 370.758 346.314 371.118C347.666 371.477 345.48 379.056 343.568 382.794C341.655 386.533 336.953 398.612 336.953 398.612C336.953 398.612 348.342 389.481 350.787 386.073C353.231 382.665 353.735 379.372 354.799 380.005C355.863 380.637 356.438 384.319 355.058 388.014C353.677 391.71 344.244 404.638 344.244 404.638C344.244 404.638 352.627 399.159 354.425 397.074C356.222 394.989 356.898 393.392 358.25 393.752C359.602 394.111 359.357 397.692 357.473 400.87C357.473 400.87 358.02 400.683 358.911 403.343C359.803 406.004 354.597 413.093 346.199 419.391C337.802 425.69 332.84 429.213 332.84 429.213L318.59 416.602Z" fill="white" stroke="#1A3447" stroke-width="1.438" stroke-linecap="round" stroke-linejoin="round"/>
<path d="M357.474 400.841L346.775 411.957" stroke="#1A3447" stroke-width="1.438" stroke-linecap="round" stroke-linejoin="round"/>
<path d="M255.462 552.579V630.505C255.462 631.705 255.699 632.894 256.159 634.002C256.618 635.111 257.292 636.118 258.142 636.967C258.991 637.815 259.999 638.487 261.109 638.945C262.218 639.403 263.407 639.638 264.608 639.636H447.823C449.024 639.638 450.213 639.403 451.322 638.945C452.432 638.487 453.44 637.815 454.289 636.967C455.139 636.118 455.813 635.111 456.273 634.002C456.732 632.894 456.969 631.705 456.969 630.505V548.984H254.527L255.462 552.579Z" fill="white" stroke="#1A3447" stroke-width="1.438" stroke-linecap="round" stroke-linejoin="round"/>
<path d="M273.217 509.942C273.217 509.942 361.409 510.848 400.005 508.604C438.601 506.361 463.277 505.455 465.535 516.672C467.793 527.888 468.224 551.184 464.629 557.065C461.034 562.946 295.894 558.417 291.853 559.308C287.813 560.2 255.903 562.903 250.568 554.822C245.233 546.74 244.284 515.78 253.257 508.604C262.231 501.429 273.217 509.942 273.217 509.942Z" fill="white" stroke="#1A3447" stroke-width="1.438" stroke-linecap="round" stroke-linejoin="round"/>
<path d="M229.854 490.644C229.854 490.644 238.956 510.302 239.718 511.179C240.48 512.056 253.394 489.25 253.394 489.25C253.394 489.25 234.398 485.439 229.854 490.644Z" fill="#1A3447" stroke="#1A3447" stroke-width="1.438" stroke-linecap="round" stroke-linejoin="round"/>
<path d="M244.372 495.794C244.372 495.794 212.909 555.37 209.86 559.842C206.811 564.315 158.509 583.828 158.94 589.58C159.372 595.332 175.06 603.399 190.044 602.249C205.028 601.099 222.802 583.296 222.802 583.296L229.992 563.164L271.047 520.556C271.047 520.556 252.252 497.448 244.372 495.794Z" fill="white" stroke="#1A3447" stroke-width="1.438" stroke-linecap="round" stroke-linejoin="round"/>
<path d="M222.802 583.353L224.83 577.687C209.932 589.191 189.182 594.799 189.182 594.799C187.974 591.172 186.468 587.652 184.681 584.273C182.796 581.37 180.298 578.915 177.361 577.083C167.295 582.26 158.754 587.149 158.941 589.608C159.358 595.36 175.061 603.427 190.044 602.277C205.028 601.126 222.802 583.353 222.802 583.353Z" fill="#1A3447" stroke="#1A3447" stroke-width="1.438" stroke-linecap="round" stroke-linejoin="round"/>
<path d="M332.881 429.186C332.881 429.186 316.991 415.669 308.306 413.67C299.62 411.671 290.964 413.296 282.422 424.282C276.83 431.838 272.18 440.048 268.574 448.728L229.748 490.689C236.018 493.366 241.926 496.821 247.335 500.971C257.027 508.262 270.487 524.928 270.487 524.928L306.897 481.414C306.897 481.414 338.662 476.741 338.705 468.199C338.748 459.657 334.19 446.097 334.19 446.097" fill="#F0C376"/>
<path d="M332.881 429.186C332.881 429.186 316.991 415.669 308.306 413.67C299.62 411.671 290.964 413.296 282.422 424.282C276.83 431.838 272.18 440.048 268.574 448.728L229.748 490.689C236.018 493.366 241.926 496.821 247.335 500.971C257.027 508.262 270.487 524.928 270.487 524.928L306.897 481.414C306.897 481.414 338.662 476.741 338.705 468.199C338.748 459.657 334.19 446.097 334.19 446.097" stroke="#1A3447" stroke-width="1.438" stroke-linecap="round" stroke-linejoin="round"/>
<path d="M330.423 566.573C330.423 566.573 330.423 621.994 331.746 626.509C333.069 631.024 352.31 651.415 352.31 651.415C352.31 651.415 366.503 665.364 356.624 668.542C346.745 671.72 339.167 669.793 330.078 661.711C320.99 653.63 316.259 646.411 316.504 638.977C316.748 631.542 317.021 631.571 316.216 627.372C315.411 623.173 294.1 572.886 294.1 572.886C294.1 572.886 321.105 573.763 330.423 566.573Z" fill="white" stroke="#1A3447" stroke-width="1.438" stroke-linecap="round" stroke-linejoin="round"/>
<path d="M338.708 653.239C336.668 654.86 334.786 656.67 333.086 658.646C327.159 652.839 321.634 646.637 316.549 640.081C316.765 647.142 321.467 654.058 330.109 661.737C339.197 669.819 346.79 671.731 356.655 668.568C366.519 665.404 352.312 651.413 352.312 651.413C352.312 651.413 343.396 649.155 338.708 653.239Z" fill="#1A3447" stroke="#1A3447" stroke-width="1.438" stroke-linecap="round" stroke-linejoin="round"/>
<path d="M355.891 506.091C355.891 506.091 338.894 481.17 326.527 476.454C314.16 471.737 278.196 497.333 273.177 509.945C268.158 522.556 282.049 536.763 282.049 536.763L282.409 570.988C282.409 570.988 295.883 579.371 307.804 578.552C319.725 577.732 334.738 571.894 334.738 571.894C334.738 571.894 345.02 543.378 345.221 528.495C345.422 513.612 337.556 496.255 337.556 496.255" fill="#F0C376"/>
<path d="M355.891 506.091C355.891 506.091 338.894 481.17 326.527 476.454C314.16 471.737 278.196 497.333 273.177 509.945C268.158 522.556 282.049 536.763 282.049 536.763L282.409 570.988C282.409 570.988 295.883 579.371 307.804 578.552C319.725 577.732 334.738 571.894 334.738 571.894C334.738 571.894 345.02 543.378 345.221 528.495C345.422 513.612 337.556 496.255 337.556 496.255" stroke="#1A3447" stroke-width="1.438" stroke-linecap="round" stroke-linejoin="round"/>
<path d="M330.154 317.065L330.787 311.716L361.805 291.67" fill="#1A3447"/>
<path d="M330.154 317.065L330.787 311.716L361.805 291.67" stroke="#1A3447" stroke-width="1.438" stroke-linecap="round" stroke-linejoin="round"/>
</svg>
