<svg width="319" height="332" viewBox="0 0 319 332" fill="none" xmlns="http://www.w3.org/2000/svg">
<path d="M237.091 118.624C235.015 132.769 228.284 148.957 215.696 155.827C196.677 166.205 197.646 183.978 161.015 189.489C155.663 190.319 150.233 190.534 144.832 190.128C142.182 189.919 139.549 189.534 136.95 188.975C113.953 184.029 98.9658 166.188 93.942 145.424C87.3223 118.116 102.911 101.428 113.205 91.4272C123.498 81.4261 131.892 48.8662 167.851 43.135C173.349 42.2373 178.937 42.0134 184.49 42.4682C197.18 43.5535 210.887 48.7742 220.152 58.5161C220.85 59.2474 221.526 60.0053 222.182 60.7794C235.03 75.9762 239.922 99.3419 237.091 118.624Z" fill="#F0C376"/>
<path opacity="0.7" d="M237.091 118.624C235.015 132.769 228.284 148.957 215.696 155.827C196.677 166.205 197.646 183.978 161.015 189.489C155.663 190.319 150.233 190.534 144.832 190.128C142.182 189.919 139.549 189.534 136.95 188.975C113.953 184.029 98.9658 166.188 93.942 145.424C87.3223 118.116 102.911 101.428 113.205 91.4272C123.498 81.4261 131.892 48.8662 167.851 43.135C173.349 42.2373 178.937 42.0134 184.49 42.4682C197.18 43.5535 210.887 48.7742 220.152 58.5161C220.85 59.2474 221.526 60.0053 222.182 60.7794C235.03 75.9762 239.922 99.3419 237.091 118.624Z" fill="white"/>
<path d="M171.492 153.322C171.492 153.322 161.902 158.437 157.761 159.125C153.619 159.813 140.122 159.016 129.658 163.574C119.193 168.132 104.532 181.319 101.271 187.002C98.0103 192.684 96.1188 196.768 96.1188 196.768C96.1188 196.768 82.8105 215.691 79.575 227.651C76.3395 239.612 74.5572 255.607 75.2637 259.849C75.9702 264.091 78.1175 273.304 77.7814 276.84C77.4452 280.376 76.032 285.198 77.7489 285.105C79.4658 285.012 86.1163 282.042 86.1163 282.042C86.1163 282.042 100.122 280.663 109.507 277.385C118.893 274.107 130.939 265.503 141.397 246.726C151.854 227.948 159.656 206.27 160.23 201.498C160.804 196.725 161.742 180.767 161.174 176.368C160.607 171.969 159.104 167.204 161.775 163.333C162.876 161.749 170.059 162.268 172.937 157.981C175.815 153.695 172.914 152.944 171.492 153.322Z" fill="#F0C376" stroke="#1A3447" stroke-width="0.747691" stroke-miterlimit="10"/>
<path d="M79.4394 279.038C79.4394 279.038 97.1277 256.652 108.211 235.557C117.457 217.829 127.598 200.582 138.595 183.882C147.091 171.18 156.844 161.776 159.233 160.272" stroke="#1A3447" stroke-width="0.747691" stroke-miterlimit="10"/>
<path d="M159.474 163.467C152.946 169.01 147.077 175.286 141.983 182.17C133.312 193.809 119.502 215.823 115.318 224.159" stroke="#1A3447" stroke-width="0.747691" stroke-miterlimit="10"/>
<path d="M117.584 186.424C126.311 184.79 138.593 183.882 138.593 183.882" stroke="#1A3447" stroke-width="0.747691" stroke-miterlimit="10"/>
<path d="M101.01 192.68C101.01 192.68 105.495 189.37 113.894 187.226C114.476 187.078 115.104 186.933 115.761 186.791" stroke="#1A3447" stroke-width="0.747691" stroke-miterlimit="10"/>
<path d="M135.527 171.077C141.797 170.816 148.005 170.169 149.053 169.545" stroke="#1A3447" stroke-width="0.747691" stroke-miterlimit="10"/>
<path d="M115.518 174.905C115.518 174.905 127.328 171.371 134.046 171.132" stroke="#1A3447" stroke-width="0.747691" stroke-miterlimit="10"/>
<path d="M94.4284 206.957C99.6355 203.894 105.45 202.009 111.463 201.432C121.187 200.588 126.755 199.823 126.755 199.823" stroke="#1A3447" stroke-width="0.747691" stroke-miterlimit="10"/>
<path d="M114.238 216.011C115.281 216.067 116.328 215.992 117.353 215.787" stroke="#1A3447" stroke-width="0.747691" stroke-miterlimit="10"/>
<path d="M84.4962 219.732C84.4962 219.732 90.3315 218.34 98.6015 216.97C103.101 216.323 107.642 216.01 112.187 216.034" stroke="#1A3447" stroke-width="0.747691" stroke-miterlimit="10"/>
<path d="M98.3105 240.341C101.576 239.255 104.134 238.383 104.134 238.383" stroke="#1A3447" stroke-width="0.747691" stroke-miterlimit="10"/>
<path d="M79.4283 241.42C79.4283 241.42 90.8068 242.782 95.3388 241.309L96.2457 241.016" stroke="#1A3447" stroke-width="0.747691" stroke-miterlimit="10"/>
<path d="M81.5202 230.146C81.5202 230.146 96.1092 228.726 101.963 228.258C107.817 227.789 109.805 226.757 109.805 226.757" stroke="#1A3447" stroke-width="0.747691" stroke-miterlimit="10"/>
<path d="M80.0497 252.397C80.0497 252.397 92.5517 253.089 97.0816 251.307" stroke="#1A3447" stroke-width="0.747691" stroke-miterlimit="10"/>
<path d="M77.8303 264.142C77.8303 264.142 87.2954 264.232 89.9663 262.405" stroke="#1A3447" stroke-width="0.747691" stroke-miterlimit="10"/>
<path d="M143.404 181.496C144.68 187.525 146.542 193.414 148.963 199.081C152.819 207.894 152.563 213.563 152.364 216.329" stroke="#1A3447" stroke-width="0.747691" stroke-miterlimit="10"/>
<path d="M140.598 220.248C140.96 221.647 141.282 222.946 141.55 224.095C143.713 233.33 141.608 239.839 141.608 239.839" stroke="#1A3447" stroke-width="0.747691" stroke-miterlimit="10"/>
<path d="M133.503 195.48C133.503 195.48 137.265 207.839 139.874 217.516" stroke="#1A3447" stroke-width="0.747691" stroke-miterlimit="10"/>
<path d="M129.615 254.052C129.627 255.789 129.415 257.519 128.983 259.202" stroke="#1A3447" stroke-width="0.747691" stroke-miterlimit="10"/>
<path d="M122.563 212.596C122.563 212.596 124.041 218.787 127.059 232.991C128.309 238.577 129.147 244.248 129.567 249.957" stroke="#1A3447" stroke-width="0.747691" stroke-miterlimit="10"/>
<path d="M113.207 238.43C113.796 241.001 114.479 244.234 115.189 248.02C116.518 255.252 116.501 262.667 115.141 269.893" stroke="#1A3447" stroke-width="0.747691" stroke-miterlimit="10"/>
<path d="M111.533 231.706C111.533 231.706 111.989 233.284 112.679 236.161" stroke="#1A3447" stroke-width="0.747691" stroke-miterlimit="10"/>
<path d="M103.106 252.011C103.712 255.305 104.571 260.373 105.399 265.382C106.812 273.866 105.881 276.212 105.881 276.212" stroke="#1A3447" stroke-width="0.747691" stroke-miterlimit="10"/>
<path d="M102.436 248.259C102.436 248.259 102.561 248.981 102.781 250.206" stroke="#1A3447" stroke-width="0.747691" stroke-miterlimit="10"/>
<path d="M91.7382 264.144C91.7382 264.144 92.4187 267.48 92.845 272.03C93.2713 276.579 92.9037 278.605 92.9037 278.605" stroke="#1A3447" stroke-width="0.747691" stroke-miterlimit="10"/>
<path d="M98.1792 254.459C98.1792 254.459 98.5561 261.931 99.2021 269.085C99.848 276.239 99.0511 278.113 99.0511 278.113" stroke="#1A3447" stroke-width="0.747691" stroke-miterlimit="10"/>
<path d="M153.665 184.427C158.443 195.331 158.309 200.229 158.309 200.229" stroke="#1A3447" stroke-width="0.747691" stroke-miterlimit="10"/>
<path d="M150.975 171.427C150.975 171.427 149.229 173.185 152.593 181.835" stroke="#1A3447" stroke-width="0.747691" stroke-miterlimit="10"/>
<path d="M164.341 99.9077C164.341 99.9077 167.541 110.299 167.426 114.49C167.31 118.68 163.966 131.768 166.452 142.93C168.937 154.093 179.102 170.962 184.058 175.252C189.015 179.542 192.67 182.162 192.67 182.162C192.67 182.162 208.723 198.844 219.842 204.274C230.962 209.704 246.355 214.523 250.636 214.631C254.918 214.738 264.385 214.387 267.8 215.371C271.214 216.356 275.642 218.708 275.903 216.971C276.163 215.234 274.511 208.146 274.511 208.146C274.511 208.146 275.821 194.132 274.392 184.319C272.963 174.506 266.798 161.022 250.354 147.183C233.91 133.345 214.103 121.57 209.526 120.101C204.948 118.632 189.465 114.68 185.032 114.395C180.6 114.11 175.641 114.686 172.352 111.327C171.003 109.95 172.877 102.993 169.22 99.3487C165.563 95.7041 164.232 98.4357 164.341 99.9077Z" fill="#F0C376" stroke="#1A3447" stroke-width="0.747691" stroke-miterlimit="10"/>
<path d="M270.269 214.173C270.269 214.173 251.653 192.583 233.049 177.666C217.402 165.223 202.398 151.995 188.092 138.032C177.245 127.244 169.857 115.92 168.839 113.305" stroke="#1A3447" stroke-width="0.747691" stroke-miterlimit="10"/>
<path d="M172.018 113.648C176.218 121.11 181.262 128.064 187.051 134.373C196.833 145.1 215.848 162.826 223.205 168.538" stroke="#1A3447" stroke-width="0.747691" stroke-miterlimit="10"/>
<path d="M186.596 159.125C186.626 150.247 188.084 138.014 188.084 138.014" stroke="#1A3447" stroke-width="0.747691" stroke-miterlimit="10"/>
<path d="M189.585 176.595C189.585 176.595 187.188 171.562 186.684 162.914C186.642 162.31 186.622 161.668 186.629 160.987" stroke="#1A3447" stroke-width="0.747691" stroke-miterlimit="10"/>
<path d="M174.938 138.585C175.87 132.391 176.426 126.159 175.973 125.035" stroke="#1A3447" stroke-width="0.747691" stroke-miterlimit="10"/>
<path d="M174.888 158.956C174.888 158.956 173.64 146.709 174.705 140.056" stroke="#1A3447" stroke-width="0.747691" stroke-miterlimit="10"/>
<path d="M202.344 185.762C200.328 180.067 199.583 174 200.16 167.987C201.183 158.275 201.491 152.664 201.491 152.664" stroke="#1A3447" stroke-width="0.747691" stroke-miterlimit="10"/>
<path d="M215.001 168.033C215.256 167.019 215.382 165.976 215.374 164.93" stroke="#1A3447" stroke-width="0.747691" stroke-miterlimit="10"/>
<path d="M213.008 197.939C213.008 197.939 212.755 191.94 212.987 183.559C213.207 179.019 213.763 174.502 214.65 170.044" stroke="#1A3447" stroke-width="0.747691" stroke-miterlimit="10"/>
<path d="M235.849 188.268C235.405 184.837 235.037 182.17 235.037 182.17" stroke="#1A3447" stroke-width="0.747691" stroke-miterlimit="10"/>
<path d="M233.335 207.035C233.335 207.035 236.831 196.132 236.259 191.417C236.218 191.101 236.177 190.786 236.143 190.467" stroke="#1A3447" stroke-width="0.747691" stroke-miterlimit="10"/>
<path d="M222.658 202.842C222.658 202.842 224.041 188.257 224.687 182.408C225.332 176.56 224.715 174.455 224.715 174.455" stroke="#1A3447" stroke-width="0.747691" stroke-miterlimit="10"/>
<path d="M244.228 208.513C244.228 208.513 247.277 196.375 246.398 191.582" stroke="#1A3447" stroke-width="0.747691" stroke-miterlimit="10"/>
<path d="M255.333 212.903C255.333 212.903 257.217 203.624 255.929 200.663" stroke="#1A3447" stroke-width="0.747691" stroke-miterlimit="10"/>
<path d="M186.64 132.84C192.802 132.736 198.939 132.028 204.962 130.725C214.343 128.618 219.86 129.946 222.533 130.666" stroke="#1A3447" stroke-width="0.747691" stroke-miterlimit="10"/>
<path d="M224.169 142.96C225.612 142.869 226.955 142.797 228.127 142.75C237.577 142.391 243.593 145.691 243.593 145.691" stroke="#1A3447" stroke-width="0.747691" stroke-miterlimit="10"/>
<path d="M198.501 145.213C198.501 145.213 211.353 143.873 221.349 143.149" stroke="#1A3447" stroke-width="0.747691" stroke-miterlimit="10"/>
<path d="M255.266 160.14C256.977 160.46 258.638 161.004 260.207 161.758" stroke="#1A3447" stroke-width="0.747691" stroke-miterlimit="10"/>
<path d="M213.224 159.211C213.224 159.211 219.607 158.926 234.111 158.674C239.835 158.509 245.563 158.77 251.248 159.455" stroke="#1A3447" stroke-width="0.747691" stroke-miterlimit="10"/>
<path d="M236.818 173.301C239.448 173.216 242.751 173.155 246.61 173.18C253.96 173.249 261.235 174.673 268.07 177.38" stroke="#1A3447" stroke-width="0.747691" stroke-miterlimit="10"/>
<path d="M229.895 173.674C229.895 173.674 231.532 173.527 234.49 173.396" stroke="#1A3447" stroke-width="0.747691" stroke-miterlimit="10"/>
<path d="M248.227 185.805C251.597 185.89 256.732 185.986 261.8 186.109C270.397 186.34 272.544 187.69 272.544 187.69" stroke="#1A3447" stroke-width="0.747691" stroke-miterlimit="10"/>
<path d="M244.421 185.75L246.396 185.777" stroke="#1A3447" stroke-width="0.747691" stroke-miterlimit="10"/>
<path d="M257.98 199.266C257.98 199.266 261.374 199.234 265.933 199.67C270.491 200.107 272.398 200.861 272.398 200.861" stroke="#1A3447" stroke-width="0.747691" stroke-miterlimit="10"/>
<path d="M249.699 191.103C249.699 191.103 257.104 192.154 264.253 192.874C271.403 193.595 273.086 194.743 273.086 194.743" stroke="#1A3447" stroke-width="0.747691" stroke-miterlimit="10"/>
<path d="M191.486 123.32C203.099 120.696 207.882 121.764 207.882 121.764" stroke="#1A3447" stroke-width="0.747691" stroke-miterlimit="10"/>
<path d="M178.211 123.497C178.211 123.497 179.605 125.541 188.74 123.88" stroke="#1A3447" stroke-width="0.747691" stroke-miterlimit="10"/>
<path d="M214.178 89.9563C214.178 89.9563 217.468 91.6638 219.404 96.0847C220.31 98.2231 220.708 100.542 220.566 102.861C220.423 105.179 219.745 107.432 218.585 109.443C216.338 113.234 207.767 119.172 200.505 121.242C193.244 123.311 185.095 122.127 179.274 117.394C173.453 112.661 173.268 104.343 172.98 103.084C172.691 101.826 172.569 93.8505 177.964 87.8993C183.358 81.9481 188.175 78.6326 195.055 77.9452C201.935 77.2578 207.861 79.5629 210.376 83.1011C212.891 86.6393 212.854 89.406 212.854 89.406L214.178 89.9563Z" fill="white"/>
<path d="M174.85 92.6408L176.721 89.4378C176.963 89.0997 177.224 88.7654 177.498 88.4387C176.7 90.2849 175.46 93.4915 175.064 96.4483C174.468 100.938 175.141 102.537 179.345 108.976C183.549 115.414 185.311 115.52 187.69 116.868C190.069 118.216 196.452 119.089 203.476 117.719C207.699 116.88 211.614 114.911 214.804 112.021L219.614 107.262C219.332 108.015 218.987 108.743 218.581 109.438C216.335 113.228 207.764 119.166 200.502 121.236C193.241 123.305 185.091 122.121 179.271 117.388C173.45 112.655 173.265 104.337 172.977 103.079C172.756 102.139 172.64 97.4195 174.85 92.6408Z" fill="#362822"/>
<path d="M210.639 89.7967C210.639 89.7967 209.663 89.1795 205.721 92.6568C201.779 96.134 196.091 97.6363 192.825 100.475C189.558 103.314 186.598 106.178 185.467 107.348C184.336 108.518 182.651 109.139 181.696 110.178C180.741 111.217 179.911 112.922 179.514 112.649C179.117 112.375 181.975 109.266 182.121 108.193C182.267 107.12 181.689 104.603 182.355 103.763C183.021 102.922 185.346 102.046 185.148 101.547C184.951 101.048 180.653 98.301 182.658 99.1554C184.664 100.01 186.592 101.54 187.31 100.815C188.028 100.089 188.813 98.2605 188.813 98.2605C188.813 98.2605 188.19 97.7876 189.355 97.4607C190.521 97.1337 192.324 95.3196 192.324 95.3196C192.324 95.3196 196.558 92.3752 199.238 91.1688C201.918 89.9625 203.164 89.4358 204.436 89.3552C205.709 89.2745 205.504 89.4998 206.787 88.9103C208.069 88.3208 207.802 87.4873 208.652 88.1598C209.501 88.8323 212.514 88.5325 210.639 89.7967Z" fill="#362822" stroke="#362822" stroke-width="0.548653" stroke-miterlimit="10"/>
<path d="M206.859 116.931C206.859 116.931 201.997 117.954 198.128 118.581C194.259 119.209 187.648 116.82 185.314 115.52" stroke="#1A3447" stroke-width="0.548653" stroke-miterlimit="10"/>
<path d="M183.277 114.245C183.277 114.245 181.442 112.748 181.05 111.965" stroke="#1A3447" stroke-width="0.548653" stroke-miterlimit="10"/>
<path d="M179.776 109.876C179.776 109.876 177.45 106.625 176.543 104.384C175.636 102.143 174.579 101.305 175.067 96.4483C175.554 91.5918 177.317 89.6795 177.317 89.6795" stroke="#1A3447" stroke-width="0.548653" stroke-miterlimit="10"/>
<path d="M214.178 89.9563C214.178 89.9563 217.468 91.6638 219.404 96.0847C220.31 98.2231 220.708 100.542 220.566 102.861C220.423 105.179 219.745 107.432 218.585 109.443C216.338 113.234 207.767 119.172 200.505 121.242C193.244 123.311 185.095 122.127 179.274 117.394C173.453 112.661 173.268 104.343 172.98 103.084C172.691 101.826 172.569 93.8505 177.964 87.8993C183.358 81.9481 188.175 78.6326 195.055 77.9452C201.935 77.2578 207.861 79.5629 210.376 83.1011C212.891 86.6393 212.854 89.406 212.854 89.406L214.178 89.9563Z" stroke="#1A3447" stroke-width="0.548653" stroke-miterlimit="10"/>
<path d="M193.834 115.039C193.735 115.26 194.052 115.613 194.537 115.818C195.023 116.024 195.501 116.007 195.59 115.784C195.679 115.562 195.372 115.211 194.882 115.005C194.392 114.798 193.928 114.812 193.834 115.039Z" stroke="#1A3447" stroke-width="0.548653" stroke-miterlimit="10"/>
<path d="M207.251 83.045C207.346 82.8201 207.029 82.4704 206.541 82.2639C206.054 82.0573 205.582 82.0721 205.487 82.297C205.391 82.5218 205.709 82.8716 206.196 83.0781C206.683 83.2847 207.156 83.2698 207.251 83.045Z" stroke="#1A3447" stroke-width="0.548653" stroke-miterlimit="10"/>
<path d="M200.695 79.9891C200.495 80.4505 200.937 81.108 201.685 81.4253C202.434 81.7426 203.206 81.6136 203.404 81.1368C203.603 80.6601 203.163 80.018 202.415 79.7007C201.666 79.3834 200.889 79.5115 200.695 79.9891Z" stroke="#1A3447" stroke-width="0.548653" stroke-miterlimit="10"/>
<path d="M137.577 152.741C137.577 152.741 135.404 149.115 123.562 141.833C111.72 134.551 97.0113 129.583 92.7618 129.23C88.5123 128.876 86.0761 127.436 81.1819 127.918C76.2877 128.4 74.2247 128.31 73.4597 128.955C72.6946 129.601 70.6905 130.816 70.448 131.249C70.2054 131.682 62.8151 131.831 60.1234 144.74C57.4317 157.649 63.1915 168.213 76.1886 177.802C89.1858 187.391 95.57 192.325 111.218 194.916C126.865 197.507 135.836 190.954 141.88 185.418C147.924 179.881 148.84 168.713 146.294 162.933C144.528 159.256 141.752 156.158 138.291 154.001L137.577 152.741Z" fill="white"/>
<path d="M145.754 173.869C144.142 179.711 139.243 183.516 135.369 185.218C131.495 186.919 122.299 186.937 120.031 186.666C117.763 186.395 102.515 182.614 95.9381 180.096C89.3614 177.578 82.9876 172.423 77.6567 168.964C72.3258 165.505 66.0125 158.521 62.8452 151.135C60.7105 146.132 61.8802 140.385 62.8659 137.18C61.5403 139.531 60.6106 142.085 60.1137 144.738C57.4141 157.646 63.1818 168.211 76.1789 177.801C89.1761 187.39 95.5603 192.324 111.208 194.915C126.855 197.506 135.826 190.953 141.87 185.416C146.49 181.184 148.108 173.659 147.474 167.765C147.046 169.314 146.474 171.382 145.754 173.869Z" fill="#362822"/>
<path d="M73.5703 134.896C73.5703 134.896 79.2551 140.986 80.1838 141.955C81.1125 142.925 84.9358 145.45 88.1475 147.838C91.3593 150.226 99.0685 154.955 107.458 159.47C115.848 163.986 125.662 170.239 127.393 171.217C129.124 172.196 131.128 174.189 131.007 176.412C130.886 178.634 124.449 183.762 126.514 184.648C128.578 185.534 132.104 182.222 132.87 180.773C133.635 179.323 133.012 177.601 134.491 177.411C135.971 177.22 138.75 179.366 138.961 178.288C139.173 177.211 135.635 174.12 135.635 174.12C133.009 171.574 130.213 169.209 127.268 167.04C123.191 164.159 121.097 164.229 116.284 160.242C111.472 156.255 107.469 152.111 103.239 149.209C100.074 147.185 96.7026 145.503 93.182 144.192C92.5972 143.92 95.0046 147.111 90.9867 142.327C86.9688 137.543 81.1196 136.386 79.6387 135.781C78.1577 135.175 70.3485 130.11 73.5703 134.896Z" fill="#362822" stroke="#362822" stroke-width="0.908291" stroke-miterlimit="10"/>
<path d="M61.8763 143.956C61.8763 143.956 59.065 150.127 66.7604 158.178C74.4558 166.23 77.9143 169.81 83.0316 172.414" stroke="#1A3447" stroke-width="0.908291" stroke-miterlimit="10"/>
<path d="M85.7144 174.077C91.3663 177.748 97.4455 180.715 103.817 182.911C113.585 186.105 126.198 187.139 126.198 187.139" stroke="#1A3447" stroke-width="0.908291" stroke-miterlimit="10"/>
<path d="M132 186.039C133.97 185.69 135.876 185.041 137.65 184.114C140.576 182.546 142.953 180.12 144.461 177.162" stroke="#1A3447" stroke-width="0.908291" stroke-miterlimit="10"/>
<path d="M137.577 152.741C137.577 152.741 135.404 149.115 123.562 141.833C111.72 134.551 97.0113 129.583 92.7618 129.23C88.5124 128.876 86.0761 127.436 81.1819 127.918C76.2877 128.4 74.2247 128.31 73.4597 128.955C72.6946 129.601 70.6905 130.816 70.448 131.249C70.2054 131.682 62.8151 131.831 60.1234 144.74C57.4317 157.649 63.1915 168.213 76.1886 177.802C89.1858 187.391 95.57 192.325 111.218 194.916C126.865 197.507 135.836 190.954 141.88 185.418C147.924 179.881 148.84 168.713 146.294 162.933C144.528 159.256 141.752 156.158 138.291 154.001L137.577 152.741Z" stroke="#1A3447" stroke-width="0.908291" stroke-miterlimit="10"/>
<path d="M79.2178 163.037C80.2053 163.23 81.111 162.852 81.2408 162.19C81.3706 161.529 80.6754 160.836 79.6879 160.642C78.7005 160.448 77.7947 160.827 77.6649 161.488C77.5351 162.15 78.2304 162.843 79.2178 163.037Z" stroke="#1A3447" stroke-width="0.908291" stroke-miterlimit="10"/>
<path d="M86.9463 168.524C86.8695 168.915 86.2705 169.137 85.616 169.009C84.9615 168.88 84.4829 168.446 84.5597 168.055C84.6365 167.664 85.2355 167.442 85.898 167.572C86.5605 167.702 87.0247 168.125 86.9463 168.524Z" stroke="#1A3447" stroke-width="0.908291" stroke-miterlimit="10"/>
<path d="M103.929 169.876C104.392 169.967 104.809 169.826 104.861 169.562C104.913 169.297 104.58 169.009 104.117 168.918C103.654 168.828 103.237 168.968 103.185 169.233C103.133 169.497 103.466 169.785 103.929 169.876Z" stroke="#1A3447" stroke-width="0.908291" stroke-miterlimit="10"/>
<path d="M141.165 160.308C141.086 160.707 140.329 160.89 139.467 160.721C138.605 160.552 137.981 160.098 138.06 159.699C138.138 159.3 138.895 159.117 139.749 159.284C140.603 159.452 141.243 159.909 141.165 160.308Z" stroke="#1A3447" stroke-width="0.908291" stroke-miterlimit="10"/>
</svg>
