<svg width="629" height="629" viewBox="0 0 629 629" fill="none" xmlns="http://www.w3.org/2000/svg">
<path d="M567.748 148.595C565.672 145.148 563.521 141.764 561.282 138.455C531.329 94.4504 481.474 64.3213 433.029 50.6846C411.806 44.6965 390.005 41.5641 368.254 40.7715C225.559 35.5886 173.139 153.237 127.159 183.58C81.1788 213.91 10.6302 265.727 19.4865 374.582C26.2042 457.346 73.2786 536.474 159.263 572.478C168.736 576.453 178.686 579.913 189.103 582.781C208.488 588.115 229.484 591.461 252.128 592.467C317.142 595.361 369.928 579.699 421.556 540.235C433.557 531.064 445.496 520.711 461.07 519.579C472.392 518.761 483.122 522.825 471.285 533.769C457.371 546.626 473.423 571.924 508.735 554.35C567.698 525.001 591.965 461.686 603.387 397.301C617.414 318.274 610.621 219.986 567.748 148.62V148.595Z" fill="#F0C376"/>
<path opacity="0.7" d="M567.748 148.595C565.672 145.148 563.521 141.764 561.282 138.455C531.329 94.4504 481.474 64.3213 433.029 50.6846C411.806 44.6965 390.005 41.5641 368.254 40.7715C225.559 35.5886 173.139 153.237 127.159 183.58C81.1788 213.91 10.6302 265.727 19.4865 374.582C26.2042 457.346 73.2786 536.474 159.263 572.478C168.736 576.453 178.686 579.913 189.103 582.781C208.488 588.115 229.484 591.461 252.128 592.467C317.142 595.361 369.928 579.699 421.556 540.235C433.557 531.064 445.496 520.711 461.07 519.579C472.392 518.761 483.122 522.825 471.285 533.769C457.371 546.626 473.423 571.924 508.735 554.35C567.698 525.001 591.965 461.686 603.387 397.301C617.414 318.274 610.621 219.986 567.748 148.62V148.595Z" fill="white"/>
<g opacity="0.3">
<path d="M149.338 53.251H39.0742V212.048H149.338V53.251Z" stroke="#362822" stroke-linecap="round" stroke-linejoin="round"/>
<path d="M112.743 105.974H75.6953V159.325H112.743V105.974Z" stroke="#362822" stroke-linecap="round" stroke-linejoin="round"/>
</g>
<g opacity="0.3">
<path d="M529.693 63.6172H463.309V138.481H529.693V63.6172Z" stroke="#362822" stroke-linecap="round" stroke-linejoin="round"/>
<path d="M507.654 88.4756H485.35V113.636H507.654V88.4756Z" stroke="#362822" stroke-linecap="round" stroke-linejoin="round"/>
</g>
<g opacity="0.3">
<path d="M56.3828 487.966H437.834V240.441H558.023V570.478" stroke="#362822" stroke-linecap="round" stroke-linejoin="round"/>
<path d="M551.431 245.386H444.174V322.124H551.431V245.386Z" stroke="#362822" stroke-linecap="round" stroke-linejoin="round"/>
<path d="M551.431 328.729H444.174V405.467H551.431V328.729Z" stroke="#362822" stroke-linecap="round" stroke-linejoin="round"/>
<path d="M551.431 412.059H444.174V488.797H551.431V412.059Z" stroke="#362822" stroke-linecap="round" stroke-linejoin="round"/>
<path d="M512.886 252.367H495.123V322.048H512.886V252.367Z" stroke="#362822" stroke-linecap="round" stroke-linejoin="round"/>
<path d="M512.886 419.367H495.123V489.048H512.886V419.367Z" stroke="#362822" stroke-linecap="round" stroke-linejoin="round"/>
<path d="M530.409 419.367H512.646V489.048H530.409V419.367Z" stroke="#362822" stroke-linecap="round" stroke-linejoin="round"/>
<path d="M547.933 419.367H530.17V489.048H547.933V419.367Z" stroke="#362822" stroke-linecap="round" stroke-linejoin="round"/>
<path d="M494.396 254.135L477.186 249.491L458.974 316.985L476.185 321.628L494.396 254.135Z" stroke="#362822" stroke-linecap="round" stroke-linejoin="round"/>
<path d="M463.102 488.239L480.312 483.596L462.101 416.102L444.891 420.746L463.102 488.239Z" stroke="#362822" stroke-linecap="round" stroke-linejoin="round"/>
<path d="M531.353 252.367H513.59V322.048H531.353V252.367Z" stroke="#362822" stroke-linecap="round" stroke-linejoin="round"/>
<path d="M549.822 252.367H532.059V322.048H549.822V252.367Z" stroke="#362822" stroke-linecap="round" stroke-linejoin="round"/>
<path d="M549.493 394.585C549.493 400.547 544.65 405.403 538.687 405.403H465.975C464.931 405.403 464.088 404.548 464.088 403.516C464.088 402.485 464.931 401.629 465.975 401.629H538.687C542.562 401.629 545.719 398.472 545.719 394.585C545.719 390.697 542.562 387.552 538.687 387.552H465.975C464.931 387.552 464.088 386.709 464.088 385.665C464.088 384.621 464.931 383.778 465.975 383.778H538.687C544.65 383.778 549.493 388.622 549.493 394.585Z" stroke="#362822" stroke-linecap="round" stroke-linejoin="round"/>
<path d="M518.672 391.251V397.831C518.672 399.302 518.106 400.636 517.187 401.63H467.949C468.868 400.636 469.434 399.302 469.434 397.831V391.251C469.434 389.83 468.905 388.534 468.025 387.553H517.263C518.143 388.534 518.672 389.83 518.672 391.251Z" stroke="#362822" stroke-linecap="round" stroke-linejoin="round"/>
<path d="M545.719 394.585C545.719 398.472 542.561 401.63 538.687 401.63H517.188C518.106 400.636 518.672 399.302 518.672 397.831V391.251C518.672 389.83 518.144 388.534 517.263 387.553H538.687C542.561 387.553 545.719 390.71 545.719 394.585Z" stroke="#362822" stroke-linecap="round" stroke-linejoin="round"/>
<path d="M516.71 384.005C516.71 384.005 515.112 384.319 515.275 385.766C515.439 387.2 517.276 387.565 517.276 387.565" stroke="#362822" stroke-linecap="round" stroke-linejoin="round"/>
<path d="M516.597 401.592C516.597 401.592 515.125 401.931 515.263 403.479C515.401 405.026 517.112 405.404 517.112 405.404" stroke="#362822" stroke-linecap="round" stroke-linejoin="round"/>
<path d="M549.493 372.909C549.493 378.872 544.65 383.728 538.687 383.728H465.975C464.931 383.728 464.088 382.872 464.088 381.841C464.088 380.809 464.931 379.954 465.975 379.954H538.687C542.562 379.954 545.719 376.796 545.719 372.909C545.719 369.022 542.562 365.877 538.687 365.877H465.975C464.931 365.877 464.088 365.034 464.088 363.99C464.088 362.945 464.931 362.103 465.975 362.103H538.687C544.65 362.103 549.493 366.946 549.493 372.909Z" stroke="#362822" stroke-linecap="round" stroke-linejoin="round"/>
<path d="M518.672 369.575V376.155C518.672 377.627 518.106 378.96 517.187 379.954H467.949C468.868 378.96 469.434 377.627 469.434 376.155V369.575C469.434 368.154 468.905 366.858 468.025 365.877H517.263C518.143 366.858 518.672 368.154 518.672 369.575Z" stroke="#362822" stroke-linecap="round" stroke-linejoin="round"/>
<path d="M545.719 372.909C545.719 376.796 542.561 379.954 538.687 379.954H517.188C518.106 378.96 518.672 377.627 518.672 376.155V369.575C518.672 368.154 518.144 366.858 517.263 365.877H538.687C542.561 365.877 545.719 369.035 545.719 372.909Z" stroke="#362822" stroke-linecap="round" stroke-linejoin="round"/>
<path d="M516.71 362.316C516.71 362.316 515.112 362.631 515.275 364.078C515.439 365.512 517.276 365.877 517.276 365.877" stroke="#362822" stroke-linecap="round" stroke-linejoin="round"/>
<path d="M516.597 379.916C516.597 379.916 515.125 380.256 515.263 381.803C515.414 383.35 517.112 383.728 517.112 383.728" stroke="#362822" stroke-linecap="round" stroke-linejoin="round"/>
<path d="M487.034 205.771H454.162L457.446 240.354H483.75L487.034 205.771Z" stroke="#362822" stroke-linecap="round" stroke-linejoin="round"/>
<path d="M459.396 205.545H485.022L490.708 196.336L482.946 202.953L489.563 183.97L481.21 192.6L484.091 180.221L479.197 188.285L480.065 174.472L474.027 194.034L472.001 170.157L469.133 185.404L466.252 159.515L464.529 182.523L460.214 166.408L464.529 200.941L453.307 176.485L459.056 200.941L448.703 192.311L459.396 205.545Z" stroke="#362822" stroke-linecap="round" stroke-linejoin="round"/>
<path d="M551.116 500.785H444.953V558.615H551.116V500.785Z" stroke="#362822" stroke-linecap="round" stroke-linejoin="round"/>
<path d="M437.129 500.785H207.645V558.615H437.129V500.785Z" stroke="#362822" stroke-linecap="round" stroke-linejoin="round"/>
<path d="M199.845 500.785H62.0566V558.615H199.845V500.785Z" stroke="#362822" stroke-linecap="round" stroke-linejoin="round"/>
<path d="M506.709 527.693H489.701V532.272H506.709V527.693Z" stroke="#362822" stroke-linecap="round" stroke-linejoin="round"/>
</g>
<g opacity="0.3">
<path d="M398.787 298.196H71.2285V473.939H398.787V298.196Z" stroke="#362822" stroke-linecap="round" stroke-linejoin="round"/>
<path d="M392.862 303.128H77.1543V468.995H392.862V303.128Z" stroke="#362822" stroke-linecap="round" stroke-linejoin="round"/>
<path d="M81.4301 474.064L78.1719 487.84H84.3361L88.6762 474.064H81.4301Z" stroke="#362822" stroke-linecap="round" stroke-linejoin="round"/>
<path d="M389.931 474.064L393.176 487.84H387.012L382.672 474.064H389.931Z" stroke="#362822" stroke-linecap="round" stroke-linejoin="round"/>
</g>
<path d="M455.597 480.87L429.67 488.708L443.734 528.221L469.662 520.384C472.631 519.327 471.888 509.628 468.001 498.709C464.114 487.802 458.566 479.813 455.597 480.87Z" fill="#F0C376" stroke="#1A3447" stroke-linecap="round" stroke-linejoin="round"/>
<path d="M442.087 506.558C445.974 517.465 446.716 527.177 443.747 528.234C440.778 529.29 435.218 521.302 431.343 510.395C427.456 499.488 426.714 489.777 429.683 488.72C432.651 487.663 438.212 495.651 442.087 506.558Z" fill="#1A3447" stroke="#1A3447" stroke-linecap="round" stroke-linejoin="round"/>
<path d="M349.937 368.418L354.139 391.502C354.139 391.502 368.832 413.542 376.531 431.381C384.23 449.219 404.522 472.316 408.371 475.461C412.221 478.606 423.417 485.261 426.21 489.802C429.002 494.344 434.953 508.698 434.953 508.698L406.27 519.894C406.27 519.894 400.672 513.943 397.879 505.553C395.087 497.162 393.338 490.507 393.338 490.507C393.338 490.507 365.7 469.863 356.604 463.221C347.509 456.579 344.716 453.081 344.716 453.081C344.716 453.081 334.577 405.856 332.828 393.955C331.08 382.055 341.924 369.814 349.975 368.418H349.937Z" fill="white" stroke="#1A3447" stroke-linecap="round" stroke-linejoin="round"/>
<path d="M433.657 501.602C433.657 501.602 439.758 515.076 439.255 516.849C438.752 518.623 434.173 519.894 432.135 519.391C430.097 518.887 426.801 504.898 426.801 504.144C426.801 503.389 430.864 499.313 433.669 501.602H433.657Z" fill="white" stroke="#1A3447" stroke-linecap="round" stroke-linejoin="round"/>
<path d="M425.267 504.646C425.267 504.646 431.368 518.12 430.853 519.893C430.349 521.667 425.77 522.938 423.732 522.434C421.694 521.931 418.398 507.942 418.398 507.188C418.398 506.433 422.462 502.357 425.267 504.646Z" fill="white" stroke="#1A3447" stroke-linecap="round" stroke-linejoin="round"/>
<path d="M417.378 507.64C417.378 507.64 422.938 519.931 422.473 521.541C422.008 523.164 417.844 524.322 415.982 523.856C414.133 523.391 411.113 510.647 411.113 509.943C411.113 509.238 414.824 505.54 417.366 507.628L417.378 507.64Z" fill="white" stroke="#1A3447" stroke-linecap="round" stroke-linejoin="round"/>
<path d="M410.699 510.384C410.699 510.384 415.744 521.529 415.328 523.014C414.913 524.486 411.127 525.543 409.441 525.115C407.755 524.687 405.025 513.126 405.025 512.497C405.025 511.868 408.397 508.497 410.712 510.396L410.699 510.384Z" fill="white" stroke="#1A3447" stroke-linecap="round" stroke-linejoin="round"/>
<path d="M408.246 482.028C408.246 482.028 411.039 480.757 414.851 481.009C418.662 481.26 429.343 484.317 430.865 486.343C432.387 488.38 436.199 502.357 434.677 503.376C433.155 504.395 417.392 510.245 415.102 510.999C412.813 511.767 412.309 507.188 413.58 505.15C414.851 503.112 418.159 501.338 418.159 501.338C418.159 501.338 411.555 500.835 409.013 496.759" fill="white"/>
<path d="M408.246 482.028C408.246 482.028 411.039 480.757 414.851 481.009C418.662 481.26 429.343 484.317 430.865 486.343C432.387 488.38 436.199 502.357 434.677 503.376C433.155 504.395 417.392 510.245 415.102 510.999C412.813 511.767 412.309 507.188 413.58 505.15C414.851 503.112 418.159 501.338 418.159 501.338C418.159 501.338 411.555 500.835 409.013 496.759" stroke="#1A3447" stroke-linecap="round" stroke-linejoin="round"/>
<path d="M428.574 497.791C424.26 497.023 418.158 501.351 418.158 501.351C418.158 501.351 421.97 494.482 424.763 493.476" stroke="#1A3447" stroke-linecap="round" stroke-linejoin="round"/>
<path d="M394.697 498.106L368.77 505.943L382.834 545.457L408.761 537.619C411.73 536.563 410.988 526.864 407.101 515.944C403.214 505.025 397.666 497.049 394.697 498.106Z" fill="#F0C376" stroke="#1A3447" stroke-linecap="round" stroke-linejoin="round"/>
<path d="M381.173 523.794C385.06 534.7 385.802 544.412 382.833 545.469C379.864 546.526 374.304 538.537 370.429 527.631C366.555 516.724 365.8 507.012 368.769 505.955C371.738 504.898 377.298 512.887 381.173 523.794Z" fill="#1A3447" stroke="#1A3447" stroke-linecap="round" stroke-linejoin="round"/>
<path d="M385.011 579.095L360.782 508.345C360.782 508.345 357.989 484.556 356.58 467.07C355.184 449.584 345.736 429.984 345.736 429.984C345.736 429.984 329.646 445.382 298.863 451.32C268.08 457.27 228.554 437.671 220.502 433.129L212.451 428.588C212.451 428.588 183.417 476.857 183.769 514.295C184.121 551.721 194.965 579.359 194.965 579.359" fill="#1A3447"/>
<path d="M385.011 579.095L360.782 508.345C360.782 508.345 357.989 484.556 356.58 467.07C355.184 449.584 345.736 429.984 345.736 429.984C345.736 429.984 329.646 445.382 298.863 451.32C268.08 457.27 228.554 437.671 220.502 433.129L212.451 428.588C212.451 428.588 183.417 476.857 183.769 514.295C184.121 551.721 194.965 579.359 194.965 579.359" stroke="#1A3447" stroke-linecap="round" stroke-linejoin="round"/>
<path d="M290.121 539.82L296.411 579.359" stroke="#362822" stroke-linecap="round" stroke-linejoin="round"/>
<path d="M293.619 557.319L315.307 537.72" stroke="#362822" stroke-linecap="round" stroke-linejoin="round"/>
<path d="M340.905 396.17C340.905 396.17 347.837 413.895 347.837 423.33C347.837 432.765 343.635 439.772 329.646 448.163C315.657 456.554 286.962 460.051 262.129 456.214C237.296 452.365 213.86 436.627 212.451 428.576C211.042 420.525 222.414 399.038 222.414 399.038C222.414 399.038 301.442 405.378 340.905 396.17Z" fill="white" stroke="#1A3447" stroke-linecap="round" stroke-linejoin="round"/>
<path d="M311.205 247.348C311.205 247.348 332.604 246.065 342.504 265.237C352.405 284.409 348.895 336.138 348.895 336.138C348.895 336.138 315.357 274.181 313.13 264.595C310.891 255.009 311.218 247.348 311.218 247.348H311.205Z" fill="white" stroke="#1A3447" stroke-linecap="round" stroke-linejoin="round"/>
<path d="M257.551 195.921C257.551 195.921 254.041 234.24 250.204 240.957C246.367 247.662 215.068 257.89 196.865 275.125C178.662 292.372 191.757 340.591 196.55 357.524C201.343 374.456 222.415 399.038 222.415 399.038C222.415 399.038 238.379 408.296 281.176 407.026C323.973 405.743 340.579 398.409 340.893 396.169C341.208 393.93 340.579 388.508 340.579 388.508C340.579 388.508 352.719 377.325 355.587 362.002C358.455 346.667 351.322 324.086 341.22 310.588C334.402 301.48 322.061 274.181 317.583 265.551C313.117 256.934 311.192 247.348 311.192 247.348C311.192 247.348 300.65 246.392 299.052 242.555C297.455 238.718 299.694 228.189 299.694 228.189C299.694 228.189 291.077 232.025 257.538 195.933L257.551 195.921Z" fill="white" stroke="#1A3447" stroke-linecap="round" stroke-linejoin="round"/>
<path d="M273.25 222.326C273.25 222.326 275.439 229.27 282.748 235.85C290.057 242.429 299.064 242.555 299.064 242.555L299.706 228.188L273.25 222.326Z" fill="#1A3447" stroke="#1A3447" stroke-linecap="round" stroke-linejoin="round"/>
<path d="M317.596 265.552C313.13 256.934 311.205 247.348 311.205 247.348C311.205 247.348 307.23 246.983 303.796 245.813C304.488 249.587 306.915 260.004 315.042 278.962C325.584 303.556 330.553 307.292 331.233 317.972C332.453 337.006 315.747 345.762 292.75 340.654C269.754 335.547 260.747 317.28 256.91 305.782C253.073 294.284 249.878 287.265 244.456 273.213C241.16 264.671 236.933 256.054 235.134 250.858C231.108 252.959 226.58 255.286 221.938 257.853C225.397 261.903 236.354 276.131 245.097 302.927C255.639 335.182 225.938 374.469 214.44 379.891C212.616 380.747 211.068 381.577 209.697 382.357C216.163 391.741 222.428 399.05 222.428 399.05C222.428 399.05 238.392 408.309 281.189 407.039C323.987 405.756 340.592 398.421 340.907 396.182C341.221 393.943 340.592 388.521 340.592 388.521C340.592 388.521 352.732 377.337 355.6 362.015C358.468 346.68 350.807 322.099 341.234 310.6C333.95 301.87 322.074 274.194 317.596 265.564V265.552Z" fill="#F0C376" stroke="#1A3447" stroke-linecap="round" stroke-linejoin="round"/>
<path d="M298.449 247.726L299.632 256.406C299.632 256.406 305.947 257.198 312.652 254.041" stroke="#1A3447" stroke-linecap="round" stroke-linejoin="round"/>
<path d="M248.344 267.061C248.344 267.061 269.642 262.331 272.799 261.928C275.957 261.526 280.297 262.318 280.297 262.318" stroke="#1A3447" stroke-linecap="round" stroke-linejoin="round"/>
<path d="M274.75 393.578C285.103 394.093 308.892 394.156 333.398 386.395" stroke="#1A3447" stroke-linecap="round" stroke-linejoin="round"/>
<path d="M269.34 393.175C269.34 393.175 270.384 393.288 272.296 393.426" stroke="#1A3447" stroke-linecap="round" stroke-linejoin="round"/>
<path d="M312.389 395.893C308.892 396.421 305.193 396.836 301.369 397.063" stroke="#1A3447" stroke-linecap="round" stroke-linejoin="round"/>
<path d="M340.593 388.508C340.593 388.508 330.554 392.659 316.275 395.251" stroke="#1A3447" stroke-linecap="round" stroke-linejoin="round"/>
<path d="M304.512 104.049C304.512 104.049 302.071 91.6077 288.9 82.0847C275.729 72.5742 251.575 77.2036 247.424 79.8832C243.272 82.5627 240.593 86.4751 240.593 86.4751L254.506 87.6954C254.506 87.6954 234.743 92.0858 229.371 101.609C224 111.119 225.472 117.221 225.472 117.221L232.063 113.321C232.063 113.321 223.283 125.033 226.453 138.695C229.623 152.357 252.808 167 265.489 161.628C278.182 156.256 283.302 125.033 288.913 120.152C294.523 115.271 303.304 114.78 304.285 112.591C305.267 110.39 304.524 104.049 304.524 104.049H304.512Z" fill="#1A3447" stroke="#1A3447" stroke-linecap="round" stroke-linejoin="round"/>
<path d="M329.91 163.427C329.91 163.427 324.149 180.749 328.677 201.607C333.206 222.477 324.803 231.107 320.513 233.133C316.223 235.158 314.99 233.963 314.99 233.963C314.99 233.963 323.092 231.082 325.004 223.924C326.916 216.766 326.262 205.784 326.262 205.784C326.262 205.784 320.941 221.207 317.972 227.585C315.003 233.963 310.965 233.673 310.965 233.673C310.965 233.673 327.055 214.741 323.155 196.562C319.255 178.384 329.91 163.427 329.91 163.427Z" fill="#1A3447" stroke="#1A3447" stroke-linecap="round" stroke-linejoin="round"/>
<path d="M253.286 152.595C253.286 152.595 257.274 116.478 282.321 107.219C306.714 98.1869 331.609 106.729 341.61 124.542C351.612 142.355 344.542 162.609 341.849 172.12C339.157 181.63 333.559 187.492 333.559 191.153C333.559 194.814 333.32 202.865 330.138 207.985C326.967 213.105 308.915 227.987 303.543 230.918C298.172 233.85 290.121 236.038 283.051 231.409C275.981 226.78 256.217 209.205 254.507 197.745C252.796 186.272 252.557 170.17 252.557 170.17L253.286 152.608V152.595Z" fill="white" stroke="#1A3447" stroke-linecap="round" stroke-linejoin="round"/>
<path d="M341.597 124.542C331.596 106.729 306.713 98.1869 282.308 107.219C257.261 116.491 253.273 152.595 253.273 152.595L253.021 158.508L256.682 159.426C256.682 159.426 263.274 157.225 264.733 153.086C266.193 148.947 269.866 144.569 274.244 142.104C280.345 138.682 283.692 134.354 284.736 127.951C286.447 117.459 297.907 115.258 311.33 120.881C324.753 126.492 324.74 127.473 334.993 127.473C340.956 127.473 345.623 134.933 346.755 146.67C346.906 139.487 345.661 131.813 341.585 124.542H341.597Z" fill="#1A3447" stroke="#1A3447" stroke-linecap="round" stroke-linejoin="round"/>
<path d="M305.493 166.019C305.493 166.019 299.643 157.728 285.969 159.427" stroke="#1A3447" stroke-width="2" stroke-linecap="round" stroke-linejoin="round"/>
<path d="M285.969 171.868C285.969 171.868 289.39 177.718 299.631 176.749" stroke="#1A3447" stroke-linecap="round" stroke-linejoin="round"/>
<path d="M318.188 172.12C318.188 172.12 327.95 169.679 332.34 178.712" stroke="#1A3447" stroke-width="2" stroke-linecap="round" stroke-linejoin="round"/>
<path d="M315.984 181.882C315.984 181.882 318.425 187.493 328.678 187.493" stroke="#1A3447" stroke-linecap="round" stroke-linejoin="round"/>
<path d="M316.223 171.629C316.223 171.629 310.374 174.308 310.122 177.001C309.883 179.68 310.613 193.103 309.883 195.053C309.153 197.003 303.052 198.714 299.152 193.342" stroke="#1A3447" stroke-linecap="round" stroke-linejoin="round"/>
<path d="M285.969 194.813C285.969 194.813 291.089 205.544 304.021 206.525" stroke="#1A3447" stroke-linecap="round" stroke-linejoin="round"/>
<path d="M286.221 174.799C286.221 174.799 291.102 177.478 296.222 177.969" stroke="#1A3447" stroke-linecap="round" stroke-linejoin="round"/>
<path d="M316.477 184.322C316.477 184.322 320.376 188.222 325.509 188.222" stroke="#1A3447" stroke-linecap="round" stroke-linejoin="round"/>
<path d="M259.539 163.226C259.539 163.226 255.978 145.111 249.185 148.998C242.392 152.885 244.015 168.409 247.562 174.221C251.123 180.045 255.966 177.781 255.966 177.781" fill="white"/>
<path d="M259.539 163.226C259.539 163.226 255.978 145.111 249.185 148.998C242.392 152.885 244.015 168.409 247.562 174.221C251.123 180.045 255.966 177.781 255.966 177.781" stroke="#1A3447" stroke-linecap="round" stroke-linejoin="round"/>
<path d="M261.074 155.678C261.074 155.678 259.79 173.881 247.663 191.443C235.524 209.004 240.002 220.188 243.197 223.698C246.393 227.208 247.99 226.566 247.99 226.566C247.99 226.566 241.6 220.817 242.556 213.47C243.512 206.123 248.305 196.223 248.305 196.223C248.305 196.223 247.349 212.514 247.663 219.534C247.978 226.566 251.815 227.837 251.815 227.837C251.815 227.837 244.153 204.199 254.683 188.876C265.225 173.541 261.074 155.665 261.074 155.665V155.678Z" fill="#1A3447" stroke="#1A3447" stroke-linecap="round" stroke-linejoin="round"/>
<path d="M311.87 308.298L285.037 304.6L281.326 346.378L308.159 350.076C311.304 350.353 314.676 341.233 315.695 329.697C316.726 318.161 315.003 308.575 311.87 308.298Z" fill="#F0C376" stroke="#1A3447" stroke-linecap="round" stroke-linejoin="round"/>
<path d="M288.862 325.998C287.83 337.534 284.459 346.667 281.327 346.378C278.194 346.088 276.471 336.515 277.502 324.979C278.534 313.443 281.905 304.31 285.038 304.599C288.183 304.876 289.894 314.462 288.862 325.998Z" fill="#1A3447" stroke="#1A3447" stroke-linecap="round" stroke-linejoin="round"/>
<path d="M210.023 266.545C210.023 266.545 185.894 275.678 177.126 297.24C168.358 318.802 171.641 351.334 182.976 381.3C194.31 411.265 207.834 440.514 219.156 443.432C230.49 446.351 243.284 411.63 249.121 400.308C254.958 388.986 269.954 359.373 270.683 355.725C271.413 352.076 282.018 340.377 285.666 336.716C289.314 333.055 288.585 326.489 288.22 324.287C287.855 322.098 283.829 306.738 282.735 305.279C281.641 303.819 279.816 304.549 278.345 303.819C276.885 303.09 263.362 299.429 263.362 299.429C263.362 299.429 257.147 296.146 254.229 297.605C251.31 299.064 250.568 301.266 250.568 301.266C250.568 301.266 251.298 310.764 248.744 317.708C246.19 324.652 240.34 333.055 241.435 334.515C242.529 335.974 249.474 345.849 249.474 345.849C249.474 345.849 242.529 359.738 233.761 370.343L227.547 346.591" fill="white"/>
<path d="M210.023 266.545C210.023 266.545 185.894 275.678 177.126 297.24C168.358 318.802 171.641 351.334 182.976 381.3C194.31 411.265 207.834 440.514 219.156 443.432C230.49 446.351 243.284 411.63 249.121 400.308C254.958 388.986 269.954 359.373 270.683 355.725C271.413 352.076 282.018 340.377 285.666 336.716C289.314 333.055 288.585 326.489 288.22 324.287C287.855 322.098 283.829 306.738 282.735 305.279C281.641 303.819 279.816 304.549 278.345 303.819C276.885 303.09 263.362 299.429 263.362 299.429C263.362 299.429 257.147 296.146 254.229 297.605C251.31 299.064 250.568 301.266 250.568 301.266C250.568 301.266 251.298 310.764 248.744 317.708C246.19 324.652 240.34 333.055 241.435 334.515C242.529 335.974 249.474 345.849 249.474 345.849C249.474 345.849 242.529 359.738 233.761 370.343L227.547 346.591" stroke="#1A3447" stroke-linecap="round" stroke-linejoin="round"/>
<path d="M270.695 355.725C270.796 355.209 271.11 354.53 271.563 353.737L271.375 353.071C258.115 352.756 249.498 345.85 249.498 345.85C249.498 345.85 242.554 359.738 233.786 370.343L228.816 378.054C236.993 389.678 247.271 392.584 252.744 393.289C259.612 379.79 270.091 358.769 270.708 355.737L270.695 355.725Z" fill="white" stroke="#1A3447" stroke-linecap="round" stroke-linejoin="round"/>
<path d="M228.818 378.054C228.818 378.054 201.985 397.49 200.752 408.585" stroke="#1A3447" stroke-linecap="round" stroke-linejoin="round"/>
<path d="M278.371 303.832C278.371 303.832 282.032 318.085 282.032 324.664" stroke="#1A3447" stroke-linecap="round" stroke-linejoin="round"/>
<path d="M271.791 302.737C271.791 302.737 273.615 315.531 274.345 321.381" stroke="#1A3447" stroke-linecap="round" stroke-linejoin="round"/>
<path d="M263.387 299.441C263.387 299.441 265.576 315.154 265.576 319.179" stroke="#1A3447" stroke-linecap="round" stroke-linejoin="round"/>
<path d="M265.086 323.633C265.086 323.633 263.752 324.752 262.633 326.086" stroke="#1A3447" stroke-linecap="round" stroke-linejoin="round"/>
<path d="M273.326 325.646C273.326 325.646 271.993 326.765 270.873 328.099" stroke="#1A3447" stroke-linecap="round" stroke-linejoin="round"/>
<path d="M281.566 327.646C281.566 327.646 280.233 328.765 279.113 330.099" stroke="#1A3447" stroke-linecap="round" stroke-linejoin="round"/>
<path d="M248.101 297.957L221.268 294.259L217.557 336.037L244.39 339.735C247.535 340.012 250.906 330.892 251.925 319.356C252.957 307.82 251.233 298.234 248.101 297.957Z" fill="#F0C376" stroke="#1A3447" stroke-linecap="round" stroke-linejoin="round"/>
<path d="M225.093 315.645C224.061 327.18 220.69 336.313 217.557 336.024C214.425 335.735 212.701 326.161 213.733 314.626C214.764 303.09 218.136 293.957 221.268 294.246C224.401 294.523 226.124 304.109 225.093 315.645Z" fill="#1A3447" stroke="#1A3447" stroke-linecap="round" stroke-linejoin="round"/>
<path d="M590.819 579.359H55.9297" stroke="#1A3447" stroke-linecap="round" stroke-linejoin="round"/>
<path d="M37.2988 579.359H47.9415" stroke="#1A3447" stroke-linecap="round" stroke-linejoin="round"/>
</svg>
