<svg width="258" height="179" viewBox="0 0 258 179" fill="none" xmlns="http://www.w3.org/2000/svg">
<path d="M215.919 101.138C210.883 111.342 201.823 121.953 190.608 124.074C173.663 127.277 170.046 140.974 140.956 136.179C136.699 135.497 132.535 134.33 128.544 132.7C126.588 131.894 124.688 130.957 122.857 129.897C106.652 120.521 99.6703 103.341 100.95 86.3859C102.622 64.0847 118.514 55.2638 128.757 50.2101C139.001 45.1564 153.33 22.5536 181.965 27.0173C186.349 27.6837 190.635 28.8821 194.729 30.586C204.074 34.5149 213.176 41.8245 217.807 51.4704C218.157 52.1953 218.483 52.9348 218.791 53.6817C224.8 68.3359 222.783 87.2285 215.919 101.138Z" fill="#F0C376"/>
<path opacity="0.7" d="M215.919 101.138C210.883 111.342 201.823 121.953 190.608 124.074C173.663 127.277 170.046 140.974 140.956 136.179C136.699 135.497 132.535 134.33 128.544 132.7C126.588 131.894 124.688 130.957 122.857 129.897C106.652 120.521 99.6703 103.341 100.95 86.3859C102.622 64.0847 118.514 55.2638 128.757 50.2101C139.001 45.1564 153.33 22.5536 181.965 27.0173C186.349 27.6837 190.635 28.8821 194.729 30.586C204.074 34.5149 213.176 41.8245 217.807 51.4704C218.157 52.1953 218.483 52.9348 218.791 53.6817C224.8 68.3359 222.783 87.2285 215.919 101.138Z" fill="white"/>
<path d="M245.136 22.8202C245.136 22.8202 252.583 26.4829 255.441 32.5041C258.298 38.5253 257.466 49.1878 250.501 54.8063C243.536 60.4248 230.697 66.0064 213.742 65.1097C196.787 64.2131 185.994 52.2858 184.408 44.5933C182.822 36.9008 186.704 28.4 196.816 22.5953C206.929 16.7905 214.105 17.5499 224.263 17.7812C234.421 18.0125 245.136 22.8202 245.136 22.8202Z" fill="#362822" stroke="#1A3447" stroke-width="0.6868" stroke-miterlimit="10"/>
<path d="M209.897 4.4989C209.897 4.4989 218.108 5.73526 222.651 10.6106C227.193 15.4859 229.633 25.897 224.696 33.3606C219.76 40.8241 209.213 50.0649 192.789 54.3349C176.366 58.6048 162.46 50.5126 158.623 43.6588C154.787 36.8051 155.885 27.5385 163.786 18.9374C171.687 10.3363 178.761 8.89118 188.486 6.04354C198.21 3.19589 209.897 4.4989 209.897 4.4989Z" fill="white"/>
<path d="M158.625 43.6601C156.629 40.05 155.994 35.843 156.837 31.8046C159.755 34.6772 168.187 40.3661 189.339 40.5755C205.504 40.7296 219.036 30.2533 227.322 21.7833C227.804 25.8296 226.878 29.9186 224.699 33.3618C219.762 40.8254 209.215 50.0355 192.791 54.3361C176.368 58.6368 162.45 50.5136 158.625 43.6601Z" fill="#362822"/>
<path d="M209.897 4.4989C209.897 4.4989 218.108 5.73526 222.651 10.6106C227.193 15.4859 229.633 25.897 224.696 33.3606C219.76 40.8241 209.213 50.0649 192.789 54.3348C176.366 58.6048 162.46 50.5126 158.623 43.6588C154.786 36.8051 155.885 27.5385 163.786 18.9374C171.687 10.3363 178.761 8.89118 188.486 6.04354C198.21 3.19589 209.897 4.4989 209.897 4.4989Z" stroke="#1A3447" stroke-width="0.6868" stroke-miterlimit="10"/>
<path d="M208.933 8.30084C208.925 8.7067 209.41 9.04908 210.019 9.06183C210.628 9.07459 211.133 8.75295 211.141 8.3471C211.15 7.94124 210.658 7.59875 210.05 7.586C209.441 7.57324 208.942 7.89499 208.933 8.30084Z" stroke="#1A3447" stroke-width="0.6868" stroke-miterlimit="10"/>
<path d="M200.045 10.654C200.033 11.1828 200.738 11.6282 201.617 11.6466C202.496 11.665 203.225 11.2497 203.236 10.7208C203.247 10.192 202.543 9.74659 201.657 9.72803C200.772 9.70948 200.056 10.119 200.045 10.654Z" stroke="#1A3447" stroke-width="0.6868" stroke-miterlimit="10"/>
<path d="M206.441 12.6637C206.433 13.0696 206.924 13.4121 207.532 13.4248C208.141 13.4376 208.646 13.116 208.655 12.7101C208.663 12.3042 208.172 11.9679 207.563 11.9551C206.955 11.9424 206.45 12.2579 206.441 12.6637Z" stroke="#1A3447" stroke-width="0.6868" stroke-miterlimit="10"/>
<path d="M59.2162 108.639C59.2162 108.639 65.2923 109.236 70.9485 114.82C73.6339 117.533 75.6541 120.832 76.8506 124.456C78.0471 128.081 78.3873 131.934 77.8445 135.713C76.7566 142.87 67.247 157.185 57.4172 164.782C47.5875 172.378 34.4063 175.531 22.6298 171.847C10.8532 168.164 5.48931 155.575 4.28055 153.836C3.07179 152.096 -1.97814 139.959 2.64738 127.588C7.27292 115.216 12.5916 107.194 22.6875 101.947C32.7833 96.7009 43.2402 96.6046 49.2477 100.474C55.2552 104.344 56.8804 108.591 56.8804 108.591L59.2162 108.639Z" fill="white"/>
<path d="M0.77036 136.734L1.70526 130.705C1.87001 130.046 2.06188 129.379 2.28085 128.704C2.21159 132.01 2.25486 137.662 3.45686 142.426C5.27837 149.652 7.30575 151.684 17.665 158.952C28.0242 166.22 30.7761 165.315 35.2266 165.926C39.6772 166.536 49.9835 163.979 59.8688 157.588C65.7916 153.723 70.5547 148.323 73.6509 141.964L78.0533 131.755C78.0857 133.079 78.0039 134.403 77.8086 135.712C76.7207 142.869 67.2111 157.184 57.3814 164.781C47.5516 172.378 34.3705 175.53 22.5939 171.847C10.8174 168.163 5.45346 155.575 4.2447 153.835C3.37451 152.531 0.313355 145.425 0.77036 136.734Z" fill="#362822"/>
<path d="M53.7123 110.553C53.7123 110.553 51.8436 110.207 47.9381 117.927C44.0327 125.648 36.2624 131.429 32.9687 137.739C29.6749 144.05 26.9333 150.251 25.9434 152.729C24.9536 155.206 22.729 157.181 21.9072 159.355C21.0855 161.529 20.8586 164.638 20.0861 164.46C19.3136 164.282 21.7864 157.792 21.3537 156.061C20.921 154.33 18.4952 150.858 19 149.147C19.5049 147.435 22.5296 144.701 21.9124 144.057C21.2952 143.413 13.0643 141.85 16.6528 141.925C20.2413 142.001 24.1222 143.174 24.7449 141.626C25.3675 140.079 25.4688 136.79 25.4688 136.79C25.4688 136.79 24.2306 136.457 25.8167 135.236C27.4028 134.016 29.0361 130.161 29.0361 130.161C29.0361 130.161 33.7125 123.079 37.061 119.559C40.4094 116.039 42.0182 114.513 43.8967 113.614C45.7753 112.715 45.6198 113.189 47.2157 111.5C48.8117 109.812 47.9049 108.709 49.6085 109.214C51.3121 109.718 55.7982 107.476 53.7123 110.553Z" fill="#362822" stroke="#362822" stroke-width="0.902678" stroke-miterlimit="10"/>
<path d="M64.4964 154.312C64.4964 154.312 57.6901 158.851 52.2037 162.141C46.7173 165.43 35.1464 165.826 30.7591 165.281" stroke="#1A3447" stroke-width="0.902678" stroke-miterlimit="10"/>
<path d="M26.8271 164.6C26.8271 164.6 23.1079 163.431 22.0201 162.478" stroke="#1A3447" stroke-width="0.902678" stroke-miterlimit="10"/>
<path d="M18.8163 160.067C18.8163 160.067 13.2306 156.522 10.5254 153.651C7.82018 150.781 5.60238 150.12 3.42683 142.425C1.25127 134.731 2.73433 130.711 2.73433 130.711" stroke="#1A3447" stroke-width="0.902678" stroke-miterlimit="10"/>
<path d="M59.2162 108.639C59.2162 108.639 65.2923 109.236 70.9485 114.82C73.6339 117.533 75.6541 120.832 76.8506 124.456C78.0471 128.081 78.3873 131.934 77.8445 135.713C76.7566 142.87 67.247 157.185 57.4172 164.782C47.5875 172.378 34.4063 175.531 22.6298 171.847C10.8532 168.164 5.48931 155.575 4.28055 153.836C3.07179 152.096 -1.97814 139.959 2.64739 127.588C7.27291 115.216 12.5916 107.194 22.6875 101.947C32.7833 96.7009 43.2402 96.6046 49.2477 100.474C55.2552 104.344 56.8804 108.591 56.8804 108.591L59.2162 108.639Z" stroke="#1A3447" stroke-width="0.902678" stroke-miterlimit="10"/>
<path d="M43.4328 159.378C43.4244 159.782 44.1208 160.12 44.9855 160.138C45.8503 160.156 46.5684 159.848 46.5768 159.444C46.5853 159.04 45.8889 158.702 45.016 158.684C44.1432 158.665 43.4411 158.982 43.4328 159.378Z" stroke="#1A3447" stroke-width="0.902678" stroke-miterlimit="10"/>
<path d="M41.2453 102.216C41.2369 102.62 41.9332 102.958 42.798 102.976C43.6628 102.994 44.3809 102.686 44.3893 102.282C44.3978 101.878 43.7014 101.54 42.8285 101.521C41.9556 101.503 41.2536 101.82 41.2453 102.216Z" stroke="#1A3447" stroke-width="0.902678" stroke-miterlimit="10"/>
<path d="M32.5406 101.635C32.5229 102.484 33.5913 103.201 34.933 103.23C36.2746 103.258 37.3722 102.585 37.39 101.737C37.4077 100.888 36.3391 100.178 34.9975 100.15C33.6558 100.122 32.5584 100.786 32.5406 101.635Z" stroke="#1A3447" stroke-width="0.902678" stroke-miterlimit="10"/>
</svg>
