<svg width="471" height="471" viewBox="0 0 471 471" fill="none" xmlns="http://www.w3.org/2000/svg">
<path d="M309.921 32.5736C309.921 32.5736 237.011 6.64978 165.447 47.9282C93.8832 89.2067 57.748 171.132 26.7374 236.762C-4.27325 302.391 13.5494 369.16 68.1854 399.596C122.821 430.032 159.964 385.164 236.606 382.979C313.247 380.793 333.886 391.749 397.527 348.454C461.169 305.16 472.614 202.906 422.453 127.254C372.291 51.602 309.921 32.5736 309.921 32.5736Z" fill="#F0C376"/>
<path opacity="0.7" d="M309.921 32.5736C309.921 32.5736 237.011 6.64978 165.447 47.9282C93.8832 89.2067 57.748 171.132 26.7374 236.762C-4.27325 302.391 13.5494 369.16 68.1854 399.596C122.821 430.032 159.964 385.164 236.606 382.979C313.247 380.793 333.886 391.749 397.527 348.454C461.169 305.16 472.614 202.906 422.453 127.254C372.291 51.602 309.921 32.5736 309.921 32.5736Z" fill="white"/>
<path d="M154.639 262.158H48.2969" stroke="#1A3447" stroke-width="1.22656" stroke-linecap="round" stroke-linejoin="round"/>
<path d="M174.892 250.365V262.168H159.604" stroke="#1A3447" stroke-width="1.22656" stroke-linecap="round" stroke-linejoin="round"/>
<path d="M174.892 264.693V276.497H48.2969" stroke="#1A3447" stroke-width="1.22656" stroke-linecap="round" stroke-linejoin="round"/>
<path d="M174.892 279.021V290.825H48.2969" stroke="#1A3447" stroke-width="1.22656" stroke-linecap="round" stroke-linejoin="round"/>
<path d="M80.5886 305.152H48.2969" stroke="#1A3447" stroke-width="1.22656" stroke-linecap="round" stroke-linejoin="round"/>
<path d="M174.889 293.357V305.151H86.9062" stroke="#1A3447" stroke-width="1.22656" stroke-linecap="round" stroke-linejoin="round"/>
<path d="M174.892 307.688V319.491H48.2969" stroke="#1A3447" stroke-width="1.22656" stroke-linecap="round" stroke-linejoin="round"/>
<path d="M174.892 322.014V333.817H48.2969" stroke="#1A3447" stroke-width="1.22656" stroke-linecap="round" stroke-linejoin="round"/>
<path d="M53.9489 348.145H48.2969" stroke="#1A3447" stroke-width="1.22656" stroke-linecap="round" stroke-linejoin="round"/>
<path d="M174.889 336.352V348.145H59.8145" stroke="#1A3447" stroke-width="1.22656" stroke-linecap="round" stroke-linejoin="round"/>
<path d="M174.892 350.678V362.481H48.2969" stroke="#1A3447" stroke-width="1.22656" stroke-linecap="round" stroke-linejoin="round"/>
<path d="M174.892 365.006V376.809H48.2969" stroke="#1A3447" stroke-width="1.22656" stroke-linecap="round" stroke-linejoin="round"/>
<path d="M104.073 391.148H48.2969" stroke="#1A3447" stroke-width="1.22656" stroke-linecap="round" stroke-linejoin="round"/>
<path d="M174.891 379.344V391.147H109.488" stroke="#1A3447" stroke-width="1.22656" stroke-linecap="round" stroke-linejoin="round"/>
<path d="M55.7575 405.475H48.2969" stroke="#1A3447" stroke-width="1.22656" stroke-linecap="round" stroke-linejoin="round"/>
<path d="M174.889 393.672V405.475H61.623" stroke="#1A3447" stroke-width="1.22656" stroke-linecap="round" stroke-linejoin="round"/>
<path d="M291.445 262.158H178.734" stroke="#1A3447" stroke-width="1.22656" stroke-linecap="round" stroke-linejoin="round"/>
<path d="M305.321 250.365V262.168H295.967" stroke="#1A3447" stroke-width="1.22656" stroke-linecap="round" stroke-linejoin="round"/>
<path d="M305.32 264.693V276.497H178.734" stroke="#1A3447" stroke-width="1.22656" stroke-linecap="round" stroke-linejoin="round"/>
<path d="M305.32 279.021V290.825H178.734" stroke="#1A3447" stroke-width="1.22656" stroke-linecap="round" stroke-linejoin="round"/>
<path d="M305.32 293.357V305.151H178.734" stroke="#1A3447" stroke-width="1.22656" stroke-linecap="round" stroke-linejoin="round"/>
<path d="M305.32 307.688V319.491H178.734" stroke="#1A3447" stroke-width="1.22656" stroke-linecap="round" stroke-linejoin="round"/>
<path d="M305.32 322.014V333.817H178.734" stroke="#1A3447" stroke-width="1.22656" stroke-linecap="round" stroke-linejoin="round"/>
<path d="M305.32 336.352V348.145H178.734" stroke="#1A3447" stroke-width="1.22656" stroke-linecap="round" stroke-linejoin="round"/>
<path d="M305.32 350.678V362.481H178.734" stroke="#1A3447" stroke-width="1.22656" stroke-linecap="round" stroke-linejoin="round"/>
<path d="M305.32 365.006V376.809H178.734" stroke="#1A3447" stroke-width="1.22656" stroke-linecap="round" stroke-linejoin="round"/>
<path d="M305.32 379.344V391.147H178.734" stroke="#1A3447" stroke-width="1.22656" stroke-linecap="round" stroke-linejoin="round"/>
<path d="M305.32 393.672V405.475H178.734" stroke="#1A3447" stroke-width="1.22656" stroke-linecap="round" stroke-linejoin="round"/>
<path d="M49.0039 440.234H433.999" stroke="#1A3447" stroke-width="1.22656" stroke-linecap="round" stroke-linejoin="round"/>
<path d="M49.0039 218.41H433.999" stroke="#1A3447" stroke-width="1.22656" stroke-linecap="round" stroke-linejoin="round"/>
<path d="M215.187 247.359C215.187 247.359 207.859 250.185 207.548 255.309C207.237 260.434 210.195 262.017 210.374 263.891C210.553 265.766 205.541 287.281 204.138 299.131C202.734 310.982 207.096 318.913 213.803 321.428C220.51 323.944 243.278 323.925 253.875 323.312C264.473 322.7 272.715 321.127 276.483 314.26C280.251 307.393 281.787 299.452 277.887 288.694C273.987 277.936 271.811 270.918 271.189 267.329C270.568 263.74 266.347 249.083 255.439 243.318C244.531 237.553 232.982 237.082 227.989 240.821C222.997 244.561 215.187 247.359 215.187 247.359Z" fill="#1A3447" stroke="#1A3447" stroke-width="1.22656" stroke-linecap="round" stroke-linejoin="round"/>
<path d="M213.051 264.945C213.051 264.945 213.889 284.727 213.889 292.31C213.889 299.893 216.206 306.44 218.524 309.568C220.841 312.695 228.622 319.459 228.622 319.459C228.622 319.459 229.046 325.977 228.198 327.871C227.35 329.764 222.725 330.819 222.725 330.819C222.725 330.819 224.195 336.085 242.093 336.292C252.632 336.507 263.038 333.906 272.237 328.756C272.237 328.756 264.022 328.54 260.659 326.015C259.082 324.967 257.778 323.558 256.854 321.905C255.93 320.252 255.413 318.403 255.347 316.51C255.139 312.507 255.139 305.988 255.139 305.988C255.875 304.418 256.505 302.801 257.023 301.146C257.447 299.46 257.862 296.097 257.862 296.097C257.862 296.097 263.514 292.329 264.39 289.145C265.266 285.961 263.966 279.885 263.127 279.047C262.289 278.209 261.865 282.419 259.548 283.051C257.231 283.682 256.599 280.733 253.896 277.399C251.192 274.064 246.511 276.89 240.19 268.685C233.869 260.48 238.108 258.248 234.321 256.354C230.534 254.461 214.096 259.896 213.051 264.945Z" fill="white" stroke="#1A3447" stroke-width="1.22656" stroke-linecap="round" stroke-linejoin="round"/>
<path d="M229.176 257.166C229.176 257.166 230.203 268.828 236.712 272.238C243.221 275.648 253.526 273.952 253.526 273.952C253.526 273.952 237.748 273.604 234.31 265.71C230.871 257.816 230.542 253.012 230.542 253.012L229.176 257.166Z" fill="#1A3447" stroke="#1A3447" stroke-width="1.22656" stroke-linecap="round" stroke-linejoin="round"/>
<path d="M223.65 282.602C223.65 282.602 226.354 285.305 226.693 288.357" stroke="#1A3447" stroke-width="1.22656" stroke-linecap="round" stroke-linejoin="round"/>
<path d="M225.457 300.309C226.106 301.042 226.885 301.649 227.756 302.098C228.65 302.353 231.589 301.072 231.589 301.072" stroke="#1A3447" stroke-width="1.22656" stroke-linecap="round" stroke-linejoin="round"/>
<path d="M224.816 304.518C224.816 304.518 229.168 306.054 231.213 305.799C233.257 305.545 239.389 303.369 240.793 302.352" stroke="#1A3447" stroke-width="1.22656" stroke-linecap="round" stroke-linejoin="round"/>
<path d="M222.009 287.649C222.009 289.062 221.294 290.211 220.408 290.211C219.523 290.211 218.807 289.062 218.807 287.649C218.807 286.236 219.523 285.096 220.408 285.096C221.294 285.096 222.009 286.245 222.009 287.649Z" fill="#1A3447"/>
<path d="M239.707 287.649C239.707 289.062 238.991 290.211 238.106 290.211C237.22 290.211 236.514 289.062 236.514 287.649C236.514 286.236 237.23 285.096 238.106 285.096C238.982 285.096 239.707 286.245 239.707 287.649Z" fill="#1A3447"/>
<path d="M214.973 280.498C214.973 280.498 219.579 277.041 222.772 281.006" stroke="#1A3447" stroke-width="1.22656" stroke-linecap="round" stroke-linejoin="round"/>
<path d="M234.66 280.234C234.66 280.234 240.67 276.664 245.908 281.129" stroke="#1A3447" stroke-width="1.22656" stroke-linecap="round" stroke-linejoin="round"/>
<path d="M228.619 319.46C228.619 319.46 231.332 321.522 234.017 320.628C236.701 319.733 245.773 314.363 245.773 314.363L228.647 327.014L228.619 319.46Z" fill="#1A3447" stroke="#1A3447" stroke-width="1.22656" stroke-linecap="round" stroke-linejoin="round"/>
<path d="M223.451 328.313C223.451 328.313 230.045 336.367 240.614 336.574C251.183 336.781 270.485 326.872 270.485 326.872C270.485 326.872 284.483 324.046 291.077 326.41C297.671 328.774 302.099 336.998 301.882 345.476C301.665 353.954 301.034 378.098 301.034 378.098C301.034 378.098 301.458 384.249 302.73 387.423C304.001 390.598 301.251 393.141 301.251 393.141C301.576 395.39 301.787 397.654 301.882 399.924C301.882 402.25 300.61 403.315 300.186 404.163C299.762 405.01 299.131 417.087 299.131 417.087H213.701L192.092 376.581C192.092 376.581 195.7 349.677 195.7 345.862C195.7 342.047 197.753 332.863 202.049 329.34C206.712 325.562 219.005 327.041 223.451 328.313Z" fill="#F0C376" stroke="#1A3447" stroke-width="1.22656" stroke-linecap="round" stroke-linejoin="round"/>
<path d="M208.472 361.324L206.965 388.68" stroke="#1A3447" stroke-width="1.22656" stroke-linecap="round" stroke-linejoin="round"/>
<path d="M289.285 386.671C289.285 386.671 293.298 384.919 299.317 387.17" stroke="#1A3447" stroke-width="1.22656" stroke-linecap="round" stroke-linejoin="round"/>
<path d="M299.552 392.947C299.552 392.947 295.784 388.679 291.271 387.926" stroke="#1A3447" stroke-width="1.22656" stroke-linecap="round" stroke-linejoin="round"/>
<path d="M183.17 324.208L194.634 355.812C194.744 356.098 194.94 356.342 195.195 356.511C195.45 356.68 195.751 356.765 196.057 356.754L213.578 356.208C213.808 356.201 214.033 356.139 214.234 356.028C214.436 355.917 214.608 355.761 214.738 355.571C214.867 355.381 214.95 355.163 214.979 354.935C215.009 354.706 214.984 354.475 214.906 354.258L203.546 322.654C203.439 322.368 203.245 322.124 202.991 321.955C202.738 321.786 202.437 321.701 202.133 321.712L184.498 322.249C184.268 322.256 184.041 322.317 183.839 322.429C183.636 322.54 183.463 322.698 183.334 322.889C183.204 323.08 183.121 323.3 183.093 323.529C183.065 323.758 183.091 323.991 183.17 324.208Z" fill="white" stroke="#1A3447" stroke-width="1.22656" stroke-linecap="round" stroke-linejoin="round"/>
<path d="M188.531 331.81C188.531 331.81 183.143 335.144 183.256 336.981C183.369 338.818 185.516 360.795 186.082 362.632C186.85 364.664 187.826 366.611 188.992 368.444C189.313 368.877 192.873 370.921 193.627 370.497C194.381 370.074 195.134 369.951 195.247 368.774C195.36 367.596 195.784 360.898 195.784 359.504C195.784 358.11 195.351 354.003 195.351 354.003C195.351 354.003 206.655 351.422 207.314 350.989C207.633 350.808 207.876 350.516 207.995 350.169C208.115 349.823 208.104 349.444 207.964 349.105C207.748 348.247 206.881 348.681 206.881 348.681C206.881 348.681 208.388 347.494 207.635 346.09C206.881 344.687 191.037 346.203 191.037 346.203C191.037 346.203 200.202 341.672 202.68 340.598C205.157 339.524 206.777 337.358 206.664 336.501C206.551 335.643 205.054 335.634 203.546 336.284C202.039 336.934 191.253 342.106 190.829 342.209C190.405 342.313 187.165 343.509 187.165 343.509C187.165 343.509 186.732 340.061 187.485 338.441C188.239 336.821 195.568 332.299 196.971 330.792C198.375 329.285 199.015 327.231 197.188 327.881C195.36 328.531 189.614 330.726 188.531 331.81Z" fill="white" stroke="#1A3447" stroke-width="1.22656" stroke-linecap="round" stroke-linejoin="round"/>
<path d="M206.853 348.727C206.853 348.727 193.279 350.017 192.412 350.337C191.546 350.658 188.748 351.279 188.748 352.391" stroke="#1A3447" stroke-width="1.22656" stroke-linecap="round" stroke-linejoin="round"/>
<path d="M195.323 354.004L192.195 355.511" stroke="#1A3447" stroke-width="1.22656" stroke-linecap="round" stroke-linejoin="round"/>
<path d="M230.79 440.234L222.924 419.369C222.924 419.369 213.287 400.529 209.02 392.183C204.753 383.837 197.16 366.57 187.354 363.565C177.548 360.56 167.44 365.307 163.013 370.686C158.585 376.065 157.361 387.595 156.221 392.023C155.081 396.45 148.949 428.214 147.046 433.273C145.793 436.636 144.879 439.01 144.408 440.234H230.79Z" fill="#1A3447" stroke="#1A3447" stroke-width="1.22656" stroke-linecap="round" stroke-linejoin="round"/>
<path d="M189.34 386.219C198.515 401.178 191.713 419.33 188.482 435.203" stroke="#362822" stroke-width="1.22656" stroke-linecap="round" stroke-linejoin="round"/>
<path d="M185.268 383.328L190.326 395.97" stroke="#362822" stroke-width="1.22656" stroke-linecap="round" stroke-linejoin="round"/>
<path d="M285.094 440.234C284.5 436.541 280.384 411.286 276.154 399.294C276.154 399.294 263.673 375.584 254.488 371.034C245.304 366.484 233.632 363.922 227.783 372.296C221.933 380.671 221.613 397.429 220.981 406.604C220.397 415.035 219.823 436.842 219.729 440.271L285.094 440.234Z" fill="#1A3447" stroke="#1A3447" stroke-width="1.22656" stroke-linecap="round" stroke-linejoin="round"/>
<path d="M259.717 393.605C259.83 407.18 259.077 421.555 260.273 435.176" stroke="#362822" stroke-width="1.22656" stroke-linecap="round" stroke-linejoin="round"/>
<path d="M226.681 382.377C224.279 399.616 221.256 417.777 218.533 435.261" stroke="#362822" stroke-width="1.22656" stroke-linecap="round" stroke-linejoin="round"/>
<path d="M268.537 343.631C268.537 343.631 262.169 341.031 260.379 339.948C258.589 338.865 256.818 338.064 256.95 340.183C257.082 342.303 260.973 344.705 263.78 346.438C265.88 347.611 268.135 348.483 270.477 349.029L268.537 343.631Z" fill="white" stroke="#1A3447" stroke-width="1.22656" stroke-linecap="round" stroke-linejoin="round"/>
<path d="M244.41 333.467C244.654 331.878 245.167 330.343 245.927 328.927C246.915 327.381 247.505 325.613 247.641 323.783" stroke="#1A3447" stroke-width="1.22656" stroke-linecap="round" stroke-linejoin="round"/>
<path d="M248.451 333.468C248.634 331.642 249.148 329.864 249.968 328.222C251.571 325.143 251.909 321.56 250.91 318.236" stroke="#1A3447" stroke-width="1.22656" stroke-linecap="round" stroke-linejoin="round"/>
<path d="M226.191 334.984H260.499V350.132C260.499 354.681 258.692 359.044 255.475 362.261C252.258 365.478 247.895 367.286 243.345 367.286C238.796 367.286 234.433 365.478 231.216 362.261C227.999 359.044 226.191 354.681 226.191 350.132V334.984Z" fill="white" stroke="#1A3447" stroke-width="1.22656" stroke-linecap="round" stroke-linejoin="round"/>
<path d="M277.414 368.105C277.414 368.105 276.104 360.569 275.398 354.38C274.691 348.191 269.605 336.482 267.353 334.985C265.102 333.487 259.431 328.004 257.773 329.333C256.115 330.661 257.886 331.697 258.715 332.526C259.544 333.355 263.095 336.19 263.095 336.19L266.995 343.406C266.995 343.406 258.103 340.853 256.219 340.062C254.335 339.271 254.335 341.381 254.834 342.332C255.333 343.284 257.104 343.774 258.753 344.725C260.401 345.676 262.191 346.496 262.191 346.496C262.191 346.496 254.655 346.025 253.431 346.138C252.206 346.251 252.366 347.683 253.789 348.502C255.211 349.322 258.404 349.925 260.175 350.386C261.946 350.848 265.733 352.27 265.733 352.27L267.033 353.457C267.033 353.457 263.133 357.225 263.011 359.731C262.888 362.237 268.455 373.446 269.284 374.991C270.113 376.536 275.436 408.903 276.5 414.857C277.565 420.81 281.21 426.453 284.78 428.111C288.351 429.769 295.312 430.475 296.97 428.582C298.628 426.688 300.87 421.366 299.57 414.15C298.27 406.935 290.225 392.145 285.374 384.006C280.522 375.867 278.949 373.673 277.414 368.105Z" fill="white" stroke="#1A3447" stroke-width="1.22656" stroke-linecap="round" stroke-linejoin="round"/>
<path d="M265.582 356.281C265.582 356.281 258.367 356.404 255.286 356.526C252.206 356.649 252.215 357.939 253.28 358.655C254.344 359.371 265.582 360.662 266.524 360.784" fill="white"/>
<path d="M265.582 356.281C265.582 356.281 258.367 356.404 255.286 356.526C252.206 356.649 252.215 357.939 253.28 358.655C254.344 359.371 265.582 360.662 266.524 360.784" stroke="#1A3447" stroke-width="1.22656" stroke-linecap="round" stroke-linejoin="round"/>
<path d="M260.503 337.235C260.503 337.235 265.59 335.351 269.255 335.935C272.919 336.519 273.277 341.502 273.023 345.166C272.768 348.831 271.365 352.146 268.642 354.04C265.92 355.933 259.533 356.046 259.533 356.046L260.249 353.682C260.249 353.682 264.855 354.04 267.229 351.195C269.603 348.35 270.055 341.973 268.171 340.55C266.287 339.128 260.362 339.957 260.362 339.957L260.503 337.235Z" fill="white" stroke="#1A3447" stroke-width="1.22656" stroke-linecap="round" stroke-linejoin="round"/>
<path d="M262.158 346.457L268.649 348.332" stroke="#1A3447" stroke-width="1.22656" stroke-linecap="round" stroke-linejoin="round"/>
<path d="M311.03 451.01L280.133 441.232L418.503 448.702V451.01H311.03Z" fill="white" stroke="#1A3447" stroke-width="1.22656" stroke-linecap="round" stroke-linejoin="round"/>
<path d="M311.03 448.702L280.133 440.148H391.43L418.503 448.702H311.03Z" fill="#1A3447" stroke="#1A3447" stroke-width="1.22656" stroke-linecap="round" stroke-linejoin="round"/>
<path d="M280.133 442.456V440.148L311.03 448.702V451.01L280.133 442.456Z" fill="#1A3447" stroke="#1A3447" stroke-width="1.22656" stroke-linecap="round" stroke-linejoin="round"/>
<path d="M416.147 449.004L311.029 449.785L308.674 449.004L320.402 385.061H426.961L430.23 385.852L416.147 449.004Z" fill="#1A3447" stroke="#1A3447" stroke-width="1.22656" stroke-linecap="round" stroke-linejoin="round"/>
<path d="M418.506 449.785H311.033L322.761 385.852H430.234L418.506 449.785Z" fill="#1A3447" stroke="#1A3447" stroke-width="1.22656" stroke-linecap="round" stroke-linejoin="round"/>
<path d="M379.278 422.672C381.462 418.536 379.939 413.444 375.876 411.3C371.814 409.155 366.75 410.769 364.567 414.905C362.383 419.042 363.907 424.133 367.969 426.278C372.032 428.422 377.095 426.808 379.278 422.672Z" fill="white" stroke="#1A3447" stroke-width="1.22656" stroke-linecap="round" stroke-linejoin="round"/>
<path d="M183.69 110.477C183.69 110.477 171.001 116.402 170.154 118.522C169.306 120.641 164.652 218.176 164.652 218.176H289.307L281.055 127.405C281.055 127.405 279.369 112.597 278.305 111.749C277.24 110.901 236.857 104.345 236.857 104.345L189.653 108.329L187.552 108.631L183.69 110.477Z" fill="#F0C376" stroke="#1A3447" stroke-width="1.22656" stroke-linecap="round" stroke-linejoin="round"/>
<path d="M265.766 158.557C267.527 165.612 270.287 177.227 270.928 183.171C271.87 192.064 269.656 207.315 269.656 207.315" stroke="#1A3447" stroke-width="1.22656" stroke-linecap="round" stroke-linejoin="round"/>
<path d="M264.26 152.669C264.26 152.669 264.514 153.611 264.919 155.241" stroke="#1A3447" stroke-width="1.22656" stroke-linecap="round" stroke-linejoin="round"/>
<path d="M279.172 50.9992C279.141 50.9322 279.092 50.8754 279.031 50.8353C278.969 50.7953 278.897 50.7737 278.823 50.7731C279.012 49.087 281.649 48.616 282.233 44.1132C282.836 39.2902 271.184 31.2455 271.184 31.2455C271.184 31.2455 260.727 24.416 256.912 28.4195C253.097 32.423 261.933 45.5074 261.933 48.1261C261.933 50.7449 232.986 73.8521 228.963 83.7055C224.941 93.5588 239.824 98.7775 239.824 98.7775L235.604 114.255C235.604 114.255 241.633 123.307 241.831 127.923C242.029 132.539 247.059 142.401 253.088 145.416C259.117 148.43 267.529 146.009 267.529 146.009C266.485 145.701 265.567 145.068 264.91 144.201C263.911 142.797 265.117 139.378 268.132 133.547C271.146 127.716 286.821 99.776 285.012 84.6946C283.486 71.9964 280.246 58.3186 279.153 53.0905C281.678 59.6845 289.92 83.2345 287.037 102.272C287.028 102.321 287.029 102.372 287.039 102.42C287.05 102.469 287.071 102.515 287.1 102.556C287.129 102.596 287.166 102.631 287.209 102.656C287.251 102.682 287.299 102.699 287.348 102.706H287.405C287.497 102.704 287.585 102.67 287.654 102.61C287.723 102.55 287.768 102.467 287.782 102.376C291.229 79.9092 279.285 51.2912 279.172 50.9992Z" fill="#1A3447" stroke="#1A3447" stroke-width="1.22656" stroke-linecap="round" stroke-linejoin="round"/>
<path d="M238.665 110.212C238.665 110.212 248.32 114.922 248.16 116.326C248 117.73 247.67 118.21 246.87 120.028C246.069 121.846 243.008 131.605 241.218 133.056C239.428 134.507 226.259 129.354 222.076 127.103C217.894 124.851 211.46 122.44 211.14 114.555C210.819 106.671 215.85 98.315 217.093 97.3447C217.63 96.9868 218.273 96.8234 218.916 96.8817C219.558 96.9399 220.162 97.2164 220.626 97.665C221.294 98.3338 233.201 107.386 238.665 110.212Z" fill="#F0C376" stroke="#1A3447" stroke-width="1.22656" stroke-linecap="round" stroke-linejoin="round"/>
<path d="M246.229 116.025C243.748 115.39 241.367 114.413 239.154 113.124" stroke="#1A3447" stroke-width="1.22656" stroke-linecap="round" stroke-linejoin="round"/>
<path d="M243.658 101.548L239.155 113.125C234.485 111.157 229.966 108.846 225.637 106.211C221.417 103.545 219.533 98.4956 219.533 98.4956L223.386 84.9873C223.386 84.9873 238.825 98.3354 243.658 101.548Z" fill="white" stroke="#1A3447" stroke-width="1.22656" stroke-linecap="round" stroke-linejoin="round"/>
<path d="M262.93 41.2412C262.93 41.2412 271.464 49.7757 272.726 54.5423C273.989 59.3088 268.958 75.8691 268.958 75.8691C268.958 75.8691 268.469 82.8965 267.197 86.9188C265.925 90.9411 253.896 105.994 253.896 105.994C253.896 105.994 252.398 110.252 246.624 107.746C240.849 105.241 226.041 95.5004 224.289 92.4389C222.537 89.3774 222.311 87.9173 222.311 86.1652C222.489 83.9269 222.997 81.7272 223.818 79.6371C224.326 78.6292 239.38 61.0703 247.66 54.043C255.94 47.0157 262.93 41.2412 262.93 41.2412Z" fill="white" stroke="#1A3447" stroke-width="1.22656" stroke-linecap="round" stroke-linejoin="round"/>
<path d="M252.266 68.8695C252.266 68.8695 248.282 66.2131 245.182 65.9116C243.114 65.7912 241.045 66.1457 239.135 66.9478" stroke="#1A3447" stroke-width="2.45312" stroke-linecap="round" stroke-linejoin="round"/>
<path d="M262.002 68.8702C262.002 68.8702 265.544 66.7978 267.607 66.7978C268.551 66.7671 269.497 66.8175 270.433 66.9485" stroke="#1A3447" stroke-width="2.45312" stroke-linecap="round" stroke-linejoin="round"/>
<path d="M267.464 75.3604C266.48 76.0712 265.303 76.4655 264.09 76.4907C262.876 76.516 261.684 76.171 260.672 75.5017" stroke="#1A3447" stroke-width="1.22656" stroke-linecap="round" stroke-linejoin="round"/>
<path d="M249.463 75.5021C249.463 75.5021 243.566 77.8665 238.545 74.1738" stroke="#1A3447" stroke-width="1.22656" stroke-linecap="round" stroke-linejoin="round"/>
<path d="M259.492 82.5859C259.492 82.5859 260.82 86.8626 259.643 87.8988C258.465 88.935 255.95 89.9618 254.33 88.7843" stroke="#1A3447" stroke-width="1.22656" stroke-linecap="round" stroke-linejoin="round"/>
<path d="M275.818 95.6508C275.818 95.6508 282.337 91.4023 283.354 91.4023C284.372 91.4023 289.44 97.4971 292.134 101.463C294.828 105.429 295.252 107.115 295.11 108.688C294.969 110.261 294.705 116.874 293.858 119.135C293.01 121.396 287.603 135.479 287.603 135.479L290.137 149.081L274.405 156.024C274.405 156.024 271.287 130.514 271.146 129.648C271.005 128.781 268.876 124.683 268.593 121.17C268.311 117.656 268.311 114.368 268.311 109.979C268.311 105.589 269.865 94.3885 269.865 94.3885L275.818 95.6508Z" fill="white" stroke="#1A3447" stroke-width="1.22656" stroke-linecap="round" stroke-linejoin="round"/>
<path d="M292.398 104.721C292.398 104.721 286.746 98.9085 285.738 98.7672C284.73 98.6259 274.971 101.885 274.971 101.885" stroke="#1A3447" stroke-width="1.22656" stroke-linecap="round" stroke-linejoin="round"/>
<path d="M292.02 109.829C292.02 109.829 285.36 105.571 284.229 105.43C283.099 105.288 274.31 108.972 273.867 108.83" stroke="#1A3447" stroke-width="1.22656" stroke-linecap="round" stroke-linejoin="round"/>
<path d="M291.688 114.641C291.688 114.641 283.756 110.534 282.758 110.675C281.759 110.817 276.663 115.206 276.098 116.064C275.533 116.921 272.838 122.149 273.545 123.006C274.251 123.863 276.239 123.006 276.239 123.006L280.073 117.901L284.877 119.841" stroke="#1A3447" stroke-width="1.22656" stroke-linecap="round" stroke-linejoin="round"/>
<path d="M273.84 114.924L274.405 118.042" stroke="#1A3447" stroke-width="1.22656" stroke-linecap="round" stroke-linejoin="round"/>
<path d="M279.774 123.608C279.774 123.608 275.29 130.372 276.138 132.218C276.664 133.329 277.502 134.261 278.549 134.903" stroke="#1A3447" stroke-width="1.22656" stroke-linecap="round" stroke-linejoin="round"/>
<path d="M275.571 90.9972C275.571 90.9972 277.078 105.994 273.094 115.875C269.676 116.813 266.144 117.269 262.6 117.232C257.136 117.081 251.673 117.232 250.787 115.631C249.902 114.029 247.094 100.879 246.953 91.5907C246.953 91.5907 262.44 86.1271 275.571 90.9972Z" fill="white" stroke="#1A3447" stroke-width="1.22656" stroke-linecap="round" stroke-linejoin="round"/>
<path d="M251.816 115.63C251.816 116.252 256.413 116.742 262.075 116.742C267.736 116.742 272.333 116.252 272.333 115.63C272.333 115.009 267.746 114.528 262.075 114.528C256.404 114.528 251.816 115.018 251.816 115.63Z" stroke="#1A3447" stroke-width="1.22656" stroke-linecap="round" stroke-linejoin="round"/>
<path d="M269.731 218.156H311.462C311.038 206.956 305.518 184.847 305.895 182.605C306.375 179.713 305.575 171.348 304.124 169.257C302.673 167.166 296.889 167.166 296.889 167.166C296.889 167.166 274.376 172.818 273.405 173.28C271.852 174.18 270.494 175.381 269.411 176.812C267.64 178.903 268.13 179.874 268.29 187.749C268.366 193.043 269.204 208.529 269.731 218.156Z" fill="#F0C376" stroke="#1A3447" stroke-width="1.22656" stroke-linecap="round" stroke-linejoin="round"/>
<path d="M290.619 142.723C290.619 142.723 270.46 146.575 269.819 147.706C269.291 148.873 269.234 150.199 269.659 151.408C269.979 152.35 273.729 173.601 273.729 174.722C273.729 175.843 273.889 177.464 281.453 177.624C286.625 177.727 296.224 176.239 298.211 170.512C299.153 167.808 297.269 164.53 296.487 161.949C295.319 158.256 294.179 154.545 293.153 150.805C292.682 149.1 292.295 148.572 292.427 146.764C292.587 144.512 291.74 142.723 290.619 142.723Z" fill="#F0C376" stroke="#1A3447" stroke-width="1.22656" stroke-linecap="round" stroke-linejoin="round"/>
<path d="M262.046 30.0206C262.046 30.0206 257.628 21.8346 249.706 21.2223C241.784 20.61 222.256 22.3621 211.009 35.6161C199.761 48.87 196.738 67.352 193.111 75.4815C186.46 90.5535 179.471 113.256 179.471 113.256L187.515 108.668C187.515 108.668 188.269 110.797 188.731 112.436C189.192 114.075 197.105 129.807 205.687 135.44C214.268 141.073 215.587 145.802 216.35 145.5C217.113 145.199 222.294 140.79 223.66 127.065C225.026 113.34 221.23 104.674 221.23 100.558C221.23 97.0345 223.01 82.5842 226.203 76.5836C253.653 63.3956 261.057 47.928 262.828 42.926C263.874 41.9007 264.838 40.7952 265.711 39.6196C268.744 34.9378 262.046 30.0206 262.046 30.0206ZM226.938 75.4156C227.227 75.0323 227.574 74.6956 227.965 74.417C231.441 71.9396 252.24 53.693 261.519 44.3578C258.919 50.283 250.837 63.6217 226.938 75.4156Z" fill="#1A3447"/>
<path d="M176.156 128.461C176.156 128.461 191.389 153.641 191.605 157.87C191.822 162.1 179.284 193.205 179.284 193.205C179.284 193.205 190.541 194.269 192.02 195.531C193.499 196.794 195.411 198.075 195.411 198.075C195.411 198.075 199.433 198.499 205.99 198.706C212.546 198.913 214.873 199.978 215.089 200.59C215.306 201.202 215.937 203.124 215.937 203.124C215.937 203.124 212.763 224.074 211.067 224.705C209.371 225.336 166.378 228.087 160.453 227.248C154.528 226.41 142.047 221.954 136.969 221.747C131.892 221.54 131.468 218.573 131.675 214.974C131.882 211.376 150.129 163.164 155.847 151.926C161.565 140.688 167.688 119.126 170.231 118.495C172.775 117.863 176.156 120.821 176.156 120.821" fill="#F0C376"/>
<path d="M176.156 128.461C176.156 128.461 191.389 153.641 191.605 157.87C191.822 162.1 179.284 193.205 179.284 193.205C179.284 193.205 190.541 194.269 192.02 195.531C193.499 196.794 195.411 198.075 195.411 198.075C195.411 198.075 199.433 198.499 205.99 198.706C212.546 198.913 214.873 199.978 215.089 200.59C215.306 201.202 215.937 203.124 215.937 203.124C215.937 203.124 212.763 224.074 211.067 224.705C209.371 225.336 166.378 228.087 160.453 227.248C154.528 226.41 142.047 221.954 136.969 221.747C131.892 221.54 131.468 218.573 131.675 214.974C131.882 211.376 150.129 163.164 155.847 151.926C161.565 140.688 167.688 119.126 170.231 118.495C172.775 117.863 176.156 120.821 176.156 120.821" stroke="#1A3447" stroke-width="1.22656" stroke-linecap="round" stroke-linejoin="round"/>
<path d="M149.637 201.889C147.602 203.349 146.236 204.423 146.236 204.423" stroke="#1A3447" stroke-width="1.22656" stroke-linecap="round" stroke-linejoin="round"/>
<path d="M179.244 193.205C179.244 193.205 166.339 192.367 160.206 195.325C157.787 196.538 155.449 197.907 153.207 199.423" stroke="#1A3447" stroke-width="1.22656" stroke-linecap="round" stroke-linejoin="round"/>
<path d="M191.913 148.438C191.913 148.438 194.739 156.822 194.409 160.392C194.08 163.963 191.197 168.955 191.197 168.955" stroke="#1A3447" stroke-width="1.22656" stroke-linecap="round" stroke-linejoin="round"/>
<path d="M230.789 204.064C230.789 204.064 237.383 202.604 241.274 200.485C245.164 198.365 250.392 197.075 253.642 197.885C256.892 198.695 266.99 199.345 269.43 199.514C271.87 199.684 274.639 199.514 274.319 200.004C273.999 200.494 287.008 199.345 290.107 198.695C293.206 198.045 302.353 196.029 302.353 197.169C302.353 198.309 300.733 200.748 297.803 201.879C294.873 203.009 282.599 205.534 282.599 205.534C282.599 205.534 268.761 211.883 265.021 212.862C261.282 213.842 250.204 213.804 249.394 213.804C248.584 213.804 228.905 219.485 228.905 219.485C228.905 219.485 228.802 209.434 230.789 204.064Z" fill="white" stroke="#1A3447" stroke-width="1.22656" stroke-linecap="round" stroke-linejoin="round"/>
<path d="M274.294 200.006C274.294 200.006 275.915 200.948 272.335 202.766C268.755 204.584 265.336 205.865 263.706 205.696C261.571 205.377 259.455 204.943 257.367 204.396C256.877 204.235 253.457 205.338 251.178 206.185" stroke="#1A3447" stroke-width="1.22656" stroke-linecap="round" stroke-linejoin="round"/>
<path d="M234.011 202.85C234.011 202.85 232.589 213.372 232.768 218.016C232.947 222.66 233.116 223.724 231.694 224.073C230.272 224.421 210.97 225.326 209.397 225.326C207.824 225.326 204.932 224.252 204.583 221.755C204.235 219.259 204.762 205.525 206.901 204.102C209.039 202.68 209.397 202.492 210.461 202.671C211.526 202.85 219.881 202.492 224.591 202.492C229.301 202.492 233.474 201.776 234.011 202.85Z" fill="#F0C376" stroke="#1A3447" stroke-width="1.22656" stroke-linecap="round" stroke-linejoin="round"/>
<path d="M242.727 195.23C242.727 197.802 257.921 201.683 274.519 201.683C291.117 201.683 306.312 197.802 306.312 195.23C306.312 192.659 291.117 192.348 274.519 192.348C257.921 192.348 242.727 192.659 242.727 195.23Z" fill="white" stroke="#1A3447" stroke-width="1.22656" stroke-linecap="round" stroke-linejoin="round"/>
<path d="M242.727 195.229C242.727 197.801 256.96 199.892 274.519 199.892C292.078 199.892 306.312 197.801 306.312 195.229C306.312 192.658 292.078 190.566 274.519 190.566C256.96 190.566 242.727 192.658 242.727 195.229Z" fill="white" stroke="#1A3447" stroke-width="1.22656" stroke-linecap="round" stroke-linejoin="round"/>
<path d="M274.518 197.707C285.922 197.707 295.166 196.598 295.166 195.229C295.166 193.861 285.922 192.752 274.518 192.752C263.114 192.752 253.869 193.861 253.869 195.229C253.869 196.598 263.114 197.707 274.518 197.707Z" fill="white" stroke="#1A3447" stroke-width="1.22656" stroke-linecap="round" stroke-linejoin="round"/>
<path d="M411.956 213.541H315.109V220.154H411.956V213.541Z" fill="white" stroke="#1A3447" stroke-width="1.22656" stroke-linecap="round" stroke-linejoin="round"/>
<path d="M415.978 213.541H374.135V220.154H415.978V213.541Z" fill="white" stroke="#1A3447" stroke-width="1.22656" stroke-linecap="round" stroke-linejoin="round"/>
<path d="M406.878 193.268H310.031V199.88H406.878V193.268Z" fill="#F0C376" stroke="#1A3447" stroke-width="1.22656" stroke-linecap="round" stroke-linejoin="round"/>
<path d="M410.908 193.268H369.064V199.88H410.908V193.268Z" fill="white" stroke="#1A3447" stroke-width="1.22656" stroke-linecap="round" stroke-linejoin="round"/>
<path d="M369.066 193.269L410.656 189.953H344.895L310.031 193.269H369.066Z" fill="#F0C376" stroke="#1A3447" stroke-width="1.22656" stroke-linecap="round" stroke-linejoin="round"/>
<path d="M369.412 195.662H380.622" stroke="#1A3447" stroke-width="0.613281" stroke-linecap="round" stroke-linejoin="round"/>
<path d="M375.488 197.553H383.09" stroke="#1A3447" stroke-width="0.613281" stroke-linecap="round" stroke-linejoin="round"/>
<path d="M410.653 196.037H397.729" stroke="#1A3447" stroke-width="0.613281" stroke-linecap="round" stroke-linejoin="round"/>
<path d="M403.242 197.178H389.979" stroke="#1A3447" stroke-width="0.613281" stroke-linecap="round" stroke-linejoin="round"/>
<path d="M331.265 205.373H323.889" stroke="#1A3447" stroke-width="0.613281" stroke-linecap="round" stroke-linejoin="round"/>
<path d="M411.956 200.031H315.109V206.644H411.956V200.031Z" fill="white" stroke="#1A3447" stroke-width="1.22656" stroke-linecap="round" stroke-linejoin="round"/>
<path d="M415.978 200.031H374.135V206.644H415.978V200.031Z" fill="white" stroke="#1A3447" stroke-width="1.22656" stroke-linecap="round" stroke-linejoin="round"/>
<path d="M315.07 201.539H324.745" stroke="#1A3447" stroke-width="0.613281" stroke-linecap="round" stroke-linejoin="round"/>
<path d="M316.99 202.879H337.959" stroke="#1A3447" stroke-width="0.613281" stroke-linecap="round" stroke-linejoin="round"/>
<path d="M373.784 202.207H356.922" stroke="#1A3447" stroke-width="0.613281" stroke-linecap="round" stroke-linejoin="round"/>
<path d="M366.982 204.223H385.276" stroke="#1A3447" stroke-width="0.613281" stroke-linecap="round" stroke-linejoin="round"/>
<path d="M387 204.131H390.636" stroke="#1A3447" stroke-width="0.613281" stroke-linecap="round" stroke-linejoin="round"/>
<path d="M414.826 206.785H317.979V213.398H414.826V206.785Z" fill="#F0C376" stroke="#1A3447" stroke-width="1.22656" stroke-linecap="round" stroke-linejoin="round"/>
<path d="M418.857 206.785H377.014V213.398H418.857V206.785Z" fill="white" stroke="#1A3447" stroke-width="1.22656" stroke-linecap="round" stroke-linejoin="round"/>
<path d="M377.137 209.303H390.07" stroke="#1A3447" stroke-width="0.613281" stroke-linecap="round" stroke-linejoin="round"/>
<path d="M392.076 209.488H398.114" stroke="#1A3447" stroke-width="0.613281" stroke-linecap="round" stroke-linejoin="round"/>
<path d="M379.531 210.828H398.013" stroke="#1A3447" stroke-width="0.613281" stroke-linecap="round" stroke-linejoin="round"/>
<path d="M418.511 211.213H412.096" stroke="#1A3447" stroke-width="0.613281" stroke-linecap="round" stroke-linejoin="round"/>
<path d="M415.827 217.055H399.832" stroke="#1A3447" stroke-width="0.613281" stroke-linecap="round" stroke-linejoin="round"/>
<path d="M388.727 217.439H394.755" stroke="#1A3447" stroke-width="0.613281" stroke-linecap="round" stroke-linejoin="round"/>
<path d="M393.697 216.291H406.819" stroke="#1A3447" stroke-width="0.613281" stroke-linecap="round" stroke-linejoin="round"/>
<path d="M382.016 218.779H415.73" stroke="#1A3447" stroke-width="0.613281" stroke-linecap="round" stroke-linejoin="round"/>
<path d="M374.453 222.225H380.586" stroke="#1A3447" stroke-width="0.613281" stroke-linecap="round" stroke-linejoin="round"/>
<path d="M408.865 220.305H312.018V226.918H408.865V220.305Z" fill="#1A3447" stroke="#1A3447" stroke-width="1.22656" stroke-linecap="round" stroke-linejoin="round"/>
<path d="M412.894 220.305H371.051V226.918H412.894V220.305Z" fill="white" stroke="#1A3447" stroke-width="1.22656" stroke-linecap="round" stroke-linejoin="round"/>
<path d="M412.362 222.424H407.002" stroke="#1A3447" stroke-width="0.613281" stroke-linecap="round" stroke-linejoin="round"/>
<path d="M412.84 223.949H400.48" stroke="#1A3447" stroke-width="0.613281" stroke-linecap="round" stroke-linejoin="round"/>
<path d="M412.548 225.295H408.045" stroke="#1A3447" stroke-width="0.613281" stroke-linecap="round" stroke-linejoin="round"/>
<path d="M371.75 224.146H376.064" stroke="#1A3447" stroke-width="0.613281" stroke-linecap="round" stroke-linejoin="round"/>
<path d="M373.379 225.391H399.048" stroke="#1A3447" stroke-width="0.613281" stroke-linecap="round" stroke-linejoin="round"/>
<path d="M347.07 216.941H376.037" stroke="#1A3447" stroke-width="0.613281" stroke-linecap="round" stroke-linejoin="round"/>
<path d="M335.389 216.771H342.501" stroke="#1A3447" stroke-width="0.613281" stroke-linecap="round" stroke-linejoin="round"/>
<path d="M315.908 215.924H322.681" stroke="#1A3447" stroke-width="0.613281" stroke-linecap="round" stroke-linejoin="round"/>
<path d="M318.621 217.957H328.107" stroke="#1A3447" stroke-width="0.613281" stroke-linecap="round" stroke-linejoin="round"/>
<path d="M64.6941 103.28C64.6941 103.28 62.1413 110.308 56.7154 111.259C51.2895 112.211 41.7187 101.736 47.7852 96.2625C53.8517 90.7895 62.1696 99.4559 64.6941 103.28Z" fill="#F0C376" stroke="#1A3447" stroke-width="0.919922" stroke-linecap="round" stroke-linejoin="round"/>
<path d="M72.9935 68.8231C72.9935 68.8231 64.9959 88.2849 68.2082 97.8556C71.4204 107.426 91.1835 114.454 96.9203 102.01C102.657 89.566 89.9024 72.0165 85.1171 68.1826C80.3317 64.3486 74.5855 65.6298 72.9935 68.8231Z" fill="#F0C376" stroke="#1A3447" stroke-width="0.919922" stroke-linecap="round" stroke-linejoin="round"/>
<path d="M119.577 77.1218C119.577 77.1218 105.861 89.5657 104.26 102.009C102.658 114.453 111.918 118.918 121.498 117.326C131.078 115.734 135.854 91.4779 132.981 80.3058C130.108 69.1337 119.577 77.1218 119.577 77.1218Z" fill="#F0C376" stroke="#1A3447" stroke-width="0.919922" stroke-linecap="round" stroke-linejoin="round"/>
<path d="M122.127 146.01C122.127 146.01 106.81 146.65 106.179 153.989C105.548 161.327 112.876 162.928 120.214 156.541C127.553 150.155 128.513 146.358 122.127 146.01Z" fill="#F0C376" stroke="#1A3447" stroke-width="0.919922" stroke-linecap="round" stroke-linejoin="round"/>
<path d="M106.443 155.769C106.443 155.769 118.52 150.249 123.955 149.288" stroke="#1A3447" stroke-width="0.919922" stroke-miterlimit="10"/>
<path d="M125.546 194.049C125.546 194.049 114.242 183.687 108.59 188.397C102.938 193.107 106.979 199.447 116.682 200.154C126.384 200.86 129.813 198.816 125.546 194.049Z" fill="#F0C376" stroke="#1A3447" stroke-width="0.919922" stroke-linecap="round" stroke-linejoin="round"/>
<path d="M107.576 189.785C107.576 189.785 120.011 194.495 124.532 197.632" stroke="#1A3447" stroke-width="0.919922" stroke-miterlimit="10"/>
<path d="M66.1994 191.001C66.1994 191.001 81.7047 176.645 89.4856 183.154C97.2665 189.663 91.7087 198.386 78.3323 199.357C64.9559 200.327 60.2836 197.548 66.1994 191.001Z" fill="#F0C376" stroke="#1A3447" stroke-width="0.919922" stroke-linecap="round" stroke-linejoin="round"/>
<path d="M90.9655 185.104C90.9655 185.104 73.8399 191.537 67.6133 195.937" stroke="#1A3447" stroke-width="0.919922" stroke-miterlimit="10"/>
<path d="M84.158 161.354C84.158 161.354 82.5661 169.012 76.8199 171.885C71.0737 174.758 60.8718 168.692 66.2883 159.441C71.7048 150.191 81.2849 157.529 84.158 161.354Z" fill="#F0C376" stroke="#1A3447" stroke-width="0.919922" stroke-linecap="round" stroke-linejoin="round"/>
<path d="M70.7601 137.428C70.7601 137.428 67.887 131.041 56.7149 135.195C45.5428 139.349 41.0777 145.717 48.105 147.959C55.1323 150.201 70.7601 137.428 70.7601 137.428Z" fill="#F0C376" stroke="#1A3447" stroke-width="0.919922" stroke-linecap="round" stroke-linejoin="round"/>
<path d="M68.6222 137.136C68.6222 137.136 56.7907 138.417 50.3945 143.852" stroke="#1A3447" stroke-width="0.919922" stroke-miterlimit="10"/>
<path d="M102.676 60.8421C102.676 60.8421 104.56 65.3071 108.422 64.3557C112.284 63.4043 113.207 57.6487 119.264 59.2501C125.321 60.8515 130.437 67.86 130.437 64.676C130.437 61.492 122.778 53.1836 114.159 53.1836C105.539 53.1836 102.987 56.6973 102.676 60.8421Z" fill="#F0C376" stroke="#1A3447" stroke-width="0.919922" stroke-linecap="round" stroke-linejoin="round"/>
<path d="M70.7617 137.428C70.7617 137.428 84.4961 134.791 90.2234 150.041C90.7894 151.583 91.2675 153.156 91.6553 154.751" stroke="#1A3447" stroke-width="0.919922" stroke-miterlimit="10"/>
<path d="M128.111 122.65C128.111 122.65 130.937 116.264 142.147 120.418C153.357 124.572 157.775 130.94 150.719 133.182C143.664 135.424 128.111 122.65 128.111 122.65Z" fill="#F0C376" stroke="#1A3447" stroke-width="0.919922" stroke-linecap="round" stroke-linejoin="round"/>
<path d="M130.654 123.063C130.654 123.063 142.166 122.423 147.61 129.139" stroke="#1A3447" stroke-width="0.919922" stroke-miterlimit="10"/>
<path d="M128.108 122.649C124.878 122.195 121.586 122.642 118.594 123.94" stroke="#1A3447" stroke-width="0.919922" stroke-miterlimit="10"/>
<path d="M78.0819 111.202C71.3466 104.326 64.6961 103.28 64.6961 103.28C64.6961 103.28 54.871 100.68 51.0371 104.222" stroke="#1A3447" stroke-width="0.919922" stroke-miterlimit="10"/>
<path d="M79.447 75.8494L78.8535 73.1836" stroke="#1A3447" stroke-width="0.919922" stroke-miterlimit="10"/>
<path d="M94.9935 216.914C94.9935 216.914 96.4254 161.967 94.9935 145.275C93.5617 128.583 86.8829 109.046 86.8829 109.046L80.0723 78.6758" stroke="#1A3447" stroke-width="0.919922" stroke-miterlimit="10"/>
<path d="M123.346 87.6532L124.58 85.0156" stroke="#1A3447" stroke-width="0.919922" stroke-miterlimit="10"/>
<path d="M98.3242 216.859C98.3242 216.859 98.8046 166.735 100.707 152.435C102.61 138.136 110.241 115.697 110.241 115.697L121.95 90.6211" stroke="#1A3447" stroke-width="0.919922" stroke-miterlimit="10"/>
<path d="M106.447 155.77C106.447 155.77 103.112 184.501 101.209 216.924" stroke="#1A3447" stroke-width="0.919922" stroke-miterlimit="10"/>
<path d="M90.2219 216.858C90.2219 216.858 91.1639 171.029 89.2799 164.831C87.3959 158.633 84.1742 161.355 84.1742 161.355C84.1742 161.355 75.3477 162.391 72.1543 167.516" stroke="#1A3447" stroke-width="0.919922" stroke-miterlimit="10"/>
<path d="M92.4062 158.256C94.9026 172.235 92.6041 216.877 92.6041 216.877" stroke="#1A3447" stroke-width="0.919922" stroke-miterlimit="10"/>
<path d="M115.864 125.436C112.48 127.872 109.947 131.308 108.62 135.261C102.902 150.521 103.552 216.923 103.552 216.923" stroke="#1A3447" stroke-width="0.919922" stroke-miterlimit="10"/>
<path d="M79.7402 113.041C83.3305 117.364 86.0755 122.323 87.832 127.661C95.4622 149.591 98.3259 206.384 96.8941 216.878" stroke="#1A3447" stroke-width="0.919922" stroke-miterlimit="10"/>
<path d="M99.1155 133.547C98.6539 161.223 98.3242 216.857 98.3242 216.857" stroke="#1A3447" stroke-width="0.919922" stroke-miterlimit="10"/>
<path d="M99.1758 130.099C99.4961 111.796 99.8634 93.8792 100.24 84.2519C101.182 59.4585 102.671 60.8432 102.671 60.8432C102.671 60.8432 104.432 55.276 114.351 55.9166" stroke="#1A3447" stroke-width="0.919922" stroke-miterlimit="10"/>
<path d="M86.9635 151.003C86.9635 151.003 78.9848 143.891 82.1782 140.387C85.3715 136.883 105.154 134.33 110.9 138.87C116.646 143.411 103.872 149.835 99.0871 151.239C94.3017 152.642 88.5461 152.171 86.9635 151.003Z" fill="#F0C376" stroke="#1A3447" stroke-width="0.919922" stroke-linecap="round" stroke-linejoin="round"/>
<path d="M94.3313 145.181C94.2168 145.881 94.157 146.59 94.1523 147.3" stroke="#1A3447" stroke-width="0.919922" stroke-miterlimit="10"/>
<path d="M97.0715 136.872C96.252 138.577 95.5685 140.344 95.0273 142.157" stroke="#1A3447" stroke-width="0.919922" stroke-miterlimit="10"/>
<path d="M86.9635 197.509C86.9635 197.509 78.9848 190.397 82.1782 186.902C85.3715 183.407 105.154 180.836 110.9 185.385C116.646 189.935 103.872 196.35 99.0871 197.744C94.3017 199.139 88.5461 198.677 86.9635 197.509Z" fill="#F0C376" stroke="#1A3447" stroke-width="0.919922" stroke-linecap="round" stroke-linejoin="round"/>
<path d="M97.0725 183.381C97.0725 183.381 94.1523 189.221 94.1523 193.818" stroke="#1A3447" stroke-width="0.919922" stroke-miterlimit="10"/>
<path d="M92.9079 177.84C92.9079 177.84 87.4914 173.007 89.658 170.634C91.8246 168.26 105.258 166.517 109.157 169.607C113.057 172.697 104.391 177.049 101.141 178C97.8911 178.951 93.9912 178.631 92.9079 177.84Z" fill="#F0C376" stroke="#1A3447" stroke-width="0.919922" stroke-linecap="round" stroke-linejoin="round"/>
<path d="M99.7653 168.252C99.7653 168.252 97.7871 172.218 97.7871 175.326" stroke="#1A3447" stroke-width="0.919922" stroke-miterlimit="10"/>
<path d="M107.003 208.945H85.4121V219.194H107.003V208.945Z" fill="#1A3447" stroke="#1A3447" stroke-width="0.919922" stroke-linecap="round" stroke-linejoin="round"/>
<path d="M404.315 19.1787H328.635V110.374H404.315V19.1787Z" stroke="#1A3447" stroke-width="1.22656" stroke-linecap="round" stroke-linejoin="round"/>
<path d="M399.956 24.4355H333.008V105.118H399.956V24.4355Z" stroke="#1A3447" stroke-width="1.22656" stroke-linecap="round" stroke-linejoin="round"/>
<path d="M380.861 47.4463H352.102V82.1025H380.861V47.4463Z" stroke="#1A3447" stroke-width="1.22656" stroke-linecap="round" stroke-linejoin="round"/>
</svg>
