<svg width="319" height="332" viewBox="0 0 319 332" fill="none" xmlns="http://www.w3.org/2000/svg">
<path d="M237.089 118.624C235.013 132.769 228.282 148.957 215.694 155.827C196.675 166.205 197.644 183.978 161.013 189.489C155.661 190.319 150.231 190.534 144.83 190.128C142.18 189.919 139.547 189.534 136.948 188.975C113.951 184.029 98.9638 166.188 93.94 145.424C87.3203 118.116 102.909 101.428 113.203 91.4272C123.496 81.4261 131.89 48.8662 167.849 43.135C173.347 42.2373 178.935 42.0134 184.487 42.4682C197.178 43.5535 210.885 48.7742 220.15 58.5161C220.848 59.2474 221.524 60.0053 222.18 60.7794C235.028 75.9762 239.92 99.3419 237.089 118.624Z" fill="#F0C376"/>
<path opacity="0.7" d="M237.089 118.624C235.013 132.769 228.282 148.957 215.694 155.827C196.675 166.205 197.644 183.978 161.013 189.489C155.661 190.319 150.231 190.534 144.83 190.128C142.18 189.919 139.547 189.534 136.948 188.975C113.951 184.029 98.9638 166.188 93.94 145.424C87.3203 118.116 102.909 101.428 113.203 91.4272C123.496 81.4261 131.89 48.8662 167.849 43.135C173.347 42.2373 178.935 42.0134 184.487 42.4682C197.178 43.5535 210.885 48.7742 220.15 58.5161C220.848 59.2474 221.524 60.0053 222.18 60.7794C235.028 75.9762 239.92 99.3419 237.089 118.624Z" fill="white"/>
<path d="M171.49 153.322C171.49 153.322 161.9 158.437 157.759 159.125C153.617 159.813 140.12 159.016 129.656 163.574C119.191 168.132 104.53 181.319 101.269 187.002C98.0082 192.684 96.1168 196.768 96.1168 196.768C96.1168 196.768 82.8085 215.691 79.573 227.651C76.3375 239.612 74.5552 255.607 75.2617 259.849C75.9682 264.091 78.1155 273.304 77.7793 276.84C77.4432 280.376 76.03 285.198 77.7469 285.105C79.4638 285.012 86.1143 282.042 86.1143 282.042C86.1143 282.042 100.12 280.663 109.505 277.385C118.891 274.107 130.937 265.503 141.395 246.726C151.852 227.948 159.654 206.27 160.228 201.498C160.802 196.725 161.74 180.767 161.172 176.368C160.605 171.969 159.102 167.204 161.773 163.333C162.874 161.749 170.057 162.268 172.935 157.981C175.813 153.695 172.912 152.944 171.49 153.322Z" fill="#F0C376" stroke="#1A3447" stroke-width="0.747691" stroke-miterlimit="10"/>
<path d="M79.4374 279.038C79.4374 279.038 97.1257 256.652 108.209 235.557C117.455 217.829 127.596 200.582 138.593 183.882C147.089 171.18 156.842 161.776 159.231 160.272" stroke="#1A3447" stroke-width="0.747691" stroke-miterlimit="10"/>
<path d="M159.472 163.467C152.944 169.01 147.075 175.286 141.981 182.17C133.31 193.809 119.5 215.823 115.316 224.159" stroke="#1A3447" stroke-width="0.747691" stroke-miterlimit="10"/>
<path d="M117.582 186.424C126.309 184.79 138.591 183.882 138.591 183.882" stroke="#1A3447" stroke-width="0.747691" stroke-miterlimit="10"/>
<path d="M101.008 192.68C101.008 192.68 105.493 189.37 113.892 187.226C114.474 187.078 115.102 186.933 115.759 186.791" stroke="#1A3447" stroke-width="0.747691" stroke-miterlimit="10"/>
<path d="M135.525 171.077C141.795 170.816 148.003 170.169 149.051 169.545" stroke="#1A3447" stroke-width="0.747691" stroke-miterlimit="10"/>
<path d="M115.516 174.905C115.516 174.905 127.326 171.371 134.044 171.132" stroke="#1A3447" stroke-width="0.747691" stroke-miterlimit="10"/>
<path d="M94.4263 206.957C99.6335 203.894 105.448 202.009 111.461 201.432C121.185 200.588 126.753 199.823 126.753 199.823" stroke="#1A3447" stroke-width="0.747691" stroke-miterlimit="10"/>
<path d="M114.236 216.011C115.279 216.067 116.326 215.992 117.351 215.787" stroke="#1A3447" stroke-width="0.747691" stroke-miterlimit="10"/>
<path d="M84.4941 219.732C84.4941 219.732 90.3295 218.34 98.5995 216.97C103.099 216.323 107.64 216.01 112.185 216.034" stroke="#1A3447" stroke-width="0.747691" stroke-miterlimit="10"/>
<path d="M98.3084 240.341C101.574 239.255 104.132 238.383 104.132 238.383" stroke="#1A3447" stroke-width="0.747691" stroke-miterlimit="10"/>
<path d="M79.4263 241.42C79.4263 241.42 90.8047 242.782 95.3367 241.309L96.2436 241.016" stroke="#1A3447" stroke-width="0.747691" stroke-miterlimit="10"/>
<path d="M81.5182 230.146C81.5182 230.146 96.1071 228.726 101.961 228.258C107.815 227.789 109.803 226.757 109.803 226.757" stroke="#1A3447" stroke-width="0.747691" stroke-miterlimit="10"/>
<path d="M80.0477 252.397C80.0477 252.397 92.5496 253.089 97.0796 251.307" stroke="#1A3447" stroke-width="0.747691" stroke-miterlimit="10"/>
<path d="M77.8282 264.142C77.8282 264.142 87.2934 264.232 89.9643 262.405" stroke="#1A3447" stroke-width="0.747691" stroke-miterlimit="10"/>
<path d="M143.402 181.496C144.678 187.525 146.54 193.414 148.961 199.081C152.817 207.894 152.561 213.563 152.362 216.329" stroke="#1A3447" stroke-width="0.747691" stroke-miterlimit="10"/>
<path d="M140.596 220.248C140.958 221.647 141.28 222.946 141.548 224.095C143.711 233.33 141.606 239.839 141.606 239.839" stroke="#1A3447" stroke-width="0.747691" stroke-miterlimit="10"/>
<path d="M133.501 195.48C133.501 195.48 137.263 207.839 139.871 217.516" stroke="#1A3447" stroke-width="0.747691" stroke-miterlimit="10"/>
<path d="M129.613 254.052C129.625 255.789 129.413 257.519 128.981 259.202" stroke="#1A3447" stroke-width="0.747691" stroke-miterlimit="10"/>
<path d="M122.561 212.596C122.561 212.596 124.038 218.787 127.057 232.991C128.307 238.577 129.145 244.248 129.565 249.957" stroke="#1A3447" stroke-width="0.747691" stroke-miterlimit="10"/>
<path d="M113.205 238.43C113.794 241.001 114.477 244.234 115.187 248.02C116.516 255.252 116.499 262.667 115.139 269.893" stroke="#1A3447" stroke-width="0.747691" stroke-miterlimit="10"/>
<path d="M111.531 231.706C111.531 231.706 111.987 233.284 112.677 236.161" stroke="#1A3447" stroke-width="0.747691" stroke-miterlimit="10"/>
<path d="M103.104 252.011C103.71 255.305 104.569 260.373 105.397 265.382C106.81 273.866 105.879 276.212 105.879 276.212" stroke="#1A3447" stroke-width="0.747691" stroke-miterlimit="10"/>
<path d="M102.434 248.259C102.434 248.259 102.559 248.981 102.779 250.206" stroke="#1A3447" stroke-width="0.747691" stroke-miterlimit="10"/>
<path d="M91.7362 264.144C91.7362 264.144 92.4166 267.48 92.8429 272.03C93.2692 276.579 92.9017 278.605 92.9017 278.605" stroke="#1A3447" stroke-width="0.747691" stroke-miterlimit="10"/>
<path d="M98.1771 254.459C98.1771 254.459 98.5541 261.931 99.2 269.085C99.846 276.239 99.049 278.113 99.049 278.113" stroke="#1A3447" stroke-width="0.747691" stroke-miterlimit="10"/>
<path d="M153.663 184.427C158.441 195.331 158.307 200.229 158.307 200.229" stroke="#1A3447" stroke-width="0.747691" stroke-miterlimit="10"/>
<path d="M150.973 171.427C150.973 171.427 149.227 173.185 152.591 181.835" stroke="#1A3447" stroke-width="0.747691" stroke-miterlimit="10"/>
<path d="M164.339 99.9077C164.339 99.9077 167.539 110.299 167.424 114.49C167.308 118.68 163.964 131.768 166.45 142.93C168.935 154.093 179.1 170.962 184.056 175.252C189.013 179.542 192.668 182.162 192.668 182.162C192.668 182.162 208.721 198.844 219.84 204.274C230.96 209.704 246.353 214.523 250.634 214.631C254.916 214.738 264.383 214.387 267.798 215.371C271.212 216.356 275.64 218.708 275.901 216.971C276.161 215.234 274.509 208.146 274.509 208.146C274.509 208.146 275.819 194.132 274.39 184.319C272.961 174.506 266.796 161.022 250.352 147.183C233.908 133.345 214.101 121.57 209.523 120.101C204.946 118.632 189.463 114.68 185.03 114.395C180.598 114.11 175.639 114.686 172.35 111.327C171.001 109.95 172.875 102.993 169.218 99.3487C165.561 95.7041 164.23 98.4357 164.339 99.9077Z" fill="#F0C376" stroke="#1A3447" stroke-width="0.747691" stroke-miterlimit="10"/>
<path d="M270.267 214.173C270.267 214.173 251.651 192.583 233.047 177.666C217.4 165.223 202.396 151.995 188.09 138.032C177.243 127.244 169.855 115.92 168.837 113.305" stroke="#1A3447" stroke-width="0.747691" stroke-miterlimit="10"/>
<path d="M172.016 113.648C176.216 121.11 181.26 128.064 187.049 134.373C196.831 145.1 215.846 162.826 223.203 168.538" stroke="#1A3447" stroke-width="0.747691" stroke-miterlimit="10"/>
<path d="M186.593 159.125C186.624 150.247 188.082 138.014 188.082 138.014" stroke="#1A3447" stroke-width="0.747691" stroke-miterlimit="10"/>
<path d="M189.583 176.595C189.583 176.595 187.186 171.562 186.682 162.914C186.64 162.31 186.62 161.668 186.627 160.987" stroke="#1A3447" stroke-width="0.747691" stroke-miterlimit="10"/>
<path d="M174.936 138.585C175.868 132.391 176.424 126.159 175.971 125.035" stroke="#1A3447" stroke-width="0.747691" stroke-miterlimit="10"/>
<path d="M174.886 158.956C174.886 158.956 173.638 146.709 174.703 140.056" stroke="#1A3447" stroke-width="0.747691" stroke-miterlimit="10"/>
<path d="M202.342 185.762C200.326 180.067 199.581 174 200.157 167.987C201.181 158.275 201.489 152.664 201.489 152.664" stroke="#1A3447" stroke-width="0.747691" stroke-miterlimit="10"/>
<path d="M214.999 168.033C215.254 167.019 215.38 165.976 215.372 164.93" stroke="#1A3447" stroke-width="0.747691" stroke-miterlimit="10"/>
<path d="M213.006 197.939C213.006 197.939 212.753 191.94 212.984 183.559C213.205 179.019 213.761 174.502 214.648 170.044" stroke="#1A3447" stroke-width="0.747691" stroke-miterlimit="10"/>
<path d="M235.847 188.268C235.403 184.837 235.035 182.17 235.035 182.17" stroke="#1A3447" stroke-width="0.747691" stroke-miterlimit="10"/>
<path d="M233.333 207.035C233.333 207.035 236.829 196.132 236.257 191.417C236.216 191.101 236.175 190.786 236.141 190.467" stroke="#1A3447" stroke-width="0.747691" stroke-miterlimit="10"/>
<path d="M222.656 202.842C222.656 202.842 224.039 188.257 224.685 182.408C225.33 176.56 224.713 174.455 224.713 174.455" stroke="#1A3447" stroke-width="0.747691" stroke-miterlimit="10"/>
<path d="M244.226 208.513C244.226 208.513 247.275 196.375 246.396 191.582" stroke="#1A3447" stroke-width="0.747691" stroke-miterlimit="10"/>
<path d="M255.331 212.903C255.331 212.903 257.215 203.624 255.927 200.663" stroke="#1A3447" stroke-width="0.747691" stroke-miterlimit="10"/>
<path d="M186.638 132.84C192.8 132.736 198.937 132.028 204.96 130.725C214.341 128.618 219.858 129.946 222.531 130.666" stroke="#1A3447" stroke-width="0.747691" stroke-miterlimit="10"/>
<path d="M224.167 142.96C225.61 142.869 226.953 142.797 228.125 142.75C237.575 142.391 243.591 145.691 243.591 145.691" stroke="#1A3447" stroke-width="0.747691" stroke-miterlimit="10"/>
<path d="M198.499 145.213C198.499 145.213 211.351 143.873 221.347 143.149" stroke="#1A3447" stroke-width="0.747691" stroke-miterlimit="10"/>
<path d="M255.264 160.14C256.975 160.46 258.636 161.004 260.205 161.758" stroke="#1A3447" stroke-width="0.747691" stroke-miterlimit="10"/>
<path d="M213.222 159.211C213.222 159.211 219.605 158.926 234.109 158.674C239.833 158.509 245.561 158.77 251.246 159.455" stroke="#1A3447" stroke-width="0.747691" stroke-miterlimit="10"/>
<path d="M236.816 173.301C239.446 173.216 242.749 173.155 246.608 173.18C253.958 173.249 261.233 174.673 268.068 177.38" stroke="#1A3447" stroke-width="0.747691" stroke-miterlimit="10"/>
<path d="M229.893 173.674C229.893 173.674 231.53 173.527 234.488 173.396" stroke="#1A3447" stroke-width="0.747691" stroke-miterlimit="10"/>
<path d="M248.225 185.805C251.595 185.89 256.73 185.986 261.798 186.109C270.395 186.34 272.542 187.69 272.542 187.69" stroke="#1A3447" stroke-width="0.747691" stroke-miterlimit="10"/>
<path d="M244.419 185.75L246.394 185.777" stroke="#1A3447" stroke-width="0.747691" stroke-miterlimit="10"/>
<path d="M257.978 199.266C257.978 199.266 261.372 199.234 265.931 199.67C270.489 200.107 272.396 200.861 272.396 200.861" stroke="#1A3447" stroke-width="0.747691" stroke-miterlimit="10"/>
<path d="M249.697 191.103C249.697 191.103 257.102 192.154 264.251 192.874C271.401 193.595 273.083 194.743 273.083 194.743" stroke="#1A3447" stroke-width="0.747691" stroke-miterlimit="10"/>
<path d="M191.484 123.32C203.097 120.696 207.88 121.764 207.88 121.764" stroke="#1A3447" stroke-width="0.747691" stroke-miterlimit="10"/>
<path d="M178.209 123.497C178.209 123.497 179.603 125.541 188.738 123.88" stroke="#1A3447" stroke-width="0.747691" stroke-miterlimit="10"/>
<path d="M214.178 89.9563C214.178 89.9563 217.468 91.6638 219.404 96.0847C220.31 98.2231 220.708 100.542 220.566 102.861C220.423 105.179 219.745 107.432 218.584 109.443C216.338 113.234 207.767 119.172 200.505 121.242C193.244 123.311 185.094 122.127 179.274 117.394C173.453 112.661 173.268 104.343 172.98 103.084C172.691 101.826 172.569 93.8505 177.964 87.8993C183.358 81.9481 188.175 78.6326 195.055 77.9452C201.934 77.2578 207.861 79.5629 210.376 83.1011C212.891 86.6393 212.854 89.406 212.854 89.406L214.178 89.9563Z" fill="white"/>
<path d="M174.85 92.6408L176.721 89.4378C176.963 89.0997 177.224 88.7654 177.498 88.4387C176.7 90.2849 175.46 93.4915 175.064 96.4483C174.468 100.938 175.141 102.537 179.345 108.976C183.549 115.414 185.311 115.52 187.69 116.868C190.069 118.216 196.452 119.089 203.476 117.719C207.698 116.88 211.614 114.911 214.804 112.021L219.614 107.262C219.332 108.015 218.986 108.743 218.581 109.438C216.335 113.228 207.764 119.166 200.502 121.236C193.241 123.305 185.091 122.121 179.271 117.388C173.45 112.655 173.265 104.337 172.977 103.079C172.755 102.139 172.64 97.4195 174.85 92.6408Z" fill="#362822"/>
<path d="M210.639 89.7967C210.639 89.7967 209.663 89.1795 205.721 92.6568C201.778 96.134 196.091 97.6363 192.824 100.475C189.558 103.314 186.598 106.178 185.467 107.348C184.336 108.518 182.651 109.139 181.696 110.178C180.741 111.217 179.911 112.922 179.514 112.649C179.117 112.375 181.975 109.266 182.121 108.193C182.266 107.12 181.689 104.603 182.355 103.763C183.021 102.922 185.346 102.046 185.148 101.547C184.951 101.048 180.653 98.301 182.658 99.1554C184.664 100.01 186.592 101.54 187.31 100.815C188.028 100.089 188.813 98.2605 188.813 98.2605C188.813 98.2605 188.19 97.7876 189.355 97.4607C190.521 97.1337 192.324 95.3196 192.324 95.3196C192.324 95.3196 196.558 92.3752 199.238 91.1688C201.918 89.9625 203.163 89.4358 204.436 89.3552C205.709 89.2745 205.504 89.4998 206.787 88.9103C208.069 88.3208 207.802 87.4873 208.652 88.1598C209.501 88.8323 212.514 88.5325 210.639 89.7967Z" fill="#362822" stroke="#362822" stroke-width="0.548653" stroke-miterlimit="10"/>
<path d="M206.859 116.931C206.859 116.931 201.996 117.954 198.128 118.581C194.259 119.209 187.648 116.82 185.314 115.52" stroke="#1A3447" stroke-width="0.548653" stroke-miterlimit="10"/>
<path d="M183.277 114.245C183.277 114.245 181.442 112.748 181.05 111.965" stroke="#1A3447" stroke-width="0.548653" stroke-miterlimit="10"/>
<path d="M179.776 109.876C179.776 109.876 177.45 106.625 176.543 104.384C175.636 102.143 174.579 101.305 175.066 96.4483C175.554 91.5918 177.317 89.6795 177.317 89.6795" stroke="#1A3447" stroke-width="0.548653" stroke-miterlimit="10"/>
<path d="M214.178 89.9563C214.178 89.9563 217.468 91.6638 219.404 96.0847C220.31 98.2231 220.708 100.542 220.566 102.861C220.423 105.179 219.745 107.432 218.584 109.443C216.338 113.234 207.767 119.172 200.505 121.242C193.244 123.311 185.094 122.127 179.274 117.394C173.453 112.661 173.268 104.343 172.98 103.084C172.691 101.826 172.569 93.8505 177.964 87.8993C183.358 81.9481 188.175 78.6326 195.055 77.9452C201.934 77.2578 207.861 79.5629 210.376 83.1011C212.891 86.6393 212.854 89.406 212.854 89.406L214.178 89.9563Z" stroke="#1A3447" stroke-width="0.548653" stroke-miterlimit="10"/>
<path d="M193.834 115.039C193.735 115.26 194.052 115.613 194.537 115.818C195.022 116.024 195.501 116.007 195.59 115.784C195.679 115.562 195.372 115.211 194.882 115.005C194.392 114.798 193.928 114.812 193.834 115.039Z" stroke="#1A3447" stroke-width="0.548653" stroke-miterlimit="10"/>
<path d="M207.251 83.045C207.346 82.8201 207.028 82.4704 206.541 82.2639C206.054 82.0573 205.582 82.0721 205.487 82.297C205.391 82.5218 205.709 82.8716 206.196 83.0781C206.683 83.2847 207.155 83.2698 207.251 83.045Z" stroke="#1A3447" stroke-width="0.548653" stroke-miterlimit="10"/>
<path d="M200.695 79.9891C200.495 80.4505 200.936 81.108 201.685 81.4253C202.434 81.7426 203.206 81.6136 203.404 81.1368C203.603 80.6601 203.163 80.018 202.414 79.7007C201.666 79.3834 200.889 79.5115 200.695 79.9891Z" stroke="#1A3447" stroke-width="0.548653" stroke-miterlimit="10"/>
<path d="M137.576 152.741C137.576 152.741 135.404 149.115 123.562 141.833C111.72 134.551 97.0112 129.583 92.7617 129.23C88.5123 128.876 86.076 127.436 81.1818 127.918C76.2876 128.4 74.2246 128.31 73.4596 128.955C72.6946 129.601 70.6904 130.816 70.4479 131.249C70.2054 131.682 62.815 131.831 60.1233 144.74C57.4316 157.649 63.1914 168.213 76.1885 177.802C89.1857 187.391 95.5699 192.325 111.218 194.916C126.865 197.507 135.836 190.954 141.88 185.418C147.924 179.881 148.84 168.713 146.294 162.933C144.528 159.256 141.752 156.158 138.291 154.001L137.576 152.741Z" fill="white"/>
<path d="M145.754 173.869C144.142 179.711 139.242 183.516 135.369 185.218C131.495 186.919 122.299 186.937 120.031 186.666C117.763 186.395 102.515 182.614 95.938 180.096C89.3613 177.578 82.9875 172.423 77.6566 168.964C72.3257 165.505 66.0124 158.521 62.8451 151.135C60.7104 146.132 61.8801 140.385 62.8658 137.18C61.5403 139.531 60.6105 142.085 60.1136 144.738C57.414 157.646 63.1817 168.211 76.1788 177.801C89.176 187.39 95.5602 192.324 111.208 194.915C126.855 197.506 135.826 190.953 141.87 185.416C146.489 181.184 148.108 173.659 147.474 167.765C147.046 169.314 146.474 171.382 145.754 173.869Z" fill="#362822"/>
<path d="M73.5703 134.896C73.5703 134.896 79.2551 140.986 80.1838 141.955C81.1124 142.925 84.9357 145.45 88.1475 147.838C91.3592 150.226 99.0684 154.955 107.458 159.47C115.848 163.986 125.661 170.239 127.393 171.217C129.124 172.196 131.128 174.189 131.007 176.412C130.885 178.634 124.449 183.762 126.513 184.648C128.578 185.534 132.104 182.222 132.87 180.773C133.635 179.323 133.011 177.601 134.491 177.411C135.971 177.22 138.75 179.366 138.961 178.288C139.173 177.211 135.635 174.12 135.635 174.12C133.008 171.574 130.213 169.209 127.268 167.04C123.191 164.159 121.097 164.229 116.284 160.242C111.471 156.255 107.469 152.111 103.239 149.209C100.074 147.185 96.7025 145.503 93.1819 144.192C92.5971 143.92 95.0045 147.111 90.9866 142.327C86.9687 137.543 81.1196 136.386 79.6386 135.781C78.1576 135.175 70.3484 130.11 73.5703 134.896Z" fill="#362822" stroke="#362822" stroke-width="0.908291" stroke-miterlimit="10"/>
<path d="M61.8762 143.956C61.8762 143.956 59.0649 150.127 66.7603 158.178C74.4557 166.23 77.9142 169.81 83.0315 172.414" stroke="#1A3447" stroke-width="0.908291" stroke-miterlimit="10"/>
<path d="M85.7143 174.077C91.3663 177.748 97.4455 180.715 103.817 182.911C113.585 186.105 126.198 187.139 126.198 187.139" stroke="#1A3447" stroke-width="0.908291" stroke-miterlimit="10"/>
<path d="M132 186.039C133.97 185.69 135.876 185.041 137.65 184.114C140.576 182.546 142.953 180.12 144.461 177.162" stroke="#1A3447" stroke-width="0.908291" stroke-miterlimit="10"/>
<path d="M137.576 152.741C137.576 152.741 135.404 149.115 123.562 141.833C111.72 134.551 97.0112 129.583 92.7617 129.23C88.5123 128.876 86.076 127.436 81.1818 127.918C76.2876 128.4 74.2246 128.31 73.4596 128.955C72.6946 129.601 70.6904 130.816 70.4479 131.249C70.2054 131.682 62.815 131.831 60.1233 144.74C57.4316 157.649 63.1914 168.213 76.1885 177.802C89.1857 187.391 95.5699 192.325 111.218 194.916C126.865 197.507 135.836 190.954 141.88 185.418C147.924 179.881 148.84 168.713 146.294 162.933C144.528 159.256 141.752 156.158 138.291 154.001L137.576 152.741Z" stroke="#1A3447" stroke-width="0.908291" stroke-miterlimit="10"/>
<path d="M79.2178 163.037C80.2052 163.23 81.1109 162.852 81.2407 162.19C81.3705 161.529 80.6753 160.836 79.6878 160.642C78.7004 160.448 77.7946 160.827 77.6648 161.488C77.535 162.15 78.2303 162.843 79.2178 163.037Z" stroke="#1A3447" stroke-width="0.908291" stroke-miterlimit="10"/>
<path d="M86.9462 168.524C86.8695 168.915 86.2704 169.137 85.6159 169.009C84.9614 168.88 84.4829 168.446 84.5596 168.055C84.6364 167.664 85.2354 167.442 85.8979 167.572C86.5604 167.702 87.0246 168.125 86.9462 168.524Z" stroke="#1A3447" stroke-width="0.908291" stroke-miterlimit="10"/>
<path d="M103.929 169.876C104.392 169.967 104.809 169.826 104.861 169.562C104.913 169.297 104.58 169.009 104.117 168.918C103.654 168.828 103.237 168.968 103.185 169.233C103.133 169.497 103.466 169.785 103.929 169.876Z" stroke="#1A3447" stroke-width="0.908291" stroke-miterlimit="10"/>
<path d="M141.165 160.308C141.086 160.707 140.329 160.89 139.467 160.721C138.605 160.552 137.981 160.098 138.06 159.699C138.138 159.3 138.895 159.117 139.749 159.284C140.603 159.452 141.243 159.909 141.165 160.308Z" stroke="#1A3447" stroke-width="0.908291" stroke-miterlimit="10"/>
</svg>
